M48
; DRILL file {KiCad 7.0.8} date Wed Jan  3 19:42:15 2024
; FORMAT={-:-/ absolute / inch / decimal}
; #@! TF.CreationDate,2024-01-03T19:42:15-06:00
; #@! TF.GenerationSoftware,Kicad,Pcbnew,7.0.8
; #@! TF.FileFunction,Plated,1,2,PTH
FMAT,2
INCH
; #@! TA.AperFunction,Plated,PTH,ViaDrill
T1C0.0157
%
G90
G05
T1
X5.5315Y-3.2972
X5.6004Y-3.75
X5.6201Y-3.1791
X5.6594Y-4.2126
X5.6988Y-3.1791
X5.7283Y-2.9528
X5.7441Y-3.3622
X5.7579Y-4.2323
X5.7677Y-4.0059
X5.7677Y-4.1043
X5.7776Y-3.3071
X5.7972Y-3.1988
X5.8071Y-3.878
X5.811Y-2.7795
X5.8169Y-3.3071
X5.8366Y-3.0118
X5.8504Y-2.7795
X5.8563Y-3.3071
X5.8563Y-4.1831
X5.8898Y-3.4134
X5.9331Y-3.7441
X5.935Y-3.1299
X5.9449Y-3.4646
X5.9449Y-3.626
X5.9646Y-4.311
X5.9941Y-4.1339
X6.0335Y-3.1988
X6.0335Y-3.6417
X6.0591Y-4.128
X6.063Y-3.5827
X6.0669Y-2.9606
X6.0925Y-4.0984
X6.1063Y-3.5827
X6.122Y-3.2874
X6.1319Y-4.0689
X6.1378Y-3.063
X6.1614Y-4.0945
X6.1713Y-2.7362
X6.1713Y-4.311
X6.1811Y-3.063
X6.1909Y-3.3661
X6.2047Y-4.0984
X6.2402Y-3.5925
X6.2402Y-4.0846
X6.2598Y-4.3012
X6.2795Y-2.7795
X6.2795Y-3.5335
X6.2835Y-2.9646
X6.2992Y-4.0453
X6.3937Y-2.8346
X6.3937Y-2.8819
X6.4862Y-3.3366
X6.4862Y-3.4547
X6.6142Y-3.8287
X6.6437Y-2.9429
X6.7224Y-2.8937
T0
M30
