%TF.GenerationSoftware,KiCad,Pcbnew,7.0.8*%
%TF.CreationDate,2024-01-02T21:20:11-06:00*%
%TF.ProjectId,Clock1_v3,436c6f63-6b31-45f7-9633-2e6b69636164,rev?*%
%TF.SameCoordinates,Original*%
%TF.FileFunction,Paste,Top*%
%TF.FilePolarity,Positive*%
%FSLAX46Y46*%
G04 Gerber Fmt 4.6, Leading zero omitted, Abs format (unit mm)*
G04 Created by KiCad (PCBNEW 7.0.8) date 2024-01-02 21:20:11*
%MOMM*%
%LPD*%
G01*
G04 APERTURE LIST*
G04 Aperture macros list*
%AMRoundRect*
0 Rectangle with rounded corners*
0 $1 Rounding radius*
0 $2 $3 $4 $5 $6 $7 $8 $9 X,Y pos of 4 corners*
0 Add a 4 corners polygon primitive as box body*
4,1,4,$2,$3,$4,$5,$6,$7,$8,$9,$2,$3,0*
0 Add four circle primitives for the rounded corners*
1,1,$1+$1,$2,$3*
1,1,$1+$1,$4,$5*
1,1,$1+$1,$6,$7*
1,1,$1+$1,$8,$9*
0 Add four rect primitives between the rounded corners*
20,1,$1+$1,$2,$3,$4,$5,0*
20,1,$1+$1,$4,$5,$6,$7,0*
20,1,$1+$1,$6,$7,$8,$9,0*
20,1,$1+$1,$8,$9,$2,$3,0*%
G04 Aperture macros list end*
%ADD10R,1.500000X2.000000*%
%ADD11R,3.800000X2.000000*%
%ADD12R,0.740000X2.400000*%
%ADD13R,0.300000X1.500000*%
%ADD14R,2.000000X1.500000*%
%ADD15R,1.800000X1.000000*%
%ADD16RoundRect,0.250000X0.512000X-0.250000X0.512000X0.250000X-0.512000X0.250000X-0.512000X-0.250000X0*%
%ADD17RoundRect,0.250000X-0.512000X0.250000X-0.512000X-0.250000X0.512000X-0.250000X0.512000X0.250000X0*%
%ADD18RoundRect,0.200000X0.200000X0.275000X-0.200000X0.275000X-0.200000X-0.275000X0.200000X-0.275000X0*%
%ADD19RoundRect,0.250000X-0.450000X0.262500X-0.450000X-0.262500X0.450000X-0.262500X0.450000X0.262500X0*%
%ADD20RoundRect,0.200000X0.275000X-0.200000X0.275000X0.200000X-0.275000X0.200000X-0.275000X-0.200000X0*%
%ADD21R,0.450000X0.700000*%
%ADD22R,3.000000X1.400000*%
%ADD23RoundRect,0.750000X0.750000X0.750000X-0.750000X0.750000X-0.750000X-0.750000X0.750000X-0.750000X0*%
%ADD24RoundRect,0.225000X0.225000X0.375000X-0.225000X0.375000X-0.225000X-0.375000X0.225000X-0.375000X0*%
%ADD25RoundRect,0.225000X-0.225000X-0.375000X0.225000X-0.375000X0.225000X0.375000X-0.225000X0.375000X0*%
%ADD26RoundRect,0.225000X-0.375000X0.225000X-0.375000X-0.225000X0.375000X-0.225000X0.375000X0.225000X0*%
%ADD27RoundRect,0.140000X-0.140000X-0.170000X0.140000X-0.170000X0.140000X0.170000X-0.140000X0.170000X0*%
%ADD28RoundRect,0.225000X-0.225000X-0.250000X0.225000X-0.250000X0.225000X0.250000X-0.225000X0.250000X0*%
%ADD29RoundRect,0.225000X-0.250000X0.225000X-0.250000X-0.225000X0.250000X-0.225000X0.250000X0.225000X0*%
%ADD30RoundRect,0.225000X0.225000X0.250000X-0.225000X0.250000X-0.225000X-0.250000X0.225000X-0.250000X0*%
%ADD31RoundRect,0.140000X0.140000X0.170000X-0.140000X0.170000X-0.140000X-0.170000X0.140000X-0.170000X0*%
%ADD32RoundRect,0.200000X-0.200000X-0.275000X0.200000X-0.275000X0.200000X0.275000X-0.200000X0.275000X0*%
%ADD33RoundRect,0.109200X-0.030800X-0.670800X0.030800X-0.670800X0.030800X0.670800X-0.030800X0.670800X0*%
%ADD34RoundRect,0.109200X-0.670800X0.030800X-0.670800X-0.030800X0.670800X-0.030800X0.670800X0.030800X0*%
G04 APERTURE END LIST*
D10*
%TO.C,U2*%
X164200000Y-99900000D03*
X166500000Y-99900000D03*
X168800000Y-99900000D03*
D11*
X166500000Y-93600000D03*
%TD*%
D12*
%TO.C,J2*%
X170020000Y-77100000D03*
X170020000Y-81000000D03*
X168750000Y-77100000D03*
X168750000Y-81000000D03*
X167480000Y-77100000D03*
X167480000Y-81000000D03*
X166210000Y-77100000D03*
X166210000Y-81000000D03*
X164940000Y-77100000D03*
X164940000Y-81000000D03*
%TD*%
D13*
%TO.C,U3*%
X149850000Y-106500000D03*
X150350000Y-106500000D03*
X150850000Y-106500000D03*
X151350000Y-106500000D03*
X151850000Y-106500000D03*
X152350000Y-106500000D03*
X152850000Y-106500000D03*
X153350000Y-106500000D03*
X153850000Y-106500000D03*
X154350000Y-106500000D03*
X154850000Y-106500000D03*
X155350000Y-106500000D03*
X155850000Y-106500000D03*
X156350000Y-106500000D03*
X156850000Y-106500000D03*
X157350000Y-106500000D03*
X157850000Y-106500000D03*
X158350000Y-106500000D03*
X158850000Y-106500000D03*
X159350000Y-106500000D03*
X159850000Y-106500000D03*
X160350000Y-106500000D03*
X160850000Y-106500000D03*
X161350000Y-106500000D03*
D14*
X148200000Y-109500000D03*
X163000000Y-109500000D03*
%TD*%
D15*
%TO.C,Y1*%
X164400000Y-73350000D03*
X164400000Y-70850000D03*
%TD*%
D16*
%TO.C,SW7*%
X166650000Y-90500000D03*
X166650000Y-84500000D03*
X170350000Y-90500000D03*
X170350000Y-84500000D03*
%TD*%
D17*
%TO.C,SW6*%
X144350000Y-70525000D03*
X144350000Y-76525000D03*
X140650000Y-70525000D03*
X140650000Y-76525000D03*
%TD*%
%TO.C,SW5*%
X155700000Y-70500000D03*
X155700000Y-76500000D03*
X152000000Y-70500000D03*
X152000000Y-76500000D03*
%TD*%
%TO.C,SW4*%
X150000000Y-70525000D03*
X150000000Y-76525000D03*
X146300000Y-70525000D03*
X146300000Y-76525000D03*
%TD*%
%TO.C,SW3*%
X161450000Y-70500000D03*
X161450000Y-76500000D03*
X157750000Y-70500000D03*
X157750000Y-76500000D03*
%TD*%
D18*
%TO.C,R8*%
X142125000Y-79400000D03*
X140475000Y-79400000D03*
%TD*%
D19*
%TO.C,R4*%
X144500000Y-101887500D03*
X144500000Y-103712500D03*
%TD*%
D20*
%TO.C,R2*%
X162900000Y-84425000D03*
X162900000Y-82775000D03*
%TD*%
D21*
%TO.C,Q1*%
X147600000Y-103800000D03*
X148900000Y-103800000D03*
X148250000Y-101800000D03*
%TD*%
D22*
%TO.C,L1*%
X143700000Y-97200000D03*
X143700000Y-99400000D03*
%TD*%
D23*
%TO.C,J1*%
X169000000Y-109400000D03*
X168900000Y-104500000D03*
%TD*%
D24*
%TO.C,D3*%
X157250000Y-102200000D03*
X153950000Y-102200000D03*
%TD*%
D25*
%TO.C,D2*%
X154000000Y-99700000D03*
X157300000Y-99700000D03*
%TD*%
D26*
%TO.C,D1*%
X148100000Y-96550000D03*
X148100000Y-99850000D03*
%TD*%
D27*
%TO.C,C29*%
X143840000Y-108100000D03*
X144800000Y-108100000D03*
%TD*%
%TO.C,C28*%
X143840000Y-106130000D03*
X144800000Y-106130000D03*
%TD*%
D28*
%TO.C,C27*%
X150750000Y-99300000D03*
X152300000Y-99300000D03*
%TD*%
D29*
%TO.C,C26*%
X160800000Y-97925000D03*
X160800000Y-99475000D03*
%TD*%
D28*
%TO.C,C25*%
X157050000Y-96500000D03*
X158600000Y-96500000D03*
%TD*%
%TO.C,C24*%
X153825000Y-96500000D03*
X155375000Y-96500000D03*
%TD*%
%TO.C,C23*%
X153850000Y-93700000D03*
X155400000Y-93700000D03*
%TD*%
D30*
%TO.C,C22*%
X152300000Y-93700000D03*
X150750000Y-93700000D03*
%TD*%
%TO.C,C21*%
X148600000Y-93700000D03*
X147050000Y-93700000D03*
%TD*%
%TO.C,C20*%
X152300000Y-96500000D03*
X150750000Y-96500000D03*
%TD*%
D31*
%TO.C,C5*%
X167360000Y-72400000D03*
X166400000Y-72400000D03*
%TD*%
%TO.C,C4*%
X167360000Y-73670000D03*
X166400000Y-73670000D03*
%TD*%
D28*
%TO.C,C3*%
X160350000Y-79400000D03*
X161900000Y-79400000D03*
%TD*%
%TO.C,C2*%
X140500000Y-82200000D03*
X142050000Y-82200000D03*
%TD*%
%TO.C,C1*%
X147450000Y-79400000D03*
X149000000Y-79400000D03*
%TD*%
D32*
%TO.C,R1*%
X157175000Y-93700000D03*
X158825000Y-93700000D03*
%TD*%
D28*
%TO.C,C17*%
X143500000Y-95080000D03*
X145050000Y-95080000D03*
%TD*%
%TO.C,C16*%
X143500000Y-93480000D03*
X145050000Y-93480000D03*
%TD*%
%TO.C,C15*%
X143500000Y-91880000D03*
X145050000Y-91880000D03*
%TD*%
%TO.C,C14*%
X143500000Y-90250000D03*
X145050000Y-90250000D03*
%TD*%
%TO.C,C13*%
X143925000Y-82200000D03*
X145475000Y-82200000D03*
%TD*%
%TO.C,C12*%
X143900000Y-79400000D03*
X145450000Y-79400000D03*
%TD*%
%TO.C,C11*%
X161550000Y-91300000D03*
X163100000Y-91300000D03*
%TD*%
%TO.C,C10*%
X161500000Y-88400000D03*
X163050000Y-88400000D03*
%TD*%
%TO.C,C9*%
X143625000Y-111700000D03*
X145175000Y-111700000D03*
%TD*%
%TO.C,C8*%
X143625000Y-110100000D03*
X145175000Y-110100000D03*
%TD*%
%TO.C,C7*%
X140850000Y-86700000D03*
X142400000Y-86700000D03*
%TD*%
%TO.C,C6*%
X140850000Y-85100000D03*
X142400000Y-85100000D03*
%TD*%
D33*
%TO.C,U4*%
X158200000Y-79430000D03*
X157700000Y-79430000D03*
X157200000Y-79430000D03*
X156700000Y-79430000D03*
X156200000Y-79430000D03*
X155700000Y-79430000D03*
X155200000Y-79430000D03*
X154700000Y-79430000D03*
X154200000Y-79430000D03*
X153700000Y-79430000D03*
X153200000Y-79430000D03*
X152700000Y-79430000D03*
D34*
X151270000Y-80860000D03*
X151270000Y-81360000D03*
X151270000Y-81860000D03*
X151270000Y-82360000D03*
X151270000Y-82860000D03*
X151270000Y-83360000D03*
X151270000Y-83860000D03*
X151270000Y-84360000D03*
X151270000Y-84860000D03*
X151270000Y-85360000D03*
X151270000Y-85860000D03*
X151270000Y-86360000D03*
D33*
X152700000Y-87790000D03*
X153200000Y-87790000D03*
X153700000Y-87790000D03*
X154200000Y-87790000D03*
X154700000Y-87790000D03*
X155200000Y-87790000D03*
X155700000Y-87790000D03*
X156200000Y-87790000D03*
X156700000Y-87790000D03*
X157200000Y-87790000D03*
X157700000Y-87790000D03*
X158200000Y-87790000D03*
D34*
X159630000Y-86360000D03*
X159630000Y-85860000D03*
X159630000Y-85360000D03*
X159630000Y-84860000D03*
X159630000Y-84360000D03*
X159630000Y-83860000D03*
X159630000Y-83360000D03*
X159630000Y-82860000D03*
X159630000Y-82360000D03*
X159630000Y-81860000D03*
X159630000Y-81360000D03*
X159630000Y-80860000D03*
%TD*%
M02*
