%TF.GenerationSoftware,KiCad,Pcbnew,7.0.8*%
%TF.CreationDate,2024-01-02T21:20:11-06:00*%
%TF.ProjectId,Clock1_v3,436c6f63-6b31-45f7-9633-2e6b69636164,rev?*%
%TF.SameCoordinates,Original*%
%TF.FileFunction,Legend,Top*%
%TF.FilePolarity,Positive*%
%FSLAX46Y46*%
G04 Gerber Fmt 4.6, Leading zero omitted, Abs format (unit mm)*
G04 Created by KiCad (PCBNEW 7.0.8) date 2024-01-02 21:20:11*
%MOMM*%
%LPD*%
G01*
G04 APERTURE LIST*
%ADD10C,0.153000*%
%ADD11C,0.160000*%
%ADD12C,0.254000*%
%ADD13C,0.120000*%
%ADD14C,0.100000*%
%ADD15C,0.127000*%
%ADD16C,0.200000*%
G04 APERTURE END LIST*
D10*
X166119663Y-88589819D02*
X165643472Y-88923152D01*
X166119663Y-89161247D02*
X165119663Y-89161247D01*
X165119663Y-89161247D02*
X165119663Y-88780295D01*
X165119663Y-88780295D02*
X165167282Y-88685057D01*
X165167282Y-88685057D02*
X165214901Y-88637438D01*
X165214901Y-88637438D02*
X165310139Y-88589819D01*
X165310139Y-88589819D02*
X165452996Y-88589819D01*
X165452996Y-88589819D02*
X165548234Y-88637438D01*
X165548234Y-88637438D02*
X165595853Y-88685057D01*
X165595853Y-88685057D02*
X165643472Y-88780295D01*
X165643472Y-88780295D02*
X165643472Y-89161247D01*
X166072044Y-87780295D02*
X166119663Y-87875533D01*
X166119663Y-87875533D02*
X166119663Y-88066009D01*
X166119663Y-88066009D02*
X166072044Y-88161247D01*
X166072044Y-88161247D02*
X165976805Y-88208866D01*
X165976805Y-88208866D02*
X165595853Y-88208866D01*
X165595853Y-88208866D02*
X165500615Y-88161247D01*
X165500615Y-88161247D02*
X165452996Y-88066009D01*
X165452996Y-88066009D02*
X165452996Y-87875533D01*
X165452996Y-87875533D02*
X165500615Y-87780295D01*
X165500615Y-87780295D02*
X165595853Y-87732676D01*
X165595853Y-87732676D02*
X165691091Y-87732676D01*
X165691091Y-87732676D02*
X165786329Y-88208866D01*
X166072044Y-87351723D02*
X166119663Y-87256485D01*
X166119663Y-87256485D02*
X166119663Y-87066009D01*
X166119663Y-87066009D02*
X166072044Y-86970771D01*
X166072044Y-86970771D02*
X165976805Y-86923152D01*
X165976805Y-86923152D02*
X165929186Y-86923152D01*
X165929186Y-86923152D02*
X165833948Y-86970771D01*
X165833948Y-86970771D02*
X165786329Y-87066009D01*
X165786329Y-87066009D02*
X165786329Y-87208866D01*
X165786329Y-87208866D02*
X165738710Y-87304104D01*
X165738710Y-87304104D02*
X165643472Y-87351723D01*
X165643472Y-87351723D02*
X165595853Y-87351723D01*
X165595853Y-87351723D02*
X165500615Y-87304104D01*
X165500615Y-87304104D02*
X165452996Y-87208866D01*
X165452996Y-87208866D02*
X165452996Y-87066009D01*
X165452996Y-87066009D02*
X165500615Y-86970771D01*
X166072044Y-86113628D02*
X166119663Y-86208866D01*
X166119663Y-86208866D02*
X166119663Y-86399342D01*
X166119663Y-86399342D02*
X166072044Y-86494580D01*
X166072044Y-86494580D02*
X165976805Y-86542199D01*
X165976805Y-86542199D02*
X165595853Y-86542199D01*
X165595853Y-86542199D02*
X165500615Y-86494580D01*
X165500615Y-86494580D02*
X165452996Y-86399342D01*
X165452996Y-86399342D02*
X165452996Y-86208866D01*
X165452996Y-86208866D02*
X165500615Y-86113628D01*
X165500615Y-86113628D02*
X165595853Y-86066009D01*
X165595853Y-86066009D02*
X165691091Y-86066009D01*
X165691091Y-86066009D02*
X165786329Y-86542199D01*
X165452996Y-85780294D02*
X165452996Y-85399342D01*
X165119663Y-85637437D02*
X165976805Y-85637437D01*
X165976805Y-85637437D02*
X166072044Y-85589818D01*
X166072044Y-85589818D02*
X166119663Y-85494580D01*
X166119663Y-85494580D02*
X166119663Y-85399342D01*
D11*
X170250000Y-75250000D02*
G75*
G03*
X170250000Y-75250000I-250000J0D01*
G01*
D10*
X140119663Y-111261247D02*
X139119663Y-111261247D01*
X139119663Y-111261247D02*
X140119663Y-110689819D01*
X140119663Y-110689819D02*
X139119663Y-110689819D01*
X140119663Y-110070771D02*
X140072044Y-110166009D01*
X140072044Y-110166009D02*
X140024424Y-110213628D01*
X140024424Y-110213628D02*
X139929186Y-110261247D01*
X139929186Y-110261247D02*
X139643472Y-110261247D01*
X139643472Y-110261247D02*
X139548234Y-110213628D01*
X139548234Y-110213628D02*
X139500615Y-110166009D01*
X139500615Y-110166009D02*
X139452996Y-110070771D01*
X139452996Y-110070771D02*
X139452996Y-109927914D01*
X139452996Y-109927914D02*
X139500615Y-109832676D01*
X139500615Y-109832676D02*
X139548234Y-109785057D01*
X139548234Y-109785057D02*
X139643472Y-109737438D01*
X139643472Y-109737438D02*
X139929186Y-109737438D01*
X139929186Y-109737438D02*
X140024424Y-109785057D01*
X140024424Y-109785057D02*
X140072044Y-109832676D01*
X140072044Y-109832676D02*
X140119663Y-109927914D01*
X140119663Y-109927914D02*
X140119663Y-110070771D01*
X140119663Y-108880295D02*
X139595853Y-108880295D01*
X139595853Y-108880295D02*
X139500615Y-108927914D01*
X139500615Y-108927914D02*
X139452996Y-109023152D01*
X139452996Y-109023152D02*
X139452996Y-109213628D01*
X139452996Y-109213628D02*
X139500615Y-109308866D01*
X140072044Y-108880295D02*
X140119663Y-108975533D01*
X140119663Y-108975533D02*
X140119663Y-109213628D01*
X140119663Y-109213628D02*
X140072044Y-109308866D01*
X140072044Y-109308866D02*
X139976805Y-109356485D01*
X139976805Y-109356485D02*
X139881567Y-109356485D01*
X139881567Y-109356485D02*
X139786329Y-109308866D01*
X139786329Y-109308866D02*
X139738710Y-109213628D01*
X139738710Y-109213628D02*
X139738710Y-108975533D01*
X139738710Y-108975533D02*
X139691091Y-108880295D01*
X140119663Y-108404104D02*
X139119663Y-108404104D01*
X140119663Y-107975533D02*
X139595853Y-107975533D01*
X139595853Y-107975533D02*
X139500615Y-108023152D01*
X139500615Y-108023152D02*
X139452996Y-108118390D01*
X139452996Y-108118390D02*
X139452996Y-108261247D01*
X139452996Y-108261247D02*
X139500615Y-108356485D01*
X139500615Y-108356485D02*
X139548234Y-108404104D01*
X140119663Y-106737437D02*
X139119663Y-106737437D01*
X139119663Y-106737437D02*
X139833948Y-106404104D01*
X139833948Y-106404104D02*
X139119663Y-106070771D01*
X139119663Y-106070771D02*
X140119663Y-106070771D01*
X140072044Y-105213628D02*
X140119663Y-105308866D01*
X140119663Y-105308866D02*
X140119663Y-105499342D01*
X140119663Y-105499342D02*
X140072044Y-105594580D01*
X140072044Y-105594580D02*
X139976805Y-105642199D01*
X139976805Y-105642199D02*
X139595853Y-105642199D01*
X139595853Y-105642199D02*
X139500615Y-105594580D01*
X139500615Y-105594580D02*
X139452996Y-105499342D01*
X139452996Y-105499342D02*
X139452996Y-105308866D01*
X139452996Y-105308866D02*
X139500615Y-105213628D01*
X139500615Y-105213628D02*
X139595853Y-105166009D01*
X139595853Y-105166009D02*
X139691091Y-105166009D01*
X139691091Y-105166009D02*
X139786329Y-105642199D01*
X140119663Y-104594580D02*
X140072044Y-104689818D01*
X140072044Y-104689818D02*
X139976805Y-104737437D01*
X139976805Y-104737437D02*
X139119663Y-104737437D01*
X139452996Y-104356484D02*
X139452996Y-103975532D01*
X139119663Y-104213627D02*
X139976805Y-104213627D01*
X139976805Y-104213627D02*
X140072044Y-104166008D01*
X140072044Y-104166008D02*
X140119663Y-104070770D01*
X140119663Y-104070770D02*
X140119663Y-103975532D01*
X139452996Y-103737436D02*
X139452996Y-103213627D01*
X139452996Y-103213627D02*
X140119663Y-103737436D01*
X140119663Y-103737436D02*
X140119663Y-103213627D01*
X140072044Y-102451722D02*
X140119663Y-102546960D01*
X140119663Y-102546960D02*
X140119663Y-102737436D01*
X140119663Y-102737436D02*
X140072044Y-102832674D01*
X140072044Y-102832674D02*
X139976805Y-102880293D01*
X139976805Y-102880293D02*
X139595853Y-102880293D01*
X139595853Y-102880293D02*
X139500615Y-102832674D01*
X139500615Y-102832674D02*
X139452996Y-102737436D01*
X139452996Y-102737436D02*
X139452996Y-102546960D01*
X139452996Y-102546960D02*
X139500615Y-102451722D01*
X139500615Y-102451722D02*
X139595853Y-102404103D01*
X139595853Y-102404103D02*
X139691091Y-102404103D01*
X139691091Y-102404103D02*
X139786329Y-102880293D01*
X140119663Y-101975531D02*
X139452996Y-101975531D01*
X139643472Y-101975531D02*
X139548234Y-101927912D01*
X139548234Y-101927912D02*
X139500615Y-101880293D01*
X139500615Y-101880293D02*
X139452996Y-101785055D01*
X139452996Y-101785055D02*
X139452996Y-101689817D01*
X161454663Y-97511904D02*
X162264186Y-97511904D01*
X162264186Y-97511904D02*
X162359424Y-97464285D01*
X162359424Y-97464285D02*
X162407044Y-97416666D01*
X162407044Y-97416666D02*
X162454663Y-97321428D01*
X162454663Y-97321428D02*
X162454663Y-97130952D01*
X162454663Y-97130952D02*
X162407044Y-97035714D01*
X162407044Y-97035714D02*
X162359424Y-96988095D01*
X162359424Y-96988095D02*
X162264186Y-96940476D01*
X162264186Y-96940476D02*
X161454663Y-96940476D01*
X161549901Y-96511904D02*
X161502282Y-96464285D01*
X161502282Y-96464285D02*
X161454663Y-96369047D01*
X161454663Y-96369047D02*
X161454663Y-96130952D01*
X161454663Y-96130952D02*
X161502282Y-96035714D01*
X161502282Y-96035714D02*
X161549901Y-95988095D01*
X161549901Y-95988095D02*
X161645139Y-95940476D01*
X161645139Y-95940476D02*
X161740377Y-95940476D01*
X161740377Y-95940476D02*
X161883234Y-95988095D01*
X161883234Y-95988095D02*
X162454663Y-96559523D01*
X162454663Y-96559523D02*
X162454663Y-95940476D01*
X167146666Y-74269663D02*
X167146666Y-74983948D01*
X167146666Y-74983948D02*
X167099047Y-75126805D01*
X167099047Y-75126805D02*
X167003809Y-75222044D01*
X167003809Y-75222044D02*
X166860952Y-75269663D01*
X166860952Y-75269663D02*
X166765714Y-75269663D01*
X167575238Y-74364901D02*
X167622857Y-74317282D01*
X167622857Y-74317282D02*
X167718095Y-74269663D01*
X167718095Y-74269663D02*
X167956190Y-74269663D01*
X167956190Y-74269663D02*
X168051428Y-74317282D01*
X168051428Y-74317282D02*
X168099047Y-74364901D01*
X168099047Y-74364901D02*
X168146666Y-74460139D01*
X168146666Y-74460139D02*
X168146666Y-74555377D01*
X168146666Y-74555377D02*
X168099047Y-74698234D01*
X168099047Y-74698234D02*
X167527619Y-75269663D01*
X167527619Y-75269663D02*
X168146666Y-75269663D01*
D12*
X154632380Y-108379318D02*
X154632380Y-109407413D01*
X154632380Y-109407413D02*
X154692857Y-109528365D01*
X154692857Y-109528365D02*
X154753333Y-109588842D01*
X154753333Y-109588842D02*
X154874285Y-109649318D01*
X154874285Y-109649318D02*
X155116190Y-109649318D01*
X155116190Y-109649318D02*
X155237142Y-109588842D01*
X155237142Y-109588842D02*
X155297619Y-109528365D01*
X155297619Y-109528365D02*
X155358095Y-109407413D01*
X155358095Y-109407413D02*
X155358095Y-108379318D01*
X155841904Y-108379318D02*
X156628095Y-108379318D01*
X156628095Y-108379318D02*
X156204761Y-108863127D01*
X156204761Y-108863127D02*
X156386190Y-108863127D01*
X156386190Y-108863127D02*
X156507142Y-108923603D01*
X156507142Y-108923603D02*
X156567618Y-108984080D01*
X156567618Y-108984080D02*
X156628095Y-109105032D01*
X156628095Y-109105032D02*
X156628095Y-109407413D01*
X156628095Y-109407413D02*
X156567618Y-109528365D01*
X156567618Y-109528365D02*
X156507142Y-109588842D01*
X156507142Y-109588842D02*
X156386190Y-109649318D01*
X156386190Y-109649318D02*
X156023333Y-109649318D01*
X156023333Y-109649318D02*
X155902380Y-109588842D01*
X155902380Y-109588842D02*
X155841904Y-109528365D01*
D10*
X166178472Y-71076190D02*
X166654663Y-71076190D01*
X165654663Y-71409523D02*
X166178472Y-71076190D01*
X166178472Y-71076190D02*
X165654663Y-70742857D01*
X166654663Y-69885714D02*
X166654663Y-70457142D01*
X166654663Y-70171428D02*
X165654663Y-70171428D01*
X165654663Y-70171428D02*
X165797520Y-70266666D01*
X165797520Y-70266666D02*
X165892758Y-70361904D01*
X165892758Y-70361904D02*
X165940377Y-70457142D01*
X171507044Y-88933332D02*
X171554663Y-88790475D01*
X171554663Y-88790475D02*
X171554663Y-88552380D01*
X171554663Y-88552380D02*
X171507044Y-88457142D01*
X171507044Y-88457142D02*
X171459424Y-88409523D01*
X171459424Y-88409523D02*
X171364186Y-88361904D01*
X171364186Y-88361904D02*
X171268948Y-88361904D01*
X171268948Y-88361904D02*
X171173710Y-88409523D01*
X171173710Y-88409523D02*
X171126091Y-88457142D01*
X171126091Y-88457142D02*
X171078472Y-88552380D01*
X171078472Y-88552380D02*
X171030853Y-88742856D01*
X171030853Y-88742856D02*
X170983234Y-88838094D01*
X170983234Y-88838094D02*
X170935615Y-88885713D01*
X170935615Y-88885713D02*
X170840377Y-88933332D01*
X170840377Y-88933332D02*
X170745139Y-88933332D01*
X170745139Y-88933332D02*
X170649901Y-88885713D01*
X170649901Y-88885713D02*
X170602282Y-88838094D01*
X170602282Y-88838094D02*
X170554663Y-88742856D01*
X170554663Y-88742856D02*
X170554663Y-88504761D01*
X170554663Y-88504761D02*
X170602282Y-88361904D01*
X170554663Y-88028570D02*
X171554663Y-87790475D01*
X171554663Y-87790475D02*
X170840377Y-87599999D01*
X170840377Y-87599999D02*
X171554663Y-87409523D01*
X171554663Y-87409523D02*
X170554663Y-87171428D01*
X170554663Y-86885713D02*
X170554663Y-86219047D01*
X170554663Y-86219047D02*
X171554663Y-86647618D01*
X141166667Y-69657044D02*
X141309524Y-69704663D01*
X141309524Y-69704663D02*
X141547619Y-69704663D01*
X141547619Y-69704663D02*
X141642857Y-69657044D01*
X141642857Y-69657044D02*
X141690476Y-69609424D01*
X141690476Y-69609424D02*
X141738095Y-69514186D01*
X141738095Y-69514186D02*
X141738095Y-69418948D01*
X141738095Y-69418948D02*
X141690476Y-69323710D01*
X141690476Y-69323710D02*
X141642857Y-69276091D01*
X141642857Y-69276091D02*
X141547619Y-69228472D01*
X141547619Y-69228472D02*
X141357143Y-69180853D01*
X141357143Y-69180853D02*
X141261905Y-69133234D01*
X141261905Y-69133234D02*
X141214286Y-69085615D01*
X141214286Y-69085615D02*
X141166667Y-68990377D01*
X141166667Y-68990377D02*
X141166667Y-68895139D01*
X141166667Y-68895139D02*
X141214286Y-68799901D01*
X141214286Y-68799901D02*
X141261905Y-68752282D01*
X141261905Y-68752282D02*
X141357143Y-68704663D01*
X141357143Y-68704663D02*
X141595238Y-68704663D01*
X141595238Y-68704663D02*
X141738095Y-68752282D01*
X142071429Y-68704663D02*
X142309524Y-69704663D01*
X142309524Y-69704663D02*
X142500000Y-68990377D01*
X142500000Y-68990377D02*
X142690476Y-69704663D01*
X142690476Y-69704663D02*
X142928572Y-68704663D01*
X143738095Y-68704663D02*
X143547619Y-68704663D01*
X143547619Y-68704663D02*
X143452381Y-68752282D01*
X143452381Y-68752282D02*
X143404762Y-68799901D01*
X143404762Y-68799901D02*
X143309524Y-68942758D01*
X143309524Y-68942758D02*
X143261905Y-69133234D01*
X143261905Y-69133234D02*
X143261905Y-69514186D01*
X143261905Y-69514186D02*
X143309524Y-69609424D01*
X143309524Y-69609424D02*
X143357143Y-69657044D01*
X143357143Y-69657044D02*
X143452381Y-69704663D01*
X143452381Y-69704663D02*
X143642857Y-69704663D01*
X143642857Y-69704663D02*
X143738095Y-69657044D01*
X143738095Y-69657044D02*
X143785714Y-69609424D01*
X143785714Y-69609424D02*
X143833333Y-69514186D01*
X143833333Y-69514186D02*
X143833333Y-69276091D01*
X143833333Y-69276091D02*
X143785714Y-69180853D01*
X143785714Y-69180853D02*
X143738095Y-69133234D01*
X143738095Y-69133234D02*
X143642857Y-69085615D01*
X143642857Y-69085615D02*
X143452381Y-69085615D01*
X143452381Y-69085615D02*
X143357143Y-69133234D01*
X143357143Y-69133234D02*
X143309524Y-69180853D01*
X143309524Y-69180853D02*
X143261905Y-69276091D01*
X152516667Y-69657044D02*
X152659524Y-69704663D01*
X152659524Y-69704663D02*
X152897619Y-69704663D01*
X152897619Y-69704663D02*
X152992857Y-69657044D01*
X152992857Y-69657044D02*
X153040476Y-69609424D01*
X153040476Y-69609424D02*
X153088095Y-69514186D01*
X153088095Y-69514186D02*
X153088095Y-69418948D01*
X153088095Y-69418948D02*
X153040476Y-69323710D01*
X153040476Y-69323710D02*
X152992857Y-69276091D01*
X152992857Y-69276091D02*
X152897619Y-69228472D01*
X152897619Y-69228472D02*
X152707143Y-69180853D01*
X152707143Y-69180853D02*
X152611905Y-69133234D01*
X152611905Y-69133234D02*
X152564286Y-69085615D01*
X152564286Y-69085615D02*
X152516667Y-68990377D01*
X152516667Y-68990377D02*
X152516667Y-68895139D01*
X152516667Y-68895139D02*
X152564286Y-68799901D01*
X152564286Y-68799901D02*
X152611905Y-68752282D01*
X152611905Y-68752282D02*
X152707143Y-68704663D01*
X152707143Y-68704663D02*
X152945238Y-68704663D01*
X152945238Y-68704663D02*
X153088095Y-68752282D01*
X153421429Y-68704663D02*
X153659524Y-69704663D01*
X153659524Y-69704663D02*
X153850000Y-68990377D01*
X153850000Y-68990377D02*
X154040476Y-69704663D01*
X154040476Y-69704663D02*
X154278572Y-68704663D01*
X155135714Y-68704663D02*
X154659524Y-68704663D01*
X154659524Y-68704663D02*
X154611905Y-69180853D01*
X154611905Y-69180853D02*
X154659524Y-69133234D01*
X154659524Y-69133234D02*
X154754762Y-69085615D01*
X154754762Y-69085615D02*
X154992857Y-69085615D01*
X154992857Y-69085615D02*
X155088095Y-69133234D01*
X155088095Y-69133234D02*
X155135714Y-69180853D01*
X155135714Y-69180853D02*
X155183333Y-69276091D01*
X155183333Y-69276091D02*
X155183333Y-69514186D01*
X155183333Y-69514186D02*
X155135714Y-69609424D01*
X155135714Y-69609424D02*
X155088095Y-69657044D01*
X155088095Y-69657044D02*
X154992857Y-69704663D01*
X154992857Y-69704663D02*
X154754762Y-69704663D01*
X154754762Y-69704663D02*
X154659524Y-69657044D01*
X154659524Y-69657044D02*
X154611905Y-69609424D01*
X146666667Y-69657044D02*
X146809524Y-69704663D01*
X146809524Y-69704663D02*
X147047619Y-69704663D01*
X147047619Y-69704663D02*
X147142857Y-69657044D01*
X147142857Y-69657044D02*
X147190476Y-69609424D01*
X147190476Y-69609424D02*
X147238095Y-69514186D01*
X147238095Y-69514186D02*
X147238095Y-69418948D01*
X147238095Y-69418948D02*
X147190476Y-69323710D01*
X147190476Y-69323710D02*
X147142857Y-69276091D01*
X147142857Y-69276091D02*
X147047619Y-69228472D01*
X147047619Y-69228472D02*
X146857143Y-69180853D01*
X146857143Y-69180853D02*
X146761905Y-69133234D01*
X146761905Y-69133234D02*
X146714286Y-69085615D01*
X146714286Y-69085615D02*
X146666667Y-68990377D01*
X146666667Y-68990377D02*
X146666667Y-68895139D01*
X146666667Y-68895139D02*
X146714286Y-68799901D01*
X146714286Y-68799901D02*
X146761905Y-68752282D01*
X146761905Y-68752282D02*
X146857143Y-68704663D01*
X146857143Y-68704663D02*
X147095238Y-68704663D01*
X147095238Y-68704663D02*
X147238095Y-68752282D01*
X147571429Y-68704663D02*
X147809524Y-69704663D01*
X147809524Y-69704663D02*
X148000000Y-68990377D01*
X148000000Y-68990377D02*
X148190476Y-69704663D01*
X148190476Y-69704663D02*
X148428572Y-68704663D01*
X149238095Y-69037996D02*
X149238095Y-69704663D01*
X149000000Y-68657044D02*
X148761905Y-69371329D01*
X148761905Y-69371329D02*
X149380952Y-69371329D01*
X158166667Y-69657044D02*
X158309524Y-69704663D01*
X158309524Y-69704663D02*
X158547619Y-69704663D01*
X158547619Y-69704663D02*
X158642857Y-69657044D01*
X158642857Y-69657044D02*
X158690476Y-69609424D01*
X158690476Y-69609424D02*
X158738095Y-69514186D01*
X158738095Y-69514186D02*
X158738095Y-69418948D01*
X158738095Y-69418948D02*
X158690476Y-69323710D01*
X158690476Y-69323710D02*
X158642857Y-69276091D01*
X158642857Y-69276091D02*
X158547619Y-69228472D01*
X158547619Y-69228472D02*
X158357143Y-69180853D01*
X158357143Y-69180853D02*
X158261905Y-69133234D01*
X158261905Y-69133234D02*
X158214286Y-69085615D01*
X158214286Y-69085615D02*
X158166667Y-68990377D01*
X158166667Y-68990377D02*
X158166667Y-68895139D01*
X158166667Y-68895139D02*
X158214286Y-68799901D01*
X158214286Y-68799901D02*
X158261905Y-68752282D01*
X158261905Y-68752282D02*
X158357143Y-68704663D01*
X158357143Y-68704663D02*
X158595238Y-68704663D01*
X158595238Y-68704663D02*
X158738095Y-68752282D01*
X159071429Y-68704663D02*
X159309524Y-69704663D01*
X159309524Y-69704663D02*
X159500000Y-68990377D01*
X159500000Y-68990377D02*
X159690476Y-69704663D01*
X159690476Y-69704663D02*
X159928572Y-68704663D01*
X160214286Y-68704663D02*
X160833333Y-68704663D01*
X160833333Y-68704663D02*
X160500000Y-69085615D01*
X160500000Y-69085615D02*
X160642857Y-69085615D01*
X160642857Y-69085615D02*
X160738095Y-69133234D01*
X160738095Y-69133234D02*
X160785714Y-69180853D01*
X160785714Y-69180853D02*
X160833333Y-69276091D01*
X160833333Y-69276091D02*
X160833333Y-69514186D01*
X160833333Y-69514186D02*
X160785714Y-69609424D01*
X160785714Y-69609424D02*
X160738095Y-69657044D01*
X160738095Y-69657044D02*
X160642857Y-69704663D01*
X160642857Y-69704663D02*
X160357143Y-69704663D01*
X160357143Y-69704663D02*
X160261905Y-69657044D01*
X160261905Y-69657044D02*
X160214286Y-69609424D01*
X141133333Y-78454663D02*
X140800000Y-77978472D01*
X140561905Y-78454663D02*
X140561905Y-77454663D01*
X140561905Y-77454663D02*
X140942857Y-77454663D01*
X140942857Y-77454663D02*
X141038095Y-77502282D01*
X141038095Y-77502282D02*
X141085714Y-77549901D01*
X141085714Y-77549901D02*
X141133333Y-77645139D01*
X141133333Y-77645139D02*
X141133333Y-77787996D01*
X141133333Y-77787996D02*
X141085714Y-77883234D01*
X141085714Y-77883234D02*
X141038095Y-77930853D01*
X141038095Y-77930853D02*
X140942857Y-77978472D01*
X140942857Y-77978472D02*
X140561905Y-77978472D01*
X141704762Y-77883234D02*
X141609524Y-77835615D01*
X141609524Y-77835615D02*
X141561905Y-77787996D01*
X141561905Y-77787996D02*
X141514286Y-77692758D01*
X141514286Y-77692758D02*
X141514286Y-77645139D01*
X141514286Y-77645139D02*
X141561905Y-77549901D01*
X141561905Y-77549901D02*
X141609524Y-77502282D01*
X141609524Y-77502282D02*
X141704762Y-77454663D01*
X141704762Y-77454663D02*
X141895238Y-77454663D01*
X141895238Y-77454663D02*
X141990476Y-77502282D01*
X141990476Y-77502282D02*
X142038095Y-77549901D01*
X142038095Y-77549901D02*
X142085714Y-77645139D01*
X142085714Y-77645139D02*
X142085714Y-77692758D01*
X142085714Y-77692758D02*
X142038095Y-77787996D01*
X142038095Y-77787996D02*
X141990476Y-77835615D01*
X141990476Y-77835615D02*
X141895238Y-77883234D01*
X141895238Y-77883234D02*
X141704762Y-77883234D01*
X141704762Y-77883234D02*
X141609524Y-77930853D01*
X141609524Y-77930853D02*
X141561905Y-77978472D01*
X141561905Y-77978472D02*
X141514286Y-78073710D01*
X141514286Y-78073710D02*
X141514286Y-78264186D01*
X141514286Y-78264186D02*
X141561905Y-78359424D01*
X141561905Y-78359424D02*
X141609524Y-78407044D01*
X141609524Y-78407044D02*
X141704762Y-78454663D01*
X141704762Y-78454663D02*
X141895238Y-78454663D01*
X141895238Y-78454663D02*
X141990476Y-78407044D01*
X141990476Y-78407044D02*
X142038095Y-78359424D01*
X142038095Y-78359424D02*
X142085714Y-78264186D01*
X142085714Y-78264186D02*
X142085714Y-78073710D01*
X142085714Y-78073710D02*
X142038095Y-77978472D01*
X142038095Y-77978472D02*
X141990476Y-77930853D01*
X141990476Y-77930853D02*
X141895238Y-77883234D01*
X143354663Y-103066666D02*
X142878472Y-103399999D01*
X143354663Y-103638094D02*
X142354663Y-103638094D01*
X142354663Y-103638094D02*
X142354663Y-103257142D01*
X142354663Y-103257142D02*
X142402282Y-103161904D01*
X142402282Y-103161904D02*
X142449901Y-103114285D01*
X142449901Y-103114285D02*
X142545139Y-103066666D01*
X142545139Y-103066666D02*
X142687996Y-103066666D01*
X142687996Y-103066666D02*
X142783234Y-103114285D01*
X142783234Y-103114285D02*
X142830853Y-103161904D01*
X142830853Y-103161904D02*
X142878472Y-103257142D01*
X142878472Y-103257142D02*
X142878472Y-103638094D01*
X142687996Y-102209523D02*
X143354663Y-102209523D01*
X142307044Y-102447618D02*
X143021329Y-102685713D01*
X143021329Y-102685713D02*
X143021329Y-102066666D01*
X161924663Y-83766666D02*
X161448472Y-84099999D01*
X161924663Y-84338094D02*
X160924663Y-84338094D01*
X160924663Y-84338094D02*
X160924663Y-83957142D01*
X160924663Y-83957142D02*
X160972282Y-83861904D01*
X160972282Y-83861904D02*
X161019901Y-83814285D01*
X161019901Y-83814285D02*
X161115139Y-83766666D01*
X161115139Y-83766666D02*
X161257996Y-83766666D01*
X161257996Y-83766666D02*
X161353234Y-83814285D01*
X161353234Y-83814285D02*
X161400853Y-83861904D01*
X161400853Y-83861904D02*
X161448472Y-83957142D01*
X161448472Y-83957142D02*
X161448472Y-84338094D01*
X161019901Y-83385713D02*
X160972282Y-83338094D01*
X160972282Y-83338094D02*
X160924663Y-83242856D01*
X160924663Y-83242856D02*
X160924663Y-83004761D01*
X160924663Y-83004761D02*
X160972282Y-82909523D01*
X160972282Y-82909523D02*
X161019901Y-82861904D01*
X161019901Y-82861904D02*
X161115139Y-82814285D01*
X161115139Y-82814285D02*
X161210377Y-82814285D01*
X161210377Y-82814285D02*
X161353234Y-82861904D01*
X161353234Y-82861904D02*
X161924663Y-83433332D01*
X161924663Y-83433332D02*
X161924663Y-82814285D01*
X146849901Y-102945238D02*
X146802282Y-103040476D01*
X146802282Y-103040476D02*
X146707044Y-103135714D01*
X146707044Y-103135714D02*
X146564186Y-103278571D01*
X146564186Y-103278571D02*
X146516567Y-103373809D01*
X146516567Y-103373809D02*
X146516567Y-103469047D01*
X146754663Y-103421428D02*
X146707044Y-103516666D01*
X146707044Y-103516666D02*
X146611805Y-103611904D01*
X146611805Y-103611904D02*
X146421329Y-103659523D01*
X146421329Y-103659523D02*
X146087996Y-103659523D01*
X146087996Y-103659523D02*
X145897520Y-103611904D01*
X145897520Y-103611904D02*
X145802282Y-103516666D01*
X145802282Y-103516666D02*
X145754663Y-103421428D01*
X145754663Y-103421428D02*
X145754663Y-103230952D01*
X145754663Y-103230952D02*
X145802282Y-103135714D01*
X145802282Y-103135714D02*
X145897520Y-103040476D01*
X145897520Y-103040476D02*
X146087996Y-102992857D01*
X146087996Y-102992857D02*
X146421329Y-102992857D01*
X146421329Y-102992857D02*
X146611805Y-103040476D01*
X146611805Y-103040476D02*
X146707044Y-103135714D01*
X146707044Y-103135714D02*
X146754663Y-103230952D01*
X146754663Y-103230952D02*
X146754663Y-103421428D01*
X146754663Y-102040476D02*
X146754663Y-102611904D01*
X146754663Y-102326190D02*
X145754663Y-102326190D01*
X145754663Y-102326190D02*
X145897520Y-102421428D01*
X145897520Y-102421428D02*
X145992758Y-102516666D01*
X145992758Y-102516666D02*
X146040377Y-102611904D01*
X141754663Y-98566666D02*
X141754663Y-99042856D01*
X141754663Y-99042856D02*
X140754663Y-99042856D01*
X141754663Y-97709523D02*
X141754663Y-98280951D01*
X141754663Y-97995237D02*
X140754663Y-97995237D01*
X140754663Y-97995237D02*
X140897520Y-98090475D01*
X140897520Y-98090475D02*
X140992758Y-98185713D01*
X140992758Y-98185713D02*
X141040377Y-98280951D01*
X166354663Y-107333333D02*
X167068948Y-107333333D01*
X167068948Y-107333333D02*
X167211805Y-107380952D01*
X167211805Y-107380952D02*
X167307044Y-107476190D01*
X167307044Y-107476190D02*
X167354663Y-107619047D01*
X167354663Y-107619047D02*
X167354663Y-107714285D01*
X167354663Y-106333333D02*
X167354663Y-106904761D01*
X167354663Y-106619047D02*
X166354663Y-106619047D01*
X166354663Y-106619047D02*
X166497520Y-106714285D01*
X166497520Y-106714285D02*
X166592758Y-106809523D01*
X166592758Y-106809523D02*
X166640377Y-106904761D01*
X158211905Y-102654663D02*
X158211905Y-101654663D01*
X158211905Y-101654663D02*
X158450000Y-101654663D01*
X158450000Y-101654663D02*
X158592857Y-101702282D01*
X158592857Y-101702282D02*
X158688095Y-101797520D01*
X158688095Y-101797520D02*
X158735714Y-101892758D01*
X158735714Y-101892758D02*
X158783333Y-102083234D01*
X158783333Y-102083234D02*
X158783333Y-102226091D01*
X158783333Y-102226091D02*
X158735714Y-102416567D01*
X158735714Y-102416567D02*
X158688095Y-102511805D01*
X158688095Y-102511805D02*
X158592857Y-102607044D01*
X158592857Y-102607044D02*
X158450000Y-102654663D01*
X158450000Y-102654663D02*
X158211905Y-102654663D01*
X159116667Y-101654663D02*
X159735714Y-101654663D01*
X159735714Y-101654663D02*
X159402381Y-102035615D01*
X159402381Y-102035615D02*
X159545238Y-102035615D01*
X159545238Y-102035615D02*
X159640476Y-102083234D01*
X159640476Y-102083234D02*
X159688095Y-102130853D01*
X159688095Y-102130853D02*
X159735714Y-102226091D01*
X159735714Y-102226091D02*
X159735714Y-102464186D01*
X159735714Y-102464186D02*
X159688095Y-102559424D01*
X159688095Y-102559424D02*
X159640476Y-102607044D01*
X159640476Y-102607044D02*
X159545238Y-102654663D01*
X159545238Y-102654663D02*
X159259524Y-102654663D01*
X159259524Y-102654663D02*
X159164286Y-102607044D01*
X159164286Y-102607044D02*
X159116667Y-102559424D01*
X158261905Y-100154663D02*
X158261905Y-99154663D01*
X158261905Y-99154663D02*
X158500000Y-99154663D01*
X158500000Y-99154663D02*
X158642857Y-99202282D01*
X158642857Y-99202282D02*
X158738095Y-99297520D01*
X158738095Y-99297520D02*
X158785714Y-99392758D01*
X158785714Y-99392758D02*
X158833333Y-99583234D01*
X158833333Y-99583234D02*
X158833333Y-99726091D01*
X158833333Y-99726091D02*
X158785714Y-99916567D01*
X158785714Y-99916567D02*
X158738095Y-100011805D01*
X158738095Y-100011805D02*
X158642857Y-100107044D01*
X158642857Y-100107044D02*
X158500000Y-100154663D01*
X158500000Y-100154663D02*
X158261905Y-100154663D01*
X159214286Y-99249901D02*
X159261905Y-99202282D01*
X159261905Y-99202282D02*
X159357143Y-99154663D01*
X159357143Y-99154663D02*
X159595238Y-99154663D01*
X159595238Y-99154663D02*
X159690476Y-99202282D01*
X159690476Y-99202282D02*
X159738095Y-99249901D01*
X159738095Y-99249901D02*
X159785714Y-99345139D01*
X159785714Y-99345139D02*
X159785714Y-99440377D01*
X159785714Y-99440377D02*
X159738095Y-99583234D01*
X159738095Y-99583234D02*
X159166667Y-100154663D01*
X159166667Y-100154663D02*
X159785714Y-100154663D01*
X146754663Y-98838094D02*
X145754663Y-98838094D01*
X145754663Y-98838094D02*
X145754663Y-98599999D01*
X145754663Y-98599999D02*
X145802282Y-98457142D01*
X145802282Y-98457142D02*
X145897520Y-98361904D01*
X145897520Y-98361904D02*
X145992758Y-98314285D01*
X145992758Y-98314285D02*
X146183234Y-98266666D01*
X146183234Y-98266666D02*
X146326091Y-98266666D01*
X146326091Y-98266666D02*
X146516567Y-98314285D01*
X146516567Y-98314285D02*
X146611805Y-98361904D01*
X146611805Y-98361904D02*
X146707044Y-98457142D01*
X146707044Y-98457142D02*
X146754663Y-98599999D01*
X146754663Y-98599999D02*
X146754663Y-98838094D01*
X146754663Y-97314285D02*
X146754663Y-97885713D01*
X146754663Y-97599999D02*
X145754663Y-97599999D01*
X145754663Y-97599999D02*
X145897520Y-97695237D01*
X145897520Y-97695237D02*
X145992758Y-97790475D01*
X145992758Y-97790475D02*
X146040377Y-97885713D01*
X141077142Y-108359424D02*
X141029523Y-108407044D01*
X141029523Y-108407044D02*
X140886666Y-108454663D01*
X140886666Y-108454663D02*
X140791428Y-108454663D01*
X140791428Y-108454663D02*
X140648571Y-108407044D01*
X140648571Y-108407044D02*
X140553333Y-108311805D01*
X140553333Y-108311805D02*
X140505714Y-108216567D01*
X140505714Y-108216567D02*
X140458095Y-108026091D01*
X140458095Y-108026091D02*
X140458095Y-107883234D01*
X140458095Y-107883234D02*
X140505714Y-107692758D01*
X140505714Y-107692758D02*
X140553333Y-107597520D01*
X140553333Y-107597520D02*
X140648571Y-107502282D01*
X140648571Y-107502282D02*
X140791428Y-107454663D01*
X140791428Y-107454663D02*
X140886666Y-107454663D01*
X140886666Y-107454663D02*
X141029523Y-107502282D01*
X141029523Y-107502282D02*
X141077142Y-107549901D01*
X141458095Y-107549901D02*
X141505714Y-107502282D01*
X141505714Y-107502282D02*
X141600952Y-107454663D01*
X141600952Y-107454663D02*
X141839047Y-107454663D01*
X141839047Y-107454663D02*
X141934285Y-107502282D01*
X141934285Y-107502282D02*
X141981904Y-107549901D01*
X141981904Y-107549901D02*
X142029523Y-107645139D01*
X142029523Y-107645139D02*
X142029523Y-107740377D01*
X142029523Y-107740377D02*
X141981904Y-107883234D01*
X141981904Y-107883234D02*
X141410476Y-108454663D01*
X141410476Y-108454663D02*
X142029523Y-108454663D01*
X142505714Y-108454663D02*
X142696190Y-108454663D01*
X142696190Y-108454663D02*
X142791428Y-108407044D01*
X142791428Y-108407044D02*
X142839047Y-108359424D01*
X142839047Y-108359424D02*
X142934285Y-108216567D01*
X142934285Y-108216567D02*
X142981904Y-108026091D01*
X142981904Y-108026091D02*
X142981904Y-107645139D01*
X142981904Y-107645139D02*
X142934285Y-107549901D01*
X142934285Y-107549901D02*
X142886666Y-107502282D01*
X142886666Y-107502282D02*
X142791428Y-107454663D01*
X142791428Y-107454663D02*
X142600952Y-107454663D01*
X142600952Y-107454663D02*
X142505714Y-107502282D01*
X142505714Y-107502282D02*
X142458095Y-107549901D01*
X142458095Y-107549901D02*
X142410476Y-107645139D01*
X142410476Y-107645139D02*
X142410476Y-107883234D01*
X142410476Y-107883234D02*
X142458095Y-107978472D01*
X142458095Y-107978472D02*
X142505714Y-108026091D01*
X142505714Y-108026091D02*
X142600952Y-108073710D01*
X142600952Y-108073710D02*
X142791428Y-108073710D01*
X142791428Y-108073710D02*
X142886666Y-108026091D01*
X142886666Y-108026091D02*
X142934285Y-107978472D01*
X142934285Y-107978472D02*
X142981904Y-107883234D01*
X141177142Y-106359424D02*
X141129523Y-106407044D01*
X141129523Y-106407044D02*
X140986666Y-106454663D01*
X140986666Y-106454663D02*
X140891428Y-106454663D01*
X140891428Y-106454663D02*
X140748571Y-106407044D01*
X140748571Y-106407044D02*
X140653333Y-106311805D01*
X140653333Y-106311805D02*
X140605714Y-106216567D01*
X140605714Y-106216567D02*
X140558095Y-106026091D01*
X140558095Y-106026091D02*
X140558095Y-105883234D01*
X140558095Y-105883234D02*
X140605714Y-105692758D01*
X140605714Y-105692758D02*
X140653333Y-105597520D01*
X140653333Y-105597520D02*
X140748571Y-105502282D01*
X140748571Y-105502282D02*
X140891428Y-105454663D01*
X140891428Y-105454663D02*
X140986666Y-105454663D01*
X140986666Y-105454663D02*
X141129523Y-105502282D01*
X141129523Y-105502282D02*
X141177142Y-105549901D01*
X141558095Y-105549901D02*
X141605714Y-105502282D01*
X141605714Y-105502282D02*
X141700952Y-105454663D01*
X141700952Y-105454663D02*
X141939047Y-105454663D01*
X141939047Y-105454663D02*
X142034285Y-105502282D01*
X142034285Y-105502282D02*
X142081904Y-105549901D01*
X142081904Y-105549901D02*
X142129523Y-105645139D01*
X142129523Y-105645139D02*
X142129523Y-105740377D01*
X142129523Y-105740377D02*
X142081904Y-105883234D01*
X142081904Y-105883234D02*
X141510476Y-106454663D01*
X141510476Y-106454663D02*
X142129523Y-106454663D01*
X142700952Y-105883234D02*
X142605714Y-105835615D01*
X142605714Y-105835615D02*
X142558095Y-105787996D01*
X142558095Y-105787996D02*
X142510476Y-105692758D01*
X142510476Y-105692758D02*
X142510476Y-105645139D01*
X142510476Y-105645139D02*
X142558095Y-105549901D01*
X142558095Y-105549901D02*
X142605714Y-105502282D01*
X142605714Y-105502282D02*
X142700952Y-105454663D01*
X142700952Y-105454663D02*
X142891428Y-105454663D01*
X142891428Y-105454663D02*
X142986666Y-105502282D01*
X142986666Y-105502282D02*
X143034285Y-105549901D01*
X143034285Y-105549901D02*
X143081904Y-105645139D01*
X143081904Y-105645139D02*
X143081904Y-105692758D01*
X143081904Y-105692758D02*
X143034285Y-105787996D01*
X143034285Y-105787996D02*
X142986666Y-105835615D01*
X142986666Y-105835615D02*
X142891428Y-105883234D01*
X142891428Y-105883234D02*
X142700952Y-105883234D01*
X142700952Y-105883234D02*
X142605714Y-105930853D01*
X142605714Y-105930853D02*
X142558095Y-105978472D01*
X142558095Y-105978472D02*
X142510476Y-106073710D01*
X142510476Y-106073710D02*
X142510476Y-106264186D01*
X142510476Y-106264186D02*
X142558095Y-106359424D01*
X142558095Y-106359424D02*
X142605714Y-106407044D01*
X142605714Y-106407044D02*
X142700952Y-106454663D01*
X142700952Y-106454663D02*
X142891428Y-106454663D01*
X142891428Y-106454663D02*
X142986666Y-106407044D01*
X142986666Y-106407044D02*
X143034285Y-106359424D01*
X143034285Y-106359424D02*
X143081904Y-106264186D01*
X143081904Y-106264186D02*
X143081904Y-106073710D01*
X143081904Y-106073710D02*
X143034285Y-105978472D01*
X143034285Y-105978472D02*
X142986666Y-105930853D01*
X142986666Y-105930853D02*
X142891428Y-105883234D01*
X150882142Y-101259424D02*
X150834523Y-101307044D01*
X150834523Y-101307044D02*
X150691666Y-101354663D01*
X150691666Y-101354663D02*
X150596428Y-101354663D01*
X150596428Y-101354663D02*
X150453571Y-101307044D01*
X150453571Y-101307044D02*
X150358333Y-101211805D01*
X150358333Y-101211805D02*
X150310714Y-101116567D01*
X150310714Y-101116567D02*
X150263095Y-100926091D01*
X150263095Y-100926091D02*
X150263095Y-100783234D01*
X150263095Y-100783234D02*
X150310714Y-100592758D01*
X150310714Y-100592758D02*
X150358333Y-100497520D01*
X150358333Y-100497520D02*
X150453571Y-100402282D01*
X150453571Y-100402282D02*
X150596428Y-100354663D01*
X150596428Y-100354663D02*
X150691666Y-100354663D01*
X150691666Y-100354663D02*
X150834523Y-100402282D01*
X150834523Y-100402282D02*
X150882142Y-100449901D01*
X151263095Y-100449901D02*
X151310714Y-100402282D01*
X151310714Y-100402282D02*
X151405952Y-100354663D01*
X151405952Y-100354663D02*
X151644047Y-100354663D01*
X151644047Y-100354663D02*
X151739285Y-100402282D01*
X151739285Y-100402282D02*
X151786904Y-100449901D01*
X151786904Y-100449901D02*
X151834523Y-100545139D01*
X151834523Y-100545139D02*
X151834523Y-100640377D01*
X151834523Y-100640377D02*
X151786904Y-100783234D01*
X151786904Y-100783234D02*
X151215476Y-101354663D01*
X151215476Y-101354663D02*
X151834523Y-101354663D01*
X152167857Y-100354663D02*
X152834523Y-100354663D01*
X152834523Y-100354663D02*
X152405952Y-101354663D01*
X161159424Y-96342857D02*
X161207044Y-96390476D01*
X161207044Y-96390476D02*
X161254663Y-96533333D01*
X161254663Y-96533333D02*
X161254663Y-96628571D01*
X161254663Y-96628571D02*
X161207044Y-96771428D01*
X161207044Y-96771428D02*
X161111805Y-96866666D01*
X161111805Y-96866666D02*
X161016567Y-96914285D01*
X161016567Y-96914285D02*
X160826091Y-96961904D01*
X160826091Y-96961904D02*
X160683234Y-96961904D01*
X160683234Y-96961904D02*
X160492758Y-96914285D01*
X160492758Y-96914285D02*
X160397520Y-96866666D01*
X160397520Y-96866666D02*
X160302282Y-96771428D01*
X160302282Y-96771428D02*
X160254663Y-96628571D01*
X160254663Y-96628571D02*
X160254663Y-96533333D01*
X160254663Y-96533333D02*
X160302282Y-96390476D01*
X160302282Y-96390476D02*
X160349901Y-96342857D01*
X160349901Y-95961904D02*
X160302282Y-95914285D01*
X160302282Y-95914285D02*
X160254663Y-95819047D01*
X160254663Y-95819047D02*
X160254663Y-95580952D01*
X160254663Y-95580952D02*
X160302282Y-95485714D01*
X160302282Y-95485714D02*
X160349901Y-95438095D01*
X160349901Y-95438095D02*
X160445139Y-95390476D01*
X160445139Y-95390476D02*
X160540377Y-95390476D01*
X160540377Y-95390476D02*
X160683234Y-95438095D01*
X160683234Y-95438095D02*
X161254663Y-96009523D01*
X161254663Y-96009523D02*
X161254663Y-95390476D01*
X160254663Y-94533333D02*
X160254663Y-94723809D01*
X160254663Y-94723809D02*
X160302282Y-94819047D01*
X160302282Y-94819047D02*
X160349901Y-94866666D01*
X160349901Y-94866666D02*
X160492758Y-94961904D01*
X160492758Y-94961904D02*
X160683234Y-95009523D01*
X160683234Y-95009523D02*
X161064186Y-95009523D01*
X161064186Y-95009523D02*
X161159424Y-94961904D01*
X161159424Y-94961904D02*
X161207044Y-94914285D01*
X161207044Y-94914285D02*
X161254663Y-94819047D01*
X161254663Y-94819047D02*
X161254663Y-94628571D01*
X161254663Y-94628571D02*
X161207044Y-94533333D01*
X161207044Y-94533333D02*
X161159424Y-94485714D01*
X161159424Y-94485714D02*
X161064186Y-94438095D01*
X161064186Y-94438095D02*
X160826091Y-94438095D01*
X160826091Y-94438095D02*
X160730853Y-94485714D01*
X160730853Y-94485714D02*
X160683234Y-94533333D01*
X160683234Y-94533333D02*
X160635615Y-94628571D01*
X160635615Y-94628571D02*
X160635615Y-94819047D01*
X160635615Y-94819047D02*
X160683234Y-94914285D01*
X160683234Y-94914285D02*
X160730853Y-94961904D01*
X160730853Y-94961904D02*
X160826091Y-95009523D01*
X157057142Y-98459424D02*
X157009523Y-98507044D01*
X157009523Y-98507044D02*
X156866666Y-98554663D01*
X156866666Y-98554663D02*
X156771428Y-98554663D01*
X156771428Y-98554663D02*
X156628571Y-98507044D01*
X156628571Y-98507044D02*
X156533333Y-98411805D01*
X156533333Y-98411805D02*
X156485714Y-98316567D01*
X156485714Y-98316567D02*
X156438095Y-98126091D01*
X156438095Y-98126091D02*
X156438095Y-97983234D01*
X156438095Y-97983234D02*
X156485714Y-97792758D01*
X156485714Y-97792758D02*
X156533333Y-97697520D01*
X156533333Y-97697520D02*
X156628571Y-97602282D01*
X156628571Y-97602282D02*
X156771428Y-97554663D01*
X156771428Y-97554663D02*
X156866666Y-97554663D01*
X156866666Y-97554663D02*
X157009523Y-97602282D01*
X157009523Y-97602282D02*
X157057142Y-97649901D01*
X157438095Y-97649901D02*
X157485714Y-97602282D01*
X157485714Y-97602282D02*
X157580952Y-97554663D01*
X157580952Y-97554663D02*
X157819047Y-97554663D01*
X157819047Y-97554663D02*
X157914285Y-97602282D01*
X157914285Y-97602282D02*
X157961904Y-97649901D01*
X157961904Y-97649901D02*
X158009523Y-97745139D01*
X158009523Y-97745139D02*
X158009523Y-97840377D01*
X158009523Y-97840377D02*
X157961904Y-97983234D01*
X157961904Y-97983234D02*
X157390476Y-98554663D01*
X157390476Y-98554663D02*
X158009523Y-98554663D01*
X158914285Y-97554663D02*
X158438095Y-97554663D01*
X158438095Y-97554663D02*
X158390476Y-98030853D01*
X158390476Y-98030853D02*
X158438095Y-97983234D01*
X158438095Y-97983234D02*
X158533333Y-97935615D01*
X158533333Y-97935615D02*
X158771428Y-97935615D01*
X158771428Y-97935615D02*
X158866666Y-97983234D01*
X158866666Y-97983234D02*
X158914285Y-98030853D01*
X158914285Y-98030853D02*
X158961904Y-98126091D01*
X158961904Y-98126091D02*
X158961904Y-98364186D01*
X158961904Y-98364186D02*
X158914285Y-98459424D01*
X158914285Y-98459424D02*
X158866666Y-98507044D01*
X158866666Y-98507044D02*
X158771428Y-98554663D01*
X158771428Y-98554663D02*
X158533333Y-98554663D01*
X158533333Y-98554663D02*
X158438095Y-98507044D01*
X158438095Y-98507044D02*
X158390476Y-98459424D01*
X153957142Y-98259424D02*
X153909523Y-98307044D01*
X153909523Y-98307044D02*
X153766666Y-98354663D01*
X153766666Y-98354663D02*
X153671428Y-98354663D01*
X153671428Y-98354663D02*
X153528571Y-98307044D01*
X153528571Y-98307044D02*
X153433333Y-98211805D01*
X153433333Y-98211805D02*
X153385714Y-98116567D01*
X153385714Y-98116567D02*
X153338095Y-97926091D01*
X153338095Y-97926091D02*
X153338095Y-97783234D01*
X153338095Y-97783234D02*
X153385714Y-97592758D01*
X153385714Y-97592758D02*
X153433333Y-97497520D01*
X153433333Y-97497520D02*
X153528571Y-97402282D01*
X153528571Y-97402282D02*
X153671428Y-97354663D01*
X153671428Y-97354663D02*
X153766666Y-97354663D01*
X153766666Y-97354663D02*
X153909523Y-97402282D01*
X153909523Y-97402282D02*
X153957142Y-97449901D01*
X154338095Y-97449901D02*
X154385714Y-97402282D01*
X154385714Y-97402282D02*
X154480952Y-97354663D01*
X154480952Y-97354663D02*
X154719047Y-97354663D01*
X154719047Y-97354663D02*
X154814285Y-97402282D01*
X154814285Y-97402282D02*
X154861904Y-97449901D01*
X154861904Y-97449901D02*
X154909523Y-97545139D01*
X154909523Y-97545139D02*
X154909523Y-97640377D01*
X154909523Y-97640377D02*
X154861904Y-97783234D01*
X154861904Y-97783234D02*
X154290476Y-98354663D01*
X154290476Y-98354663D02*
X154909523Y-98354663D01*
X155766666Y-97687996D02*
X155766666Y-98354663D01*
X155528571Y-97307044D02*
X155290476Y-98021329D01*
X155290476Y-98021329D02*
X155909523Y-98021329D01*
X154007142Y-95459424D02*
X153959523Y-95507044D01*
X153959523Y-95507044D02*
X153816666Y-95554663D01*
X153816666Y-95554663D02*
X153721428Y-95554663D01*
X153721428Y-95554663D02*
X153578571Y-95507044D01*
X153578571Y-95507044D02*
X153483333Y-95411805D01*
X153483333Y-95411805D02*
X153435714Y-95316567D01*
X153435714Y-95316567D02*
X153388095Y-95126091D01*
X153388095Y-95126091D02*
X153388095Y-94983234D01*
X153388095Y-94983234D02*
X153435714Y-94792758D01*
X153435714Y-94792758D02*
X153483333Y-94697520D01*
X153483333Y-94697520D02*
X153578571Y-94602282D01*
X153578571Y-94602282D02*
X153721428Y-94554663D01*
X153721428Y-94554663D02*
X153816666Y-94554663D01*
X153816666Y-94554663D02*
X153959523Y-94602282D01*
X153959523Y-94602282D02*
X154007142Y-94649901D01*
X154388095Y-94649901D02*
X154435714Y-94602282D01*
X154435714Y-94602282D02*
X154530952Y-94554663D01*
X154530952Y-94554663D02*
X154769047Y-94554663D01*
X154769047Y-94554663D02*
X154864285Y-94602282D01*
X154864285Y-94602282D02*
X154911904Y-94649901D01*
X154911904Y-94649901D02*
X154959523Y-94745139D01*
X154959523Y-94745139D02*
X154959523Y-94840377D01*
X154959523Y-94840377D02*
X154911904Y-94983234D01*
X154911904Y-94983234D02*
X154340476Y-95554663D01*
X154340476Y-95554663D02*
X154959523Y-95554663D01*
X155292857Y-94554663D02*
X155911904Y-94554663D01*
X155911904Y-94554663D02*
X155578571Y-94935615D01*
X155578571Y-94935615D02*
X155721428Y-94935615D01*
X155721428Y-94935615D02*
X155816666Y-94983234D01*
X155816666Y-94983234D02*
X155864285Y-95030853D01*
X155864285Y-95030853D02*
X155911904Y-95126091D01*
X155911904Y-95126091D02*
X155911904Y-95364186D01*
X155911904Y-95364186D02*
X155864285Y-95459424D01*
X155864285Y-95459424D02*
X155816666Y-95507044D01*
X155816666Y-95507044D02*
X155721428Y-95554663D01*
X155721428Y-95554663D02*
X155435714Y-95554663D01*
X155435714Y-95554663D02*
X155340476Y-95507044D01*
X155340476Y-95507044D02*
X155292857Y-95459424D01*
X150882142Y-95489424D02*
X150834523Y-95537044D01*
X150834523Y-95537044D02*
X150691666Y-95584663D01*
X150691666Y-95584663D02*
X150596428Y-95584663D01*
X150596428Y-95584663D02*
X150453571Y-95537044D01*
X150453571Y-95537044D02*
X150358333Y-95441805D01*
X150358333Y-95441805D02*
X150310714Y-95346567D01*
X150310714Y-95346567D02*
X150263095Y-95156091D01*
X150263095Y-95156091D02*
X150263095Y-95013234D01*
X150263095Y-95013234D02*
X150310714Y-94822758D01*
X150310714Y-94822758D02*
X150358333Y-94727520D01*
X150358333Y-94727520D02*
X150453571Y-94632282D01*
X150453571Y-94632282D02*
X150596428Y-94584663D01*
X150596428Y-94584663D02*
X150691666Y-94584663D01*
X150691666Y-94584663D02*
X150834523Y-94632282D01*
X150834523Y-94632282D02*
X150882142Y-94679901D01*
X151263095Y-94679901D02*
X151310714Y-94632282D01*
X151310714Y-94632282D02*
X151405952Y-94584663D01*
X151405952Y-94584663D02*
X151644047Y-94584663D01*
X151644047Y-94584663D02*
X151739285Y-94632282D01*
X151739285Y-94632282D02*
X151786904Y-94679901D01*
X151786904Y-94679901D02*
X151834523Y-94775139D01*
X151834523Y-94775139D02*
X151834523Y-94870377D01*
X151834523Y-94870377D02*
X151786904Y-95013234D01*
X151786904Y-95013234D02*
X151215476Y-95584663D01*
X151215476Y-95584663D02*
X151834523Y-95584663D01*
X152215476Y-94679901D02*
X152263095Y-94632282D01*
X152263095Y-94632282D02*
X152358333Y-94584663D01*
X152358333Y-94584663D02*
X152596428Y-94584663D01*
X152596428Y-94584663D02*
X152691666Y-94632282D01*
X152691666Y-94632282D02*
X152739285Y-94679901D01*
X152739285Y-94679901D02*
X152786904Y-94775139D01*
X152786904Y-94775139D02*
X152786904Y-94870377D01*
X152786904Y-94870377D02*
X152739285Y-95013234D01*
X152739285Y-95013234D02*
X152167857Y-95584663D01*
X152167857Y-95584663D02*
X152786904Y-95584663D01*
X147182142Y-95489424D02*
X147134523Y-95537044D01*
X147134523Y-95537044D02*
X146991666Y-95584663D01*
X146991666Y-95584663D02*
X146896428Y-95584663D01*
X146896428Y-95584663D02*
X146753571Y-95537044D01*
X146753571Y-95537044D02*
X146658333Y-95441805D01*
X146658333Y-95441805D02*
X146610714Y-95346567D01*
X146610714Y-95346567D02*
X146563095Y-95156091D01*
X146563095Y-95156091D02*
X146563095Y-95013234D01*
X146563095Y-95013234D02*
X146610714Y-94822758D01*
X146610714Y-94822758D02*
X146658333Y-94727520D01*
X146658333Y-94727520D02*
X146753571Y-94632282D01*
X146753571Y-94632282D02*
X146896428Y-94584663D01*
X146896428Y-94584663D02*
X146991666Y-94584663D01*
X146991666Y-94584663D02*
X147134523Y-94632282D01*
X147134523Y-94632282D02*
X147182142Y-94679901D01*
X147563095Y-94679901D02*
X147610714Y-94632282D01*
X147610714Y-94632282D02*
X147705952Y-94584663D01*
X147705952Y-94584663D02*
X147944047Y-94584663D01*
X147944047Y-94584663D02*
X148039285Y-94632282D01*
X148039285Y-94632282D02*
X148086904Y-94679901D01*
X148086904Y-94679901D02*
X148134523Y-94775139D01*
X148134523Y-94775139D02*
X148134523Y-94870377D01*
X148134523Y-94870377D02*
X148086904Y-95013234D01*
X148086904Y-95013234D02*
X147515476Y-95584663D01*
X147515476Y-95584663D02*
X148134523Y-95584663D01*
X149086904Y-95584663D02*
X148515476Y-95584663D01*
X148801190Y-95584663D02*
X148801190Y-94584663D01*
X148801190Y-94584663D02*
X148705952Y-94727520D01*
X148705952Y-94727520D02*
X148610714Y-94822758D01*
X148610714Y-94822758D02*
X148515476Y-94870377D01*
X150882142Y-98289424D02*
X150834523Y-98337044D01*
X150834523Y-98337044D02*
X150691666Y-98384663D01*
X150691666Y-98384663D02*
X150596428Y-98384663D01*
X150596428Y-98384663D02*
X150453571Y-98337044D01*
X150453571Y-98337044D02*
X150358333Y-98241805D01*
X150358333Y-98241805D02*
X150310714Y-98146567D01*
X150310714Y-98146567D02*
X150263095Y-97956091D01*
X150263095Y-97956091D02*
X150263095Y-97813234D01*
X150263095Y-97813234D02*
X150310714Y-97622758D01*
X150310714Y-97622758D02*
X150358333Y-97527520D01*
X150358333Y-97527520D02*
X150453571Y-97432282D01*
X150453571Y-97432282D02*
X150596428Y-97384663D01*
X150596428Y-97384663D02*
X150691666Y-97384663D01*
X150691666Y-97384663D02*
X150834523Y-97432282D01*
X150834523Y-97432282D02*
X150882142Y-97479901D01*
X151263095Y-97479901D02*
X151310714Y-97432282D01*
X151310714Y-97432282D02*
X151405952Y-97384663D01*
X151405952Y-97384663D02*
X151644047Y-97384663D01*
X151644047Y-97384663D02*
X151739285Y-97432282D01*
X151739285Y-97432282D02*
X151786904Y-97479901D01*
X151786904Y-97479901D02*
X151834523Y-97575139D01*
X151834523Y-97575139D02*
X151834523Y-97670377D01*
X151834523Y-97670377D02*
X151786904Y-97813234D01*
X151786904Y-97813234D02*
X151215476Y-98384663D01*
X151215476Y-98384663D02*
X151834523Y-98384663D01*
X152453571Y-97384663D02*
X152548809Y-97384663D01*
X152548809Y-97384663D02*
X152644047Y-97432282D01*
X152644047Y-97432282D02*
X152691666Y-97479901D01*
X152691666Y-97479901D02*
X152739285Y-97575139D01*
X152739285Y-97575139D02*
X152786904Y-97765615D01*
X152786904Y-97765615D02*
X152786904Y-98003710D01*
X152786904Y-98003710D02*
X152739285Y-98194186D01*
X152739285Y-98194186D02*
X152691666Y-98289424D01*
X152691666Y-98289424D02*
X152644047Y-98337044D01*
X152644047Y-98337044D02*
X152548809Y-98384663D01*
X152548809Y-98384663D02*
X152453571Y-98384663D01*
X152453571Y-98384663D02*
X152358333Y-98337044D01*
X152358333Y-98337044D02*
X152310714Y-98289424D01*
X152310714Y-98289424D02*
X152263095Y-98194186D01*
X152263095Y-98194186D02*
X152215476Y-98003710D01*
X152215476Y-98003710D02*
X152215476Y-97765615D01*
X152215476Y-97765615D02*
X152263095Y-97575139D01*
X152263095Y-97575139D02*
X152310714Y-97479901D01*
X152310714Y-97479901D02*
X152358333Y-97432282D01*
X152358333Y-97432282D02*
X152453571Y-97384663D01*
X168633333Y-72729424D02*
X168585714Y-72777044D01*
X168585714Y-72777044D02*
X168442857Y-72824663D01*
X168442857Y-72824663D02*
X168347619Y-72824663D01*
X168347619Y-72824663D02*
X168204762Y-72777044D01*
X168204762Y-72777044D02*
X168109524Y-72681805D01*
X168109524Y-72681805D02*
X168061905Y-72586567D01*
X168061905Y-72586567D02*
X168014286Y-72396091D01*
X168014286Y-72396091D02*
X168014286Y-72253234D01*
X168014286Y-72253234D02*
X168061905Y-72062758D01*
X168061905Y-72062758D02*
X168109524Y-71967520D01*
X168109524Y-71967520D02*
X168204762Y-71872282D01*
X168204762Y-71872282D02*
X168347619Y-71824663D01*
X168347619Y-71824663D02*
X168442857Y-71824663D01*
X168442857Y-71824663D02*
X168585714Y-71872282D01*
X168585714Y-71872282D02*
X168633333Y-71919901D01*
X169538095Y-71824663D02*
X169061905Y-71824663D01*
X169061905Y-71824663D02*
X169014286Y-72300853D01*
X169014286Y-72300853D02*
X169061905Y-72253234D01*
X169061905Y-72253234D02*
X169157143Y-72205615D01*
X169157143Y-72205615D02*
X169395238Y-72205615D01*
X169395238Y-72205615D02*
X169490476Y-72253234D01*
X169490476Y-72253234D02*
X169538095Y-72300853D01*
X169538095Y-72300853D02*
X169585714Y-72396091D01*
X169585714Y-72396091D02*
X169585714Y-72634186D01*
X169585714Y-72634186D02*
X169538095Y-72729424D01*
X169538095Y-72729424D02*
X169490476Y-72777044D01*
X169490476Y-72777044D02*
X169395238Y-72824663D01*
X169395238Y-72824663D02*
X169157143Y-72824663D01*
X169157143Y-72824663D02*
X169061905Y-72777044D01*
X169061905Y-72777044D02*
X169014286Y-72729424D01*
X168633333Y-74129424D02*
X168585714Y-74177044D01*
X168585714Y-74177044D02*
X168442857Y-74224663D01*
X168442857Y-74224663D02*
X168347619Y-74224663D01*
X168347619Y-74224663D02*
X168204762Y-74177044D01*
X168204762Y-74177044D02*
X168109524Y-74081805D01*
X168109524Y-74081805D02*
X168061905Y-73986567D01*
X168061905Y-73986567D02*
X168014286Y-73796091D01*
X168014286Y-73796091D02*
X168014286Y-73653234D01*
X168014286Y-73653234D02*
X168061905Y-73462758D01*
X168061905Y-73462758D02*
X168109524Y-73367520D01*
X168109524Y-73367520D02*
X168204762Y-73272282D01*
X168204762Y-73272282D02*
X168347619Y-73224663D01*
X168347619Y-73224663D02*
X168442857Y-73224663D01*
X168442857Y-73224663D02*
X168585714Y-73272282D01*
X168585714Y-73272282D02*
X168633333Y-73319901D01*
X169490476Y-73557996D02*
X169490476Y-74224663D01*
X169252381Y-73177044D02*
X169014286Y-73891329D01*
X169014286Y-73891329D02*
X169633333Y-73891329D01*
X160958333Y-78329424D02*
X160910714Y-78377044D01*
X160910714Y-78377044D02*
X160767857Y-78424663D01*
X160767857Y-78424663D02*
X160672619Y-78424663D01*
X160672619Y-78424663D02*
X160529762Y-78377044D01*
X160529762Y-78377044D02*
X160434524Y-78281805D01*
X160434524Y-78281805D02*
X160386905Y-78186567D01*
X160386905Y-78186567D02*
X160339286Y-77996091D01*
X160339286Y-77996091D02*
X160339286Y-77853234D01*
X160339286Y-77853234D02*
X160386905Y-77662758D01*
X160386905Y-77662758D02*
X160434524Y-77567520D01*
X160434524Y-77567520D02*
X160529762Y-77472282D01*
X160529762Y-77472282D02*
X160672619Y-77424663D01*
X160672619Y-77424663D02*
X160767857Y-77424663D01*
X160767857Y-77424663D02*
X160910714Y-77472282D01*
X160910714Y-77472282D02*
X160958333Y-77519901D01*
X161291667Y-77424663D02*
X161910714Y-77424663D01*
X161910714Y-77424663D02*
X161577381Y-77805615D01*
X161577381Y-77805615D02*
X161720238Y-77805615D01*
X161720238Y-77805615D02*
X161815476Y-77853234D01*
X161815476Y-77853234D02*
X161863095Y-77900853D01*
X161863095Y-77900853D02*
X161910714Y-77996091D01*
X161910714Y-77996091D02*
X161910714Y-78234186D01*
X161910714Y-78234186D02*
X161863095Y-78329424D01*
X161863095Y-78329424D02*
X161815476Y-78377044D01*
X161815476Y-78377044D02*
X161720238Y-78424663D01*
X161720238Y-78424663D02*
X161434524Y-78424663D01*
X161434524Y-78424663D02*
X161339286Y-78377044D01*
X161339286Y-78377044D02*
X161291667Y-78329424D01*
X141108333Y-81129424D02*
X141060714Y-81177044D01*
X141060714Y-81177044D02*
X140917857Y-81224663D01*
X140917857Y-81224663D02*
X140822619Y-81224663D01*
X140822619Y-81224663D02*
X140679762Y-81177044D01*
X140679762Y-81177044D02*
X140584524Y-81081805D01*
X140584524Y-81081805D02*
X140536905Y-80986567D01*
X140536905Y-80986567D02*
X140489286Y-80796091D01*
X140489286Y-80796091D02*
X140489286Y-80653234D01*
X140489286Y-80653234D02*
X140536905Y-80462758D01*
X140536905Y-80462758D02*
X140584524Y-80367520D01*
X140584524Y-80367520D02*
X140679762Y-80272282D01*
X140679762Y-80272282D02*
X140822619Y-80224663D01*
X140822619Y-80224663D02*
X140917857Y-80224663D01*
X140917857Y-80224663D02*
X141060714Y-80272282D01*
X141060714Y-80272282D02*
X141108333Y-80319901D01*
X141489286Y-80319901D02*
X141536905Y-80272282D01*
X141536905Y-80272282D02*
X141632143Y-80224663D01*
X141632143Y-80224663D02*
X141870238Y-80224663D01*
X141870238Y-80224663D02*
X141965476Y-80272282D01*
X141965476Y-80272282D02*
X142013095Y-80319901D01*
X142013095Y-80319901D02*
X142060714Y-80415139D01*
X142060714Y-80415139D02*
X142060714Y-80510377D01*
X142060714Y-80510377D02*
X142013095Y-80653234D01*
X142013095Y-80653234D02*
X141441667Y-81224663D01*
X141441667Y-81224663D02*
X142060714Y-81224663D01*
X148058333Y-78329424D02*
X148010714Y-78377044D01*
X148010714Y-78377044D02*
X147867857Y-78424663D01*
X147867857Y-78424663D02*
X147772619Y-78424663D01*
X147772619Y-78424663D02*
X147629762Y-78377044D01*
X147629762Y-78377044D02*
X147534524Y-78281805D01*
X147534524Y-78281805D02*
X147486905Y-78186567D01*
X147486905Y-78186567D02*
X147439286Y-77996091D01*
X147439286Y-77996091D02*
X147439286Y-77853234D01*
X147439286Y-77853234D02*
X147486905Y-77662758D01*
X147486905Y-77662758D02*
X147534524Y-77567520D01*
X147534524Y-77567520D02*
X147629762Y-77472282D01*
X147629762Y-77472282D02*
X147772619Y-77424663D01*
X147772619Y-77424663D02*
X147867857Y-77424663D01*
X147867857Y-77424663D02*
X148010714Y-77472282D01*
X148010714Y-77472282D02*
X148058333Y-77519901D01*
X149010714Y-78424663D02*
X148439286Y-78424663D01*
X148725000Y-78424663D02*
X148725000Y-77424663D01*
X148725000Y-77424663D02*
X148629762Y-77567520D01*
X148629762Y-77567520D02*
X148534524Y-77662758D01*
X148534524Y-77662758D02*
X148439286Y-77710377D01*
X157833333Y-92724663D02*
X157500000Y-92248472D01*
X157261905Y-92724663D02*
X157261905Y-91724663D01*
X157261905Y-91724663D02*
X157642857Y-91724663D01*
X157642857Y-91724663D02*
X157738095Y-91772282D01*
X157738095Y-91772282D02*
X157785714Y-91819901D01*
X157785714Y-91819901D02*
X157833333Y-91915139D01*
X157833333Y-91915139D02*
X157833333Y-92057996D01*
X157833333Y-92057996D02*
X157785714Y-92153234D01*
X157785714Y-92153234D02*
X157738095Y-92200853D01*
X157738095Y-92200853D02*
X157642857Y-92248472D01*
X157642857Y-92248472D02*
X157261905Y-92248472D01*
X158785714Y-92724663D02*
X158214286Y-92724663D01*
X158500000Y-92724663D02*
X158500000Y-91724663D01*
X158500000Y-91724663D02*
X158404762Y-91867520D01*
X158404762Y-91867520D02*
X158309524Y-91962758D01*
X158309524Y-91962758D02*
X158214286Y-92010377D01*
X140657142Y-95469424D02*
X140609523Y-95517044D01*
X140609523Y-95517044D02*
X140466666Y-95564663D01*
X140466666Y-95564663D02*
X140371428Y-95564663D01*
X140371428Y-95564663D02*
X140228571Y-95517044D01*
X140228571Y-95517044D02*
X140133333Y-95421805D01*
X140133333Y-95421805D02*
X140085714Y-95326567D01*
X140085714Y-95326567D02*
X140038095Y-95136091D01*
X140038095Y-95136091D02*
X140038095Y-94993234D01*
X140038095Y-94993234D02*
X140085714Y-94802758D01*
X140085714Y-94802758D02*
X140133333Y-94707520D01*
X140133333Y-94707520D02*
X140228571Y-94612282D01*
X140228571Y-94612282D02*
X140371428Y-94564663D01*
X140371428Y-94564663D02*
X140466666Y-94564663D01*
X140466666Y-94564663D02*
X140609523Y-94612282D01*
X140609523Y-94612282D02*
X140657142Y-94659901D01*
X141609523Y-95564663D02*
X141038095Y-95564663D01*
X141323809Y-95564663D02*
X141323809Y-94564663D01*
X141323809Y-94564663D02*
X141228571Y-94707520D01*
X141228571Y-94707520D02*
X141133333Y-94802758D01*
X141133333Y-94802758D02*
X141038095Y-94850377D01*
X141942857Y-94564663D02*
X142609523Y-94564663D01*
X142609523Y-94564663D02*
X142180952Y-95564663D01*
X140657142Y-93869424D02*
X140609523Y-93917044D01*
X140609523Y-93917044D02*
X140466666Y-93964663D01*
X140466666Y-93964663D02*
X140371428Y-93964663D01*
X140371428Y-93964663D02*
X140228571Y-93917044D01*
X140228571Y-93917044D02*
X140133333Y-93821805D01*
X140133333Y-93821805D02*
X140085714Y-93726567D01*
X140085714Y-93726567D02*
X140038095Y-93536091D01*
X140038095Y-93536091D02*
X140038095Y-93393234D01*
X140038095Y-93393234D02*
X140085714Y-93202758D01*
X140085714Y-93202758D02*
X140133333Y-93107520D01*
X140133333Y-93107520D02*
X140228571Y-93012282D01*
X140228571Y-93012282D02*
X140371428Y-92964663D01*
X140371428Y-92964663D02*
X140466666Y-92964663D01*
X140466666Y-92964663D02*
X140609523Y-93012282D01*
X140609523Y-93012282D02*
X140657142Y-93059901D01*
X141609523Y-93964663D02*
X141038095Y-93964663D01*
X141323809Y-93964663D02*
X141323809Y-92964663D01*
X141323809Y-92964663D02*
X141228571Y-93107520D01*
X141228571Y-93107520D02*
X141133333Y-93202758D01*
X141133333Y-93202758D02*
X141038095Y-93250377D01*
X142466666Y-92964663D02*
X142276190Y-92964663D01*
X142276190Y-92964663D02*
X142180952Y-93012282D01*
X142180952Y-93012282D02*
X142133333Y-93059901D01*
X142133333Y-93059901D02*
X142038095Y-93202758D01*
X142038095Y-93202758D02*
X141990476Y-93393234D01*
X141990476Y-93393234D02*
X141990476Y-93774186D01*
X141990476Y-93774186D02*
X142038095Y-93869424D01*
X142038095Y-93869424D02*
X142085714Y-93917044D01*
X142085714Y-93917044D02*
X142180952Y-93964663D01*
X142180952Y-93964663D02*
X142371428Y-93964663D01*
X142371428Y-93964663D02*
X142466666Y-93917044D01*
X142466666Y-93917044D02*
X142514285Y-93869424D01*
X142514285Y-93869424D02*
X142561904Y-93774186D01*
X142561904Y-93774186D02*
X142561904Y-93536091D01*
X142561904Y-93536091D02*
X142514285Y-93440853D01*
X142514285Y-93440853D02*
X142466666Y-93393234D01*
X142466666Y-93393234D02*
X142371428Y-93345615D01*
X142371428Y-93345615D02*
X142180952Y-93345615D01*
X142180952Y-93345615D02*
X142085714Y-93393234D01*
X142085714Y-93393234D02*
X142038095Y-93440853D01*
X142038095Y-93440853D02*
X141990476Y-93536091D01*
X140657142Y-92269424D02*
X140609523Y-92317044D01*
X140609523Y-92317044D02*
X140466666Y-92364663D01*
X140466666Y-92364663D02*
X140371428Y-92364663D01*
X140371428Y-92364663D02*
X140228571Y-92317044D01*
X140228571Y-92317044D02*
X140133333Y-92221805D01*
X140133333Y-92221805D02*
X140085714Y-92126567D01*
X140085714Y-92126567D02*
X140038095Y-91936091D01*
X140038095Y-91936091D02*
X140038095Y-91793234D01*
X140038095Y-91793234D02*
X140085714Y-91602758D01*
X140085714Y-91602758D02*
X140133333Y-91507520D01*
X140133333Y-91507520D02*
X140228571Y-91412282D01*
X140228571Y-91412282D02*
X140371428Y-91364663D01*
X140371428Y-91364663D02*
X140466666Y-91364663D01*
X140466666Y-91364663D02*
X140609523Y-91412282D01*
X140609523Y-91412282D02*
X140657142Y-91459901D01*
X141609523Y-92364663D02*
X141038095Y-92364663D01*
X141323809Y-92364663D02*
X141323809Y-91364663D01*
X141323809Y-91364663D02*
X141228571Y-91507520D01*
X141228571Y-91507520D02*
X141133333Y-91602758D01*
X141133333Y-91602758D02*
X141038095Y-91650377D01*
X142514285Y-91364663D02*
X142038095Y-91364663D01*
X142038095Y-91364663D02*
X141990476Y-91840853D01*
X141990476Y-91840853D02*
X142038095Y-91793234D01*
X142038095Y-91793234D02*
X142133333Y-91745615D01*
X142133333Y-91745615D02*
X142371428Y-91745615D01*
X142371428Y-91745615D02*
X142466666Y-91793234D01*
X142466666Y-91793234D02*
X142514285Y-91840853D01*
X142514285Y-91840853D02*
X142561904Y-91936091D01*
X142561904Y-91936091D02*
X142561904Y-92174186D01*
X142561904Y-92174186D02*
X142514285Y-92269424D01*
X142514285Y-92269424D02*
X142466666Y-92317044D01*
X142466666Y-92317044D02*
X142371428Y-92364663D01*
X142371428Y-92364663D02*
X142133333Y-92364663D01*
X142133333Y-92364663D02*
X142038095Y-92317044D01*
X142038095Y-92317044D02*
X141990476Y-92269424D01*
X140657142Y-90639424D02*
X140609523Y-90687044D01*
X140609523Y-90687044D02*
X140466666Y-90734663D01*
X140466666Y-90734663D02*
X140371428Y-90734663D01*
X140371428Y-90734663D02*
X140228571Y-90687044D01*
X140228571Y-90687044D02*
X140133333Y-90591805D01*
X140133333Y-90591805D02*
X140085714Y-90496567D01*
X140085714Y-90496567D02*
X140038095Y-90306091D01*
X140038095Y-90306091D02*
X140038095Y-90163234D01*
X140038095Y-90163234D02*
X140085714Y-89972758D01*
X140085714Y-89972758D02*
X140133333Y-89877520D01*
X140133333Y-89877520D02*
X140228571Y-89782282D01*
X140228571Y-89782282D02*
X140371428Y-89734663D01*
X140371428Y-89734663D02*
X140466666Y-89734663D01*
X140466666Y-89734663D02*
X140609523Y-89782282D01*
X140609523Y-89782282D02*
X140657142Y-89829901D01*
X141609523Y-90734663D02*
X141038095Y-90734663D01*
X141323809Y-90734663D02*
X141323809Y-89734663D01*
X141323809Y-89734663D02*
X141228571Y-89877520D01*
X141228571Y-89877520D02*
X141133333Y-89972758D01*
X141133333Y-89972758D02*
X141038095Y-90020377D01*
X142466666Y-90067996D02*
X142466666Y-90734663D01*
X142228571Y-89687044D02*
X141990476Y-90401329D01*
X141990476Y-90401329D02*
X142609523Y-90401329D01*
X143891562Y-81169424D02*
X143843943Y-81217044D01*
X143843943Y-81217044D02*
X143701086Y-81264663D01*
X143701086Y-81264663D02*
X143605848Y-81264663D01*
X143605848Y-81264663D02*
X143462991Y-81217044D01*
X143462991Y-81217044D02*
X143367753Y-81121805D01*
X143367753Y-81121805D02*
X143320134Y-81026567D01*
X143320134Y-81026567D02*
X143272515Y-80836091D01*
X143272515Y-80836091D02*
X143272515Y-80693234D01*
X143272515Y-80693234D02*
X143320134Y-80502758D01*
X143320134Y-80502758D02*
X143367753Y-80407520D01*
X143367753Y-80407520D02*
X143462991Y-80312282D01*
X143462991Y-80312282D02*
X143605848Y-80264663D01*
X143605848Y-80264663D02*
X143701086Y-80264663D01*
X143701086Y-80264663D02*
X143843943Y-80312282D01*
X143843943Y-80312282D02*
X143891562Y-80359901D01*
X144843943Y-81264663D02*
X144272515Y-81264663D01*
X144558229Y-81264663D02*
X144558229Y-80264663D01*
X144558229Y-80264663D02*
X144462991Y-80407520D01*
X144462991Y-80407520D02*
X144367753Y-80502758D01*
X144367753Y-80502758D02*
X144272515Y-80550377D01*
X145177277Y-80264663D02*
X145796324Y-80264663D01*
X145796324Y-80264663D02*
X145462991Y-80645615D01*
X145462991Y-80645615D02*
X145605848Y-80645615D01*
X145605848Y-80645615D02*
X145701086Y-80693234D01*
X145701086Y-80693234D02*
X145748705Y-80740853D01*
X145748705Y-80740853D02*
X145796324Y-80836091D01*
X145796324Y-80836091D02*
X145796324Y-81074186D01*
X145796324Y-81074186D02*
X145748705Y-81169424D01*
X145748705Y-81169424D02*
X145701086Y-81217044D01*
X145701086Y-81217044D02*
X145605848Y-81264663D01*
X145605848Y-81264663D02*
X145320134Y-81264663D01*
X145320134Y-81264663D02*
X145224896Y-81217044D01*
X145224896Y-81217044D02*
X145177277Y-81169424D01*
X144032142Y-78329424D02*
X143984523Y-78377044D01*
X143984523Y-78377044D02*
X143841666Y-78424663D01*
X143841666Y-78424663D02*
X143746428Y-78424663D01*
X143746428Y-78424663D02*
X143603571Y-78377044D01*
X143603571Y-78377044D02*
X143508333Y-78281805D01*
X143508333Y-78281805D02*
X143460714Y-78186567D01*
X143460714Y-78186567D02*
X143413095Y-77996091D01*
X143413095Y-77996091D02*
X143413095Y-77853234D01*
X143413095Y-77853234D02*
X143460714Y-77662758D01*
X143460714Y-77662758D02*
X143508333Y-77567520D01*
X143508333Y-77567520D02*
X143603571Y-77472282D01*
X143603571Y-77472282D02*
X143746428Y-77424663D01*
X143746428Y-77424663D02*
X143841666Y-77424663D01*
X143841666Y-77424663D02*
X143984523Y-77472282D01*
X143984523Y-77472282D02*
X144032142Y-77519901D01*
X144984523Y-78424663D02*
X144413095Y-78424663D01*
X144698809Y-78424663D02*
X144698809Y-77424663D01*
X144698809Y-77424663D02*
X144603571Y-77567520D01*
X144603571Y-77567520D02*
X144508333Y-77662758D01*
X144508333Y-77662758D02*
X144413095Y-77710377D01*
X145365476Y-77519901D02*
X145413095Y-77472282D01*
X145413095Y-77472282D02*
X145508333Y-77424663D01*
X145508333Y-77424663D02*
X145746428Y-77424663D01*
X145746428Y-77424663D02*
X145841666Y-77472282D01*
X145841666Y-77472282D02*
X145889285Y-77519901D01*
X145889285Y-77519901D02*
X145936904Y-77615139D01*
X145936904Y-77615139D02*
X145936904Y-77710377D01*
X145936904Y-77710377D02*
X145889285Y-77853234D01*
X145889285Y-77853234D02*
X145317857Y-78424663D01*
X145317857Y-78424663D02*
X145936904Y-78424663D01*
X161757142Y-90359424D02*
X161709523Y-90407044D01*
X161709523Y-90407044D02*
X161566666Y-90454663D01*
X161566666Y-90454663D02*
X161471428Y-90454663D01*
X161471428Y-90454663D02*
X161328571Y-90407044D01*
X161328571Y-90407044D02*
X161233333Y-90311805D01*
X161233333Y-90311805D02*
X161185714Y-90216567D01*
X161185714Y-90216567D02*
X161138095Y-90026091D01*
X161138095Y-90026091D02*
X161138095Y-89883234D01*
X161138095Y-89883234D02*
X161185714Y-89692758D01*
X161185714Y-89692758D02*
X161233333Y-89597520D01*
X161233333Y-89597520D02*
X161328571Y-89502282D01*
X161328571Y-89502282D02*
X161471428Y-89454663D01*
X161471428Y-89454663D02*
X161566666Y-89454663D01*
X161566666Y-89454663D02*
X161709523Y-89502282D01*
X161709523Y-89502282D02*
X161757142Y-89549901D01*
X162709523Y-90454663D02*
X162138095Y-90454663D01*
X162423809Y-90454663D02*
X162423809Y-89454663D01*
X162423809Y-89454663D02*
X162328571Y-89597520D01*
X162328571Y-89597520D02*
X162233333Y-89692758D01*
X162233333Y-89692758D02*
X162138095Y-89740377D01*
X163661904Y-90454663D02*
X163090476Y-90454663D01*
X163376190Y-90454663D02*
X163376190Y-89454663D01*
X163376190Y-89454663D02*
X163280952Y-89597520D01*
X163280952Y-89597520D02*
X163185714Y-89692758D01*
X163185714Y-89692758D02*
X163090476Y-89740377D01*
X161657142Y-87459424D02*
X161609523Y-87507044D01*
X161609523Y-87507044D02*
X161466666Y-87554663D01*
X161466666Y-87554663D02*
X161371428Y-87554663D01*
X161371428Y-87554663D02*
X161228571Y-87507044D01*
X161228571Y-87507044D02*
X161133333Y-87411805D01*
X161133333Y-87411805D02*
X161085714Y-87316567D01*
X161085714Y-87316567D02*
X161038095Y-87126091D01*
X161038095Y-87126091D02*
X161038095Y-86983234D01*
X161038095Y-86983234D02*
X161085714Y-86792758D01*
X161085714Y-86792758D02*
X161133333Y-86697520D01*
X161133333Y-86697520D02*
X161228571Y-86602282D01*
X161228571Y-86602282D02*
X161371428Y-86554663D01*
X161371428Y-86554663D02*
X161466666Y-86554663D01*
X161466666Y-86554663D02*
X161609523Y-86602282D01*
X161609523Y-86602282D02*
X161657142Y-86649901D01*
X162609523Y-87554663D02*
X162038095Y-87554663D01*
X162323809Y-87554663D02*
X162323809Y-86554663D01*
X162323809Y-86554663D02*
X162228571Y-86697520D01*
X162228571Y-86697520D02*
X162133333Y-86792758D01*
X162133333Y-86792758D02*
X162038095Y-86840377D01*
X163228571Y-86554663D02*
X163323809Y-86554663D01*
X163323809Y-86554663D02*
X163419047Y-86602282D01*
X163419047Y-86602282D02*
X163466666Y-86649901D01*
X163466666Y-86649901D02*
X163514285Y-86745139D01*
X163514285Y-86745139D02*
X163561904Y-86935615D01*
X163561904Y-86935615D02*
X163561904Y-87173710D01*
X163561904Y-87173710D02*
X163514285Y-87364186D01*
X163514285Y-87364186D02*
X163466666Y-87459424D01*
X163466666Y-87459424D02*
X163419047Y-87507044D01*
X163419047Y-87507044D02*
X163323809Y-87554663D01*
X163323809Y-87554663D02*
X163228571Y-87554663D01*
X163228571Y-87554663D02*
X163133333Y-87507044D01*
X163133333Y-87507044D02*
X163085714Y-87459424D01*
X163085714Y-87459424D02*
X163038095Y-87364186D01*
X163038095Y-87364186D02*
X162990476Y-87173710D01*
X162990476Y-87173710D02*
X162990476Y-86935615D01*
X162990476Y-86935615D02*
X163038095Y-86745139D01*
X163038095Y-86745139D02*
X163085714Y-86649901D01*
X163085714Y-86649901D02*
X163133333Y-86602282D01*
X163133333Y-86602282D02*
X163228571Y-86554663D01*
X141733333Y-112059424D02*
X141685714Y-112107044D01*
X141685714Y-112107044D02*
X141542857Y-112154663D01*
X141542857Y-112154663D02*
X141447619Y-112154663D01*
X141447619Y-112154663D02*
X141304762Y-112107044D01*
X141304762Y-112107044D02*
X141209524Y-112011805D01*
X141209524Y-112011805D02*
X141161905Y-111916567D01*
X141161905Y-111916567D02*
X141114286Y-111726091D01*
X141114286Y-111726091D02*
X141114286Y-111583234D01*
X141114286Y-111583234D02*
X141161905Y-111392758D01*
X141161905Y-111392758D02*
X141209524Y-111297520D01*
X141209524Y-111297520D02*
X141304762Y-111202282D01*
X141304762Y-111202282D02*
X141447619Y-111154663D01*
X141447619Y-111154663D02*
X141542857Y-111154663D01*
X141542857Y-111154663D02*
X141685714Y-111202282D01*
X141685714Y-111202282D02*
X141733333Y-111249901D01*
X142209524Y-112154663D02*
X142400000Y-112154663D01*
X142400000Y-112154663D02*
X142495238Y-112107044D01*
X142495238Y-112107044D02*
X142542857Y-112059424D01*
X142542857Y-112059424D02*
X142638095Y-111916567D01*
X142638095Y-111916567D02*
X142685714Y-111726091D01*
X142685714Y-111726091D02*
X142685714Y-111345139D01*
X142685714Y-111345139D02*
X142638095Y-111249901D01*
X142638095Y-111249901D02*
X142590476Y-111202282D01*
X142590476Y-111202282D02*
X142495238Y-111154663D01*
X142495238Y-111154663D02*
X142304762Y-111154663D01*
X142304762Y-111154663D02*
X142209524Y-111202282D01*
X142209524Y-111202282D02*
X142161905Y-111249901D01*
X142161905Y-111249901D02*
X142114286Y-111345139D01*
X142114286Y-111345139D02*
X142114286Y-111583234D01*
X142114286Y-111583234D02*
X142161905Y-111678472D01*
X142161905Y-111678472D02*
X142209524Y-111726091D01*
X142209524Y-111726091D02*
X142304762Y-111773710D01*
X142304762Y-111773710D02*
X142495238Y-111773710D01*
X142495238Y-111773710D02*
X142590476Y-111726091D01*
X142590476Y-111726091D02*
X142638095Y-111678472D01*
X142638095Y-111678472D02*
X142685714Y-111583234D01*
X141733333Y-110459424D02*
X141685714Y-110507044D01*
X141685714Y-110507044D02*
X141542857Y-110554663D01*
X141542857Y-110554663D02*
X141447619Y-110554663D01*
X141447619Y-110554663D02*
X141304762Y-110507044D01*
X141304762Y-110507044D02*
X141209524Y-110411805D01*
X141209524Y-110411805D02*
X141161905Y-110316567D01*
X141161905Y-110316567D02*
X141114286Y-110126091D01*
X141114286Y-110126091D02*
X141114286Y-109983234D01*
X141114286Y-109983234D02*
X141161905Y-109792758D01*
X141161905Y-109792758D02*
X141209524Y-109697520D01*
X141209524Y-109697520D02*
X141304762Y-109602282D01*
X141304762Y-109602282D02*
X141447619Y-109554663D01*
X141447619Y-109554663D02*
X141542857Y-109554663D01*
X141542857Y-109554663D02*
X141685714Y-109602282D01*
X141685714Y-109602282D02*
X141733333Y-109649901D01*
X142304762Y-109983234D02*
X142209524Y-109935615D01*
X142209524Y-109935615D02*
X142161905Y-109887996D01*
X142161905Y-109887996D02*
X142114286Y-109792758D01*
X142114286Y-109792758D02*
X142114286Y-109745139D01*
X142114286Y-109745139D02*
X142161905Y-109649901D01*
X142161905Y-109649901D02*
X142209524Y-109602282D01*
X142209524Y-109602282D02*
X142304762Y-109554663D01*
X142304762Y-109554663D02*
X142495238Y-109554663D01*
X142495238Y-109554663D02*
X142590476Y-109602282D01*
X142590476Y-109602282D02*
X142638095Y-109649901D01*
X142638095Y-109649901D02*
X142685714Y-109745139D01*
X142685714Y-109745139D02*
X142685714Y-109792758D01*
X142685714Y-109792758D02*
X142638095Y-109887996D01*
X142638095Y-109887996D02*
X142590476Y-109935615D01*
X142590476Y-109935615D02*
X142495238Y-109983234D01*
X142495238Y-109983234D02*
X142304762Y-109983234D01*
X142304762Y-109983234D02*
X142209524Y-110030853D01*
X142209524Y-110030853D02*
X142161905Y-110078472D01*
X142161905Y-110078472D02*
X142114286Y-110173710D01*
X142114286Y-110173710D02*
X142114286Y-110364186D01*
X142114286Y-110364186D02*
X142161905Y-110459424D01*
X142161905Y-110459424D02*
X142209524Y-110507044D01*
X142209524Y-110507044D02*
X142304762Y-110554663D01*
X142304762Y-110554663D02*
X142495238Y-110554663D01*
X142495238Y-110554663D02*
X142590476Y-110507044D01*
X142590476Y-110507044D02*
X142638095Y-110459424D01*
X142638095Y-110459424D02*
X142685714Y-110364186D01*
X142685714Y-110364186D02*
X142685714Y-110173710D01*
X142685714Y-110173710D02*
X142638095Y-110078472D01*
X142638095Y-110078472D02*
X142590476Y-110030853D01*
X142590476Y-110030853D02*
X142495238Y-109983234D01*
X144033333Y-87059424D02*
X143985714Y-87107044D01*
X143985714Y-87107044D02*
X143842857Y-87154663D01*
X143842857Y-87154663D02*
X143747619Y-87154663D01*
X143747619Y-87154663D02*
X143604762Y-87107044D01*
X143604762Y-87107044D02*
X143509524Y-87011805D01*
X143509524Y-87011805D02*
X143461905Y-86916567D01*
X143461905Y-86916567D02*
X143414286Y-86726091D01*
X143414286Y-86726091D02*
X143414286Y-86583234D01*
X143414286Y-86583234D02*
X143461905Y-86392758D01*
X143461905Y-86392758D02*
X143509524Y-86297520D01*
X143509524Y-86297520D02*
X143604762Y-86202282D01*
X143604762Y-86202282D02*
X143747619Y-86154663D01*
X143747619Y-86154663D02*
X143842857Y-86154663D01*
X143842857Y-86154663D02*
X143985714Y-86202282D01*
X143985714Y-86202282D02*
X144033333Y-86249901D01*
X144366667Y-86154663D02*
X145033333Y-86154663D01*
X145033333Y-86154663D02*
X144604762Y-87154663D01*
X144033333Y-85559424D02*
X143985714Y-85607044D01*
X143985714Y-85607044D02*
X143842857Y-85654663D01*
X143842857Y-85654663D02*
X143747619Y-85654663D01*
X143747619Y-85654663D02*
X143604762Y-85607044D01*
X143604762Y-85607044D02*
X143509524Y-85511805D01*
X143509524Y-85511805D02*
X143461905Y-85416567D01*
X143461905Y-85416567D02*
X143414286Y-85226091D01*
X143414286Y-85226091D02*
X143414286Y-85083234D01*
X143414286Y-85083234D02*
X143461905Y-84892758D01*
X143461905Y-84892758D02*
X143509524Y-84797520D01*
X143509524Y-84797520D02*
X143604762Y-84702282D01*
X143604762Y-84702282D02*
X143747619Y-84654663D01*
X143747619Y-84654663D02*
X143842857Y-84654663D01*
X143842857Y-84654663D02*
X143985714Y-84702282D01*
X143985714Y-84702282D02*
X144033333Y-84749901D01*
X144890476Y-84654663D02*
X144700000Y-84654663D01*
X144700000Y-84654663D02*
X144604762Y-84702282D01*
X144604762Y-84702282D02*
X144557143Y-84749901D01*
X144557143Y-84749901D02*
X144461905Y-84892758D01*
X144461905Y-84892758D02*
X144414286Y-85083234D01*
X144414286Y-85083234D02*
X144414286Y-85464186D01*
X144414286Y-85464186D02*
X144461905Y-85559424D01*
X144461905Y-85559424D02*
X144509524Y-85607044D01*
X144509524Y-85607044D02*
X144604762Y-85654663D01*
X144604762Y-85654663D02*
X144795238Y-85654663D01*
X144795238Y-85654663D02*
X144890476Y-85607044D01*
X144890476Y-85607044D02*
X144938095Y-85559424D01*
X144938095Y-85559424D02*
X144985714Y-85464186D01*
X144985714Y-85464186D02*
X144985714Y-85226091D01*
X144985714Y-85226091D02*
X144938095Y-85130853D01*
X144938095Y-85130853D02*
X144890476Y-85083234D01*
X144890476Y-85083234D02*
X144795238Y-85035615D01*
X144795238Y-85035615D02*
X144604762Y-85035615D01*
X144604762Y-85035615D02*
X144509524Y-85083234D01*
X144509524Y-85083234D02*
X144461905Y-85130853D01*
X144461905Y-85130853D02*
X144414286Y-85226091D01*
X149454663Y-89011904D02*
X150264186Y-89011904D01*
X150264186Y-89011904D02*
X150359424Y-88964285D01*
X150359424Y-88964285D02*
X150407044Y-88916666D01*
X150407044Y-88916666D02*
X150454663Y-88821428D01*
X150454663Y-88821428D02*
X150454663Y-88630952D01*
X150454663Y-88630952D02*
X150407044Y-88535714D01*
X150407044Y-88535714D02*
X150359424Y-88488095D01*
X150359424Y-88488095D02*
X150264186Y-88440476D01*
X150264186Y-88440476D02*
X149454663Y-88440476D01*
X149787996Y-87535714D02*
X150454663Y-87535714D01*
X149407044Y-87773809D02*
X150121329Y-88011904D01*
X150121329Y-88011904D02*
X150121329Y-87392857D01*
D13*
%TO.C,U2*%
X163090000Y-100850000D02*
X163090000Y-94840000D01*
X163090000Y-94840000D02*
X164350000Y-94840000D01*
X169910000Y-94840000D02*
X168650000Y-94840000D01*
X169910000Y-98600000D02*
X169910000Y-94840000D01*
%TO.C,J2*%
X170715000Y-77285000D02*
X170650000Y-77285000D01*
X170650000Y-75960000D02*
X170650000Y-77285000D01*
X164310000Y-80815000D02*
X164245000Y-80815000D01*
X170715000Y-80815000D02*
X170650000Y-80815000D01*
X170715000Y-77285000D02*
X170715000Y-80815000D01*
X164245000Y-77285000D02*
X164245000Y-80815000D01*
X164310000Y-77285000D02*
X164245000Y-77285000D01*
D14*
%TO.C,U3*%
X149850000Y-105525000D02*
X149850000Y-105525000D01*
X149850000Y-105625000D02*
X149850000Y-105625000D01*
X147000000Y-105500000D02*
X164200000Y-105500000D01*
X164200000Y-105500000D02*
X164200000Y-110500000D01*
X164200000Y-110500000D02*
X147000000Y-110500000D01*
X147000000Y-110500000D02*
X147000000Y-105500000D01*
X149850000Y-105625000D02*
G75*
G03*
X149850000Y-105525000I0J50000D01*
G01*
X149850000Y-105525000D02*
G75*
G03*
X149850000Y-105625000I0J-50000D01*
G01*
D13*
%TO.C,Y1*%
X163525000Y-71425000D02*
X163525000Y-72775000D01*
X165275000Y-71425000D02*
X165275000Y-72775000D01*
D14*
%TO.C,SW7*%
X166650000Y-90000000D02*
X170350000Y-90000000D01*
X170350000Y-90000000D02*
X170350000Y-85000000D01*
X170350000Y-85000000D02*
X166650000Y-85000000D01*
X166650000Y-85000000D02*
X166650000Y-90000000D01*
X169531665Y-87500000D02*
G75*
G03*
X169531665Y-87500000I-1081665J0D01*
G01*
%TO.C,SW6*%
X144350000Y-71025000D02*
X140650000Y-71025000D01*
X140650000Y-71025000D02*
X140650000Y-76025000D01*
X140650000Y-76025000D02*
X144350000Y-76025000D01*
X144350000Y-76025000D02*
X144350000Y-71025000D01*
X143631665Y-73525000D02*
G75*
G03*
X143631665Y-73525000I-1081665J0D01*
G01*
%TO.C,SW5*%
X155700000Y-71000000D02*
X152000000Y-71000000D01*
X152000000Y-71000000D02*
X152000000Y-76000000D01*
X152000000Y-76000000D02*
X155700000Y-76000000D01*
X155700000Y-76000000D02*
X155700000Y-71000000D01*
X154981665Y-73500000D02*
G75*
G03*
X154981665Y-73500000I-1081665J0D01*
G01*
%TO.C,SW4*%
X150000000Y-71025000D02*
X146300000Y-71025000D01*
X146300000Y-71025000D02*
X146300000Y-76025000D01*
X146300000Y-76025000D02*
X150000000Y-76025000D01*
X150000000Y-76025000D02*
X150000000Y-71025000D01*
X149281665Y-73525000D02*
G75*
G03*
X149281665Y-73525000I-1081665J0D01*
G01*
%TO.C,SW3*%
X161450000Y-71000000D02*
X157750000Y-71000000D01*
X157750000Y-71000000D02*
X157750000Y-76000000D01*
X157750000Y-76000000D02*
X161450000Y-76000000D01*
X161450000Y-76000000D02*
X161450000Y-71000000D01*
X160731665Y-73500000D02*
G75*
G03*
X160731665Y-73500000I-1081665J0D01*
G01*
D13*
%TO.C,R8*%
X141537258Y-78877500D02*
X141062742Y-78877500D01*
X141537258Y-79922500D02*
X141062742Y-79922500D01*
%TO.C,R4*%
X145235000Y-102572936D02*
X145235000Y-103027064D01*
X143765000Y-102572936D02*
X143765000Y-103027064D01*
%TO.C,R2*%
X163422500Y-83837258D02*
X163422500Y-83362742D01*
X162377500Y-83837258D02*
X162377500Y-83362742D01*
%TO.C,Q1*%
X147090000Y-102070000D02*
X147750000Y-102070000D01*
X149410000Y-103480000D02*
X149410000Y-102070000D01*
X148750000Y-102070000D02*
X149410000Y-102070000D01*
X147090000Y-102070000D02*
X147090000Y-104100000D01*
%TO.C,L1*%
X145210000Y-98100000D02*
X145210000Y-98500000D01*
X142190000Y-98100000D02*
X142190000Y-98500000D01*
%TO.C,D3*%
X157960000Y-101200000D02*
X153950000Y-101200000D01*
X157960000Y-103200000D02*
X153950000Y-103200000D01*
X157960000Y-103200000D02*
X157960000Y-101200000D01*
%TO.C,D2*%
X153290000Y-100700000D02*
X157300000Y-100700000D01*
X153290000Y-98700000D02*
X157300000Y-98700000D01*
X153290000Y-98700000D02*
X153290000Y-100700000D01*
%TO.C,D1*%
X147100000Y-95840000D02*
X147100000Y-99850000D01*
X149100000Y-95840000D02*
X149100000Y-99850000D01*
X149100000Y-95840000D02*
X147100000Y-95840000D01*
%TO.C,C29*%
X144212164Y-108460000D02*
X144427836Y-108460000D01*
X144212164Y-107740000D02*
X144427836Y-107740000D01*
%TO.C,C28*%
X144212164Y-106490000D02*
X144427836Y-106490000D01*
X144212164Y-105770000D02*
X144427836Y-105770000D01*
%TO.C,C27*%
X151384420Y-99810000D02*
X151665580Y-99810000D01*
X151384420Y-98790000D02*
X151665580Y-98790000D01*
%TO.C,C26*%
X160290000Y-98559420D02*
X160290000Y-98840580D01*
X161310000Y-98559420D02*
X161310000Y-98840580D01*
%TO.C,C25*%
X157684420Y-97010000D02*
X157965580Y-97010000D01*
X157684420Y-95990000D02*
X157965580Y-95990000D01*
%TO.C,C24*%
X154459420Y-97010000D02*
X154740580Y-97010000D01*
X154459420Y-95990000D02*
X154740580Y-95990000D01*
%TO.C,C23*%
X154484420Y-94210000D02*
X154765580Y-94210000D01*
X154484420Y-93190000D02*
X154765580Y-93190000D01*
%TO.C,C22*%
X151665580Y-93190000D02*
X151384420Y-93190000D01*
X151665580Y-94210000D02*
X151384420Y-94210000D01*
%TO.C,C21*%
X147965580Y-93190000D02*
X147684420Y-93190000D01*
X147965580Y-94210000D02*
X147684420Y-94210000D01*
%TO.C,C20*%
X151665580Y-95990000D02*
X151384420Y-95990000D01*
X151665580Y-97010000D02*
X151384420Y-97010000D01*
%TO.C,C5*%
X166987836Y-72040000D02*
X166772164Y-72040000D01*
X166987836Y-72760000D02*
X166772164Y-72760000D01*
%TO.C,C4*%
X166987836Y-73310000D02*
X166772164Y-73310000D01*
X166987836Y-74030000D02*
X166772164Y-74030000D01*
%TO.C,C3*%
X160984420Y-79910000D02*
X161265580Y-79910000D01*
X160984420Y-78890000D02*
X161265580Y-78890000D01*
%TO.C,C2*%
X141134420Y-82710000D02*
X141415580Y-82710000D01*
X141134420Y-81690000D02*
X141415580Y-81690000D01*
%TO.C,C1*%
X148084420Y-79910000D02*
X148365580Y-79910000D01*
X148084420Y-78890000D02*
X148365580Y-78890000D01*
%TO.C,R1*%
X157762742Y-94222500D02*
X158237258Y-94222500D01*
X157762742Y-93177500D02*
X158237258Y-93177500D01*
%TO.C,C17*%
X144134420Y-95590000D02*
X144415580Y-95590000D01*
X144134420Y-94570000D02*
X144415580Y-94570000D01*
%TO.C,C16*%
X144134420Y-93990000D02*
X144415580Y-93990000D01*
X144134420Y-92970000D02*
X144415580Y-92970000D01*
%TO.C,C15*%
X144134420Y-92390000D02*
X144415580Y-92390000D01*
X144134420Y-91370000D02*
X144415580Y-91370000D01*
%TO.C,C14*%
X144134420Y-90760000D02*
X144415580Y-90760000D01*
X144134420Y-89740000D02*
X144415580Y-89740000D01*
%TO.C,C13*%
X144559420Y-82710000D02*
X144840580Y-82710000D01*
X144559420Y-81690000D02*
X144840580Y-81690000D01*
%TO.C,C12*%
X144534420Y-79910000D02*
X144815580Y-79910000D01*
X144534420Y-78890000D02*
X144815580Y-78890000D01*
%TO.C,C11*%
X162184420Y-91810000D02*
X162465580Y-91810000D01*
X162184420Y-90790000D02*
X162465580Y-90790000D01*
%TO.C,C10*%
X162134420Y-88910000D02*
X162415580Y-88910000D01*
X162134420Y-87890000D02*
X162415580Y-87890000D01*
%TO.C,C9*%
X144259420Y-112210000D02*
X144540580Y-112210000D01*
X144259420Y-111190000D02*
X144540580Y-111190000D01*
%TO.C,C8*%
X144259420Y-110610000D02*
X144540580Y-110610000D01*
X144259420Y-109590000D02*
X144540580Y-109590000D01*
%TO.C,C7*%
X141484420Y-87210000D02*
X141765580Y-87210000D01*
X141484420Y-86190000D02*
X141765580Y-86190000D01*
%TO.C,C6*%
X141484420Y-85610000D02*
X141765580Y-85610000D01*
X141484420Y-84590000D02*
X141765580Y-84590000D01*
D15*
%TO.C,U4*%
X151850000Y-87210000D02*
X152240000Y-87210000D01*
X158660000Y-87210000D02*
X159050000Y-87210000D01*
X159050000Y-87210000D02*
X159050000Y-86820000D01*
X151850000Y-86820000D02*
X151850000Y-87210000D01*
X159050000Y-80400000D02*
X159050000Y-80010000D01*
X151850000Y-80010000D02*
X151850000Y-80400000D01*
X152240000Y-80010000D02*
X151850000Y-80010000D01*
X159050000Y-80010000D02*
X158660000Y-80010000D01*
D16*
X158550000Y-77610000D02*
G75*
G03*
X158550000Y-77610000I-150000J0D01*
G01*
%TD*%
M02*
