%TF.GenerationSoftware,KiCad,Pcbnew,7.0.8*%
%TF.CreationDate,2024-01-02T21:20:11-06:00*%
%TF.ProjectId,Clock1_v3,436c6f63-6b31-45f7-9633-2e6b69636164,rev?*%
%TF.SameCoordinates,Original*%
%TF.FileFunction,Copper,L2,Bot*%
%TF.FilePolarity,Positive*%
%FSLAX46Y46*%
G04 Gerber Fmt 4.6, Leading zero omitted, Abs format (unit mm)*
G04 Created by KiCad (PCBNEW 7.0.8) date 2024-01-02 21:20:11*
%MOMM*%
%LPD*%
G01*
G04 APERTURE LIST*
G04 Aperture macros list*
%AMRoundRect*
0 Rectangle with rounded corners*
0 $1 Rounding radius*
0 $2 $3 $4 $5 $6 $7 $8 $9 X,Y pos of 4 corners*
0 Add a 4 corners polygon primitive as box body*
4,1,4,$2,$3,$4,$5,$6,$7,$8,$9,$2,$3,0*
0 Add four circle primitives for the rounded corners*
1,1,$1+$1,$2,$3*
1,1,$1+$1,$4,$5*
1,1,$1+$1,$6,$7*
1,1,$1+$1,$8,$9*
0 Add four rect primitives between the rounded corners*
20,1,$1+$1,$2,$3,$4,$5,0*
20,1,$1+$1,$4,$5,$6,$7,0*
20,1,$1+$1,$6,$7,$8,$9,0*
20,1,$1+$1,$8,$9,$2,$3,0*%
G04 Aperture macros list end*
%TA.AperFunction,SMDPad,CuDef*%
%ADD10RoundRect,0.200000X-0.275000X0.200000X-0.275000X-0.200000X0.275000X-0.200000X0.275000X0.200000X0*%
%TD*%
%TA.AperFunction,SMDPad,CuDef*%
%ADD11RoundRect,0.250000X0.375000X0.625000X-0.375000X0.625000X-0.375000X-0.625000X0.375000X-0.625000X0*%
%TD*%
%TA.AperFunction,ViaPad*%
%ADD12C,0.800000*%
%TD*%
%TA.AperFunction,Conductor*%
%ADD13C,0.250000*%
%TD*%
G04 APERTURE END LIST*
D10*
%TO.P,R11,1*%
%TO.N,Net-(D6-A)*%
X164000000Y-71175000D03*
%TO.P,R11,2*%
%TO.N,/LED1*%
X164000000Y-72825000D03*
%TD*%
%TO.P,R10,1*%
%TO.N,Net-(D5-A)*%
X140600000Y-71775000D03*
%TO.P,R10,2*%
%TO.N,/LED2*%
X140600000Y-73425000D03*
%TD*%
%TO.P,R9,1*%
%TO.N,Net-(D4-A)*%
X151000000Y-71000000D03*
%TO.P,R9,2*%
%TO.N,/LED3*%
X151000000Y-72650000D03*
%TD*%
%TO.P,R7,1*%
%TO.N,/PB3*%
X149000000Y-71850000D03*
%TO.P,R7,2*%
%TO.N,VDD*%
X149000000Y-73500000D03*
%TD*%
%TO.P,R6,1*%
%TO.N,/PB2*%
X147300000Y-71875000D03*
%TO.P,R6,2*%
%TO.N,VDD*%
X147300000Y-73525000D03*
%TD*%
%TO.P,R5,1*%
%TO.N,/PB1*%
X159600000Y-71825000D03*
%TO.P,R5,2*%
%TO.N,VDD*%
X159600000Y-73475000D03*
%TD*%
D11*
%TO.P,D6,1,K*%
%TO.N,GND*%
X169000000Y-72500000D03*
%TO.P,D6,2,A*%
%TO.N,Net-(D6-A)*%
X166200000Y-72500000D03*
%TD*%
%TO.P,D5,1,K*%
%TO.N,GND*%
X145400000Y-72500000D03*
%TO.P,D5,2,A*%
%TO.N,Net-(D5-A)*%
X142600000Y-72500000D03*
%TD*%
%TO.P,D4,1,K*%
%TO.N,GND*%
X156500000Y-72500000D03*
%TO.P,D4,2,A*%
%TO.N,Net-(D4-A)*%
X153700000Y-72500000D03*
%TD*%
D12*
%TO.N,/epaper/epaper.spi_scl*%
X157600000Y-104100000D03*
%TO.N,GND*%
X160000000Y-102750000D03*
X159000000Y-109250000D03*
X144750000Y-80750000D03*
X142750000Y-80750000D03*
X168750000Y-74750000D03*
%TO.N,VDD*%
X170750000Y-73500000D03*
%TO.N,GND*%
X156750000Y-69500000D03*
X145500000Y-75000000D03*
%TO.N,VDD*%
X142250000Y-95250000D03*
X140500000Y-83750000D03*
%TO.N,GND*%
X147250000Y-81250000D03*
X148250000Y-76500000D03*
%TO.N,VDD*%
X158500000Y-91250000D03*
X155500000Y-83500000D03*
X153250000Y-81250000D03*
%TO.N,GND*%
X157250000Y-85500000D03*
X159500000Y-89750000D03*
%TO.N,VDD*%
X151000000Y-88000000D03*
%TO.N,GND*%
X164750000Y-87750000D03*
X164750000Y-84750000D03*
X147500000Y-98500000D03*
X146500000Y-104250000D03*
X148750000Y-106250000D03*
X146500000Y-101750000D03*
X146250000Y-107500000D03*
%TO.N,VDD*%
X143750000Y-107000000D03*
X156750000Y-109500000D03*
X168000000Y-97250000D03*
%TO.N,/PB1*%
X159500000Y-70600000D03*
%TO.N,/PB3*%
X148600000Y-70600000D03*
%TO.N,/PB2*%
X147600000Y-70600000D03*
%TO.N,/OSC32_OUT*%
X155900000Y-77800000D03*
X162400000Y-72000000D03*
%TO.N,/OSC32_IN*%
X162400000Y-73200000D03*
X157000000Y-77800000D03*
%TO.N,/LED1*%
X149600000Y-86700000D03*
%TO.N,/LED2*%
X145900000Y-85400000D03*
%TO.N,/LED3*%
X150750000Y-79500000D03*
%TO.N,/nRESET*%
X154100000Y-75200000D03*
X159600000Y-75300000D03*
%TO.N,Net-(U3-VDH)*%
X150700000Y-95100000D03*
X151500000Y-109500000D03*
%TO.N,/epaper/epaper.spi_cs*%
X146750000Y-84000000D03*
%TO.N,/epaper/epaper.spi_scl*%
X147750000Y-84000000D03*
%TO.N,/epaper/epaper.spi_sda*%
X148750000Y-84000000D03*
%TO.N,/epaper/epaper.gpio_reset_n*%
X155100000Y-91000000D03*
%TO.N,/epaper/epaper.gpio_dc*%
X153250000Y-92500000D03*
%TO.N,/epaper/epaper.gpio_busy_n*%
X154000000Y-91000000D03*
%TO.N,/epaper/epaper.gpio_bs*%
X151000000Y-92100000D03*
%TO.N,/epaper/epaper.spi_sda*%
X158500000Y-103750000D03*
%TO.N,/epaper/epaper.spi_cs*%
X156500000Y-104000000D03*
%TO.N,/epaper/epaper.gpio_bs*%
X152250000Y-105000000D03*
%TO.N,/epaper/epaper.gpio_busy_n*%
X153900000Y-104850000D03*
%TO.N,/epaper/epaper.gpio_reset_n*%
X154750000Y-104100000D03*
%TO.N,/epaper/epaper.gpio_dc*%
X155750000Y-103350000D03*
%TD*%
D13*
%TO.N,/epaper/epaper.spi_cs*%
X156500000Y-103177932D02*
X156500000Y-104000000D01*
X155745068Y-102423000D02*
X156500000Y-103177932D01*
X154000000Y-102423000D02*
X155745068Y-102423000D01*
X155752000Y-91270068D02*
X153308000Y-93714068D01*
X153308000Y-101731000D02*
X154000000Y-102423000D01*
X155752000Y-90552000D02*
X155752000Y-91270068D01*
X155548000Y-90348000D02*
X155752000Y-90552000D01*
X149443842Y-90348000D02*
X155548000Y-90348000D01*
X153308000Y-93714068D02*
X153308000Y-101731000D01*
X146750000Y-87654158D02*
X149443842Y-90348000D01*
X146750000Y-84000000D02*
X146750000Y-87654158D01*
%TO.N,/epaper/epaper.spi_scl*%
X157600000Y-104100000D02*
X157600000Y-104000000D01*
X157600000Y-103466842D02*
X157600000Y-104100000D01*
%TO.N,/epaper/epaper.gpio_bs*%
X151700000Y-92800000D02*
X151700000Y-104450000D01*
X151700000Y-92800000D02*
X151000000Y-92100000D01*
X151700000Y-104450000D02*
X152250000Y-105000000D01*
%TO.N,Net-(U3-VDH)*%
X150700000Y-108700000D02*
X150700000Y-95100000D01*
%TO.N,GND*%
X160000000Y-108250000D02*
X160000000Y-102750000D01*
X159000000Y-109250000D02*
X160000000Y-108250000D01*
X142750000Y-80750000D02*
X144750000Y-80750000D01*
%TO.N,VDD*%
X147300000Y-73525000D02*
X147300000Y-74950000D01*
%TO.N,GND*%
X168750000Y-72750000D02*
X169000000Y-72500000D01*
X168750000Y-74750000D02*
X168750000Y-72750000D01*
%TO.N,VDD*%
X170750000Y-72540064D02*
X170750000Y-73500000D01*
X162552000Y-70523000D02*
X168732936Y-70523000D01*
X168732936Y-70523000D02*
X170750000Y-72540064D01*
X159600000Y-73475000D02*
X162552000Y-70523000D01*
%TO.N,GND*%
X156750000Y-69500000D02*
X156500000Y-69750000D01*
X156500000Y-72500000D02*
X156750000Y-69500000D01*
X145400000Y-74900000D02*
X145500000Y-75000000D01*
X145400000Y-72500000D02*
X145400000Y-74900000D01*
X148250000Y-80250000D02*
X147250000Y-81250000D01*
X148250000Y-76500000D02*
X148250000Y-80250000D01*
X159500000Y-87750000D02*
X159500000Y-89750000D01*
X157250000Y-85500000D02*
X159500000Y-87750000D01*
X164750000Y-84750000D02*
X164750000Y-87750000D01*
X147500000Y-100750000D02*
X147500000Y-98500000D01*
X146500000Y-101750000D02*
X147500000Y-100750000D01*
X146500000Y-104250000D02*
X146500000Y-101750000D01*
X147500000Y-107500000D02*
X148750000Y-106250000D01*
X146250000Y-107500000D02*
X147500000Y-107500000D01*
X146500000Y-107250000D02*
X146500000Y-104250000D01*
X146250000Y-107500000D02*
X146500000Y-107250000D01*
%TO.N,/LED2*%
X140600000Y-80100000D02*
X145900000Y-85400000D01*
X140600000Y-73425000D02*
X140600000Y-80100000D01*
%TO.N,Net-(D5-A)*%
X141325000Y-72500000D02*
X140600000Y-71775000D01*
X142600000Y-72500000D02*
X141325000Y-72500000D01*
%TO.N,/PB1*%
X159500000Y-71725000D02*
X159600000Y-71825000D01*
X159500000Y-70600000D02*
X159500000Y-71725000D01*
%TO.N,/PB3*%
X148600000Y-71450000D02*
X149000000Y-71850000D01*
X148600000Y-70600000D02*
X148600000Y-71450000D01*
%TO.N,/PB2*%
X147600000Y-71575000D02*
X147300000Y-71875000D01*
X147600000Y-70600000D02*
X147600000Y-71575000D01*
%TO.N,/OSC32_OUT*%
X162400000Y-72000000D02*
X160252000Y-74148000D01*
X160252000Y-75648000D02*
X159948000Y-75952000D01*
X159948000Y-75952000D02*
X157348000Y-75952000D01*
X160252000Y-74148000D02*
X160252000Y-75648000D01*
X157348000Y-75952000D02*
X155900000Y-77800000D01*
%TO.N,/OSC32_IN*%
X159833158Y-76600000D02*
X160700000Y-75733158D01*
X160700000Y-74900000D02*
X162400000Y-73200000D01*
X157000000Y-77800000D02*
X158200000Y-76600000D01*
X160700000Y-75733158D02*
X160700000Y-74900000D01*
X158200000Y-76600000D02*
X159833158Y-76600000D01*
%TO.N,/LED1*%
X149300000Y-85300000D02*
X149600000Y-86700000D01*
X150900000Y-83700000D02*
X149300000Y-85300000D01*
X153525000Y-83700000D02*
X150900000Y-83700000D01*
X164000000Y-72825000D02*
X164000000Y-73225000D01*
X164000000Y-73225000D02*
X153525000Y-83700000D01*
%TO.N,/LED3*%
X151000000Y-79250000D02*
X151000000Y-72650000D01*
X150750000Y-79500000D02*
X151000000Y-79250000D01*
%TO.N,Net-(D6-A)*%
X164875000Y-71175000D02*
X166200000Y-72500000D01*
X164000000Y-71175000D02*
X164875000Y-71175000D01*
%TO.N,Net-(D4-A)*%
X152200000Y-71000000D02*
X153700000Y-72500000D01*
X151000000Y-71000000D02*
X152200000Y-71000000D01*
%TO.N,/nRESET*%
X153900000Y-75200000D02*
X154000000Y-75100000D01*
X154100000Y-75200000D02*
X153900000Y-75200000D01*
X154100000Y-75000000D02*
X154100000Y-75200000D01*
X154300000Y-74800000D02*
X154100000Y-75000000D01*
X154300000Y-74700000D02*
X154300000Y-74800000D01*
X159000000Y-74700000D02*
X154300000Y-74700000D01*
X159600000Y-75300000D02*
X159000000Y-74700000D01*
%TO.N,Net-(U3-VDH)*%
X150700000Y-95100000D02*
X150700000Y-95200000D01*
X151500000Y-109500000D02*
X150700000Y-108700000D01*
%TO.N,/epaper/epaper.spi_scl*%
X147750000Y-88121000D02*
X147750000Y-84000000D01*
X149600000Y-89971000D02*
X147750000Y-88121000D01*
%TO.N,/epaper/epaper.spi_sda*%
X148750000Y-88538000D02*
X148750000Y-84000000D01*
X149806000Y-89594000D02*
X148750000Y-88538000D01*
X155860317Y-89594000D02*
X149806000Y-89594000D01*
X154062000Y-94100000D02*
X156506000Y-91656000D01*
X154062000Y-100762000D02*
X154062000Y-94100000D01*
X156506000Y-91656000D02*
X156506000Y-90239683D01*
X156446000Y-101646000D02*
X154946000Y-101646000D01*
X154946000Y-101646000D02*
X154062000Y-100762000D01*
X158600000Y-103800000D02*
X156446000Y-101646000D01*
X156506000Y-90239683D02*
X155860317Y-89594000D01*
%TO.N,/epaper/epaper.spi_scl*%
X155704158Y-89971000D02*
X149600000Y-89971000D01*
X156129000Y-90395842D02*
X155704158Y-89971000D01*
X156129000Y-91426226D02*
X156129000Y-90395842D01*
X153685000Y-100985000D02*
X153685000Y-93870226D01*
X157600000Y-103466842D02*
X156156158Y-102023000D01*
X156156158Y-102023000D02*
X154723000Y-102023000D01*
X153685000Y-93870226D02*
X156129000Y-91426226D01*
X154723000Y-102023000D02*
X153685000Y-100985000D01*
%TO.N,/epaper/epaper.gpio_reset_n*%
X154350000Y-91750000D02*
X155100000Y-91000000D01*
X152554000Y-103354000D02*
X152554000Y-91946000D01*
X152750000Y-91750000D02*
X154350000Y-91750000D01*
X153300000Y-104100000D02*
X152554000Y-103354000D01*
X152554000Y-91946000D02*
X152750000Y-91750000D01*
X154750000Y-104100000D02*
X153300000Y-104100000D01*
%TO.N,/epaper/epaper.gpio_dc*%
X153250000Y-93000000D02*
X153250000Y-92500000D01*
X152931000Y-93319000D02*
X153250000Y-93000000D01*
X152931000Y-102631000D02*
X152931000Y-93319000D01*
%TO.N,/epaper/epaper.gpio_busy_n*%
X153702000Y-91298000D02*
X154000000Y-91000000D01*
X152656000Y-91298000D02*
X153702000Y-91298000D01*
X152177000Y-91777000D02*
X152656000Y-91298000D01*
X152177000Y-103977000D02*
X152177000Y-91777000D01*
%TO.N,/epaper/epaper.gpio_dc*%
X155200000Y-102800000D02*
X153100000Y-102800000D01*
X153100000Y-102800000D02*
X152931000Y-102631000D01*
X155750000Y-103350000D02*
X155200000Y-102800000D01*
%TO.N,/epaper/epaper.gpio_busy_n*%
X153050000Y-104850000D02*
X152177000Y-103977000D01*
X153900000Y-104850000D02*
X153050000Y-104850000D01*
%TD*%
%TA.AperFunction,Conductor*%
%TO.N,VDD*%
G36*
X156002091Y-68769685D02*
G01*
X156047846Y-68822489D01*
X156057790Y-68891647D01*
X156028765Y-68955203D01*
X156027203Y-68956971D01*
X156017466Y-68967785D01*
X155922821Y-69131715D01*
X155922818Y-69131722D01*
X155864327Y-69311740D01*
X155864326Y-69311744D01*
X155844540Y-69500000D01*
X155864326Y-69688260D01*
X155865676Y-69694611D01*
X155864995Y-69694755D01*
X155868935Y-69722447D01*
X155869106Y-69722431D01*
X155869447Y-69726046D01*
X155869875Y-69729049D01*
X155869839Y-69730188D01*
X155870659Y-69738857D01*
X155884713Y-69887533D01*
X155884714Y-69887535D01*
X155884715Y-69887540D01*
X155938243Y-70036222D01*
X155938247Y-70036230D01*
X155985604Y-70105914D01*
X156027076Y-70166938D01*
X156027078Y-70166940D01*
X156028381Y-70168418D01*
X156029039Y-70169827D01*
X156031461Y-70173391D01*
X156030886Y-70173781D01*
X156057948Y-70231723D01*
X156058938Y-70260718D01*
X155993279Y-71048632D01*
X155968095Y-71113805D01*
X155911674Y-71155017D01*
X155908721Y-71156036D01*
X155846910Y-71176519D01*
X155805666Y-71190186D01*
X155805663Y-71190187D01*
X155656342Y-71282289D01*
X155532289Y-71406342D01*
X155440187Y-71555663D01*
X155440185Y-71555668D01*
X155435971Y-71568386D01*
X155385001Y-71722203D01*
X155385001Y-71722204D01*
X155385000Y-71722204D01*
X155374500Y-71824983D01*
X155374500Y-73175001D01*
X155374501Y-73175018D01*
X155385000Y-73277796D01*
X155385001Y-73277799D01*
X155440185Y-73444331D01*
X155440187Y-73444336D01*
X155475069Y-73500888D01*
X155532288Y-73593656D01*
X155656344Y-73717712D01*
X155805666Y-73809814D01*
X155875016Y-73832794D01*
X155932461Y-73872567D01*
X155959284Y-73937083D01*
X155946969Y-74005858D01*
X155899426Y-74057058D01*
X155836012Y-74074500D01*
X154370847Y-74074500D01*
X154347595Y-74072300D01*
X154343242Y-74071469D01*
X154281083Y-74039563D01*
X154246041Y-73979116D01*
X154249242Y-73909320D01*
X154289670Y-73852334D01*
X154327488Y-73831964D01*
X154394334Y-73809814D01*
X154543656Y-73717712D01*
X154667712Y-73593656D01*
X154759814Y-73444334D01*
X154814999Y-73277797D01*
X154825500Y-73175009D01*
X154825499Y-71824992D01*
X154818397Y-71755472D01*
X154814999Y-71722203D01*
X154814998Y-71722200D01*
X154785872Y-71634304D01*
X154759814Y-71555666D01*
X154667712Y-71406344D01*
X154543656Y-71282288D01*
X154415313Y-71203126D01*
X154394336Y-71190187D01*
X154394331Y-71190185D01*
X154392862Y-71189698D01*
X154227797Y-71135001D01*
X154227795Y-71135000D01*
X154125010Y-71124500D01*
X153274999Y-71124500D01*
X153274970Y-71124502D01*
X153273788Y-71124623D01*
X153273533Y-71124575D01*
X153271838Y-71124662D01*
X153271817Y-71124256D01*
X153205098Y-71111837D01*
X153173534Y-71088943D01*
X152700803Y-70616212D01*
X152690980Y-70603950D01*
X152690759Y-70604134D01*
X152685786Y-70598123D01*
X152670557Y-70583822D01*
X152635364Y-70550773D01*
X152624402Y-70539811D01*
X152614475Y-70529883D01*
X152608986Y-70525625D01*
X152604561Y-70521847D01*
X152570582Y-70489938D01*
X152570580Y-70489936D01*
X152570577Y-70489935D01*
X152553029Y-70480288D01*
X152536763Y-70469604D01*
X152520933Y-70457325D01*
X152478168Y-70438818D01*
X152472922Y-70436248D01*
X152432093Y-70413803D01*
X152432092Y-70413802D01*
X152412693Y-70408822D01*
X152394281Y-70402518D01*
X152375898Y-70394562D01*
X152375892Y-70394560D01*
X152329874Y-70387272D01*
X152324152Y-70386087D01*
X152279021Y-70374500D01*
X152279019Y-70374500D01*
X152258984Y-70374500D01*
X152239586Y-70372973D01*
X152232162Y-70371797D01*
X152219805Y-70369840D01*
X152219804Y-70369840D01*
X152173416Y-70374225D01*
X152167578Y-70374500D01*
X151891520Y-70374500D01*
X151824481Y-70354815D01*
X151803839Y-70338181D01*
X151710188Y-70244530D01*
X151591678Y-70172888D01*
X151564606Y-70156522D01*
X151402196Y-70105914D01*
X151402194Y-70105913D01*
X151402192Y-70105913D01*
X151352778Y-70101423D01*
X151331616Y-70099500D01*
X150668384Y-70099500D01*
X150649145Y-70101248D01*
X150597807Y-70105913D01*
X150435393Y-70156522D01*
X150289811Y-70244530D01*
X150169530Y-70364811D01*
X150081522Y-70510393D01*
X150030913Y-70672807D01*
X150024500Y-70743386D01*
X150024500Y-71109480D01*
X150004815Y-71176519D01*
X149952011Y-71222274D01*
X149882853Y-71232218D01*
X149819297Y-71203193D01*
X149812819Y-71197161D01*
X149710188Y-71094530D01*
X149564606Y-71006522D01*
X149548354Y-71001457D01*
X149490208Y-70962721D01*
X149462234Y-70898696D01*
X149467315Y-70844755D01*
X149485674Y-70788256D01*
X149505460Y-70600000D01*
X149485674Y-70411744D01*
X149427179Y-70231716D01*
X149332533Y-70067784D01*
X149205871Y-69927112D01*
X149151398Y-69887535D01*
X149052734Y-69815851D01*
X149052729Y-69815848D01*
X148879807Y-69738857D01*
X148879802Y-69738855D01*
X148734001Y-69707865D01*
X148694646Y-69699500D01*
X148505354Y-69699500D01*
X148472897Y-69706398D01*
X148320197Y-69738855D01*
X148320192Y-69738857D01*
X148150436Y-69814439D01*
X148081186Y-69823724D01*
X148049564Y-69814439D01*
X147879807Y-69738857D01*
X147879802Y-69738855D01*
X147734001Y-69707865D01*
X147694646Y-69699500D01*
X147505354Y-69699500D01*
X147472897Y-69706398D01*
X147320197Y-69738855D01*
X147320192Y-69738857D01*
X147147270Y-69815848D01*
X147147265Y-69815851D01*
X146994129Y-69927111D01*
X146867466Y-70067785D01*
X146772821Y-70231715D01*
X146772818Y-70231722D01*
X146716064Y-70406395D01*
X146714326Y-70411744D01*
X146694540Y-70600000D01*
X146714326Y-70788256D01*
X146714327Y-70788259D01*
X146753454Y-70908681D01*
X146755449Y-70978522D01*
X146719368Y-71038355D01*
X146699674Y-71053115D01*
X146589814Y-71119528D01*
X146589810Y-71119531D01*
X146469530Y-71239811D01*
X146450306Y-71271612D01*
X146398777Y-71318798D01*
X146329918Y-71330636D01*
X146265590Y-71303366D01*
X146256509Y-71295141D01*
X146243657Y-71282289D01*
X146243656Y-71282288D01*
X146115313Y-71203126D01*
X146094336Y-71190187D01*
X146094331Y-71190185D01*
X146092862Y-71189698D01*
X145927797Y-71135001D01*
X145927795Y-71135000D01*
X145825010Y-71124500D01*
X144974998Y-71124500D01*
X144974980Y-71124501D01*
X144872203Y-71135000D01*
X144872200Y-71135001D01*
X144705668Y-71190185D01*
X144705663Y-71190187D01*
X144556342Y-71282289D01*
X144432289Y-71406342D01*
X144340187Y-71555663D01*
X144340185Y-71555668D01*
X144335971Y-71568386D01*
X144285001Y-71722203D01*
X144285001Y-71722204D01*
X144285000Y-71722204D01*
X144274500Y-71824983D01*
X144274500Y-73175001D01*
X144274501Y-73175018D01*
X144285000Y-73277796D01*
X144285001Y-73277799D01*
X144340185Y-73444331D01*
X144340187Y-73444336D01*
X144375069Y-73500888D01*
X144432288Y-73593656D01*
X144556344Y-73717712D01*
X144705666Y-73809814D01*
X144705667Y-73809814D01*
X144711813Y-73813605D01*
X144710706Y-73815399D01*
X144755337Y-73854687D01*
X144774500Y-73920908D01*
X144774500Y-74422376D01*
X144757887Y-74484375D01*
X144672823Y-74631710D01*
X144672818Y-74631722D01*
X144614327Y-74811740D01*
X144614326Y-74811744D01*
X144594540Y-75000000D01*
X144614326Y-75188256D01*
X144614327Y-75188259D01*
X144672818Y-75368277D01*
X144672821Y-75368284D01*
X144767467Y-75532216D01*
X144863487Y-75638857D01*
X144894129Y-75672888D01*
X145047265Y-75784148D01*
X145047270Y-75784151D01*
X145220192Y-75861142D01*
X145220197Y-75861144D01*
X145405354Y-75900500D01*
X145405355Y-75900500D01*
X145594644Y-75900500D01*
X145594646Y-75900500D01*
X145779803Y-75861144D01*
X145952730Y-75784151D01*
X146105871Y-75672888D01*
X146232533Y-75532216D01*
X146327179Y-75368284D01*
X146385674Y-75188256D01*
X146405460Y-75000000D01*
X146385674Y-74811744D01*
X146327179Y-74631716D01*
X146232533Y-74467784D01*
X146107947Y-74329418D01*
X146105872Y-74327113D01*
X146077542Y-74306530D01*
X146076613Y-74305854D01*
X146033949Y-74250526D01*
X146025500Y-74205538D01*
X146025500Y-73920908D01*
X146045185Y-73853869D01*
X146089270Y-73815364D01*
X146088186Y-73813606D01*
X146094334Y-73809814D01*
X146146176Y-73777837D01*
X146213567Y-73759397D01*
X146280230Y-73780319D01*
X146325000Y-73833961D01*
X146329657Y-73846485D01*
X146381981Y-74014396D01*
X146469927Y-74159877D01*
X146590122Y-74280072D01*
X146735604Y-74368019D01*
X146735603Y-74368019D01*
X146897894Y-74418590D01*
X146897892Y-74418590D01*
X146968418Y-74424999D01*
X147550000Y-74424999D01*
X147631581Y-74424999D01*
X147702102Y-74418591D01*
X147702107Y-74418590D01*
X147864396Y-74368018D01*
X148009877Y-74280072D01*
X148074817Y-74215131D01*
X148136139Y-74181645D01*
X148205831Y-74186629D01*
X148250180Y-74215130D01*
X148290122Y-74255072D01*
X148435604Y-74343019D01*
X148435603Y-74343019D01*
X148597894Y-74393590D01*
X148597892Y-74393590D01*
X148668418Y-74399999D01*
X148749999Y-74399998D01*
X148750000Y-74399998D01*
X148750000Y-73750000D01*
X149250000Y-73750000D01*
X149250000Y-74399999D01*
X149331581Y-74399999D01*
X149402102Y-74393591D01*
X149402107Y-74393590D01*
X149564396Y-74343018D01*
X149709877Y-74255072D01*
X149830072Y-74134877D01*
X149918019Y-73989395D01*
X149968590Y-73827106D01*
X149975000Y-73756572D01*
X149975000Y-73750000D01*
X149250000Y-73750000D01*
X148750000Y-73750000D01*
X148305590Y-73750000D01*
X148264996Y-73772166D01*
X148238638Y-73775000D01*
X147550000Y-73775000D01*
X147550000Y-74424999D01*
X146968418Y-74424999D01*
X147049999Y-74424998D01*
X147050000Y-74424998D01*
X147050000Y-73399000D01*
X147069685Y-73331961D01*
X147122489Y-73286206D01*
X147174000Y-73275000D01*
X147994410Y-73275000D01*
X148035004Y-73252834D01*
X148061362Y-73250000D01*
X149978268Y-73250000D01*
X150032385Y-73220449D01*
X150102077Y-73225433D01*
X150158011Y-73267303D01*
X150164856Y-73277456D01*
X150169528Y-73285185D01*
X150169530Y-73285188D01*
X150289811Y-73405469D01*
X150289813Y-73405470D01*
X150289815Y-73405472D01*
X150314650Y-73420485D01*
X150361837Y-73472010D01*
X150374500Y-73526601D01*
X150374500Y-78600937D01*
X150354815Y-78667976D01*
X150302011Y-78713731D01*
X150300940Y-78714215D01*
X150297267Y-78715850D01*
X150144129Y-78827111D01*
X150017466Y-78967785D01*
X149922821Y-79131715D01*
X149922818Y-79131722D01*
X149872499Y-79286590D01*
X149864326Y-79311744D01*
X149844540Y-79500000D01*
X149864326Y-79688256D01*
X149864327Y-79688259D01*
X149922818Y-79868277D01*
X149922821Y-79868284D01*
X150017467Y-80032216D01*
X150100560Y-80124500D01*
X150144129Y-80172888D01*
X150297265Y-80284148D01*
X150297270Y-80284151D01*
X150470192Y-80361142D01*
X150470197Y-80361144D01*
X150655354Y-80400500D01*
X150655355Y-80400500D01*
X150844644Y-80400500D01*
X150844646Y-80400500D01*
X151029803Y-80361144D01*
X151202730Y-80284151D01*
X151355871Y-80172888D01*
X151482533Y-80032216D01*
X151577179Y-79868284D01*
X151635674Y-79688256D01*
X151655460Y-79500000D01*
X151635674Y-79311744D01*
X151635671Y-79311736D01*
X151634322Y-79305386D01*
X151635006Y-79305240D01*
X151631065Y-79277554D01*
X151630894Y-79277571D01*
X151630550Y-79273932D01*
X151630124Y-79270939D01*
X151630158Y-79269812D01*
X151630160Y-79269804D01*
X151625775Y-79223415D01*
X151625500Y-79217577D01*
X151625500Y-73526601D01*
X151645185Y-73459562D01*
X151685348Y-73420485D01*
X151710185Y-73405472D01*
X151830472Y-73285185D01*
X151918478Y-73139606D01*
X151969086Y-72977196D01*
X151975500Y-72906616D01*
X151975500Y-72393384D01*
X151969086Y-72322804D01*
X151918478Y-72160394D01*
X151830472Y-72014815D01*
X151830470Y-72014813D01*
X151830469Y-72014811D01*
X151728339Y-71912681D01*
X151694854Y-71851358D01*
X151699838Y-71781666D01*
X151728339Y-71737319D01*
X151802853Y-71662805D01*
X151864176Y-71629320D01*
X151933868Y-71634304D01*
X151978215Y-71662805D01*
X152538181Y-72222771D01*
X152571666Y-72284094D01*
X152574500Y-72310452D01*
X152574500Y-73175001D01*
X152574501Y-73175019D01*
X152585000Y-73277796D01*
X152585001Y-73277799D01*
X152640185Y-73444331D01*
X152640187Y-73444336D01*
X152675069Y-73500888D01*
X152732288Y-73593656D01*
X152856344Y-73717712D01*
X153005666Y-73809814D01*
X153172203Y-73864999D01*
X153274991Y-73875500D01*
X154030488Y-73875499D01*
X154097527Y-73895183D01*
X154143282Y-73947987D01*
X154153226Y-74017146D01*
X154124201Y-74080702D01*
X154068808Y-74117429D01*
X154031558Y-74129532D01*
X154024652Y-74133915D01*
X154003880Y-74144499D01*
X153996273Y-74147511D01*
X153996262Y-74147517D01*
X153949814Y-74181263D01*
X153946595Y-74183451D01*
X153898123Y-74214213D01*
X153898120Y-74214216D01*
X153892529Y-74220170D01*
X153875029Y-74235599D01*
X153868413Y-74240405D01*
X153868412Y-74240406D01*
X153831812Y-74284646D01*
X153829238Y-74287565D01*
X153789937Y-74329417D01*
X153785352Y-74335729D01*
X153782710Y-74333809D01*
X153743686Y-74372519D01*
X153735140Y-74376725D01*
X153647266Y-74415850D01*
X153494129Y-74527111D01*
X153367466Y-74667785D01*
X153272821Y-74831715D01*
X153272818Y-74831722D01*
X153218142Y-75000000D01*
X153214326Y-75011744D01*
X153194540Y-75200000D01*
X153214326Y-75388256D01*
X153214327Y-75388259D01*
X153272818Y-75568277D01*
X153272821Y-75568284D01*
X153367467Y-75732216D01*
X153414227Y-75784148D01*
X153494129Y-75872888D01*
X153647265Y-75984148D01*
X153647270Y-75984151D01*
X153820192Y-76061142D01*
X153820197Y-76061144D01*
X154005354Y-76100500D01*
X154005355Y-76100500D01*
X154194644Y-76100500D01*
X154194646Y-76100500D01*
X154379803Y-76061144D01*
X154552730Y-75984151D01*
X154705871Y-75872888D01*
X154832533Y-75732216D01*
X154927179Y-75568284D01*
X154978225Y-75411182D01*
X155017663Y-75353506D01*
X155082021Y-75326308D01*
X155096156Y-75325500D01*
X156789558Y-75325500D01*
X156856597Y-75345185D01*
X156902352Y-75397989D01*
X156912296Y-75467147D01*
X156887164Y-75525979D01*
X156860737Y-75559706D01*
X156815673Y-75614179D01*
X156811499Y-75620758D01*
X156811060Y-75620479D01*
X156803466Y-75632796D01*
X155839834Y-76862626D01*
X155782992Y-76903255D01*
X155768009Y-76907437D01*
X155620197Y-76938855D01*
X155620192Y-76938857D01*
X155447270Y-77015848D01*
X155447265Y-77015851D01*
X155294129Y-77127111D01*
X155167466Y-77267785D01*
X155072821Y-77431715D01*
X155072818Y-77431722D01*
X155014327Y-77611740D01*
X155014326Y-77611744D01*
X154994540Y-77800000D01*
X155014326Y-77988256D01*
X155014327Y-77988259D01*
X155072818Y-78168277D01*
X155072821Y-78168284D01*
X155167467Y-78332216D01*
X155185207Y-78351918D01*
X155294129Y-78472888D01*
X155447265Y-78584148D01*
X155447270Y-78584151D01*
X155620192Y-78661142D01*
X155620197Y-78661144D01*
X155805354Y-78700500D01*
X155805355Y-78700500D01*
X155994644Y-78700500D01*
X155994646Y-78700500D01*
X156179803Y-78661144D01*
X156352730Y-78584151D01*
X156377114Y-78566434D01*
X156442919Y-78542954D01*
X156510973Y-78558778D01*
X156522879Y-78566429D01*
X156547266Y-78584148D01*
X156547269Y-78584150D01*
X156547270Y-78584151D01*
X156720192Y-78661142D01*
X156720197Y-78661144D01*
X156905354Y-78700500D01*
X156905355Y-78700500D01*
X157094644Y-78700500D01*
X157094646Y-78700500D01*
X157279803Y-78661144D01*
X157388651Y-78612680D01*
X157457900Y-78603396D01*
X157521177Y-78633023D01*
X157558391Y-78692158D01*
X157557727Y-78762025D01*
X157526768Y-78813641D01*
X153302228Y-83038181D01*
X153240905Y-83071666D01*
X153214547Y-83074500D01*
X150982743Y-83074500D01*
X150967122Y-83072775D01*
X150967095Y-83073061D01*
X150959333Y-83072326D01*
X150890172Y-83074500D01*
X150860649Y-83074500D01*
X150853778Y-83075367D01*
X150847959Y-83075825D01*
X150801374Y-83077289D01*
X150801368Y-83077290D01*
X150782126Y-83082880D01*
X150763087Y-83086823D01*
X150743217Y-83089334D01*
X150743203Y-83089337D01*
X150699883Y-83106488D01*
X150694358Y-83108380D01*
X150649613Y-83121380D01*
X150649610Y-83121381D01*
X150632366Y-83131579D01*
X150614905Y-83140133D01*
X150596274Y-83147510D01*
X150596262Y-83147517D01*
X150558570Y-83174902D01*
X150553687Y-83178109D01*
X150513580Y-83201829D01*
X150499414Y-83215995D01*
X150484624Y-83228627D01*
X150468414Y-83240404D01*
X150468411Y-83240407D01*
X150438710Y-83276309D01*
X150434777Y-83280631D01*
X149844140Y-83871268D01*
X149782817Y-83904753D01*
X149713125Y-83899769D01*
X149657192Y-83857897D01*
X149638876Y-83817535D01*
X149637682Y-83817924D01*
X149577181Y-83631722D01*
X149577180Y-83631721D01*
X149577179Y-83631716D01*
X149482533Y-83467784D01*
X149355871Y-83327112D01*
X149355870Y-83327111D01*
X149202734Y-83215851D01*
X149202729Y-83215848D01*
X149029807Y-83138857D01*
X149029802Y-83138855D01*
X148877522Y-83106488D01*
X148844646Y-83099500D01*
X148655354Y-83099500D01*
X148622897Y-83106398D01*
X148470197Y-83138855D01*
X148470192Y-83138857D01*
X148300436Y-83214439D01*
X148231186Y-83223724D01*
X148199564Y-83214439D01*
X148029807Y-83138857D01*
X148029802Y-83138855D01*
X147877522Y-83106488D01*
X147844646Y-83099500D01*
X147655354Y-83099500D01*
X147622897Y-83106398D01*
X147470197Y-83138855D01*
X147470192Y-83138857D01*
X147300436Y-83214439D01*
X147231186Y-83223724D01*
X147199564Y-83214439D01*
X147029807Y-83138857D01*
X147029802Y-83138855D01*
X146877522Y-83106488D01*
X146844646Y-83099500D01*
X146655354Y-83099500D01*
X146622897Y-83106398D01*
X146470197Y-83138855D01*
X146470192Y-83138857D01*
X146297270Y-83215848D01*
X146297265Y-83215851D01*
X146144129Y-83327111D01*
X146017466Y-83467785D01*
X145922821Y-83631715D01*
X145922818Y-83631722D01*
X145864327Y-83811740D01*
X145864326Y-83811744D01*
X145844540Y-84000000D01*
X145857085Y-84119365D01*
X145861958Y-84165724D01*
X145849388Y-84234454D01*
X145801656Y-84285477D01*
X145733916Y-84302595D01*
X145667674Y-84280372D01*
X145650956Y-84266366D01*
X143133805Y-81749215D01*
X143100320Y-81687892D01*
X143105304Y-81618200D01*
X143147176Y-81562267D01*
X143171044Y-81548258D01*
X143202730Y-81534151D01*
X143355871Y-81422888D01*
X143358788Y-81419647D01*
X143361600Y-81416526D01*
X143421087Y-81379879D01*
X143453748Y-81375500D01*
X144046252Y-81375500D01*
X144113291Y-81395185D01*
X144138400Y-81416526D01*
X144144126Y-81422885D01*
X144144130Y-81422889D01*
X144297265Y-81534148D01*
X144297270Y-81534151D01*
X144470192Y-81611142D01*
X144470197Y-81611144D01*
X144655354Y-81650500D01*
X144655355Y-81650500D01*
X144844644Y-81650500D01*
X144844646Y-81650500D01*
X145029803Y-81611144D01*
X145202730Y-81534151D01*
X145355871Y-81422888D01*
X145482533Y-81282216D01*
X145501133Y-81250000D01*
X146344540Y-81250000D01*
X146364326Y-81438256D01*
X146364327Y-81438259D01*
X146422818Y-81618277D01*
X146422821Y-81618284D01*
X146517467Y-81782216D01*
X146644129Y-81922888D01*
X146797265Y-82034148D01*
X146797270Y-82034151D01*
X146970192Y-82111142D01*
X146970197Y-82111144D01*
X147155354Y-82150500D01*
X147155355Y-82150500D01*
X147344644Y-82150500D01*
X147344646Y-82150500D01*
X147529803Y-82111144D01*
X147702730Y-82034151D01*
X147855871Y-81922888D01*
X147982533Y-81782216D01*
X148077179Y-81618284D01*
X148135674Y-81438256D01*
X148153321Y-81270345D01*
X148179905Y-81205732D01*
X148188952Y-81195636D01*
X148633786Y-80750802D01*
X148646048Y-80740980D01*
X148645865Y-80740759D01*
X148651867Y-80735792D01*
X148651877Y-80735786D01*
X148699241Y-80685348D01*
X148720120Y-80664470D01*
X148724373Y-80658986D01*
X148728150Y-80654563D01*
X148760062Y-80620582D01*
X148769714Y-80603023D01*
X148780389Y-80586772D01*
X148792674Y-80570936D01*
X148811186Y-80528152D01*
X148813742Y-80522935D01*
X148836197Y-80482092D01*
X148841180Y-80462680D01*
X148847477Y-80444291D01*
X148855438Y-80425895D01*
X148862729Y-80379853D01*
X148863908Y-80374162D01*
X148875500Y-80329019D01*
X148875500Y-80308983D01*
X148877027Y-80289582D01*
X148880160Y-80269804D01*
X148875775Y-80223415D01*
X148875500Y-80217577D01*
X148875500Y-77198687D01*
X148895185Y-77131648D01*
X148907350Y-77115715D01*
X148925891Y-77095122D01*
X148982533Y-77032216D01*
X149077179Y-76868284D01*
X149135674Y-76688256D01*
X149155460Y-76500000D01*
X149135674Y-76311744D01*
X149077179Y-76131716D01*
X148982533Y-75967784D01*
X148855871Y-75827112D01*
X148855870Y-75827111D01*
X148702734Y-75715851D01*
X148702729Y-75715848D01*
X148529807Y-75638857D01*
X148529802Y-75638855D01*
X148384001Y-75607865D01*
X148344646Y-75599500D01*
X148155354Y-75599500D01*
X148122897Y-75606398D01*
X147970197Y-75638855D01*
X147970192Y-75638857D01*
X147797270Y-75715848D01*
X147797265Y-75715851D01*
X147644129Y-75827111D01*
X147517466Y-75967785D01*
X147422821Y-76131715D01*
X147422818Y-76131722D01*
X147364327Y-76311740D01*
X147364326Y-76311744D01*
X147344540Y-76500000D01*
X147364326Y-76688256D01*
X147364327Y-76688259D01*
X147422818Y-76868277D01*
X147422821Y-76868284D01*
X147517467Y-77032216D01*
X147560772Y-77080310D01*
X147592650Y-77115715D01*
X147622880Y-77178706D01*
X147624500Y-77198687D01*
X147624500Y-79939547D01*
X147604815Y-80006586D01*
X147588181Y-80027228D01*
X147302228Y-80313181D01*
X147240905Y-80346666D01*
X147214547Y-80349500D01*
X147155354Y-80349500D01*
X147122897Y-80356398D01*
X146970197Y-80388855D01*
X146970192Y-80388857D01*
X146797270Y-80465848D01*
X146797265Y-80465851D01*
X146644129Y-80577111D01*
X146517466Y-80717785D01*
X146422821Y-80881715D01*
X146422818Y-80881722D01*
X146364327Y-81061740D01*
X146364326Y-81061744D01*
X146344540Y-81250000D01*
X145501133Y-81250000D01*
X145577179Y-81118284D01*
X145635674Y-80938256D01*
X145655460Y-80750000D01*
X145635674Y-80561744D01*
X145577179Y-80381716D01*
X145482533Y-80217784D01*
X145355871Y-80077112D01*
X145355870Y-80077111D01*
X145202734Y-79965851D01*
X145202729Y-79965848D01*
X145029807Y-79888857D01*
X145029802Y-79888855D01*
X144884001Y-79857865D01*
X144844646Y-79849500D01*
X144655354Y-79849500D01*
X144622897Y-79856398D01*
X144470197Y-79888855D01*
X144470192Y-79888857D01*
X144297270Y-79965848D01*
X144297265Y-79965851D01*
X144144130Y-80077110D01*
X144144126Y-80077114D01*
X144138400Y-80083474D01*
X144078913Y-80120121D01*
X144046252Y-80124500D01*
X143453748Y-80124500D01*
X143386709Y-80104815D01*
X143361600Y-80083474D01*
X143355873Y-80077114D01*
X143355869Y-80077110D01*
X143202734Y-79965851D01*
X143202729Y-79965848D01*
X143029807Y-79888857D01*
X143029802Y-79888855D01*
X142884001Y-79857865D01*
X142844646Y-79849500D01*
X142655354Y-79849500D01*
X142622897Y-79856398D01*
X142470197Y-79888855D01*
X142470192Y-79888857D01*
X142297270Y-79965848D01*
X142297265Y-79965851D01*
X142144129Y-80077111D01*
X142017465Y-80217785D01*
X141946332Y-80340992D01*
X141895765Y-80389208D01*
X141827158Y-80402430D01*
X141762293Y-80376462D01*
X141751264Y-80366673D01*
X141261819Y-79877228D01*
X141228334Y-79815905D01*
X141225500Y-79789547D01*
X141225500Y-74301601D01*
X141245185Y-74234562D01*
X141285348Y-74195485D01*
X141310185Y-74180472D01*
X141430472Y-74060185D01*
X141518478Y-73914606D01*
X141561025Y-73778063D01*
X141599759Y-73719921D01*
X141663784Y-73691946D01*
X141732769Y-73703027D01*
X141756321Y-73717693D01*
X141756340Y-73717708D01*
X141756344Y-73717712D01*
X141905666Y-73809814D01*
X142072203Y-73864999D01*
X142174991Y-73875500D01*
X143025008Y-73875499D01*
X143025016Y-73875498D01*
X143025019Y-73875498D01*
X143085722Y-73869297D01*
X143127797Y-73864999D01*
X143294334Y-73809814D01*
X143443656Y-73717712D01*
X143567712Y-73593656D01*
X143659814Y-73444334D01*
X143714999Y-73277797D01*
X143725500Y-73175009D01*
X143725499Y-71824992D01*
X143718397Y-71755472D01*
X143714999Y-71722203D01*
X143714998Y-71722200D01*
X143685872Y-71634304D01*
X143659814Y-71555666D01*
X143567712Y-71406344D01*
X143443656Y-71282288D01*
X143315313Y-71203126D01*
X143294336Y-71190187D01*
X143294331Y-71190185D01*
X143292862Y-71189698D01*
X143127797Y-71135001D01*
X143127795Y-71135000D01*
X143025010Y-71124500D01*
X142174998Y-71124500D01*
X142174980Y-71124501D01*
X142072203Y-71135000D01*
X142072200Y-71135001D01*
X141905668Y-71190185D01*
X141905663Y-71190187D01*
X141756342Y-71282289D01*
X141718368Y-71320263D01*
X141657045Y-71353748D01*
X141587353Y-71348762D01*
X141531420Y-71306890D01*
X141522485Y-71291735D01*
X141522358Y-71291813D01*
X141516600Y-71282288D01*
X141430472Y-71139815D01*
X141430470Y-71139813D01*
X141430469Y-71139811D01*
X141310188Y-71019530D01*
X141288670Y-71006522D01*
X141164606Y-70931522D01*
X141002196Y-70880914D01*
X141002194Y-70880913D01*
X141002192Y-70880913D01*
X140952778Y-70876423D01*
X140931616Y-70874500D01*
X140268384Y-70874500D01*
X140249145Y-70876248D01*
X140197807Y-70880913D01*
X140035393Y-70931522D01*
X139889811Y-71019530D01*
X139769530Y-71139811D01*
X139681522Y-71285393D01*
X139630913Y-71447807D01*
X139624500Y-71518386D01*
X139624500Y-72031613D01*
X139630913Y-72102192D01*
X139630913Y-72102194D01*
X139630914Y-72102196D01*
X139681522Y-72264606D01*
X139759371Y-72393384D01*
X139769530Y-72410188D01*
X139871661Y-72512319D01*
X139905146Y-72573642D01*
X139900162Y-72643334D01*
X139871661Y-72687681D01*
X139769531Y-72789810D01*
X139769530Y-72789811D01*
X139681522Y-72935393D01*
X139630913Y-73097807D01*
X139627115Y-73139606D01*
X139624500Y-73168384D01*
X139624500Y-73681616D01*
X139625439Y-73691946D01*
X139630913Y-73752192D01*
X139630913Y-73752194D01*
X139630914Y-73752196D01*
X139681522Y-73914606D01*
X139741847Y-74014396D01*
X139769530Y-74060188D01*
X139889811Y-74180469D01*
X139889813Y-74180470D01*
X139889815Y-74180472D01*
X139914650Y-74195485D01*
X139961837Y-74247010D01*
X139974500Y-74301601D01*
X139974500Y-80017255D01*
X139972775Y-80032872D01*
X139973061Y-80032899D01*
X139972326Y-80040665D01*
X139974500Y-80109814D01*
X139974500Y-80139343D01*
X139974501Y-80139360D01*
X139975368Y-80146231D01*
X139975826Y-80152050D01*
X139977290Y-80198624D01*
X139977291Y-80198627D01*
X139982880Y-80217867D01*
X139986824Y-80236911D01*
X139989336Y-80256791D01*
X140006490Y-80300119D01*
X140008382Y-80305647D01*
X140018651Y-80340992D01*
X140021382Y-80350390D01*
X140031011Y-80366673D01*
X140031580Y-80367634D01*
X140040136Y-80385100D01*
X140041624Y-80388856D01*
X140047514Y-80403732D01*
X140074898Y-80441423D01*
X140078106Y-80446307D01*
X140101827Y-80486416D01*
X140101833Y-80486424D01*
X140115990Y-80500580D01*
X140128628Y-80515376D01*
X140140405Y-80531586D01*
X140140406Y-80531587D01*
X140176309Y-80561288D01*
X140180620Y-80565210D01*
X143775003Y-84159594D01*
X144961038Y-85345629D01*
X144994523Y-85406952D01*
X144996678Y-85420348D01*
X145002911Y-85479649D01*
X145014326Y-85588256D01*
X145014327Y-85588259D01*
X145072818Y-85768277D01*
X145072821Y-85768284D01*
X145167467Y-85932216D01*
X145192531Y-85960052D01*
X145294129Y-86072888D01*
X145447265Y-86184148D01*
X145447270Y-86184151D01*
X145620192Y-86261142D01*
X145620197Y-86261144D01*
X145805354Y-86300500D01*
X145805355Y-86300500D01*
X146000500Y-86300500D01*
X146067539Y-86320185D01*
X146113294Y-86372989D01*
X146124500Y-86424500D01*
X146124500Y-87571413D01*
X146122775Y-87587030D01*
X146123061Y-87587057D01*
X146122326Y-87594823D01*
X146124500Y-87663972D01*
X146124500Y-87693501D01*
X146124501Y-87693518D01*
X146125368Y-87700389D01*
X146125826Y-87706208D01*
X146127290Y-87752782D01*
X146127291Y-87752785D01*
X146132880Y-87772025D01*
X146136824Y-87791069D01*
X146139132Y-87809333D01*
X146139336Y-87810949D01*
X146156490Y-87854277D01*
X146158382Y-87859805D01*
X146171381Y-87904546D01*
X146181580Y-87921792D01*
X146190138Y-87939261D01*
X146197514Y-87957890D01*
X146224898Y-87995581D01*
X146228106Y-88000465D01*
X146251827Y-88040574D01*
X146251833Y-88040582D01*
X146265990Y-88054738D01*
X146278628Y-88069534D01*
X146290405Y-88085744D01*
X146290406Y-88085745D01*
X146326309Y-88115446D01*
X146330620Y-88119368D01*
X148294142Y-90082891D01*
X148943039Y-90731788D01*
X148952864Y-90744051D01*
X148953085Y-90743869D01*
X148958056Y-90749878D01*
X148984059Y-90774295D01*
X149008477Y-90797226D01*
X149029371Y-90818120D01*
X149034853Y-90822373D01*
X149039285Y-90826157D01*
X149073260Y-90858062D01*
X149090818Y-90867714D01*
X149107075Y-90878393D01*
X149122906Y-90890673D01*
X149142579Y-90899186D01*
X149165675Y-90909182D01*
X149170919Y-90911750D01*
X149211750Y-90934197D01*
X149224365Y-90937435D01*
X149231147Y-90939177D01*
X149249561Y-90945481D01*
X149267946Y-90953438D01*
X149313999Y-90960732D01*
X149319668Y-90961906D01*
X149364823Y-90973500D01*
X149384858Y-90973500D01*
X149404255Y-90975026D01*
X149424038Y-90978160D01*
X149470426Y-90973775D01*
X149476264Y-90973500D01*
X150788820Y-90973500D01*
X150855859Y-90993185D01*
X150901614Y-91045989D01*
X150911558Y-91115147D01*
X150882533Y-91178703D01*
X150823755Y-91216477D01*
X150814601Y-91218790D01*
X150720197Y-91238855D01*
X150720192Y-91238857D01*
X150547270Y-91315848D01*
X150547265Y-91315851D01*
X150394129Y-91427111D01*
X150267466Y-91567785D01*
X150172821Y-91731715D01*
X150172818Y-91731722D01*
X150114327Y-91911740D01*
X150114326Y-91911744D01*
X150094540Y-92100000D01*
X150114326Y-92288256D01*
X150114327Y-92288259D01*
X150172818Y-92468277D01*
X150172821Y-92468284D01*
X150267467Y-92632216D01*
X150394129Y-92772888D01*
X150547265Y-92884148D01*
X150547270Y-92884151D01*
X150720192Y-92961142D01*
X150720197Y-92961144D01*
X150905354Y-93000500D01*
X150950500Y-93000500D01*
X151017539Y-93020185D01*
X151063294Y-93072989D01*
X151074500Y-93124500D01*
X151074500Y-94105857D01*
X151054815Y-94172896D01*
X151002011Y-94218651D01*
X150932853Y-94228595D01*
X150924720Y-94227147D01*
X150794647Y-94199500D01*
X150794646Y-94199500D01*
X150605354Y-94199500D01*
X150572897Y-94206398D01*
X150420197Y-94238855D01*
X150420192Y-94238857D01*
X150247270Y-94315848D01*
X150247265Y-94315851D01*
X150094129Y-94427111D01*
X149967466Y-94567785D01*
X149872821Y-94731715D01*
X149872818Y-94731722D01*
X149814327Y-94911740D01*
X149814326Y-94911744D01*
X149794540Y-95100000D01*
X149814326Y-95288256D01*
X149814327Y-95288259D01*
X149872818Y-95468277D01*
X149872821Y-95468284D01*
X149967467Y-95632216D01*
X150010772Y-95680310D01*
X150042650Y-95715715D01*
X150072880Y-95778706D01*
X150074500Y-95798687D01*
X150074500Y-108617255D01*
X150072775Y-108632872D01*
X150073061Y-108632899D01*
X150072326Y-108640665D01*
X150074500Y-108709814D01*
X150074500Y-108739343D01*
X150074501Y-108739360D01*
X150075368Y-108746231D01*
X150075826Y-108752050D01*
X150077290Y-108798624D01*
X150077291Y-108798627D01*
X150082880Y-108817867D01*
X150086824Y-108836911D01*
X150089336Y-108856792D01*
X150099204Y-108881716D01*
X150106490Y-108900119D01*
X150108382Y-108905647D01*
X150121381Y-108950388D01*
X150131580Y-108967634D01*
X150140138Y-108985103D01*
X150147514Y-109003732D01*
X150174898Y-109041423D01*
X150178106Y-109046307D01*
X150201827Y-109086416D01*
X150201833Y-109086424D01*
X150215990Y-109100580D01*
X150228628Y-109115376D01*
X150240405Y-109131586D01*
X150240406Y-109131587D01*
X150276309Y-109161288D01*
X150280620Y-109165210D01*
X150365410Y-109250000D01*
X150561038Y-109445629D01*
X150594523Y-109506952D01*
X150596678Y-109520348D01*
X150604968Y-109599227D01*
X150614326Y-109688256D01*
X150614327Y-109688259D01*
X150672818Y-109868277D01*
X150672821Y-109868284D01*
X150767467Y-110032216D01*
X150873971Y-110150500D01*
X150894129Y-110172888D01*
X151047265Y-110284148D01*
X151047270Y-110284151D01*
X151220192Y-110361142D01*
X151220197Y-110361144D01*
X151405354Y-110400500D01*
X151405355Y-110400500D01*
X151594644Y-110400500D01*
X151594646Y-110400500D01*
X151779803Y-110361144D01*
X151952730Y-110284151D01*
X152105871Y-110172888D01*
X152232533Y-110032216D01*
X152327179Y-109868284D01*
X152385674Y-109688256D01*
X152405460Y-109500000D01*
X152385674Y-109311744D01*
X152327179Y-109131716D01*
X152232533Y-108967784D01*
X152105871Y-108827112D01*
X152066665Y-108798627D01*
X151952734Y-108715851D01*
X151952729Y-108715848D01*
X151779807Y-108638857D01*
X151779802Y-108638855D01*
X151634001Y-108607865D01*
X151594646Y-108599500D01*
X151594645Y-108599500D01*
X151535453Y-108599500D01*
X151468414Y-108579815D01*
X151447772Y-108563181D01*
X151361819Y-108477228D01*
X151328334Y-108415905D01*
X151325500Y-108389547D01*
X151325500Y-105642045D01*
X151345185Y-105575006D01*
X151397989Y-105529251D01*
X151467147Y-105519307D01*
X151530703Y-105548332D01*
X151541643Y-105559066D01*
X151609250Y-105634151D01*
X151644129Y-105672888D01*
X151797265Y-105784148D01*
X151797270Y-105784151D01*
X151970192Y-105861142D01*
X151970197Y-105861144D01*
X152155354Y-105900500D01*
X152155355Y-105900500D01*
X152344644Y-105900500D01*
X152344646Y-105900500D01*
X152529803Y-105861144D01*
X152702730Y-105784151D01*
X152855871Y-105672888D01*
X152982533Y-105532216D01*
X152982535Y-105532213D01*
X152986352Y-105526960D01*
X152988728Y-105528686D01*
X153030042Y-105489288D01*
X153086870Y-105475500D01*
X153196252Y-105475500D01*
X153263291Y-105495185D01*
X153288400Y-105516526D01*
X153294126Y-105522885D01*
X153294130Y-105522889D01*
X153447265Y-105634148D01*
X153447270Y-105634151D01*
X153620192Y-105711142D01*
X153620197Y-105711144D01*
X153805354Y-105750500D01*
X153805355Y-105750500D01*
X153994644Y-105750500D01*
X153994646Y-105750500D01*
X154179803Y-105711144D01*
X154352730Y-105634151D01*
X154505871Y-105522888D01*
X154632533Y-105382216D01*
X154727179Y-105218284D01*
X154772354Y-105079248D01*
X154811790Y-105021575D01*
X154864496Y-104996280D01*
X155029803Y-104961144D01*
X155029807Y-104961142D01*
X155029808Y-104961142D01*
X155102659Y-104928706D01*
X155202730Y-104884151D01*
X155355871Y-104772888D01*
X155482533Y-104632216D01*
X155546481Y-104521453D01*
X155597046Y-104473240D01*
X155665653Y-104460016D01*
X155730518Y-104485984D01*
X155761255Y-104521456D01*
X155767467Y-104532216D01*
X155894129Y-104672888D01*
X156047265Y-104784148D01*
X156047270Y-104784151D01*
X156220192Y-104861142D01*
X156220197Y-104861144D01*
X156405354Y-104900500D01*
X156405355Y-104900500D01*
X156594644Y-104900500D01*
X156594646Y-104900500D01*
X156779803Y-104861144D01*
X156922609Y-104797561D01*
X156991857Y-104788277D01*
X157045929Y-104810523D01*
X157147265Y-104884148D01*
X157147270Y-104884151D01*
X157320192Y-104961142D01*
X157320197Y-104961144D01*
X157505354Y-105000500D01*
X157505355Y-105000500D01*
X157694644Y-105000500D01*
X157694646Y-105000500D01*
X157879803Y-104961144D01*
X158052730Y-104884151D01*
X158205871Y-104772888D01*
X158282508Y-104687772D01*
X158341994Y-104651125D01*
X158400438Y-104649455D01*
X158405354Y-104650500D01*
X158405358Y-104650500D01*
X158594644Y-104650500D01*
X158594646Y-104650500D01*
X158779803Y-104611144D01*
X158952730Y-104534151D01*
X159105871Y-104422888D01*
X159158350Y-104364603D01*
X159217837Y-104327955D01*
X159287694Y-104329286D01*
X159345742Y-104368172D01*
X159373552Y-104432269D01*
X159374500Y-104447576D01*
X159374500Y-107939547D01*
X159354815Y-108006586D01*
X159338181Y-108027228D01*
X159052228Y-108313181D01*
X158990905Y-108346666D01*
X158964547Y-108349500D01*
X158905354Y-108349500D01*
X158872897Y-108356398D01*
X158720197Y-108388855D01*
X158720192Y-108388857D01*
X158547270Y-108465848D01*
X158547265Y-108465851D01*
X158394129Y-108577111D01*
X158267466Y-108717785D01*
X158172821Y-108881715D01*
X158172818Y-108881722D01*
X158114327Y-109061740D01*
X158114326Y-109061744D01*
X158094540Y-109250000D01*
X158114326Y-109438256D01*
X158114327Y-109438259D01*
X158172818Y-109618277D01*
X158172821Y-109618284D01*
X158267467Y-109782216D01*
X158394129Y-109922888D01*
X158547265Y-110034148D01*
X158547270Y-110034151D01*
X158720192Y-110111142D01*
X158720197Y-110111144D01*
X158905354Y-110150500D01*
X158905355Y-110150500D01*
X159094644Y-110150500D01*
X159094646Y-110150500D01*
X159279803Y-110111144D01*
X159452730Y-110034151D01*
X159605871Y-109922888D01*
X159732533Y-109782216D01*
X159827179Y-109618284D01*
X159885674Y-109438256D01*
X159903321Y-109270345D01*
X159929905Y-109205732D01*
X159938952Y-109195636D01*
X160383786Y-108750802D01*
X160396048Y-108740980D01*
X160395865Y-108740759D01*
X160401867Y-108735792D01*
X160401877Y-108735786D01*
X160449241Y-108685348D01*
X160470120Y-108664470D01*
X160474373Y-108658986D01*
X160478150Y-108654563D01*
X160510062Y-108620582D01*
X160519714Y-108603023D01*
X160530389Y-108586772D01*
X160542674Y-108570936D01*
X160561186Y-108528152D01*
X160563742Y-108522935D01*
X160586197Y-108482092D01*
X160591180Y-108462680D01*
X160597477Y-108444291D01*
X160605438Y-108425895D01*
X160612729Y-108379853D01*
X160613908Y-108374162D01*
X160625500Y-108329019D01*
X160625500Y-108308983D01*
X160627027Y-108289582D01*
X160630160Y-108269804D01*
X160625775Y-108223415D01*
X160625500Y-108217577D01*
X160625500Y-103448687D01*
X160645185Y-103381648D01*
X160657350Y-103365715D01*
X160675891Y-103345122D01*
X160732533Y-103282216D01*
X160827179Y-103118284D01*
X160885674Y-102938256D01*
X160905460Y-102750000D01*
X160885674Y-102561744D01*
X160827179Y-102381716D01*
X160732533Y-102217784D01*
X160605871Y-102077112D01*
X160605870Y-102077111D01*
X160452734Y-101965851D01*
X160452729Y-101965848D01*
X160279807Y-101888857D01*
X160279802Y-101888855D01*
X160134001Y-101857865D01*
X160094646Y-101849500D01*
X159905354Y-101849500D01*
X159872897Y-101856398D01*
X159720197Y-101888855D01*
X159720192Y-101888857D01*
X159547270Y-101965848D01*
X159547265Y-101965851D01*
X159394129Y-102077111D01*
X159267466Y-102217785D01*
X159172821Y-102381715D01*
X159172818Y-102381722D01*
X159114327Y-102561740D01*
X159114326Y-102561744D01*
X159094540Y-102750000D01*
X159102852Y-102829086D01*
X159090282Y-102897816D01*
X159042550Y-102948839D01*
X158974809Y-102965957D01*
X158929095Y-102955326D01*
X158779806Y-102888857D01*
X158779802Y-102888855D01*
X158634001Y-102857865D01*
X158594646Y-102849500D01*
X158594645Y-102849500D01*
X158585452Y-102849500D01*
X158518413Y-102829815D01*
X158497771Y-102813181D01*
X156946803Y-101262212D01*
X156936980Y-101249950D01*
X156936759Y-101250134D01*
X156931786Y-101244123D01*
X156903738Y-101217784D01*
X156881364Y-101196773D01*
X156869939Y-101185348D01*
X156860475Y-101175883D01*
X156854986Y-101171625D01*
X156850561Y-101167847D01*
X156816582Y-101135938D01*
X156816580Y-101135936D01*
X156816577Y-101135935D01*
X156799029Y-101126288D01*
X156782763Y-101115604D01*
X156766933Y-101103325D01*
X156724168Y-101084818D01*
X156718922Y-101082248D01*
X156678093Y-101059803D01*
X156678092Y-101059802D01*
X156658693Y-101054822D01*
X156640281Y-101048518D01*
X156621898Y-101040562D01*
X156621892Y-101040560D01*
X156575874Y-101033272D01*
X156570152Y-101032087D01*
X156525021Y-101020500D01*
X156525019Y-101020500D01*
X156504984Y-101020500D01*
X156485586Y-101018973D01*
X156478162Y-101017797D01*
X156465805Y-101015840D01*
X156465804Y-101015840D01*
X156419416Y-101020225D01*
X156413578Y-101020500D01*
X155256452Y-101020500D01*
X155189413Y-101000815D01*
X155168771Y-100984181D01*
X154723819Y-100539228D01*
X154690334Y-100477905D01*
X154687500Y-100451547D01*
X154687500Y-94410452D01*
X154707185Y-94343413D01*
X154723819Y-94322771D01*
X154940733Y-94105857D01*
X156889788Y-92156801D01*
X156902042Y-92146986D01*
X156901859Y-92146764D01*
X156907866Y-92141792D01*
X156907877Y-92141786D01*
X156938775Y-92108882D01*
X156955227Y-92091364D01*
X156965671Y-92080918D01*
X156976120Y-92070471D01*
X156980379Y-92064978D01*
X156984152Y-92060561D01*
X157016062Y-92026582D01*
X157025715Y-92009020D01*
X157036389Y-91992770D01*
X157048673Y-91976936D01*
X157067180Y-91934167D01*
X157069749Y-91928924D01*
X157092196Y-91888093D01*
X157092197Y-91888092D01*
X157097177Y-91868691D01*
X157103478Y-91850288D01*
X157111438Y-91831896D01*
X157118730Y-91785849D01*
X157119911Y-91780152D01*
X157131500Y-91735019D01*
X157131500Y-91714983D01*
X157133027Y-91695582D01*
X157136160Y-91675804D01*
X157131775Y-91629415D01*
X157131500Y-91623577D01*
X157131500Y-90322425D01*
X157133224Y-90306805D01*
X157132939Y-90306778D01*
X157133673Y-90299016D01*
X157131500Y-90229855D01*
X157131500Y-90200339D01*
X157131500Y-90200333D01*
X157130631Y-90193462D01*
X157130173Y-90187635D01*
X157128710Y-90141056D01*
X157123119Y-90121813D01*
X157119173Y-90102761D01*
X157116664Y-90082891D01*
X157099504Y-90039550D01*
X157097624Y-90034062D01*
X157084618Y-89989293D01*
X157074422Y-89972053D01*
X157065861Y-89954577D01*
X157058487Y-89935953D01*
X157058486Y-89935951D01*
X157031079Y-89898228D01*
X157027888Y-89893369D01*
X157004172Y-89853266D01*
X157004165Y-89853257D01*
X156990006Y-89839098D01*
X156977368Y-89824302D01*
X156965594Y-89808096D01*
X156929688Y-89778392D01*
X156925376Y-89774469D01*
X156361120Y-89210212D01*
X156351297Y-89197950D01*
X156351076Y-89198134D01*
X156346103Y-89192123D01*
X156295681Y-89144773D01*
X156285192Y-89134284D01*
X156274792Y-89123883D01*
X156269303Y-89119625D01*
X156264878Y-89115847D01*
X156230899Y-89083938D01*
X156230897Y-89083936D01*
X156230894Y-89083935D01*
X156213346Y-89074288D01*
X156197080Y-89063604D01*
X156181250Y-89051325D01*
X156138485Y-89032818D01*
X156133239Y-89030248D01*
X156092410Y-89007803D01*
X156092409Y-89007802D01*
X156073010Y-89002822D01*
X156054598Y-88996518D01*
X156036215Y-88988562D01*
X156036209Y-88988560D01*
X155990191Y-88981272D01*
X155984469Y-88980087D01*
X155939338Y-88968500D01*
X155939336Y-88968500D01*
X155919301Y-88968500D01*
X155899903Y-88966973D01*
X155892479Y-88965797D01*
X155880122Y-88963840D01*
X155880121Y-88963840D01*
X155833733Y-88968225D01*
X155827895Y-88968500D01*
X150116453Y-88968500D01*
X150049414Y-88948815D01*
X150028772Y-88932181D01*
X149411819Y-88315228D01*
X149378334Y-88253905D01*
X149375500Y-88227547D01*
X149375500Y-87724500D01*
X149395185Y-87657461D01*
X149447989Y-87611706D01*
X149499500Y-87600500D01*
X149694644Y-87600500D01*
X149694646Y-87600500D01*
X149879803Y-87561144D01*
X150052730Y-87484151D01*
X150205871Y-87372888D01*
X150332533Y-87232216D01*
X150427179Y-87068284D01*
X150485674Y-86888256D01*
X150505460Y-86700000D01*
X150485674Y-86511744D01*
X150427179Y-86331716D01*
X150332533Y-86167784D01*
X150205871Y-86027112D01*
X150113571Y-85960052D01*
X150070906Y-85904722D01*
X150065210Y-85885716D01*
X150040044Y-85768277D01*
X149997049Y-85567633D01*
X150002097Y-85500000D01*
X156344540Y-85500000D01*
X156364326Y-85688256D01*
X156364327Y-85688259D01*
X156422818Y-85868277D01*
X156422821Y-85868284D01*
X156517467Y-86032216D01*
X156639533Y-86167784D01*
X156644129Y-86172888D01*
X156797265Y-86284148D01*
X156797270Y-86284151D01*
X156970192Y-86361142D01*
X156970197Y-86361144D01*
X157155354Y-86400500D01*
X157214548Y-86400500D01*
X157281587Y-86420185D01*
X157302229Y-86436819D01*
X158838181Y-87972771D01*
X158871666Y-88034094D01*
X158874500Y-88060452D01*
X158874500Y-89051312D01*
X158854815Y-89118351D01*
X158842650Y-89134284D01*
X158767466Y-89217784D01*
X158672821Y-89381715D01*
X158672818Y-89381722D01*
X158614327Y-89561740D01*
X158614326Y-89561744D01*
X158594540Y-89750000D01*
X158614326Y-89938256D01*
X158614327Y-89938259D01*
X158672818Y-90118277D01*
X158672821Y-90118284D01*
X158767467Y-90282216D01*
X158894129Y-90422888D01*
X159047265Y-90534148D01*
X159047270Y-90534151D01*
X159220192Y-90611142D01*
X159220197Y-90611144D01*
X159405354Y-90650500D01*
X159405355Y-90650500D01*
X159594644Y-90650500D01*
X159594646Y-90650500D01*
X159779803Y-90611144D01*
X159952730Y-90534151D01*
X160105871Y-90422888D01*
X160232533Y-90282216D01*
X160327179Y-90118284D01*
X160385674Y-89938256D01*
X160405460Y-89750000D01*
X160385674Y-89561744D01*
X160327179Y-89381716D01*
X160232533Y-89217784D01*
X160225715Y-89210212D01*
X160157350Y-89134284D01*
X160127120Y-89071292D01*
X160125500Y-89051312D01*
X160125500Y-87832742D01*
X160127224Y-87817122D01*
X160126939Y-87817095D01*
X160127673Y-87809333D01*
X160125809Y-87750000D01*
X163844540Y-87750000D01*
X163864326Y-87938256D01*
X163864327Y-87938259D01*
X163922818Y-88118277D01*
X163922821Y-88118284D01*
X164017467Y-88282216D01*
X164144129Y-88422888D01*
X164297265Y-88534148D01*
X164297270Y-88534151D01*
X164470192Y-88611142D01*
X164470197Y-88611144D01*
X164655354Y-88650500D01*
X164655355Y-88650500D01*
X164844644Y-88650500D01*
X164844646Y-88650500D01*
X165029803Y-88611144D01*
X165202730Y-88534151D01*
X165355871Y-88422888D01*
X165482533Y-88282216D01*
X165577179Y-88118284D01*
X165635674Y-87938256D01*
X165655460Y-87750000D01*
X165635674Y-87561744D01*
X165577179Y-87381716D01*
X165482533Y-87217784D01*
X165407350Y-87134284D01*
X165377120Y-87071292D01*
X165375500Y-87051312D01*
X165375500Y-85448687D01*
X165395185Y-85381648D01*
X165407350Y-85365715D01*
X165425891Y-85345122D01*
X165482533Y-85282216D01*
X165577179Y-85118284D01*
X165635674Y-84938256D01*
X165655460Y-84750000D01*
X165635674Y-84561744D01*
X165577179Y-84381716D01*
X165482533Y-84217784D01*
X165355871Y-84077112D01*
X165355870Y-84077111D01*
X165202734Y-83965851D01*
X165202729Y-83965848D01*
X165029807Y-83888857D01*
X165029802Y-83888855D01*
X164884001Y-83857865D01*
X164844646Y-83849500D01*
X164655354Y-83849500D01*
X164622897Y-83856398D01*
X164470197Y-83888855D01*
X164470192Y-83888857D01*
X164297270Y-83965848D01*
X164297265Y-83965851D01*
X164144129Y-84077111D01*
X164017466Y-84217785D01*
X163922821Y-84381715D01*
X163922818Y-84381722D01*
X163884550Y-84499500D01*
X163864326Y-84561744D01*
X163844540Y-84750000D01*
X163864326Y-84938256D01*
X163864327Y-84938259D01*
X163922818Y-85118277D01*
X163922821Y-85118284D01*
X164017467Y-85282216D01*
X164060772Y-85330310D01*
X164092650Y-85365715D01*
X164122880Y-85428706D01*
X164124500Y-85448687D01*
X164124500Y-87051312D01*
X164104815Y-87118351D01*
X164092650Y-87134284D01*
X164017466Y-87217784D01*
X163922821Y-87381715D01*
X163922818Y-87381722D01*
X163864521Y-87561144D01*
X163864326Y-87561744D01*
X163844540Y-87750000D01*
X160125809Y-87750000D01*
X160125500Y-87740172D01*
X160125500Y-87710656D01*
X160125500Y-87710650D01*
X160124631Y-87703779D01*
X160124173Y-87697952D01*
X160124034Y-87693518D01*
X160122710Y-87651373D01*
X160117119Y-87632130D01*
X160113173Y-87613078D01*
X160110664Y-87593208D01*
X160093504Y-87549867D01*
X160091624Y-87544379D01*
X160078618Y-87499610D01*
X160078617Y-87499608D01*
X160068419Y-87482364D01*
X160059858Y-87464888D01*
X160052487Y-87446270D01*
X160052486Y-87446268D01*
X160025090Y-87408560D01*
X160021892Y-87403691D01*
X160008896Y-87381716D01*
X159998171Y-87363580D01*
X159998169Y-87363578D01*
X159998166Y-87363574D01*
X159984005Y-87349413D01*
X159971370Y-87334620D01*
X159959593Y-87318412D01*
X159923693Y-87288713D01*
X159919381Y-87284790D01*
X158188960Y-85554369D01*
X158155475Y-85493046D01*
X158153323Y-85479668D01*
X158135674Y-85311744D01*
X158077179Y-85131716D01*
X157982533Y-84967784D01*
X157855871Y-84827112D01*
X157855870Y-84827111D01*
X157702734Y-84715851D01*
X157702729Y-84715848D01*
X157529807Y-84638857D01*
X157529802Y-84638855D01*
X157384001Y-84607865D01*
X157344646Y-84599500D01*
X157155354Y-84599500D01*
X157122897Y-84606398D01*
X156970197Y-84638855D01*
X156970192Y-84638857D01*
X156797270Y-84715848D01*
X156797265Y-84715851D01*
X156644129Y-84827111D01*
X156517466Y-84967785D01*
X156422821Y-85131715D01*
X156422818Y-85131722D01*
X156373921Y-85282214D01*
X156364326Y-85311744D01*
X156344540Y-85500000D01*
X150002097Y-85500000D01*
X150002249Y-85497960D01*
X150030613Y-85453975D01*
X151122771Y-84361819D01*
X151184094Y-84328334D01*
X151210452Y-84325500D01*
X153442257Y-84325500D01*
X153457877Y-84327224D01*
X153457904Y-84326939D01*
X153465660Y-84327671D01*
X153465667Y-84327673D01*
X153534814Y-84325500D01*
X153564350Y-84325500D01*
X153571228Y-84324630D01*
X153577041Y-84324172D01*
X153623627Y-84322709D01*
X153642869Y-84317117D01*
X153661912Y-84313174D01*
X153681792Y-84310664D01*
X153725122Y-84293507D01*
X153730646Y-84291617D01*
X153734396Y-84290527D01*
X153775390Y-84278618D01*
X153792629Y-84268422D01*
X153810103Y-84259862D01*
X153828727Y-84252488D01*
X153828727Y-84252487D01*
X153828732Y-84252486D01*
X153866449Y-84225082D01*
X153871305Y-84221892D01*
X153911420Y-84198170D01*
X153925589Y-84183999D01*
X153940379Y-84171368D01*
X153956587Y-84159594D01*
X153986299Y-84123676D01*
X153990212Y-84119376D01*
X163359589Y-74750000D01*
X167844540Y-74750000D01*
X167864326Y-74938256D01*
X167864327Y-74938259D01*
X167922818Y-75118277D01*
X167922821Y-75118284D01*
X168017467Y-75282216D01*
X168099639Y-75373477D01*
X168144129Y-75422888D01*
X168297265Y-75534148D01*
X168297270Y-75534151D01*
X168470192Y-75611142D01*
X168470197Y-75611144D01*
X168655354Y-75650500D01*
X168655355Y-75650500D01*
X168844644Y-75650500D01*
X168844646Y-75650500D01*
X169029803Y-75611144D01*
X169202730Y-75534151D01*
X169355871Y-75422888D01*
X169482533Y-75282216D01*
X169577179Y-75118284D01*
X169635674Y-74938256D01*
X169655460Y-74750000D01*
X169635674Y-74561744D01*
X169577179Y-74381716D01*
X169482533Y-74217784D01*
X169462453Y-74195483D01*
X169407350Y-74134284D01*
X169377120Y-74071292D01*
X169375500Y-74051312D01*
X169375500Y-73992534D01*
X169395185Y-73925495D01*
X169447989Y-73879740D01*
X169486897Y-73869176D01*
X169527797Y-73864999D01*
X169694334Y-73809814D01*
X169843656Y-73717712D01*
X169967712Y-73593656D01*
X170059814Y-73444334D01*
X170114999Y-73277797D01*
X170125500Y-73175009D01*
X170125499Y-71824992D01*
X170118397Y-71755472D01*
X170114999Y-71722203D01*
X170114998Y-71722200D01*
X170085872Y-71634304D01*
X170059814Y-71555666D01*
X169967712Y-71406344D01*
X169843656Y-71282288D01*
X169715313Y-71203126D01*
X169694336Y-71190187D01*
X169694331Y-71190185D01*
X169692862Y-71189698D01*
X169527797Y-71135001D01*
X169527795Y-71135000D01*
X169425010Y-71124500D01*
X168574998Y-71124500D01*
X168574980Y-71124501D01*
X168472203Y-71135000D01*
X168472200Y-71135001D01*
X168305668Y-71190185D01*
X168305663Y-71190187D01*
X168156342Y-71282289D01*
X168032289Y-71406342D01*
X167940187Y-71555663D01*
X167940185Y-71555668D01*
X167935971Y-71568386D01*
X167885001Y-71722203D01*
X167885001Y-71722204D01*
X167885000Y-71722204D01*
X167874500Y-71824983D01*
X167874500Y-73175001D01*
X167874501Y-73175018D01*
X167885000Y-73277796D01*
X167885001Y-73277799D01*
X167940185Y-73444331D01*
X167940187Y-73444336D01*
X167975069Y-73500888D01*
X168024154Y-73580469D01*
X168032289Y-73593657D01*
X168088181Y-73649549D01*
X168121666Y-73710872D01*
X168124500Y-73737230D01*
X168124500Y-74051312D01*
X168104815Y-74118351D01*
X168092650Y-74134284D01*
X168017466Y-74217784D01*
X167922821Y-74381715D01*
X167922818Y-74381722D01*
X167864327Y-74561740D01*
X167864326Y-74561744D01*
X167844540Y-74750000D01*
X163359589Y-74750000D01*
X164363601Y-73745988D01*
X164414387Y-73715286D01*
X164564606Y-73668478D01*
X164710185Y-73580472D01*
X164830472Y-73460185D01*
X164894727Y-73353893D01*
X164946253Y-73306707D01*
X165015113Y-73294868D01*
X165079442Y-73322136D01*
X165118548Y-73379038D01*
X165140184Y-73444328D01*
X165140187Y-73444336D01*
X165175069Y-73500888D01*
X165232288Y-73593656D01*
X165356344Y-73717712D01*
X165505666Y-73809814D01*
X165672203Y-73864999D01*
X165774991Y-73875500D01*
X166625008Y-73875499D01*
X166625016Y-73875498D01*
X166625019Y-73875498D01*
X166685722Y-73869297D01*
X166727797Y-73864999D01*
X166894334Y-73809814D01*
X167043656Y-73717712D01*
X167167712Y-73593656D01*
X167259814Y-73444334D01*
X167314999Y-73277797D01*
X167325500Y-73175009D01*
X167325499Y-71824992D01*
X167318397Y-71755472D01*
X167314999Y-71722203D01*
X167314998Y-71722200D01*
X167285872Y-71634304D01*
X167259814Y-71555666D01*
X167167712Y-71406344D01*
X167043656Y-71282288D01*
X166915313Y-71203126D01*
X166894336Y-71190187D01*
X166894331Y-71190185D01*
X166892862Y-71189698D01*
X166727797Y-71135001D01*
X166727795Y-71135000D01*
X166625010Y-71124500D01*
X165774999Y-71124500D01*
X165774970Y-71124502D01*
X165773788Y-71124623D01*
X165773533Y-71124575D01*
X165771838Y-71124662D01*
X165771817Y-71124256D01*
X165705098Y-71111837D01*
X165673534Y-71088943D01*
X165375803Y-70791212D01*
X165365980Y-70778950D01*
X165365759Y-70779134D01*
X165360786Y-70773123D01*
X165310364Y-70725773D01*
X165299919Y-70715328D01*
X165289475Y-70704883D01*
X165283986Y-70700625D01*
X165279561Y-70696847D01*
X165245582Y-70664938D01*
X165245580Y-70664936D01*
X165245577Y-70664935D01*
X165228029Y-70655288D01*
X165211763Y-70644604D01*
X165195933Y-70632325D01*
X165153168Y-70613818D01*
X165147922Y-70611248D01*
X165107093Y-70588803D01*
X165107092Y-70588802D01*
X165087693Y-70583822D01*
X165069281Y-70577518D01*
X165050898Y-70569562D01*
X165050892Y-70569560D01*
X165004874Y-70562272D01*
X164999152Y-70561087D01*
X164954021Y-70549500D01*
X164954019Y-70549500D01*
X164933984Y-70549500D01*
X164914586Y-70547973D01*
X164907162Y-70546797D01*
X164894805Y-70544840D01*
X164887007Y-70544595D01*
X164887081Y-70542223D01*
X164830088Y-70531167D01*
X164799359Y-70508701D01*
X164710188Y-70419530D01*
X164700714Y-70413803D01*
X164564606Y-70331522D01*
X164402196Y-70280914D01*
X164402194Y-70280913D01*
X164402192Y-70280913D01*
X164352778Y-70276423D01*
X164331616Y-70274500D01*
X163668384Y-70274500D01*
X163649145Y-70276248D01*
X163597807Y-70280913D01*
X163435393Y-70331522D01*
X163289811Y-70419530D01*
X163169530Y-70539811D01*
X163081522Y-70685393D01*
X163030913Y-70847807D01*
X163024500Y-70918386D01*
X163024500Y-71101383D01*
X163004815Y-71168422D01*
X162952011Y-71214177D01*
X162882853Y-71224121D01*
X162850064Y-71214662D01*
X162679807Y-71138857D01*
X162679802Y-71138855D01*
X162534001Y-71107865D01*
X162494646Y-71099500D01*
X162305354Y-71099500D01*
X162272897Y-71106398D01*
X162120197Y-71138855D01*
X162120192Y-71138857D01*
X161947270Y-71215848D01*
X161947265Y-71215851D01*
X161794129Y-71327111D01*
X161667466Y-71467785D01*
X161572821Y-71631715D01*
X161572818Y-71631722D01*
X161524099Y-71781666D01*
X161514326Y-71811744D01*
X161503124Y-71918326D01*
X161496679Y-71979649D01*
X161470094Y-72044263D01*
X161461039Y-72054368D01*
X160634375Y-72881031D01*
X160573052Y-72914516D01*
X160503360Y-72909532D01*
X160447427Y-72867660D01*
X160440576Y-72857499D01*
X160430070Y-72840120D01*
X160327984Y-72738034D01*
X160294499Y-72676711D01*
X160299483Y-72607019D01*
X160327983Y-72562673D01*
X160430472Y-72460185D01*
X160518478Y-72314606D01*
X160569086Y-72152196D01*
X160575500Y-72081616D01*
X160575500Y-71568384D01*
X160569086Y-71497804D01*
X160518478Y-71335394D01*
X160430472Y-71189815D01*
X160430470Y-71189813D01*
X160430469Y-71189811D01*
X160351015Y-71110357D01*
X160317530Y-71049034D01*
X160322514Y-70979342D01*
X160325422Y-70972228D01*
X160327174Y-70968292D01*
X160327179Y-70968284D01*
X160385674Y-70788256D01*
X160405460Y-70600000D01*
X160385674Y-70411744D01*
X160327179Y-70231716D01*
X160232533Y-70067784D01*
X160105871Y-69927112D01*
X160051398Y-69887535D01*
X159952734Y-69815851D01*
X159952729Y-69815848D01*
X159779807Y-69738857D01*
X159779802Y-69738855D01*
X159634001Y-69707865D01*
X159594646Y-69699500D01*
X159405354Y-69699500D01*
X159372897Y-69706398D01*
X159220197Y-69738855D01*
X159220192Y-69738857D01*
X159047270Y-69815848D01*
X159047265Y-69815851D01*
X158894129Y-69927111D01*
X158767466Y-70067785D01*
X158672821Y-70231715D01*
X158672818Y-70231722D01*
X158616064Y-70406395D01*
X158614326Y-70411744D01*
X158594540Y-70600000D01*
X158614326Y-70788256D01*
X158614327Y-70788259D01*
X158672818Y-70968277D01*
X158672821Y-70968284D01*
X158748850Y-71099971D01*
X158765323Y-71167872D01*
X158747580Y-71226121D01*
X158681522Y-71335393D01*
X158630913Y-71497807D01*
X158624500Y-71568386D01*
X158624500Y-72081613D01*
X158630913Y-72152192D01*
X158630913Y-72152194D01*
X158630914Y-72152196D01*
X158681522Y-72314606D01*
X158729146Y-72393386D01*
X158769530Y-72460188D01*
X158872015Y-72562673D01*
X158905500Y-72623996D01*
X158900516Y-72693688D01*
X158872015Y-72738035D01*
X158769928Y-72840121D01*
X158769927Y-72840122D01*
X158681980Y-72985604D01*
X158631409Y-73147893D01*
X158625000Y-73218427D01*
X158625000Y-73225000D01*
X159726000Y-73225000D01*
X159793039Y-73244685D01*
X159838794Y-73297489D01*
X159850000Y-73349000D01*
X159850000Y-73601000D01*
X159830315Y-73668039D01*
X159777511Y-73713794D01*
X159726000Y-73725000D01*
X158625001Y-73725000D01*
X158625001Y-73731582D01*
X158631408Y-73802102D01*
X158631409Y-73802107D01*
X158666155Y-73913609D01*
X158667307Y-73983469D01*
X158630506Y-74042862D01*
X158567438Y-74072930D01*
X158547770Y-74074500D01*
X157163989Y-74074500D01*
X157096950Y-74054815D01*
X157051195Y-74002011D01*
X157041251Y-73932853D01*
X157070276Y-73869297D01*
X157124982Y-73832794D01*
X157194334Y-73809814D01*
X157343656Y-73717712D01*
X157467712Y-73593656D01*
X157559814Y-73444334D01*
X157614999Y-73277797D01*
X157625500Y-73175009D01*
X157625499Y-71824992D01*
X157618397Y-71755472D01*
X157614999Y-71722203D01*
X157614998Y-71722200D01*
X157585872Y-71634304D01*
X157559814Y-71555666D01*
X157467712Y-71406344D01*
X157343656Y-71282288D01*
X157343655Y-71282287D01*
X157299538Y-71255075D01*
X157252814Y-71203126D01*
X157241064Y-71139239D01*
X157241096Y-71138855D01*
X157314731Y-70255222D01*
X157339915Y-70190052D01*
X157355343Y-70173362D01*
X157355856Y-70172898D01*
X157355871Y-70172888D01*
X157482533Y-70032216D01*
X157577179Y-69868284D01*
X157635674Y-69688256D01*
X157655460Y-69500000D01*
X157635674Y-69311744D01*
X157577179Y-69131716D01*
X157482533Y-68967784D01*
X157472797Y-68956971D01*
X157442568Y-68893980D01*
X157451194Y-68824644D01*
X157495935Y-68770979D01*
X157562588Y-68750022D01*
X157564948Y-68750000D01*
X172126000Y-68750000D01*
X172193039Y-68769685D01*
X172238794Y-68822489D01*
X172250000Y-68874000D01*
X172250000Y-112626000D01*
X172230315Y-112693039D01*
X172177511Y-112738794D01*
X172126000Y-112750000D01*
X139124000Y-112750000D01*
X139056961Y-112730315D01*
X139011206Y-112677511D01*
X139000000Y-112626000D01*
X139000000Y-107500000D01*
X145344540Y-107500000D01*
X145364326Y-107688256D01*
X145364327Y-107688259D01*
X145422818Y-107868277D01*
X145422821Y-107868284D01*
X145517467Y-108032216D01*
X145638401Y-108166526D01*
X145644129Y-108172888D01*
X145797265Y-108284148D01*
X145797270Y-108284151D01*
X145970192Y-108361142D01*
X145970197Y-108361144D01*
X146155354Y-108400500D01*
X146155355Y-108400500D01*
X146344644Y-108400500D01*
X146344646Y-108400500D01*
X146529803Y-108361144D01*
X146702730Y-108284151D01*
X146855871Y-108172888D01*
X146858788Y-108169647D01*
X146861600Y-108166526D01*
X146921087Y-108129879D01*
X146953748Y-108125500D01*
X147417257Y-108125500D01*
X147432877Y-108127224D01*
X147432904Y-108126939D01*
X147440660Y-108127671D01*
X147440667Y-108127673D01*
X147509814Y-108125500D01*
X147539350Y-108125500D01*
X147546228Y-108124630D01*
X147552041Y-108124172D01*
X147598627Y-108122709D01*
X147617869Y-108117117D01*
X147636912Y-108113174D01*
X147656792Y-108110664D01*
X147700122Y-108093507D01*
X147705646Y-108091617D01*
X147709396Y-108090527D01*
X147750390Y-108078618D01*
X147767629Y-108068422D01*
X147785103Y-108059862D01*
X147803727Y-108052488D01*
X147803727Y-108052487D01*
X147803732Y-108052486D01*
X147841449Y-108025082D01*
X147846305Y-108021892D01*
X147886420Y-107998170D01*
X147900589Y-107983999D01*
X147915379Y-107971368D01*
X147931587Y-107959594D01*
X147961299Y-107923676D01*
X147965212Y-107919376D01*
X148697772Y-107186819D01*
X148759095Y-107153334D01*
X148785453Y-107150500D01*
X148844644Y-107150500D01*
X148844646Y-107150500D01*
X149029803Y-107111144D01*
X149202730Y-107034151D01*
X149355871Y-106922888D01*
X149482533Y-106782216D01*
X149577179Y-106618284D01*
X149635674Y-106438256D01*
X149655460Y-106250000D01*
X149635674Y-106061744D01*
X149577179Y-105881716D01*
X149482533Y-105717784D01*
X149355871Y-105577112D01*
X149355870Y-105577111D01*
X149202734Y-105465851D01*
X149202729Y-105465848D01*
X149029807Y-105388857D01*
X149029802Y-105388855D01*
X148884001Y-105357865D01*
X148844646Y-105349500D01*
X148655354Y-105349500D01*
X148622897Y-105356398D01*
X148470197Y-105388855D01*
X148470192Y-105388857D01*
X148297270Y-105465848D01*
X148297265Y-105465851D01*
X148144129Y-105577111D01*
X148017466Y-105717785D01*
X147922821Y-105881715D01*
X147922818Y-105881722D01*
X147864327Y-106061740D01*
X147864326Y-106061744D01*
X147846679Y-106229649D01*
X147820094Y-106294263D01*
X147811039Y-106304368D01*
X147337181Y-106778227D01*
X147275858Y-106811712D01*
X147206167Y-106806728D01*
X147150233Y-106764857D01*
X147125816Y-106699392D01*
X147125500Y-106690546D01*
X147125500Y-104948687D01*
X147145185Y-104881648D01*
X147157350Y-104865715D01*
X147175891Y-104845122D01*
X147232533Y-104782216D01*
X147327179Y-104618284D01*
X147385674Y-104438256D01*
X147405460Y-104250000D01*
X147385674Y-104061744D01*
X147327179Y-103881716D01*
X147232533Y-103717784D01*
X147157350Y-103634284D01*
X147127120Y-103571292D01*
X147125500Y-103551312D01*
X147125500Y-102448687D01*
X147145185Y-102381648D01*
X147157350Y-102365715D01*
X147175891Y-102345122D01*
X147232533Y-102282216D01*
X147327179Y-102118284D01*
X147385674Y-101938256D01*
X147403321Y-101770345D01*
X147429905Y-101705732D01*
X147438952Y-101695636D01*
X147883786Y-101250802D01*
X147896048Y-101240980D01*
X147895865Y-101240759D01*
X147901867Y-101235792D01*
X147901877Y-101235786D01*
X147949241Y-101185348D01*
X147970120Y-101164470D01*
X147974373Y-101158986D01*
X147978150Y-101154563D01*
X148010062Y-101120582D01*
X148019714Y-101103023D01*
X148030389Y-101086772D01*
X148042674Y-101070936D01*
X148061186Y-101028152D01*
X148063742Y-101022935D01*
X148086197Y-100982092D01*
X148091180Y-100962680D01*
X148097477Y-100944291D01*
X148105438Y-100925895D01*
X148112729Y-100879853D01*
X148113908Y-100874162D01*
X148125500Y-100829019D01*
X148125500Y-100808983D01*
X148127027Y-100789582D01*
X148130160Y-100769804D01*
X148125775Y-100723415D01*
X148125500Y-100717577D01*
X148125500Y-99198687D01*
X148145185Y-99131648D01*
X148157350Y-99115715D01*
X148175891Y-99095122D01*
X148232533Y-99032216D01*
X148327179Y-98868284D01*
X148385674Y-98688256D01*
X148405460Y-98500000D01*
X148385674Y-98311744D01*
X148327179Y-98131716D01*
X148232533Y-97967784D01*
X148105871Y-97827112D01*
X148105870Y-97827111D01*
X147952734Y-97715851D01*
X147952729Y-97715848D01*
X147779807Y-97638857D01*
X147779802Y-97638855D01*
X147634001Y-97607865D01*
X147594646Y-97599500D01*
X147405354Y-97599500D01*
X147372897Y-97606398D01*
X147220197Y-97638855D01*
X147220192Y-97638857D01*
X147047270Y-97715848D01*
X147047265Y-97715851D01*
X146894129Y-97827111D01*
X146767466Y-97967785D01*
X146672821Y-98131715D01*
X146672818Y-98131722D01*
X146614327Y-98311740D01*
X146614326Y-98311744D01*
X146594540Y-98500000D01*
X146614326Y-98688256D01*
X146614327Y-98688259D01*
X146672818Y-98868277D01*
X146672821Y-98868284D01*
X146767467Y-99032216D01*
X146810772Y-99080310D01*
X146842650Y-99115715D01*
X146872880Y-99178706D01*
X146874500Y-99198687D01*
X146874500Y-100439547D01*
X146854815Y-100506586D01*
X146838181Y-100527228D01*
X146552228Y-100813181D01*
X146490905Y-100846666D01*
X146464547Y-100849500D01*
X146405354Y-100849500D01*
X146372897Y-100856398D01*
X146220197Y-100888855D01*
X146220192Y-100888857D01*
X146047270Y-100965848D01*
X146047265Y-100965851D01*
X145894129Y-101077111D01*
X145767466Y-101217785D01*
X145672821Y-101381715D01*
X145672818Y-101381722D01*
X145614327Y-101561740D01*
X145614326Y-101561744D01*
X145594540Y-101750000D01*
X145614326Y-101938256D01*
X145614327Y-101938259D01*
X145672818Y-102118277D01*
X145672821Y-102118284D01*
X145767467Y-102282216D01*
X145810772Y-102330310D01*
X145842650Y-102365715D01*
X145872880Y-102428706D01*
X145874500Y-102448687D01*
X145874500Y-103551312D01*
X145854815Y-103618351D01*
X145842650Y-103634284D01*
X145767466Y-103717784D01*
X145672821Y-103881715D01*
X145672818Y-103881722D01*
X145643276Y-103972645D01*
X145614326Y-104061744D01*
X145594540Y-104250000D01*
X145614326Y-104438256D01*
X145614327Y-104438259D01*
X145672818Y-104618277D01*
X145672821Y-104618284D01*
X145767467Y-104782216D01*
X145781285Y-104797562D01*
X145842650Y-104865715D01*
X145872880Y-104928706D01*
X145874500Y-104948687D01*
X145874500Y-106600937D01*
X145854815Y-106667976D01*
X145802011Y-106713731D01*
X145800940Y-106714215D01*
X145797267Y-106715850D01*
X145644129Y-106827111D01*
X145517466Y-106967785D01*
X145422821Y-107131715D01*
X145422818Y-107131722D01*
X145364327Y-107311740D01*
X145364326Y-107311744D01*
X145344540Y-107500000D01*
X139000000Y-107500000D01*
X139000000Y-68874000D01*
X139019685Y-68806961D01*
X139072489Y-68761206D01*
X139124000Y-68750000D01*
X155935052Y-68750000D01*
X156002091Y-68769685D01*
G37*
%TD.AperFunction*%
%TD*%
M02*
