%TF.GenerationSoftware,KiCad,Pcbnew,7.0.8*%
%TF.CreationDate,2024-01-02T21:20:11-06:00*%
%TF.ProjectId,Clock1_v3,436c6f63-6b31-45f7-9633-2e6b69636164,rev?*%
%TF.SameCoordinates,Original*%
%TF.FileFunction,Copper,L1,Top*%
%TF.FilePolarity,Positive*%
%FSLAX46Y46*%
G04 Gerber Fmt 4.6, Leading zero omitted, Abs format (unit mm)*
G04 Created by KiCad (PCBNEW 7.0.8) date 2024-01-02 21:20:11*
%MOMM*%
%LPD*%
G01*
G04 APERTURE LIST*
G04 Aperture macros list*
%AMRoundRect*
0 Rectangle with rounded corners*
0 $1 Rounding radius*
0 $2 $3 $4 $5 $6 $7 $8 $9 X,Y pos of 4 corners*
0 Add a 4 corners polygon primitive as box body*
4,1,4,$2,$3,$4,$5,$6,$7,$8,$9,$2,$3,0*
0 Add four circle primitives for the rounded corners*
1,1,$1+$1,$2,$3*
1,1,$1+$1,$4,$5*
1,1,$1+$1,$6,$7*
1,1,$1+$1,$8,$9*
0 Add four rect primitives between the rounded corners*
20,1,$1+$1,$2,$3,$4,$5,0*
20,1,$1+$1,$4,$5,$6,$7,0*
20,1,$1+$1,$6,$7,$8,$9,0*
20,1,$1+$1,$8,$9,$2,$3,0*%
G04 Aperture macros list end*
%TA.AperFunction,SMDPad,CuDef*%
%ADD10R,1.500000X2.000000*%
%TD*%
%TA.AperFunction,SMDPad,CuDef*%
%ADD11R,3.800000X2.000000*%
%TD*%
%TA.AperFunction,SMDPad,CuDef*%
%ADD12R,0.740000X2.400000*%
%TD*%
%TA.AperFunction,SMDPad,CuDef*%
%ADD13R,0.300000X1.500000*%
%TD*%
%TA.AperFunction,SMDPad,CuDef*%
%ADD14R,2.000000X1.500000*%
%TD*%
%TA.AperFunction,SMDPad,CuDef*%
%ADD15R,1.800000X1.000000*%
%TD*%
%TA.AperFunction,SMDPad,CuDef*%
%ADD16RoundRect,0.250000X0.512000X-0.250000X0.512000X0.250000X-0.512000X0.250000X-0.512000X-0.250000X0*%
%TD*%
%TA.AperFunction,SMDPad,CuDef*%
%ADD17RoundRect,0.250000X-0.512000X0.250000X-0.512000X-0.250000X0.512000X-0.250000X0.512000X0.250000X0*%
%TD*%
%TA.AperFunction,SMDPad,CuDef*%
%ADD18RoundRect,0.200000X0.200000X0.275000X-0.200000X0.275000X-0.200000X-0.275000X0.200000X-0.275000X0*%
%TD*%
%TA.AperFunction,SMDPad,CuDef*%
%ADD19RoundRect,0.250000X-0.450000X0.262500X-0.450000X-0.262500X0.450000X-0.262500X0.450000X0.262500X0*%
%TD*%
%TA.AperFunction,SMDPad,CuDef*%
%ADD20RoundRect,0.200000X0.275000X-0.200000X0.275000X0.200000X-0.275000X0.200000X-0.275000X-0.200000X0*%
%TD*%
%TA.AperFunction,SMDPad,CuDef*%
%ADD21R,0.450000X0.700000*%
%TD*%
%TA.AperFunction,SMDPad,CuDef*%
%ADD22R,3.000000X1.400000*%
%TD*%
%TA.AperFunction,SMDPad,CuDef*%
%ADD23RoundRect,0.750000X0.750000X0.750000X-0.750000X0.750000X-0.750000X-0.750000X0.750000X-0.750000X0*%
%TD*%
%TA.AperFunction,SMDPad,CuDef*%
%ADD24RoundRect,0.225000X0.225000X0.375000X-0.225000X0.375000X-0.225000X-0.375000X0.225000X-0.375000X0*%
%TD*%
%TA.AperFunction,SMDPad,CuDef*%
%ADD25RoundRect,0.225000X-0.225000X-0.375000X0.225000X-0.375000X0.225000X0.375000X-0.225000X0.375000X0*%
%TD*%
%TA.AperFunction,SMDPad,CuDef*%
%ADD26RoundRect,0.225000X-0.375000X0.225000X-0.375000X-0.225000X0.375000X-0.225000X0.375000X0.225000X0*%
%TD*%
%TA.AperFunction,SMDPad,CuDef*%
%ADD27RoundRect,0.140000X-0.140000X-0.170000X0.140000X-0.170000X0.140000X0.170000X-0.140000X0.170000X0*%
%TD*%
%TA.AperFunction,SMDPad,CuDef*%
%ADD28RoundRect,0.225000X-0.225000X-0.250000X0.225000X-0.250000X0.225000X0.250000X-0.225000X0.250000X0*%
%TD*%
%TA.AperFunction,SMDPad,CuDef*%
%ADD29RoundRect,0.225000X-0.250000X0.225000X-0.250000X-0.225000X0.250000X-0.225000X0.250000X0.225000X0*%
%TD*%
%TA.AperFunction,SMDPad,CuDef*%
%ADD30RoundRect,0.225000X0.225000X0.250000X-0.225000X0.250000X-0.225000X-0.250000X0.225000X-0.250000X0*%
%TD*%
%TA.AperFunction,SMDPad,CuDef*%
%ADD31RoundRect,0.140000X0.140000X0.170000X-0.140000X0.170000X-0.140000X-0.170000X0.140000X-0.170000X0*%
%TD*%
%TA.AperFunction,SMDPad,CuDef*%
%ADD32RoundRect,0.200000X-0.200000X-0.275000X0.200000X-0.275000X0.200000X0.275000X-0.200000X0.275000X0*%
%TD*%
%TA.AperFunction,SMDPad,CuDef*%
%ADD33RoundRect,0.109200X-0.030800X-0.670800X0.030800X-0.670800X0.030800X0.670800X-0.030800X0.670800X0*%
%TD*%
%TA.AperFunction,SMDPad,CuDef*%
%ADD34RoundRect,0.109200X-0.670800X0.030800X-0.670800X-0.030800X0.670800X-0.030800X0.670800X0.030800X0*%
%TD*%
%TA.AperFunction,ViaPad*%
%ADD35C,0.800000*%
%TD*%
%TA.AperFunction,Conductor*%
%ADD36C,0.250000*%
%TD*%
%TA.AperFunction,Conductor*%
%ADD37C,0.750000*%
%TD*%
G04 APERTURE END LIST*
D10*
%TO.P,U2,1,Vin*%
%TO.N,Vin*%
X164200000Y-99900000D03*
%TO.P,U2,2,GND*%
%TO.N,GND*%
X166500000Y-99900000D03*
%TO.P,U2,3,Vout*%
%TO.N,VDD*%
X168800000Y-99900000D03*
D11*
%TO.P,U2,4*%
%TO.N,N/C*%
X166500000Y-93600000D03*
%TD*%
D12*
%TO.P,J2,1,VTref*%
%TO.N,VDD*%
X170020000Y-77100000D03*
%TO.P,J2,2,SWDIO/TMS*%
%TO.N,/SWDIO*%
X170020000Y-81000000D03*
%TO.P,J2,3,GND*%
%TO.N,GND*%
X168750000Y-77100000D03*
%TO.P,J2,4,SWDCLK/TCK*%
%TO.N,/SWDCLK*%
X168750000Y-81000000D03*
%TO.P,J2,5,GND*%
%TO.N,GND*%
X167480000Y-77100000D03*
%TO.P,J2,6,SWO/TDO*%
%TO.N,/SWO*%
X167480000Y-81000000D03*
%TO.P,J2,7,KEY*%
%TO.N,unconnected-(J2-KEY-Pad7)*%
X166210000Y-77100000D03*
%TO.P,J2,8,NC/TDI*%
%TO.N,unconnected-(J2-NC{slash}TDI-Pad8)*%
X166210000Y-81000000D03*
%TO.P,J2,9,GNDDetect*%
%TO.N,GND*%
X164940000Y-77100000D03*
%TO.P,J2,10,~{RESET}*%
%TO.N,/nRESET*%
X164940000Y-81000000D03*
%TD*%
D13*
%TO.P,U3,1,NC*%
%TO.N,unconnected-(U3-NC-Pad1)*%
X149850000Y-106500000D03*
%TO.P,U3,2,GDR*%
%TO.N,Net-(Q1-G)*%
X150350000Y-106500000D03*
%TO.P,U3,3,RSE*%
%TO.N,Net-(Q1-S)*%
X150850000Y-106500000D03*
%TO.P,U3,4,NC*%
%TO.N,unconnected-(U3-NC-Pad4)*%
X151350000Y-106500000D03*
%TO.P,U3,5,VHDR*%
%TO.N,Net-(U3-VHDR)*%
X151850000Y-106500000D03*
%TO.P,U3,6,NC*%
%TO.N,unconnected-(U3-NC-Pad6)*%
X152350000Y-106500000D03*
%TO.P,U3,7,NC*%
%TO.N,unconnected-(U3-NC-Pad7)*%
X152850000Y-106500000D03*
%TO.P,U3,8,BS*%
%TO.N,/epaper/epaper.gpio_bs*%
X153350000Y-106500000D03*
%TO.P,U3,9,BUSY*%
%TO.N,/epaper/epaper.gpio_busy_n*%
X153850000Y-106500000D03*
%TO.P,U3,10,RESET*%
%TO.N,/epaper/epaper.gpio_reset_n*%
X154350000Y-106500000D03*
%TO.P,U3,11,D/C*%
%TO.N,/epaper/epaper.gpio_dc*%
X154850000Y-106500000D03*
%TO.P,U3,12,CS*%
%TO.N,/epaper/epaper.spi_cs*%
X155350000Y-106500000D03*
%TO.P,U3,13,SCL*%
%TO.N,/epaper/epaper.spi_scl*%
X155850000Y-106500000D03*
%TO.P,U3,14,SDA*%
%TO.N,/epaper/epaper.spi_sda*%
X156350000Y-106500000D03*
%TO.P,U3,15,VDDIO*%
%TO.N,VDD*%
X156850000Y-106500000D03*
%TO.P,U3,16,VDDA*%
X157350000Y-106500000D03*
%TO.P,U3,17,GND*%
%TO.N,GND*%
X157850000Y-106500000D03*
%TO.P,U3,18,VDDD*%
%TO.N,Net-(U3-VDDD)*%
X158350000Y-106500000D03*
%TO.P,U3,19,NC*%
%TO.N,unconnected-(U3-NC-Pad19)*%
X158850000Y-106500000D03*
%TO.P,U3,20,VDH*%
%TO.N,Net-(U3-VDH)*%
X159350000Y-106500000D03*
%TO.P,U3,21,VGH*%
%TO.N,Net-(D1-K)*%
X159850000Y-106500000D03*
%TO.P,U3,22,VDL*%
%TO.N,Net-(U3-VDL)*%
X160350000Y-106500000D03*
%TO.P,U3,23,VGL*%
%TO.N,Net-(D2-A)*%
X160850000Y-106500000D03*
%TO.P,U3,24,VCOM*%
%TO.N,Net-(U3-VCOM)*%
X161350000Y-106500000D03*
D14*
%TO.P,U3,MP1*%
%TO.N,N/C*%
X148200000Y-109500000D03*
%TO.P,U3,MP2*%
X163000000Y-109500000D03*
%TD*%
D15*
%TO.P,Y1,1,1*%
%TO.N,/OSC32_IN*%
X164400000Y-73350000D03*
%TO.P,Y1,2,2*%
%TO.N,/OSC32_OUT*%
X164400000Y-70850000D03*
%TD*%
D16*
%TO.P,SW7,1,1*%
%TO.N,GND*%
X166650000Y-90500000D03*
X166650000Y-84500000D03*
%TO.P,SW7,2,2*%
%TO.N,/nRESET*%
X170350000Y-90500000D03*
X170350000Y-84500000D03*
%TD*%
D17*
%TO.P,SW6,1,1*%
%TO.N,GND*%
X144350000Y-70525000D03*
X144350000Y-76525000D03*
%TO.P,SW6,2,2*%
%TO.N,/PB4*%
X140650000Y-70525000D03*
X140650000Y-76525000D03*
%TD*%
%TO.P,SW5,1,1*%
%TO.N,GND*%
X155700000Y-70500000D03*
X155700000Y-76500000D03*
%TO.P,SW5,2,2*%
%TO.N,/PB3*%
X152000000Y-70500000D03*
X152000000Y-76500000D03*
%TD*%
%TO.P,SW4,1,1*%
%TO.N,GND*%
X150000000Y-70525000D03*
X150000000Y-76525000D03*
%TO.P,SW4,2,2*%
%TO.N,/PB2*%
X146300000Y-70525000D03*
X146300000Y-76525000D03*
%TD*%
%TO.P,SW3,1,1*%
%TO.N,GND*%
X161450000Y-70500000D03*
X161450000Y-76500000D03*
%TO.P,SW3,2,2*%
%TO.N,/PB1*%
X157750000Y-70500000D03*
X157750000Y-76500000D03*
%TD*%
D18*
%TO.P,R8,1*%
%TO.N,/PB4*%
X142125000Y-79400000D03*
%TO.P,R8,2*%
%TO.N,VDD*%
X140475000Y-79400000D03*
%TD*%
D19*
%TO.P,R4,1*%
%TO.N,GND*%
X144500000Y-101887500D03*
%TO.P,R4,2*%
%TO.N,Net-(Q1-S)*%
X144500000Y-103712500D03*
%TD*%
D20*
%TO.P,R2,1*%
%TO.N,GND*%
X162900000Y-84425000D03*
%TO.P,R2,2*%
%TO.N,/BOOT0*%
X162900000Y-82775000D03*
%TD*%
D21*
%TO.P,Q1,1,G*%
%TO.N,Net-(Q1-G)*%
X147600000Y-103800000D03*
%TO.P,Q1,2,S*%
%TO.N,Net-(Q1-S)*%
X148900000Y-103800000D03*
%TO.P,Q1,3,D*%
%TO.N,Net-(D1-A)*%
X148250000Y-101800000D03*
%TD*%
D22*
%TO.P,L1,1,1*%
%TO.N,VDD*%
X143700000Y-97200000D03*
%TO.P,L1,2,2*%
%TO.N,Net-(D1-A)*%
X143700000Y-99400000D03*
%TD*%
D23*
%TO.P,J1,1*%
%TO.N,Vin*%
X169000000Y-109400000D03*
%TO.P,J1,2*%
%TO.N,GND*%
X168900000Y-104500000D03*
%TD*%
D24*
%TO.P,D3,1,K*%
%TO.N,GND*%
X157250000Y-102200000D03*
%TO.P,D3,2,A*%
%TO.N,Net-(D2-K)*%
X153950000Y-102200000D03*
%TD*%
D25*
%TO.P,D2,1,K*%
%TO.N,Net-(D2-K)*%
X154000000Y-99700000D03*
%TO.P,D2,2,A*%
%TO.N,Net-(D2-A)*%
X157300000Y-99700000D03*
%TD*%
D26*
%TO.P,D1,1,K*%
%TO.N,Net-(D1-K)*%
X148100000Y-96550000D03*
%TO.P,D1,2,A*%
%TO.N,Net-(D1-A)*%
X148100000Y-99850000D03*
%TD*%
D27*
%TO.P,C29,1*%
%TO.N,VDD*%
X143840000Y-108100000D03*
%TO.P,C29,2*%
%TO.N,GND*%
X144800000Y-108100000D03*
%TD*%
%TO.P,C28,1*%
%TO.N,VDD*%
X143840000Y-106130000D03*
%TO.P,C28,2*%
%TO.N,GND*%
X144800000Y-106130000D03*
%TD*%
D28*
%TO.P,C27,1*%
%TO.N,Net-(D1-A)*%
X150750000Y-99300000D03*
%TO.P,C27,2*%
%TO.N,Net-(D2-K)*%
X152300000Y-99300000D03*
%TD*%
D29*
%TO.P,C26,1*%
%TO.N,GND*%
X160800000Y-97925000D03*
%TO.P,C26,2*%
%TO.N,Net-(D2-A)*%
X160800000Y-99475000D03*
%TD*%
D28*
%TO.P,C25,1*%
%TO.N,GND*%
X157050000Y-96500000D03*
%TO.P,C25,2*%
%TO.N,Net-(U3-VCOM)*%
X158600000Y-96500000D03*
%TD*%
%TO.P,C24,1*%
%TO.N,GND*%
X153825000Y-96500000D03*
%TO.P,C24,2*%
%TO.N,Net-(U3-VDL)*%
X155375000Y-96500000D03*
%TD*%
%TO.P,C23,1*%
%TO.N,GND*%
X153850000Y-93700000D03*
%TO.P,C23,2*%
%TO.N,Net-(U3-VDDD)*%
X155400000Y-93700000D03*
%TD*%
D30*
%TO.P,C22,1*%
%TO.N,GND*%
X152300000Y-93700000D03*
%TO.P,C22,2*%
%TO.N,Net-(U3-VDH)*%
X150750000Y-93700000D03*
%TD*%
%TO.P,C21,1*%
%TO.N,GND*%
X148600000Y-93700000D03*
%TO.P,C21,2*%
%TO.N,Net-(D1-K)*%
X147050000Y-93700000D03*
%TD*%
%TO.P,C20,1*%
%TO.N,GND*%
X152300000Y-96500000D03*
%TO.P,C20,2*%
%TO.N,Net-(U3-VHDR)*%
X150750000Y-96500000D03*
%TD*%
D31*
%TO.P,C5,1*%
%TO.N,GND*%
X167360000Y-72400000D03*
%TO.P,C5,2*%
%TO.N,/OSC32_OUT*%
X166400000Y-72400000D03*
%TD*%
%TO.P,C4,1*%
%TO.N,GND*%
X167360000Y-73670000D03*
%TO.P,C4,2*%
%TO.N,/OSC32_IN*%
X166400000Y-73670000D03*
%TD*%
D28*
%TO.P,C3,1*%
%TO.N,GND*%
X160350000Y-79400000D03*
%TO.P,C3,2*%
%TO.N,/nRESET*%
X161900000Y-79400000D03*
%TD*%
%TO.P,C2,1*%
%TO.N,VDD*%
X140500000Y-82200000D03*
%TO.P,C2,2*%
%TO.N,GND*%
X142050000Y-82200000D03*
%TD*%
%TO.P,C1,1*%
%TO.N,VDD*%
X147450000Y-79400000D03*
%TO.P,C1,2*%
%TO.N,GND*%
X149000000Y-79400000D03*
%TD*%
D32*
%TO.P,R1,1*%
%TO.N,/epaper/epaper.gpio_busy_n*%
X157175000Y-93700000D03*
%TO.P,R1,2*%
%TO.N,VDD*%
X158825000Y-93700000D03*
%TD*%
D28*
%TO.P,C17,1*%
%TO.N,VDD*%
X143500000Y-95080000D03*
%TO.P,C17,2*%
%TO.N,GND*%
X145050000Y-95080000D03*
%TD*%
%TO.P,C16,1*%
%TO.N,VDD*%
X143500000Y-93480000D03*
%TO.P,C16,2*%
%TO.N,GND*%
X145050000Y-93480000D03*
%TD*%
%TO.P,C15,1*%
%TO.N,VDD*%
X143500000Y-91880000D03*
%TO.P,C15,2*%
%TO.N,GND*%
X145050000Y-91880000D03*
%TD*%
%TO.P,C14,1*%
%TO.N,VDD*%
X143500000Y-90250000D03*
%TO.P,C14,2*%
%TO.N,GND*%
X145050000Y-90250000D03*
%TD*%
%TO.P,C13,1*%
%TO.N,VDD*%
X143925000Y-82200000D03*
%TO.P,C13,2*%
%TO.N,GND*%
X145475000Y-82200000D03*
%TD*%
%TO.P,C12,1*%
%TO.N,VDD*%
X143900000Y-79400000D03*
%TO.P,C12,2*%
%TO.N,GND*%
X145450000Y-79400000D03*
%TD*%
%TO.P,C11,1*%
%TO.N,VDD*%
X161550000Y-91300000D03*
%TO.P,C11,2*%
%TO.N,GND*%
X163100000Y-91300000D03*
%TD*%
%TO.P,C10,1*%
%TO.N,VDD*%
X161500000Y-88400000D03*
%TO.P,C10,2*%
%TO.N,GND*%
X163050000Y-88400000D03*
%TD*%
%TO.P,C9,1*%
%TO.N,VDD*%
X143625000Y-111700000D03*
%TO.P,C9,2*%
%TO.N,GND*%
X145175000Y-111700000D03*
%TD*%
%TO.P,C8,1*%
%TO.N,VDD*%
X143625000Y-110100000D03*
%TO.P,C8,2*%
%TO.N,GND*%
X145175000Y-110100000D03*
%TD*%
%TO.P,C7,1*%
%TO.N,VDD*%
X140850000Y-86700000D03*
%TO.P,C7,2*%
%TO.N,GND*%
X142400000Y-86700000D03*
%TD*%
%TO.P,C6,1*%
%TO.N,VDD*%
X140850000Y-85100000D03*
%TO.P,C6,2*%
%TO.N,GND*%
X142400000Y-85100000D03*
%TD*%
D33*
%TO.P,U4,1,VBAT*%
%TO.N,unconnected-(U4-VBAT-Pad1)*%
X158200000Y-79430000D03*
%TO.P,U4,2,PC13-TAMPER-RTC*%
%TO.N,/PB1*%
X157700000Y-79430000D03*
%TO.P,U4,3,PC14-OSC32_IN*%
%TO.N,/OSC32_IN*%
X157200000Y-79430000D03*
%TO.P,U4,4,PC15-OSC32_OUT*%
%TO.N,/OSC32_OUT*%
X156700000Y-79430000D03*
%TO.P,U4,5,PD0_OSC_IN*%
%TO.N,unconnected-(U4-PD0_OSC_IN-Pad5)*%
X156200000Y-79430000D03*
%TO.P,U4,6,PD1_OSC_OUT*%
%TO.N,unconnected-(U4-PD1_OSC_OUT-Pad6)*%
X155700000Y-79430000D03*
%TO.P,U4,7,NRST*%
%TO.N,/nRESET*%
X155200000Y-79430000D03*
%TO.P,U4,8,VSSA*%
%TO.N,GND*%
X154700000Y-79430000D03*
%TO.P,U4,9,VDDA*%
%TO.N,VDD*%
X154200000Y-79430000D03*
%TO.P,U4,10,PA0_WKUP*%
%TO.N,/PB3*%
X153700000Y-79430000D03*
%TO.P,U4,11,PA1*%
%TO.N,/PB2*%
X153200000Y-79430000D03*
%TO.P,U4,12,PA2*%
%TO.N,/PB4*%
X152700000Y-79430000D03*
D34*
%TO.P,U4,13,PA3*%
%TO.N,unconnected-(U4-PA3-Pad13)*%
X151270000Y-80860000D03*
%TO.P,U4,14,PA4*%
%TO.N,/epaper/epaper.spi_cs*%
X151270000Y-81360000D03*
%TO.P,U4,15,PA5*%
%TO.N,/epaper/epaper.spi_scl*%
X151270000Y-81860000D03*
%TO.P,U4,16,PA6*%
%TO.N,unconnected-(U4-PA6-Pad16)*%
X151270000Y-82360000D03*
%TO.P,U4,17,PA7*%
%TO.N,/epaper/epaper.spi_sda*%
X151270000Y-82860000D03*
%TO.P,U4,18,PB0*%
%TO.N,unconnected-(U4-PB0-Pad18)*%
X151270000Y-83360000D03*
%TO.P,U4,19,PB1*%
%TO.N,unconnected-(U4-PB1-Pad19)*%
X151270000Y-83860000D03*
%TO.P,U4,20,PB2*%
%TO.N,/LED3*%
X151270000Y-84360000D03*
%TO.P,U4,21,PB10*%
%TO.N,/LED2*%
X151270000Y-84860000D03*
%TO.P,U4,22,PB11*%
%TO.N,/LED1*%
X151270000Y-85360000D03*
%TO.P,U4,23,VSS*%
%TO.N,GND*%
X151270000Y-85860000D03*
%TO.P,U4,24,VDD*%
%TO.N,VDD*%
X151270000Y-86360000D03*
D33*
%TO.P,U4,25,PB12*%
%TO.N,unconnected-(U4-PB12-Pad25)*%
X152700000Y-87790000D03*
%TO.P,U4,26,PB13*%
%TO.N,unconnected-(U4-PB13-Pad26)*%
X153200000Y-87790000D03*
%TO.P,U4,27,PB14*%
%TO.N,unconnected-(U4-PB14-Pad27)*%
X153700000Y-87790000D03*
%TO.P,U4,28,PB15*%
%TO.N,unconnected-(U4-PB15-Pad28)*%
X154200000Y-87790000D03*
%TO.P,U4,29,PA8*%
%TO.N,/epaper/epaper.gpio_bs*%
X154700000Y-87790000D03*
%TO.P,U4,30,PA9*%
%TO.N,/epaper/epaper.gpio_dc*%
X155200000Y-87790000D03*
%TO.P,U4,31,PA10*%
%TO.N,/epaper/epaper.gpio_busy_n*%
X155700000Y-87790000D03*
%TO.P,U4,32,PA11*%
%TO.N,/epaper/epaper.gpio_reset_n*%
X156200000Y-87790000D03*
%TO.P,U4,33,PA12*%
%TO.N,unconnected-(U4-PA12-Pad33)*%
X156700000Y-87790000D03*
%TO.P,U4,34,PA13*%
%TO.N,/SWDIO*%
X157200000Y-87790000D03*
%TO.P,U4,35,VSS__1*%
%TO.N,GND*%
X157700000Y-87790000D03*
%TO.P,U4,36,VDD__1*%
%TO.N,VDD*%
X158200000Y-87790000D03*
D34*
%TO.P,U4,37,PA14*%
%TO.N,/SWDCLK*%
X159630000Y-86360000D03*
%TO.P,U4,38,PA15*%
%TO.N,unconnected-(U4-PA15-Pad38)*%
X159630000Y-85860000D03*
%TO.P,U4,39,PB3*%
%TO.N,/SWO*%
X159630000Y-85360000D03*
%TO.P,U4,40,PB4*%
%TO.N,unconnected-(U4-PB4-Pad40)*%
X159630000Y-84860000D03*
%TO.P,U4,41,PB5*%
%TO.N,unconnected-(U4-PB5-Pad41)*%
X159630000Y-84360000D03*
%TO.P,U4,42,PB6*%
%TO.N,unconnected-(U4-PB6-Pad42)*%
X159630000Y-83860000D03*
%TO.P,U4,43,PB7*%
%TO.N,unconnected-(U4-PB7-Pad43)*%
X159630000Y-83360000D03*
%TO.P,U4,44,BOOT0*%
%TO.N,/BOOT0*%
X159630000Y-82860000D03*
%TO.P,U4,45,PB8*%
%TO.N,unconnected-(U4-PB8-Pad45)*%
X159630000Y-82360000D03*
%TO.P,U4,46,PB9*%
%TO.N,unconnected-(U4-PB9-Pad46)*%
X159630000Y-81860000D03*
%TO.P,U4,47,VSS__2*%
%TO.N,GND*%
X159630000Y-81360000D03*
%TO.P,U4,48,VDD__2*%
%TO.N,VDD*%
X159630000Y-80860000D03*
%TD*%
D35*
%TO.N,/epaper/epaper.spi_scl*%
X157600000Y-104100000D03*
%TO.N,GND*%
X160000000Y-102750000D03*
X159000000Y-109250000D03*
X144750000Y-80750000D03*
X142750000Y-80750000D03*
X168750000Y-74750000D03*
%TO.N,VDD*%
X170750000Y-73500000D03*
%TO.N,GND*%
X156750000Y-69500000D03*
X145500000Y-75000000D03*
%TO.N,VDD*%
X142250000Y-95250000D03*
X140500000Y-83750000D03*
%TO.N,GND*%
X147250000Y-81250000D03*
X148250000Y-76500000D03*
%TO.N,VDD*%
X158500000Y-91250000D03*
X155500000Y-83500000D03*
X153250000Y-81250000D03*
%TO.N,GND*%
X157250000Y-85500000D03*
X159500000Y-89750000D03*
%TO.N,VDD*%
X151000000Y-88000000D03*
%TO.N,GND*%
X164750000Y-87750000D03*
X164750000Y-84750000D03*
X147500000Y-98500000D03*
X146500000Y-104250000D03*
X148750000Y-106250000D03*
X146500000Y-101750000D03*
X146250000Y-107500000D03*
%TO.N,VDD*%
X143750000Y-107000000D03*
X156750000Y-109500000D03*
X168000000Y-97250000D03*
%TO.N,/PB1*%
X159500000Y-70600000D03*
%TO.N,/PB3*%
X148600000Y-70600000D03*
%TO.N,/PB2*%
X147600000Y-70600000D03*
%TO.N,/OSC32_OUT*%
X155900000Y-77800000D03*
X162400000Y-72000000D03*
%TO.N,/OSC32_IN*%
X162400000Y-73200000D03*
X157000000Y-77800000D03*
%TO.N,/LED1*%
X149600000Y-86700000D03*
%TO.N,/LED2*%
X145900000Y-85400000D03*
%TO.N,/LED3*%
X150750000Y-79500000D03*
%TO.N,/nRESET*%
X154100000Y-75200000D03*
X159600000Y-75300000D03*
%TO.N,Net-(U3-VDH)*%
X150700000Y-95100000D03*
X151500000Y-109500000D03*
%TO.N,/epaper/epaper.spi_cs*%
X146750000Y-84000000D03*
%TO.N,/epaper/epaper.spi_scl*%
X147750000Y-84000000D03*
%TO.N,/epaper/epaper.spi_sda*%
X148750000Y-84000000D03*
%TO.N,/epaper/epaper.gpio_reset_n*%
X155100000Y-91000000D03*
%TO.N,/epaper/epaper.gpio_dc*%
X153250000Y-92500000D03*
%TO.N,/epaper/epaper.gpio_busy_n*%
X154000000Y-91000000D03*
%TO.N,/epaper/epaper.gpio_bs*%
X151000000Y-92100000D03*
%TO.N,/epaper/epaper.spi_sda*%
X158500000Y-103750000D03*
%TO.N,/epaper/epaper.spi_cs*%
X156500000Y-104000000D03*
%TO.N,/epaper/epaper.gpio_bs*%
X152250000Y-105000000D03*
%TO.N,/epaper/epaper.gpio_busy_n*%
X153900000Y-104850000D03*
%TO.N,/epaper/epaper.gpio_reset_n*%
X154750000Y-104100000D03*
%TO.N,/epaper/epaper.gpio_dc*%
X155750000Y-103350000D03*
%TD*%
D36*
%TO.N,/PB2*%
X147450000Y-70625000D02*
X147600000Y-70600000D01*
X146300000Y-76625000D02*
X146300000Y-70625000D01*
X147375000Y-77700000D02*
X146300000Y-76625000D01*
X152250000Y-77700000D02*
X147375000Y-77700000D01*
X146300000Y-70625000D02*
X147450000Y-70625000D01*
X153200000Y-79430000D02*
X153200000Y-78650000D01*
X153200000Y-78650000D02*
X152250000Y-77700000D01*
%TO.N,/SWDIO*%
X168361158Y-86752000D02*
X168371158Y-86762000D01*
X157200000Y-87010000D02*
X157458000Y-86752000D01*
X157458000Y-86752000D02*
X168361158Y-86752000D01*
X157200000Y-87790000D02*
X157200000Y-87010000D01*
D37*
%TO.N,VDD*%
X168800000Y-98050000D02*
X168800000Y-99900000D01*
X168000000Y-97250000D02*
X168800000Y-98050000D01*
%TO.N,GND*%
X168900000Y-104500000D02*
X166500000Y-102100000D01*
X166500000Y-102100000D02*
X166500000Y-99900000D01*
%TO.N,Vin*%
X164200000Y-104600000D02*
X164200000Y-99900000D01*
X169000000Y-109400000D02*
X164200000Y-104600000D01*
D36*
%TO.N,Net-(U3-VCOM)*%
X161000000Y-96500000D02*
X158600000Y-96500000D01*
X161527000Y-106323000D02*
X161527000Y-97027000D01*
X161350000Y-106500000D02*
X161527000Y-106323000D01*
X161527000Y-97027000D02*
X161000000Y-96500000D01*
%TO.N,Net-(D2-A)*%
X160850000Y-105150000D02*
X160850000Y-106500000D01*
X161029000Y-104971000D02*
X160850000Y-105150000D01*
X161029000Y-99704000D02*
X161029000Y-104971000D01*
X160800000Y-99475000D02*
X161029000Y-99704000D01*
%TO.N,Net-(U3-VDL)*%
X156598000Y-100272582D02*
X158148418Y-101823000D01*
X159995068Y-101823000D02*
X160652000Y-102479932D01*
X160652000Y-102479932D02*
X160652000Y-104746000D01*
X160652000Y-104746000D02*
X160350000Y-105048000D01*
X160350000Y-105048000D02*
X160350000Y-106500000D01*
X156598000Y-97723000D02*
X156598000Y-100272582D01*
X158148418Y-101823000D02*
X159995068Y-101823000D01*
X155375000Y-96500000D02*
X156598000Y-97723000D01*
%TO.N,Net-(D1-K)*%
X159850000Y-108644774D02*
X159850000Y-106500000D01*
X160029000Y-108823774D02*
X159850000Y-108644774D01*
X160029000Y-109676226D02*
X160029000Y-108823774D01*
X158705226Y-111000000D02*
X160029000Y-109676226D01*
X151806382Y-111000000D02*
X158705226Y-111000000D01*
X145283382Y-104477000D02*
X151806382Y-111000000D01*
X141948000Y-102582936D02*
X143842064Y-104477000D01*
X142095618Y-98448000D02*
X141948000Y-98595618D01*
X141948000Y-98595618D02*
X141948000Y-102582936D01*
X143842064Y-104477000D02*
X145283382Y-104477000D01*
X148100000Y-96550000D02*
X146202000Y-98448000D01*
X146202000Y-98448000D02*
X142095618Y-98448000D01*
%TO.N,Net-(U3-VDH)*%
X159350000Y-108677932D02*
X159350000Y-106500000D01*
X159652000Y-109520068D02*
X159652000Y-108979932D01*
X151919770Y-110580230D02*
X158591838Y-110580230D01*
X151500000Y-110160460D02*
X151919770Y-110580230D01*
X159652000Y-108979932D02*
X159350000Y-108677932D01*
X151500000Y-109500000D02*
X151500000Y-110160460D01*
X158591838Y-110580230D02*
X159652000Y-109520068D01*
%TO.N,Net-(U3-VDDD)*%
X157024068Y-103098000D02*
X157022068Y-103100000D01*
X158770068Y-103098000D02*
X157024068Y-103098000D01*
X159152000Y-104941618D02*
X159152000Y-103479932D01*
X159152000Y-103479932D02*
X158770068Y-103098000D01*
X158350000Y-105743618D02*
X159152000Y-104941618D01*
X158350000Y-106500000D02*
X158350000Y-105743618D01*
%TO.N,GND*%
X157850000Y-108406382D02*
X157850000Y-106500000D01*
X158693618Y-109250000D02*
X157850000Y-108406382D01*
X159000000Y-109250000D02*
X158693618Y-109250000D01*
%TO.N,VDD*%
X157350000Y-106500000D02*
X156850000Y-106500000D01*
X156850000Y-109400000D02*
X156850000Y-106500000D01*
X156750000Y-109500000D02*
X156850000Y-109400000D01*
%TO.N,/epaper/epaper.gpio_reset_n*%
X154350000Y-105610985D02*
X154350000Y-106500000D01*
X154750000Y-105210985D02*
X154350000Y-105610985D01*
X154750000Y-104100000D02*
X154750000Y-105210985D01*
%TO.N,/epaper/epaper.gpio_dc*%
X154850000Y-105644143D02*
X154850000Y-106500000D01*
X155750000Y-104744143D02*
X154850000Y-105644143D01*
X155750000Y-103350000D02*
X155750000Y-104744143D01*
%TO.N,/epaper/epaper.spi_cs*%
X155350000Y-105677301D02*
X155350000Y-106500000D01*
X156500000Y-104527301D02*
X155350000Y-105677301D01*
X156500000Y-104000000D02*
X156500000Y-104527301D01*
%TO.N,/epaper/epaper.spi_scl*%
X155850000Y-105710459D02*
X155850000Y-106500000D01*
X157500000Y-105121000D02*
X156439459Y-105121000D01*
X157600000Y-105021000D02*
X157500000Y-105121000D01*
X156439459Y-105121000D02*
X155850000Y-105710459D01*
X157600000Y-104100000D02*
X157600000Y-105021000D01*
%TO.N,/epaper/epaper.spi_sda*%
X158500000Y-104900000D02*
X158500000Y-103750000D01*
X157902000Y-105498000D02*
X158500000Y-104900000D01*
X156595618Y-105498000D02*
X157902000Y-105498000D01*
X156350000Y-105743618D02*
X156595618Y-105498000D01*
X156350000Y-106500000D02*
X156350000Y-105743618D01*
%TO.N,/epaper/epaper.gpio_busy_n*%
X153900000Y-106450000D02*
X153850000Y-106500000D01*
X153900000Y-104850000D02*
X153900000Y-106450000D01*
%TO.N,/epaper/epaper.gpio_bs*%
X152606382Y-105000000D02*
X153350000Y-105743618D01*
X152250000Y-105000000D02*
X152606382Y-105000000D01*
X153350000Y-105743618D02*
X153350000Y-106500000D01*
%TO.N,Net-(U3-VHDR)*%
X151452000Y-97202000D02*
X150750000Y-96500000D01*
X151452000Y-105345618D02*
X151452000Y-97202000D01*
X151850000Y-105743618D02*
X151452000Y-105345618D01*
X151850000Y-106500000D02*
X151850000Y-105743618D01*
%TO.N,Net-(Q1-S)*%
X149125000Y-103800000D02*
X150850000Y-105525000D01*
X150850000Y-105525000D02*
X150850000Y-106500000D01*
X148900000Y-103800000D02*
X149125000Y-103800000D01*
%TO.N,Net-(Q1-G)*%
X150104382Y-105498000D02*
X150350000Y-105743618D01*
X149298000Y-105498000D02*
X150104382Y-105498000D01*
X147600000Y-103800000D02*
X149298000Y-105498000D01*
X150350000Y-105743618D02*
X150350000Y-106500000D01*
%TO.N,GND*%
X159450000Y-102200000D02*
X157250000Y-102200000D01*
X160000000Y-102750000D02*
X159450000Y-102200000D01*
%TO.N,Net-(U3-VDDD)*%
X156800000Y-103100000D02*
X157022068Y-103100000D01*
X154702000Y-101002000D02*
X156800000Y-103100000D01*
X154702000Y-99002000D02*
X154702000Y-101002000D01*
X153123000Y-97423000D02*
X154702000Y-99002000D01*
X153123000Y-95977000D02*
X153123000Y-97423000D01*
X155400000Y-93700000D02*
X153123000Y-95977000D01*
%TO.N,/PB3*%
X151273000Y-69773000D02*
X152000000Y-70500000D01*
X149280064Y-69773000D02*
X151273000Y-69773000D01*
X148600000Y-70453064D02*
X149280064Y-69773000D01*
X148600000Y-70600000D02*
X148600000Y-70453064D01*
%TO.N,GND*%
X155923000Y-98598000D02*
X153825000Y-96500000D01*
X155923000Y-100873000D02*
X155923000Y-98598000D01*
X157250000Y-102200000D02*
X155923000Y-100873000D01*
X144750000Y-80750000D02*
X145450000Y-80750000D01*
X145450000Y-80750000D02*
X145450000Y-82175000D01*
X145450000Y-79400000D02*
X145450000Y-80750000D01*
X142050000Y-82200000D02*
X142050000Y-81450000D01*
X142050000Y-81450000D02*
X142750000Y-80750000D01*
X145300000Y-82200000D02*
X145475000Y-82200000D01*
X142400000Y-85100000D02*
X145300000Y-82200000D01*
X142400000Y-86700000D02*
X142400000Y-85100000D01*
X146300000Y-82200000D02*
X147250000Y-81250000D01*
X145475000Y-82200000D02*
X146300000Y-82200000D01*
X145450000Y-82175000D02*
X145475000Y-82200000D01*
X152300000Y-93700000D02*
X152300000Y-96500000D01*
X153850000Y-93700000D02*
X152300000Y-93700000D01*
X158475000Y-97925000D02*
X157050000Y-96500000D01*
X160800000Y-97925000D02*
X158475000Y-97925000D01*
X144880000Y-106130000D02*
X146250000Y-107500000D01*
X144800000Y-106130000D02*
X144880000Y-106130000D01*
X157700000Y-89800000D02*
X156750000Y-90750000D01*
X157700000Y-87800000D02*
X157700000Y-89800000D01*
X153380000Y-85870000D02*
X154000000Y-85250000D01*
X151270000Y-85870000D02*
X153380000Y-85870000D01*
X158630000Y-81370000D02*
X157500000Y-82500000D01*
X159630000Y-81370000D02*
X158630000Y-81370000D01*
X167670000Y-73670000D02*
X168750000Y-74750000D01*
X167360000Y-73670000D02*
X167670000Y-73670000D01*
X167360000Y-72400000D02*
X167360000Y-73670000D01*
X161450000Y-76100000D02*
X161450000Y-76600000D01*
X159998000Y-74648000D02*
X161450000Y-76100000D01*
X158948000Y-75029932D02*
X159329932Y-74648000D01*
X159329932Y-74648000D02*
X159998000Y-74648000D01*
X160350000Y-79400000D02*
X158948000Y-77998000D01*
X158948000Y-77998000D02*
X158948000Y-75029932D01*
X160662000Y-81118000D02*
X160410000Y-81370000D01*
X160662000Y-79712000D02*
X160662000Y-81118000D01*
X160350000Y-79400000D02*
X160662000Y-79712000D01*
X160410000Y-81370000D02*
X159630000Y-81370000D01*
%TO.N,VDD*%
X170020000Y-74230000D02*
X170020000Y-77100000D01*
X170750000Y-73500000D02*
X170020000Y-74230000D01*
X142250000Y-95250000D02*
X142170000Y-95080000D01*
X143500000Y-95080000D02*
X142250000Y-95250000D01*
X143500000Y-91880000D02*
X143500000Y-90250000D01*
X143500000Y-93480000D02*
X143500000Y-91880000D01*
X143500000Y-95080000D02*
X143500000Y-93480000D01*
X143700000Y-97200000D02*
X143700000Y-95280000D01*
X143700000Y-95280000D02*
X143500000Y-95080000D01*
X140500000Y-83750000D02*
X140500000Y-84750000D01*
X140850000Y-86700000D02*
X140850000Y-85100000D01*
X140500000Y-84750000D02*
X140850000Y-85100000D01*
X140500000Y-82200000D02*
X140500000Y-83750000D01*
X140500000Y-79425000D02*
X140475000Y-79400000D01*
X140500000Y-82200000D02*
X140500000Y-79425000D01*
X141227000Y-82927000D02*
X140500000Y-82200000D01*
X143198000Y-82927000D02*
X141227000Y-82927000D01*
X143925000Y-82200000D02*
X143198000Y-82927000D01*
X146550000Y-78500000D02*
X147450000Y-79400000D01*
X144800000Y-78500000D02*
X146550000Y-78500000D01*
X143900000Y-79400000D02*
X144800000Y-78500000D01*
X143900000Y-79400000D02*
X143900000Y-82175000D01*
X143900000Y-82175000D02*
X143925000Y-82200000D01*
%TO.N,GND*%
X149000000Y-79500000D02*
X149000000Y-79400000D01*
X147250000Y-81250000D02*
X149000000Y-79500000D01*
%TO.N,VDD*%
X158500000Y-88100000D02*
X158500000Y-91250000D01*
X158200000Y-87800000D02*
X158500000Y-88100000D01*
X155500000Y-82966841D02*
X155500000Y-83500000D01*
X157596841Y-80870000D02*
X155500000Y-82966841D01*
X159630000Y-80870000D02*
X157596841Y-80870000D01*
X153170000Y-81250000D02*
X153250000Y-81170000D01*
X153250000Y-81250000D02*
X153170000Y-81250000D01*
X153250000Y-81170000D02*
X153250000Y-81250000D01*
X154200000Y-80220000D02*
X153250000Y-81170000D01*
X154200000Y-79440000D02*
X154200000Y-80220000D01*
%TO.N,GND*%
X154700000Y-79440000D02*
X154700000Y-81200000D01*
%TO.N,VDD*%
X151000000Y-86640000D02*
X151000000Y-88000000D01*
X151270000Y-86370000D02*
X151000000Y-86640000D01*
X161500000Y-91250000D02*
X161550000Y-91300000D01*
X161500000Y-88400000D02*
X161500000Y-91250000D01*
X158800000Y-88400000D02*
X158200000Y-87800000D01*
X161500000Y-88400000D02*
X158800000Y-88400000D01*
%TO.N,/SWDIO*%
X157200000Y-87020000D02*
X157200000Y-87800000D01*
X169127000Y-86006158D02*
X168371158Y-86762000D01*
X169127000Y-84123000D02*
X169127000Y-86006158D01*
X170020000Y-83230000D02*
X169127000Y-84123000D01*
X170020000Y-81000000D02*
X170020000Y-83230000D01*
%TO.N,GND*%
X164100000Y-88400000D02*
X164750000Y-87750000D01*
X163050000Y-88400000D02*
X164100000Y-88400000D01*
X164900000Y-84600000D02*
X164750000Y-84750000D01*
X166600000Y-84600000D02*
X164900000Y-84600000D01*
%TO.N,VDD*%
X159150000Y-93700000D02*
X161550000Y-91300000D01*
X158825000Y-93700000D02*
X159150000Y-93700000D01*
%TO.N,GND*%
X154552000Y-95773000D02*
X156323000Y-95773000D01*
X156323000Y-95773000D02*
X157050000Y-96500000D01*
X153825000Y-96500000D02*
X154552000Y-95773000D01*
X148852000Y-92973000D02*
X151573000Y-92973000D01*
X151573000Y-92973000D02*
X152300000Y-93700000D01*
X148600000Y-93225000D02*
X148852000Y-92973000D01*
X148600000Y-93700000D02*
X148600000Y-93225000D01*
%TO.N,VDD*%
X143840000Y-106910000D02*
X143840000Y-106130000D01*
X143750000Y-107000000D02*
X143840000Y-106910000D01*
X143840000Y-107090000D02*
X143750000Y-107000000D01*
X143840000Y-108100000D02*
X143840000Y-107090000D01*
X143625000Y-108315000D02*
X143840000Y-108100000D01*
X143625000Y-110100000D02*
X143625000Y-108315000D01*
X143625000Y-111700000D02*
X143625000Y-110100000D01*
%TO.N,/PB1*%
X157750000Y-70600000D02*
X159500000Y-70600000D01*
%TO.N,/PB3*%
X148553064Y-70600000D02*
X148600000Y-70553064D01*
X148600000Y-70600000D02*
X148553064Y-70600000D01*
X148600000Y-70553064D02*
X148600000Y-70600000D01*
%TO.N,/PB2*%
X147500000Y-70625000D02*
X147475000Y-70625000D01*
X147600000Y-70600000D02*
X147500000Y-70625000D01*
%TO.N,/OSC32_OUT*%
X166400000Y-72400000D02*
X165950000Y-72400000D01*
X165950000Y-72400000D02*
X164400000Y-70850000D01*
X164400000Y-70850000D02*
X163250000Y-72000000D01*
X163250000Y-72000000D02*
X162400000Y-72000000D01*
%TO.N,/OSC32_IN*%
X164400000Y-73350000D02*
X163216841Y-73350000D01*
X163216841Y-73350000D02*
X163166841Y-73300000D01*
X163166841Y-73300000D02*
X162700000Y-73300000D01*
X162700000Y-73300000D02*
X162400000Y-73200000D01*
X162500000Y-73300000D02*
X162600000Y-73300000D01*
X162400000Y-73200000D02*
X162500000Y-73300000D01*
%TO.N,/OSC32_OUT*%
X155900000Y-77800000D02*
X155900000Y-78100000D01*
X155900000Y-78100000D02*
X156140000Y-78100000D01*
X156140000Y-78100000D02*
X156700000Y-78660000D01*
X156700000Y-78660000D02*
X156700000Y-79440000D01*
%TO.N,/OSC32_IN*%
X164720000Y-73670000D02*
X164400000Y-73350000D01*
X166400000Y-73670000D02*
X164720000Y-73670000D01*
X157200000Y-79440000D02*
X157000000Y-77800000D01*
%TO.N,GND*%
X161450000Y-70600000D02*
X161450000Y-76600000D01*
%TO.N,/PB1*%
X157750000Y-76600000D02*
X157750000Y-70600000D01*
%TO.N,/nRESET*%
X159600000Y-77100000D02*
X159600000Y-75300000D01*
X161900000Y-79400000D02*
X159600000Y-77100000D01*
X163340000Y-79400000D02*
X161900000Y-79400000D01*
X164940000Y-81000000D02*
X163340000Y-79400000D01*
%TO.N,/LED1*%
X149960000Y-86340000D02*
X149960000Y-85900000D01*
X149600000Y-86700000D02*
X149960000Y-86340000D01*
%TO.N,/LED2*%
X145900000Y-85400000D02*
X146100000Y-85300000D01*
X146371000Y-85029000D02*
X145900000Y-85400000D01*
X149964000Y-85029000D02*
X146371000Y-85029000D01*
X150123000Y-84870000D02*
X149964000Y-85029000D01*
X151270000Y-84870000D02*
X150123000Y-84870000D01*
%TO.N,/LED3*%
X149750000Y-80500000D02*
X150750000Y-79500000D01*
X149327932Y-80500000D02*
X149750000Y-80500000D01*
X146098000Y-83729932D02*
X149327932Y-80500000D01*
X146098000Y-84348000D02*
X146098000Y-83729932D01*
X146402000Y-84652000D02*
X146098000Y-84348000D01*
X149020068Y-84652000D02*
X146402000Y-84652000D01*
X151270000Y-84370000D02*
X149302068Y-84370000D01*
X149302068Y-84370000D02*
X149020068Y-84652000D01*
%TO.N,/BOOT0*%
X159725000Y-82775000D02*
X159630000Y-82870000D01*
X162900000Y-82775000D02*
X159725000Y-82775000D01*
%TO.N,/LED1*%
X150490000Y-85370000D02*
X151270000Y-85370000D01*
X149960000Y-85900000D02*
X150490000Y-85370000D01*
%TO.N,/PB4*%
X142125000Y-78100000D02*
X142102000Y-78077000D01*
X142125000Y-79400000D02*
X142125000Y-78100000D01*
%TO.N,/epaper/epaper.gpio_busy_n*%
X156700000Y-93700000D02*
X154000000Y-91000000D01*
X157175000Y-93700000D02*
X156700000Y-93700000D01*
%TO.N,/nRESET*%
X155200000Y-78660000D02*
X155200000Y-79440000D01*
X154100000Y-77560000D02*
X155200000Y-78660000D01*
X154100000Y-75200000D02*
X154100000Y-77560000D01*
X170300000Y-90600000D02*
X170300000Y-84600000D01*
%TO.N,/SWO*%
X162670000Y-85370000D02*
X159630000Y-85370000D01*
X163200000Y-85900000D02*
X162670000Y-85370000D01*
X167700000Y-85900000D02*
X163200000Y-85900000D01*
X168000000Y-85600000D02*
X167700000Y-85900000D01*
X168000000Y-81520000D02*
X168000000Y-85600000D01*
X167480000Y-81000000D02*
X168000000Y-81520000D01*
%TO.N,/SWDCLK*%
X168230000Y-86370000D02*
X159630000Y-86370000D01*
X168750000Y-81000000D02*
X168750000Y-85850000D01*
X168750000Y-85850000D02*
X168230000Y-86370000D01*
%TO.N,/nRESET*%
X164940000Y-80160000D02*
X164940000Y-81000000D01*
X165552000Y-79548000D02*
X164940000Y-80160000D01*
X170648000Y-79548000D02*
X165552000Y-79548000D01*
X170800000Y-79700000D02*
X170648000Y-79548000D01*
X170800000Y-84100000D02*
X170800000Y-79700000D01*
X170300000Y-84600000D02*
X170800000Y-84100000D01*
%TO.N,GND*%
X155700000Y-70600000D02*
X155700000Y-76600000D01*
X150000000Y-70625000D02*
X150000000Y-76625000D01*
X144350000Y-70625000D02*
X144350000Y-76625000D01*
%TO.N,/PB1*%
X157750000Y-79390000D02*
X157700000Y-79440000D01*
X157750000Y-76600000D02*
X157750000Y-79390000D01*
%TO.N,/PB4*%
X142102000Y-78077000D02*
X140650000Y-76625000D01*
X151337000Y-78077000D02*
X142102000Y-78077000D01*
X152700000Y-79440000D02*
X151337000Y-78077000D01*
%TO.N,/PB2*%
X153200000Y-79440000D02*
X153200000Y-78727586D01*
%TO.N,/PB3*%
X153700000Y-79440000D02*
X153700000Y-78300000D01*
X153700000Y-78300000D02*
X152000000Y-76600000D01*
%TO.N,/PB4*%
X140650000Y-76625000D02*
X140650000Y-70625000D01*
%TO.N,/PB3*%
X152000000Y-76600000D02*
X152000000Y-70600000D01*
%TO.N,Net-(U3-VDH)*%
X150700000Y-93750000D02*
X150750000Y-93700000D01*
X150700000Y-95100000D02*
X150700000Y-93750000D01*
X151500000Y-109500000D02*
X151500000Y-109600000D01*
%TO.N,Net-(D2-K)*%
X153950000Y-99750000D02*
X154000000Y-99700000D01*
X153950000Y-102200000D02*
X153950000Y-99750000D01*
X152300000Y-99300000D02*
X153600000Y-99300000D01*
X153600000Y-99300000D02*
X154000000Y-99700000D01*
%TO.N,Net-(D2-A)*%
X157525000Y-99475000D02*
X157300000Y-99700000D01*
X160800000Y-99475000D02*
X157525000Y-99475000D01*
%TO.N,/epaper/epaper.spi_cs*%
X149380000Y-81370000D02*
X146750000Y-84000000D01*
X151270000Y-81370000D02*
X149380000Y-81370000D01*
%TO.N,/epaper/epaper.spi_scl*%
X149880000Y-81870000D02*
X147750000Y-84000000D01*
X151270000Y-81870000D02*
X149880000Y-81870000D01*
%TO.N,/epaper/epaper.spi_sda*%
X149880000Y-82870000D02*
X148750000Y-84000000D01*
X151270000Y-82870000D02*
X149880000Y-82870000D01*
%TO.N,/epaper/epaper.gpio_reset_n*%
X155100000Y-91000000D02*
X156200000Y-89900000D01*
X156200000Y-89900000D02*
X156200000Y-87800000D01*
%TO.N,/epaper/epaper.gpio_dc*%
X153250000Y-92000000D02*
X153250000Y-92500000D01*
X152950000Y-91700000D02*
X153250000Y-92000000D01*
X152950000Y-90863158D02*
X152950000Y-91700000D01*
%TO.N,/epaper/epaper.gpio_busy_n*%
X155700000Y-89300000D02*
X155700000Y-87800000D01*
X154000000Y-91000000D02*
X155700000Y-89300000D01*
%TO.N,/epaper/epaper.gpio_dc*%
X155200000Y-88613158D02*
X155200000Y-87800000D01*
X152950000Y-90863158D02*
X155200000Y-88613158D01*
%TO.N,/epaper/epaper.gpio_bs*%
X154700000Y-88580000D02*
X154700000Y-87800000D01*
X152680000Y-90600000D02*
X154700000Y-88580000D01*
X151000000Y-91100000D02*
X151500000Y-90600000D01*
X151000000Y-92100000D02*
X151000000Y-91100000D01*
X151500000Y-90600000D02*
X152680000Y-90600000D01*
%TO.N,Net-(D1-A)*%
X148650000Y-99300000D02*
X148100000Y-99850000D01*
X150750000Y-99300000D02*
X148650000Y-99300000D01*
%TO.N,Net-(Q1-S)*%
X145014500Y-103198000D02*
X148298000Y-103198000D01*
X144500000Y-103712500D02*
X145014500Y-103198000D01*
X148298000Y-103198000D02*
X148900000Y-103800000D01*
%TO.N,Net-(D1-K)*%
X148100000Y-94750000D02*
X147050000Y-93700000D01*
X148100000Y-96550000D02*
X148100000Y-94750000D01*
%TO.N,Net-(D1-A)*%
X148250000Y-100000000D02*
X148100000Y-99850000D01*
X148250000Y-101800000D02*
X148250000Y-100000000D01*
X145850000Y-99400000D02*
X148250000Y-101800000D01*
X143700000Y-99400000D02*
X145850000Y-99400000D01*
%TD*%
%TA.AperFunction,Conductor*%
%TO.N,GND*%
G36*
X172193039Y-68769685D02*
G01*
X172238794Y-68822489D01*
X172250000Y-68874000D01*
X172250000Y-112626000D01*
X172230315Y-112693039D01*
X172177511Y-112738794D01*
X172126000Y-112750000D01*
X145921252Y-112750000D01*
X145854213Y-112730315D01*
X145808458Y-112677511D01*
X145798514Y-112608353D01*
X145827539Y-112544797D01*
X145847603Y-112527734D01*
X145847065Y-112527054D01*
X145852732Y-112522572D01*
X145972572Y-112402732D01*
X145972575Y-112402728D01*
X146061542Y-112258492D01*
X146061547Y-112258481D01*
X146114855Y-112097606D01*
X146124999Y-111998322D01*
X146125000Y-111998309D01*
X146125000Y-111950000D01*
X145049000Y-111950000D01*
X144981961Y-111930315D01*
X144936206Y-111877511D01*
X144925000Y-111826000D01*
X144925000Y-110350000D01*
X145425000Y-110350000D01*
X145425000Y-111450000D01*
X146124999Y-111450000D01*
X146124999Y-111401692D01*
X146124998Y-111401677D01*
X146114855Y-111302392D01*
X146061547Y-111141518D01*
X146061542Y-111141507D01*
X145972575Y-110997271D01*
X145972572Y-110997267D01*
X145962986Y-110987681D01*
X145929501Y-110926358D01*
X145934485Y-110856666D01*
X145962986Y-110812319D01*
X145972572Y-110802732D01*
X145972575Y-110802728D01*
X146061542Y-110658492D01*
X146061547Y-110658481D01*
X146114855Y-110497606D01*
X146124999Y-110398322D01*
X146125000Y-110398309D01*
X146125000Y-110350000D01*
X145425000Y-110350000D01*
X144925000Y-110350000D01*
X144925000Y-109125000D01*
X145425000Y-109125000D01*
X145425000Y-109850000D01*
X146124999Y-109850000D01*
X146124999Y-109801692D01*
X146124998Y-109801677D01*
X146114855Y-109702392D01*
X146061547Y-109541518D01*
X146061542Y-109541507D01*
X145972575Y-109397271D01*
X145972572Y-109397267D01*
X145852732Y-109277427D01*
X145852728Y-109277424D01*
X145708492Y-109188457D01*
X145708481Y-109188452D01*
X145547606Y-109135144D01*
X145448322Y-109125000D01*
X145425000Y-109125000D01*
X144925000Y-109125000D01*
X144925000Y-109124999D01*
X144901693Y-109125000D01*
X144901674Y-109125001D01*
X144802392Y-109135144D01*
X144641518Y-109188452D01*
X144641507Y-109188457D01*
X144497271Y-109277424D01*
X144497264Y-109277430D01*
X144488028Y-109286665D01*
X144426703Y-109320146D01*
X144357011Y-109315157D01*
X144312672Y-109286659D01*
X144303046Y-109277033D01*
X144297590Y-109272719D01*
X144257213Y-109215697D01*
X144250500Y-109175452D01*
X144250500Y-108982645D01*
X144270185Y-108915606D01*
X144322989Y-108869851D01*
X144392147Y-108859907D01*
X144409094Y-108863568D01*
X144550000Y-108904504D01*
X144550000Y-108598352D01*
X144567267Y-108535233D01*
X144572494Y-108526395D01*
X144577935Y-108507669D01*
X144617642Y-108370997D01*
X144617643Y-108370991D01*
X144619295Y-108350000D01*
X145050000Y-108350000D01*
X145050000Y-108904504D01*
X145196195Y-108862031D01*
X145335374Y-108779721D01*
X145335383Y-108779714D01*
X145449714Y-108665383D01*
X145449721Y-108665374D01*
X145532031Y-108526195D01*
X145532033Y-108526190D01*
X145577144Y-108370918D01*
X145577145Y-108370912D01*
X145578790Y-108350000D01*
X145050000Y-108350000D01*
X144619295Y-108350000D01*
X144620500Y-108334692D01*
X144620500Y-107865308D01*
X144619295Y-107850000D01*
X145050000Y-107850000D01*
X145578790Y-107850000D01*
X145577145Y-107829089D01*
X145532031Y-107673804D01*
X145449721Y-107534625D01*
X145449714Y-107534616D01*
X145335383Y-107420285D01*
X145335374Y-107420278D01*
X145196193Y-107337967D01*
X145196190Y-107337965D01*
X145050001Y-107295493D01*
X145050000Y-107295494D01*
X145050000Y-107850000D01*
X144619295Y-107850000D01*
X144617643Y-107829008D01*
X144617642Y-107829002D01*
X144572495Y-107673608D01*
X144572492Y-107673600D01*
X144567266Y-107664763D01*
X144550000Y-107601645D01*
X144550000Y-107448584D01*
X144566612Y-107386586D01*
X144577179Y-107368284D01*
X144635674Y-107188256D01*
X144655460Y-107000000D01*
X144635674Y-106811744D01*
X144588798Y-106667474D01*
X144575171Y-106625535D01*
X144577907Y-106624645D01*
X144570262Y-106567884D01*
X144573762Y-106552029D01*
X144617643Y-106400993D01*
X144619295Y-106380000D01*
X145050000Y-106380000D01*
X145050000Y-106934503D01*
X145196195Y-106892031D01*
X145335374Y-106809721D01*
X145335383Y-106809714D01*
X145449714Y-106695383D01*
X145449721Y-106695374D01*
X145532031Y-106556195D01*
X145532033Y-106556190D01*
X145577144Y-106400918D01*
X145577145Y-106400912D01*
X145578790Y-106380000D01*
X145050000Y-106380000D01*
X144619295Y-106380000D01*
X144620500Y-106364690D01*
X144620500Y-106004000D01*
X144640185Y-105936961D01*
X144692989Y-105891206D01*
X144744500Y-105880000D01*
X145578789Y-105880000D01*
X145598368Y-105858820D01*
X145658330Y-105822955D01*
X145728164Y-105825200D01*
X145777104Y-105855312D01*
X147959611Y-108037819D01*
X147993096Y-108099142D01*
X147988112Y-108168834D01*
X147946240Y-108224767D01*
X147880776Y-108249184D01*
X147871930Y-108249500D01*
X147152129Y-108249500D01*
X147152123Y-108249501D01*
X147092516Y-108255908D01*
X146957671Y-108306202D01*
X146957664Y-108306206D01*
X146842455Y-108392452D01*
X146842452Y-108392455D01*
X146756206Y-108507664D01*
X146756202Y-108507671D01*
X146705908Y-108642517D01*
X146699501Y-108702116D01*
X146699501Y-108702123D01*
X146699500Y-108702135D01*
X146699500Y-110297870D01*
X146699501Y-110297876D01*
X146705908Y-110357483D01*
X146756202Y-110492328D01*
X146756206Y-110492335D01*
X146842452Y-110607544D01*
X146842455Y-110607547D01*
X146957664Y-110693793D01*
X146957671Y-110693797D01*
X147092517Y-110744091D01*
X147092516Y-110744091D01*
X147099444Y-110744835D01*
X147152127Y-110750500D01*
X149247872Y-110750499D01*
X149307483Y-110744091D01*
X149442331Y-110693796D01*
X149557546Y-110607546D01*
X149643796Y-110492331D01*
X149694091Y-110357483D01*
X149700500Y-110297873D01*
X149700499Y-110078069D01*
X149720183Y-110011031D01*
X149772987Y-109965276D01*
X149842145Y-109955332D01*
X149905701Y-109984357D01*
X149912180Y-109990389D01*
X151305579Y-111383788D01*
X151315404Y-111396051D01*
X151315625Y-111395869D01*
X151320596Y-111401878D01*
X151341425Y-111421437D01*
X151371017Y-111449226D01*
X151391911Y-111470120D01*
X151397393Y-111474373D01*
X151401825Y-111478157D01*
X151435800Y-111510062D01*
X151453358Y-111519714D01*
X151469615Y-111530393D01*
X151485446Y-111542673D01*
X151505119Y-111551186D01*
X151528215Y-111561182D01*
X151533459Y-111563750D01*
X151574290Y-111586197D01*
X151586905Y-111589435D01*
X151593687Y-111591177D01*
X151612101Y-111597481D01*
X151630486Y-111605438D01*
X151676539Y-111612732D01*
X151682208Y-111613906D01*
X151727363Y-111625500D01*
X151747398Y-111625500D01*
X151766795Y-111627026D01*
X151786578Y-111630160D01*
X151832966Y-111625775D01*
X151838804Y-111625500D01*
X158622483Y-111625500D01*
X158638103Y-111627224D01*
X158638130Y-111626939D01*
X158645886Y-111627671D01*
X158645893Y-111627673D01*
X158715040Y-111625500D01*
X158744576Y-111625500D01*
X158751454Y-111624630D01*
X158757267Y-111624172D01*
X158803853Y-111622709D01*
X158823095Y-111617117D01*
X158842138Y-111613174D01*
X158862018Y-111610664D01*
X158905348Y-111593507D01*
X158910872Y-111591617D01*
X158914622Y-111590527D01*
X158955616Y-111578618D01*
X158972855Y-111568422D01*
X158990329Y-111559862D01*
X159008953Y-111552488D01*
X159008953Y-111552487D01*
X159008958Y-111552486D01*
X159046675Y-111525082D01*
X159051531Y-111521892D01*
X159091646Y-111498170D01*
X159105815Y-111483999D01*
X159120605Y-111471368D01*
X159136813Y-111459594D01*
X159166525Y-111423676D01*
X159170438Y-111419376D01*
X160291945Y-110297870D01*
X161499500Y-110297870D01*
X161499501Y-110297876D01*
X161505908Y-110357483D01*
X161556202Y-110492328D01*
X161556206Y-110492335D01*
X161642452Y-110607544D01*
X161642455Y-110607547D01*
X161757664Y-110693793D01*
X161757671Y-110693797D01*
X161892517Y-110744091D01*
X161892516Y-110744091D01*
X161899444Y-110744835D01*
X161952127Y-110750500D01*
X164047872Y-110750499D01*
X164107483Y-110744091D01*
X164242331Y-110693796D01*
X164357546Y-110607546D01*
X164443796Y-110492331D01*
X164494091Y-110357483D01*
X164500500Y-110297873D01*
X164500499Y-108702128D01*
X164494091Y-108642517D01*
X164492725Y-108638855D01*
X164443797Y-108507671D01*
X164443793Y-108507664D01*
X164357547Y-108392455D01*
X164357544Y-108392452D01*
X164242335Y-108306206D01*
X164242328Y-108306202D01*
X164107482Y-108255908D01*
X164107483Y-108255908D01*
X164047883Y-108249501D01*
X164047881Y-108249500D01*
X164047873Y-108249500D01*
X164047864Y-108249500D01*
X161952129Y-108249500D01*
X161952123Y-108249501D01*
X161892516Y-108255908D01*
X161757671Y-108306202D01*
X161757664Y-108306206D01*
X161642455Y-108392452D01*
X161642452Y-108392455D01*
X161556206Y-108507664D01*
X161556202Y-108507671D01*
X161505908Y-108642517D01*
X161499501Y-108702116D01*
X161499501Y-108702123D01*
X161499500Y-108702135D01*
X161499500Y-110297870D01*
X160291945Y-110297870D01*
X160412787Y-110177028D01*
X160425042Y-110167212D01*
X160424859Y-110166990D01*
X160430866Y-110162018D01*
X160430877Y-110162012D01*
X160461775Y-110129108D01*
X160478227Y-110111590D01*
X160488671Y-110101144D01*
X160499120Y-110090697D01*
X160503379Y-110085204D01*
X160507152Y-110080787D01*
X160539062Y-110046808D01*
X160548713Y-110029250D01*
X160559396Y-110012987D01*
X160571673Y-109997162D01*
X160590185Y-109954379D01*
X160592738Y-109949167D01*
X160615197Y-109908318D01*
X160620180Y-109888906D01*
X160626481Y-109870506D01*
X160634437Y-109852122D01*
X160641729Y-109806078D01*
X160642906Y-109800397D01*
X160654500Y-109755245D01*
X160654500Y-109735209D01*
X160656027Y-109715808D01*
X160658152Y-109702392D01*
X160659160Y-109696030D01*
X160654775Y-109649641D01*
X160654500Y-109643803D01*
X160654500Y-108906511D01*
X160656224Y-108890897D01*
X160655938Y-108890870D01*
X160656672Y-108883107D01*
X160654500Y-108813977D01*
X160654500Y-108784425D01*
X160654500Y-108784424D01*
X160653629Y-108777533D01*
X160653172Y-108771719D01*
X160651709Y-108725146D01*
X160646122Y-108705918D01*
X160642174Y-108686858D01*
X160639664Y-108666982D01*
X160622507Y-108623649D01*
X160620619Y-108618133D01*
X160607619Y-108573386D01*
X160597418Y-108556137D01*
X160588860Y-108538668D01*
X160581486Y-108520042D01*
X160581483Y-108520038D01*
X160581483Y-108520037D01*
X160554098Y-108482345D01*
X160550890Y-108477461D01*
X160527172Y-108437356D01*
X160527163Y-108437345D01*
X160513005Y-108423187D01*
X160500376Y-108408403D01*
X160499190Y-108406771D01*
X160475703Y-108340967D01*
X160475500Y-108333874D01*
X160475500Y-107869663D01*
X160495185Y-107802624D01*
X160547989Y-107756869D01*
X160586210Y-107746377D01*
X160586716Y-107746322D01*
X160613251Y-107746320D01*
X160652127Y-107750500D01*
X161047872Y-107750499D01*
X161047873Y-107750498D01*
X161047885Y-107750498D01*
X161086744Y-107746320D01*
X161113252Y-107746320D01*
X161152127Y-107750500D01*
X161547872Y-107750499D01*
X161607483Y-107744091D01*
X161742331Y-107693796D01*
X161857546Y-107607546D01*
X161943796Y-107492331D01*
X161994091Y-107357483D01*
X162000500Y-107297873D01*
X162000499Y-106781611D01*
X162020183Y-106714573D01*
X162034105Y-106696730D01*
X162037062Y-106693582D01*
X162046713Y-106676024D01*
X162057396Y-106659761D01*
X162069673Y-106643936D01*
X162088183Y-106601158D01*
X162090743Y-106595932D01*
X162113197Y-106555092D01*
X162118178Y-106535687D01*
X162124482Y-106517279D01*
X162132438Y-106498895D01*
X162139729Y-106452853D01*
X162140908Y-106447162D01*
X162152500Y-106402019D01*
X162152500Y-106381983D01*
X162154027Y-106362582D01*
X162157160Y-106342804D01*
X162152775Y-106296415D01*
X162152500Y-106290577D01*
X162152500Y-100947870D01*
X162949500Y-100947870D01*
X162949501Y-100947876D01*
X162955908Y-101007483D01*
X163006202Y-101142328D01*
X163006206Y-101142335D01*
X163092452Y-101257544D01*
X163092455Y-101257547D01*
X163207664Y-101343793D01*
X163207669Y-101343796D01*
X163243832Y-101357284D01*
X163299766Y-101399154D01*
X163324184Y-101464618D01*
X163324500Y-101473466D01*
X163324500Y-104561897D01*
X163324295Y-104566931D01*
X163319660Y-104623843D01*
X163330914Y-104706441D01*
X163339927Y-104789316D01*
X163339929Y-104789327D01*
X163339990Y-104789506D01*
X163345340Y-104812331D01*
X163345366Y-104812525D01*
X163345369Y-104812536D01*
X163374119Y-104890794D01*
X163400730Y-104969774D01*
X163400734Y-104969782D01*
X163400832Y-104969945D01*
X163410969Y-104991099D01*
X163411036Y-104991283D01*
X163411038Y-104991286D01*
X163411039Y-104991288D01*
X163421334Y-105007395D01*
X163455939Y-105061535D01*
X163461396Y-105070604D01*
X163498911Y-105132954D01*
X163499042Y-105133092D01*
X163513495Y-105151579D01*
X163513602Y-105151747D01*
X163555892Y-105194036D01*
X163572552Y-105210696D01*
X163629871Y-105271207D01*
X163630028Y-105271314D01*
X163648121Y-105286265D01*
X166963181Y-108601325D01*
X166996666Y-108662648D01*
X166999500Y-108689006D01*
X166999501Y-110214218D01*
X167009904Y-110346413D01*
X167009905Y-110346420D01*
X167064902Y-110564678D01*
X167064903Y-110564681D01*
X167157991Y-110769622D01*
X167157997Y-110769632D01*
X167286174Y-110954645D01*
X167286178Y-110954650D01*
X167286181Y-110954654D01*
X167445346Y-111113819D01*
X167445350Y-111113822D01*
X167445354Y-111113825D01*
X167485311Y-111141507D01*
X167630374Y-111242007D01*
X167835317Y-111335096D01*
X167835321Y-111335097D01*
X168053579Y-111390094D01*
X168053581Y-111390094D01*
X168053588Y-111390096D01*
X168164973Y-111398862D01*
X168185781Y-111400500D01*
X168185782Y-111400499D01*
X168185783Y-111400500D01*
X168999999Y-111400499D01*
X169814218Y-111400499D01*
X169833505Y-111398980D01*
X169946412Y-111390096D01*
X170164683Y-111335096D01*
X170369626Y-111242007D01*
X170554654Y-111113819D01*
X170713819Y-110954654D01*
X170842007Y-110769626D01*
X170935096Y-110564683D01*
X170990096Y-110346412D01*
X171000500Y-110214217D01*
X171000499Y-108585784D01*
X170990096Y-108453588D01*
X170980696Y-108416285D01*
X170935097Y-108235321D01*
X170935096Y-108235318D01*
X170913611Y-108188018D01*
X170842007Y-108030374D01*
X170730666Y-107869663D01*
X170713825Y-107845354D01*
X170713822Y-107845350D01*
X170713819Y-107845346D01*
X170554654Y-107686181D01*
X170554650Y-107686178D01*
X170554645Y-107686174D01*
X170369632Y-107557997D01*
X170369630Y-107557995D01*
X170369626Y-107557993D01*
X170318179Y-107534625D01*
X170164681Y-107464903D01*
X170164678Y-107464902D01*
X169946420Y-107409905D01*
X169946413Y-107409904D01*
X169814219Y-107399500D01*
X169814217Y-107399500D01*
X168289006Y-107399500D01*
X168221967Y-107379815D01*
X168201325Y-107363181D01*
X167362554Y-106524410D01*
X167329069Y-106463087D01*
X167334053Y-106393395D01*
X167375925Y-106337462D01*
X167441389Y-106313045D01*
X167509662Y-106327897D01*
X167520851Y-106334801D01*
X167530619Y-106341568D01*
X167530625Y-106341571D01*
X167735480Y-106434622D01*
X167953667Y-106489599D01*
X168085806Y-106500000D01*
X169714192Y-106499999D01*
X169846332Y-106489599D01*
X170064519Y-106434622D01*
X170269375Y-106341571D01*
X170269377Y-106341570D01*
X170339461Y-106293015D01*
X170339462Y-106293014D01*
X168900000Y-104853553D01*
X168546448Y-104500001D01*
X169253553Y-104500001D01*
X170693014Y-105939462D01*
X170693015Y-105939461D01*
X170741570Y-105869377D01*
X170741571Y-105869375D01*
X170834622Y-105664519D01*
X170889599Y-105446332D01*
X170900000Y-105314194D01*
X170899999Y-103685808D01*
X170889599Y-103553667D01*
X170834622Y-103335480D01*
X170741571Y-103130624D01*
X170741569Y-103130620D01*
X170693014Y-103060536D01*
X169253553Y-104499999D01*
X169253553Y-104500001D01*
X168546448Y-104500001D01*
X167106984Y-103060537D01*
X167106983Y-103060537D01*
X167058430Y-103130621D01*
X167058428Y-103130625D01*
X166965377Y-103335480D01*
X166910400Y-103553667D01*
X166900000Y-103685806D01*
X166900001Y-105314192D01*
X166910400Y-105446332D01*
X166965377Y-105664519D01*
X167058428Y-105869374D01*
X167058430Y-105869379D01*
X167065199Y-105879149D01*
X167087196Y-105945466D01*
X167069846Y-106013148D01*
X167018660Y-106060705D01*
X166949887Y-106073040D01*
X166885364Y-106046235D01*
X166875589Y-106037445D01*
X165111819Y-104273675D01*
X165078334Y-104212352D01*
X165075500Y-104185994D01*
X165075500Y-102706984D01*
X167460537Y-102706984D01*
X168900000Y-104146447D01*
X168900001Y-104146447D01*
X170339462Y-102706984D01*
X170339462Y-102706983D01*
X170269378Y-102658430D01*
X170269374Y-102658428D01*
X170064519Y-102565377D01*
X169846332Y-102510400D01*
X169714194Y-102500000D01*
X168085808Y-102500001D01*
X167953667Y-102510400D01*
X167735480Y-102565377D01*
X167530625Y-102658428D01*
X167530621Y-102658430D01*
X167460537Y-102706983D01*
X167460537Y-102706984D01*
X165075500Y-102706984D01*
X165075500Y-101473466D01*
X165095185Y-101406427D01*
X165147989Y-101360672D01*
X165156156Y-101357288D01*
X165192331Y-101343796D01*
X165276105Y-101281082D01*
X165341569Y-101256665D01*
X165409842Y-101271516D01*
X165424727Y-101281082D01*
X165507910Y-101343352D01*
X165507913Y-101343354D01*
X165642620Y-101393596D01*
X165642627Y-101393598D01*
X165702155Y-101399999D01*
X165702172Y-101400000D01*
X166250000Y-101400000D01*
X166750000Y-101400000D01*
X167297828Y-101400000D01*
X167297844Y-101399999D01*
X167357372Y-101393598D01*
X167357379Y-101393596D01*
X167492086Y-101343354D01*
X167492089Y-101343352D01*
X167575271Y-101281082D01*
X167640735Y-101256664D01*
X167709008Y-101271515D01*
X167723887Y-101281077D01*
X167807076Y-101343352D01*
X167807668Y-101343795D01*
X167807671Y-101343797D01*
X167942517Y-101394091D01*
X167942516Y-101394091D01*
X167949444Y-101394835D01*
X168002127Y-101400500D01*
X169597872Y-101400499D01*
X169657483Y-101394091D01*
X169792331Y-101343796D01*
X169907546Y-101257546D01*
X169993796Y-101142331D01*
X170044091Y-101007483D01*
X170050500Y-100947873D01*
X170050499Y-98852128D01*
X170044091Y-98792517D01*
X170042154Y-98787324D01*
X169993797Y-98657671D01*
X169993793Y-98657664D01*
X169907547Y-98542455D01*
X169907544Y-98542452D01*
X169792334Y-98456205D01*
X169756164Y-98442714D01*
X169700231Y-98400841D01*
X169675816Y-98335376D01*
X169675500Y-98326533D01*
X169675500Y-98088110D01*
X169675705Y-98083075D01*
X169677203Y-98064672D01*
X169680340Y-98026152D01*
X169669083Y-97943537D01*
X169660073Y-97860684D01*
X169660014Y-97860509D01*
X169654656Y-97837649D01*
X169654631Y-97837463D01*
X169625880Y-97759206D01*
X169599267Y-97680220D01*
X169599266Y-97680218D01*
X169599172Y-97680061D01*
X169589025Y-97658887D01*
X169588961Y-97658712D01*
X169544059Y-97588463D01*
X169526884Y-97559918D01*
X169501090Y-97517047D01*
X169500957Y-97516907D01*
X169486504Y-97498419D01*
X169486400Y-97498256D01*
X169427447Y-97439303D01*
X169370129Y-97378793D01*
X169369970Y-97378685D01*
X169351877Y-97363733D01*
X168780418Y-96792274D01*
X168760711Y-96766591D01*
X168732534Y-96717785D01*
X168622349Y-96595413D01*
X168605871Y-96577112D01*
X168605870Y-96577111D01*
X168452734Y-96465851D01*
X168452729Y-96465848D01*
X168279807Y-96388857D01*
X168279802Y-96388855D01*
X168134001Y-96357865D01*
X168094646Y-96349500D01*
X167905354Y-96349500D01*
X167872897Y-96356398D01*
X167720197Y-96388855D01*
X167720192Y-96388857D01*
X167547270Y-96465848D01*
X167547265Y-96465851D01*
X167394129Y-96577111D01*
X167267466Y-96717785D01*
X167172821Y-96881715D01*
X167172818Y-96881722D01*
X167119700Y-97045205D01*
X167114326Y-97061744D01*
X167094540Y-97250000D01*
X167114326Y-97438256D01*
X167114327Y-97438259D01*
X167172818Y-97618277D01*
X167172821Y-97618284D01*
X167267467Y-97782216D01*
X167394129Y-97922888D01*
X167534763Y-98025064D01*
X167549552Y-98037696D01*
X167798205Y-98286349D01*
X167831690Y-98347672D01*
X167826706Y-98417364D01*
X167784836Y-98473296D01*
X167723895Y-98518917D01*
X167658431Y-98543335D01*
X167590157Y-98528484D01*
X167575272Y-98518918D01*
X167492088Y-98456646D01*
X167492086Y-98456645D01*
X167357379Y-98406403D01*
X167357372Y-98406401D01*
X167297844Y-98400000D01*
X166750000Y-98400000D01*
X166750000Y-101400000D01*
X166250000Y-101400000D01*
X166250000Y-98400000D01*
X165702155Y-98400000D01*
X165642627Y-98406401D01*
X165642620Y-98406403D01*
X165507913Y-98456645D01*
X165507910Y-98456647D01*
X165424727Y-98518918D01*
X165359262Y-98543335D01*
X165290989Y-98528483D01*
X165276106Y-98518918D01*
X165192331Y-98456204D01*
X165192328Y-98456202D01*
X165057482Y-98405908D01*
X165057483Y-98405908D01*
X164997883Y-98399501D01*
X164997881Y-98399500D01*
X164997873Y-98399500D01*
X164997864Y-98399500D01*
X163402129Y-98399500D01*
X163402123Y-98399501D01*
X163342516Y-98405908D01*
X163207671Y-98456202D01*
X163207664Y-98456206D01*
X163092455Y-98542452D01*
X163092452Y-98542455D01*
X163006206Y-98657664D01*
X163006202Y-98657671D01*
X162955908Y-98792517D01*
X162950760Y-98840406D01*
X162949501Y-98852123D01*
X162949500Y-98852135D01*
X162949500Y-100947870D01*
X162152500Y-100947870D01*
X162152500Y-97109742D01*
X162154224Y-97094122D01*
X162153939Y-97094095D01*
X162154673Y-97086333D01*
X162152500Y-97017172D01*
X162152500Y-96987656D01*
X162152500Y-96987650D01*
X162151631Y-96980779D01*
X162151173Y-96974952D01*
X162149710Y-96928373D01*
X162144119Y-96909130D01*
X162140173Y-96890078D01*
X162137664Y-96870208D01*
X162120504Y-96826867D01*
X162118624Y-96821379D01*
X162105618Y-96776610D01*
X162095422Y-96759370D01*
X162086861Y-96741894D01*
X162079487Y-96723270D01*
X162075502Y-96717785D01*
X162052079Y-96685545D01*
X162048888Y-96680686D01*
X162047010Y-96677511D01*
X162025170Y-96640580D01*
X162025168Y-96640578D01*
X162025165Y-96640574D01*
X162011006Y-96626415D01*
X161998368Y-96611619D01*
X161986594Y-96595413D01*
X161950928Y-96565908D01*
X161950688Y-96565709D01*
X161946376Y-96561786D01*
X161500806Y-96116216D01*
X161490981Y-96103952D01*
X161490760Y-96104136D01*
X161485785Y-96098121D01*
X161441147Y-96056204D01*
X161435364Y-96050773D01*
X161424919Y-96040328D01*
X161414475Y-96029883D01*
X161408986Y-96025625D01*
X161404561Y-96021847D01*
X161370582Y-95989938D01*
X161370580Y-95989936D01*
X161370577Y-95989935D01*
X161353029Y-95980288D01*
X161336763Y-95969604D01*
X161320933Y-95957325D01*
X161278168Y-95938818D01*
X161272922Y-95936248D01*
X161232093Y-95913803D01*
X161232092Y-95913802D01*
X161212693Y-95908822D01*
X161194281Y-95902518D01*
X161175898Y-95894562D01*
X161175892Y-95894560D01*
X161129874Y-95887272D01*
X161124152Y-95886087D01*
X161079021Y-95874500D01*
X161079019Y-95874500D01*
X161058984Y-95874500D01*
X161039586Y-95872973D01*
X161032162Y-95871797D01*
X161019805Y-95869840D01*
X161019804Y-95869840D01*
X160973416Y-95874225D01*
X160967578Y-95874500D01*
X159515004Y-95874500D01*
X159447965Y-95854815D01*
X159409465Y-95815596D01*
X159400526Y-95801104D01*
X159397968Y-95796956D01*
X159278044Y-95677032D01*
X159278040Y-95677029D01*
X159133705Y-95588001D01*
X159133699Y-95587998D01*
X159133697Y-95587997D01*
X159056839Y-95562529D01*
X158972709Y-95534651D01*
X158873346Y-95524500D01*
X158326662Y-95524500D01*
X158326644Y-95524501D01*
X158227292Y-95534650D01*
X158227289Y-95534651D01*
X158066305Y-95587996D01*
X158066294Y-95588001D01*
X157921959Y-95677029D01*
X157921953Y-95677033D01*
X157912324Y-95686663D01*
X157851000Y-95720146D01*
X157781308Y-95715159D01*
X157736965Y-95686660D01*
X157727732Y-95677427D01*
X157727728Y-95677424D01*
X157583492Y-95588457D01*
X157583481Y-95588452D01*
X157422606Y-95535144D01*
X157323322Y-95525000D01*
X157300000Y-95525000D01*
X157300000Y-96626000D01*
X157280315Y-96693039D01*
X157227511Y-96738794D01*
X157176000Y-96750000D01*
X156924000Y-96750000D01*
X156856961Y-96730315D01*
X156811206Y-96677511D01*
X156800000Y-96626000D01*
X156800000Y-95524999D01*
X156776693Y-95525000D01*
X156776674Y-95525001D01*
X156677392Y-95535144D01*
X156516518Y-95588452D01*
X156516507Y-95588457D01*
X156372271Y-95677424D01*
X156300534Y-95749161D01*
X156239210Y-95782645D01*
X156169519Y-95777660D01*
X156125172Y-95749160D01*
X156053044Y-95677032D01*
X156053040Y-95677029D01*
X155908705Y-95588001D01*
X155908699Y-95587998D01*
X155908697Y-95587997D01*
X155831839Y-95562529D01*
X155747709Y-95534651D01*
X155648346Y-95524500D01*
X155101662Y-95524500D01*
X155101644Y-95524501D01*
X155002292Y-95534650D01*
X155002289Y-95534651D01*
X154841305Y-95587996D01*
X154841294Y-95588001D01*
X154696959Y-95677029D01*
X154696953Y-95677033D01*
X154687324Y-95686663D01*
X154626000Y-95720146D01*
X154556308Y-95715159D01*
X154511965Y-95686660D01*
X154497625Y-95672320D01*
X154498518Y-95671426D01*
X154462438Y-95620471D01*
X154459298Y-95550672D01*
X154492042Y-95492547D01*
X155272772Y-94711818D01*
X155334095Y-94678333D01*
X155360453Y-94675499D01*
X155673338Y-94675499D01*
X155673344Y-94675499D01*
X155673352Y-94675498D01*
X155673355Y-94675498D01*
X155736124Y-94669086D01*
X155772708Y-94665349D01*
X155933697Y-94612003D01*
X156078044Y-94522968D01*
X156197968Y-94403044D01*
X156201075Y-94398005D01*
X156253017Y-94351279D01*
X156321979Y-94340051D01*
X156386063Y-94367889D01*
X156412731Y-94398942D01*
X156415209Y-94403040D01*
X156419530Y-94410188D01*
X156539811Y-94530469D01*
X156539813Y-94530470D01*
X156539815Y-94530472D01*
X156685394Y-94618478D01*
X156847804Y-94669086D01*
X156918384Y-94675500D01*
X156918387Y-94675500D01*
X157431613Y-94675500D01*
X157431616Y-94675500D01*
X157502196Y-94669086D01*
X157664606Y-94618478D01*
X157810185Y-94530472D01*
X157861156Y-94479501D01*
X157912319Y-94428339D01*
X157973642Y-94394854D01*
X158043334Y-94399838D01*
X158087681Y-94428339D01*
X158189811Y-94530469D01*
X158189813Y-94530470D01*
X158189815Y-94530472D01*
X158335394Y-94618478D01*
X158497804Y-94669086D01*
X158568384Y-94675500D01*
X158568387Y-94675500D01*
X159081613Y-94675500D01*
X159081616Y-94675500D01*
X159152196Y-94669086D01*
X159220282Y-94647870D01*
X164099500Y-94647870D01*
X164099501Y-94647876D01*
X164105908Y-94707483D01*
X164156202Y-94842328D01*
X164156206Y-94842335D01*
X164242452Y-94957544D01*
X164242455Y-94957547D01*
X164357664Y-95043793D01*
X164357671Y-95043797D01*
X164492517Y-95094091D01*
X164492516Y-95094091D01*
X164499444Y-95094835D01*
X164552127Y-95100500D01*
X168447872Y-95100499D01*
X168507483Y-95094091D01*
X168642331Y-95043796D01*
X168757546Y-94957546D01*
X168843796Y-94842331D01*
X168894091Y-94707483D01*
X168900500Y-94647873D01*
X168900499Y-92552128D01*
X168894091Y-92492517D01*
X168874020Y-92438705D01*
X168843797Y-92357671D01*
X168843793Y-92357664D01*
X168757547Y-92242455D01*
X168757544Y-92242452D01*
X168642335Y-92156206D01*
X168642328Y-92156202D01*
X168507482Y-92105908D01*
X168507483Y-92105908D01*
X168447883Y-92099501D01*
X168447881Y-92099500D01*
X168447873Y-92099500D01*
X168447864Y-92099500D01*
X164552129Y-92099500D01*
X164552123Y-92099501D01*
X164492516Y-92105908D01*
X164357671Y-92156202D01*
X164357664Y-92156206D01*
X164242455Y-92242452D01*
X164242452Y-92242455D01*
X164156206Y-92357664D01*
X164156202Y-92357671D01*
X164105908Y-92492517D01*
X164105104Y-92500000D01*
X164099501Y-92552123D01*
X164099500Y-92552135D01*
X164099500Y-94647870D01*
X159220282Y-94647870D01*
X159314606Y-94618478D01*
X159460185Y-94530472D01*
X159580472Y-94410185D01*
X159668478Y-94264606D01*
X159719086Y-94102196D01*
X159723688Y-94051548D01*
X159749359Y-93986567D01*
X159759490Y-93975099D01*
X161422771Y-92311817D01*
X161484094Y-92278333D01*
X161510452Y-92275499D01*
X161823338Y-92275499D01*
X161823344Y-92275499D01*
X161823352Y-92275498D01*
X161823355Y-92275498D01*
X161920779Y-92265546D01*
X161922708Y-92265349D01*
X162083697Y-92212003D01*
X162228044Y-92122968D01*
X162237668Y-92113343D01*
X162298987Y-92079856D01*
X162368679Y-92084835D01*
X162413034Y-92113339D01*
X162422267Y-92122572D01*
X162422271Y-92122575D01*
X162566507Y-92211542D01*
X162566518Y-92211547D01*
X162727393Y-92264855D01*
X162826683Y-92274999D01*
X162850000Y-92274998D01*
X162850000Y-91550000D01*
X163350000Y-91550000D01*
X163350000Y-92274999D01*
X163373308Y-92274999D01*
X163373322Y-92274998D01*
X163472607Y-92264855D01*
X163633481Y-92211547D01*
X163633492Y-92211542D01*
X163777728Y-92122575D01*
X163777732Y-92122572D01*
X163897572Y-92002732D01*
X163897575Y-92002728D01*
X163986542Y-91858492D01*
X163986547Y-91858481D01*
X164039855Y-91697606D01*
X164049999Y-91598322D01*
X164050000Y-91598309D01*
X164050000Y-91550000D01*
X163350000Y-91550000D01*
X162850000Y-91550000D01*
X162850000Y-91492170D01*
X166011382Y-91492170D01*
X166088019Y-91499999D01*
X167211971Y-91499999D01*
X167211987Y-91499998D01*
X167288617Y-91492169D01*
X166650001Y-90853553D01*
X166650000Y-90853553D01*
X166011382Y-91492170D01*
X162850000Y-91492170D01*
X162850000Y-90325000D01*
X163350000Y-90325000D01*
X163350000Y-91050000D01*
X164049999Y-91050000D01*
X164049999Y-91001692D01*
X164049998Y-91001677D01*
X164039855Y-90902392D01*
X164005916Y-90799971D01*
X165388000Y-90799971D01*
X165388001Y-90799987D01*
X165398494Y-90902697D01*
X165453641Y-91069119D01*
X165453643Y-91069124D01*
X165545684Y-91218345D01*
X165561893Y-91234554D01*
X166296447Y-90500000D01*
X167003553Y-90500000D01*
X167738107Y-91234554D01*
X167754315Y-91218345D01*
X167846356Y-91069124D01*
X167846358Y-91069119D01*
X167901505Y-90902697D01*
X167901506Y-90902690D01*
X167911999Y-90799986D01*
X167911999Y-90200028D01*
X167911998Y-90200012D01*
X167901505Y-90097302D01*
X167846358Y-89930880D01*
X167846356Y-89930875D01*
X167754315Y-89781654D01*
X167738107Y-89765446D01*
X167003553Y-90500000D01*
X166296447Y-90500000D01*
X165561893Y-89765446D01*
X165545684Y-89781654D01*
X165453643Y-89930875D01*
X165453641Y-89930880D01*
X165398494Y-90097302D01*
X165398493Y-90097309D01*
X165388000Y-90200013D01*
X165388000Y-90799971D01*
X164005916Y-90799971D01*
X163986547Y-90741518D01*
X163986542Y-90741507D01*
X163897575Y-90597271D01*
X163897572Y-90597267D01*
X163777732Y-90477427D01*
X163777728Y-90477424D01*
X163633492Y-90388457D01*
X163633481Y-90388452D01*
X163472606Y-90335144D01*
X163373322Y-90325000D01*
X163350000Y-90325000D01*
X162850000Y-90325000D01*
X162850000Y-90324999D01*
X162826693Y-90325000D01*
X162826674Y-90325001D01*
X162727392Y-90335144D01*
X162566518Y-90388452D01*
X162566507Y-90388457D01*
X162422271Y-90477424D01*
X162422264Y-90477430D01*
X162413028Y-90486665D01*
X162351703Y-90520146D01*
X162282011Y-90515157D01*
X162237672Y-90486659D01*
X162228044Y-90477031D01*
X162184402Y-90450112D01*
X162137678Y-90398163D01*
X162125500Y-90344574D01*
X162125500Y-89507829D01*
X166011381Y-89507829D01*
X166650000Y-90146447D01*
X166650001Y-90146447D01*
X167288617Y-89507828D01*
X167211980Y-89500000D01*
X166088029Y-89500000D01*
X166088008Y-89500002D01*
X166011382Y-89507828D01*
X166011381Y-89507829D01*
X162125500Y-89507829D01*
X162125500Y-89324547D01*
X162145185Y-89257508D01*
X162172595Y-89227276D01*
X162178041Y-89222969D01*
X162178044Y-89222968D01*
X162187668Y-89213343D01*
X162248987Y-89179856D01*
X162318679Y-89184835D01*
X162363034Y-89213339D01*
X162372267Y-89222572D01*
X162372271Y-89222575D01*
X162516507Y-89311542D01*
X162516518Y-89311547D01*
X162677393Y-89364855D01*
X162776683Y-89374999D01*
X162800000Y-89374998D01*
X162800000Y-88650000D01*
X163300000Y-88650000D01*
X163300000Y-89374999D01*
X163323308Y-89374999D01*
X163323322Y-89374998D01*
X163422607Y-89364855D01*
X163583481Y-89311547D01*
X163583492Y-89311542D01*
X163727728Y-89222575D01*
X163727732Y-89222572D01*
X163847572Y-89102732D01*
X163847575Y-89102728D01*
X163936542Y-88958492D01*
X163936547Y-88958481D01*
X163989855Y-88797606D01*
X163999999Y-88698322D01*
X164000000Y-88698309D01*
X164000000Y-88650000D01*
X163300000Y-88650000D01*
X162800000Y-88650000D01*
X162800000Y-88274000D01*
X162819685Y-88206961D01*
X162872489Y-88161206D01*
X162924000Y-88150000D01*
X163999999Y-88150000D01*
X163999999Y-88101692D01*
X163999998Y-88101677D01*
X163989855Y-88002392D01*
X163936547Y-87841518D01*
X163936542Y-87841507D01*
X163847575Y-87697271D01*
X163847572Y-87697267D01*
X163739486Y-87589181D01*
X163706001Y-87527858D01*
X163710985Y-87458166D01*
X163752857Y-87402233D01*
X163818321Y-87377816D01*
X163827167Y-87377500D01*
X168243675Y-87377500D01*
X168270724Y-87380485D01*
X168311825Y-87389673D01*
X168319993Y-87389416D01*
X168343282Y-87390881D01*
X168351354Y-87392160D01*
X168351355Y-87392159D01*
X168351357Y-87392160D01*
X168390923Y-87388419D01*
X168408516Y-87386755D01*
X168412382Y-87386512D01*
X168469785Y-87384709D01*
X168477625Y-87382430D01*
X168500558Y-87378055D01*
X168508691Y-87377287D01*
X168562712Y-87357837D01*
X168566406Y-87356638D01*
X168592999Y-87348912D01*
X168621548Y-87340618D01*
X168628585Y-87336455D01*
X168649690Y-87326524D01*
X168657386Y-87323754D01*
X168704871Y-87291482D01*
X168708155Y-87289398D01*
X168709132Y-87288819D01*
X168757578Y-87260170D01*
X168763347Y-87254400D01*
X168781340Y-87239514D01*
X168788096Y-87234924D01*
X168826083Y-87191834D01*
X168828719Y-87189027D01*
X169462821Y-86554926D01*
X169524142Y-86521443D01*
X169593834Y-86526427D01*
X169649767Y-86568299D01*
X169674184Y-86633763D01*
X169674500Y-86642609D01*
X169674500Y-89424006D01*
X169654815Y-89491045D01*
X169602011Y-89536800D01*
X169589505Y-89541712D01*
X169518666Y-89565186D01*
X169369342Y-89657289D01*
X169245289Y-89781342D01*
X169153187Y-89930663D01*
X169153185Y-89930668D01*
X169138221Y-89975826D01*
X169098001Y-90097203D01*
X169098001Y-90097204D01*
X169098000Y-90097204D01*
X169087500Y-90199983D01*
X169087500Y-90800001D01*
X169087501Y-90800019D01*
X169098000Y-90902796D01*
X169098001Y-90902799D01*
X169150670Y-91061740D01*
X169153186Y-91069334D01*
X169245288Y-91218656D01*
X169369344Y-91342712D01*
X169518666Y-91434814D01*
X169685203Y-91489999D01*
X169787991Y-91500500D01*
X170912008Y-91500499D01*
X171014797Y-91489999D01*
X171181334Y-91434814D01*
X171330656Y-91342712D01*
X171454712Y-91218656D01*
X171546814Y-91069334D01*
X171601999Y-90902797D01*
X171612500Y-90800009D01*
X171612499Y-90199992D01*
X171601999Y-90097203D01*
X171546814Y-89930666D01*
X171454712Y-89781344D01*
X171330656Y-89657288D01*
X171181334Y-89565186D01*
X171014797Y-89510001D01*
X171014796Y-89510000D01*
X171010496Y-89508576D01*
X170953051Y-89468803D01*
X170926228Y-89404287D01*
X170925500Y-89390870D01*
X170925500Y-85609130D01*
X170945185Y-85542091D01*
X170997989Y-85496336D01*
X171010496Y-85491424D01*
X171014795Y-85489999D01*
X171014797Y-85489999D01*
X171181334Y-85434814D01*
X171330656Y-85342712D01*
X171454712Y-85218656D01*
X171546814Y-85069334D01*
X171601999Y-84902797D01*
X171612500Y-84800009D01*
X171612499Y-84199992D01*
X171604838Y-84125000D01*
X171601999Y-84097203D01*
X171601998Y-84097200D01*
X171594776Y-84075406D01*
X171546814Y-83930666D01*
X171454712Y-83781344D01*
X171454711Y-83781343D01*
X171454710Y-83781341D01*
X171452233Y-83778209D01*
X171451202Y-83775655D01*
X171450920Y-83775197D01*
X171450998Y-83775148D01*
X171426093Y-83713413D01*
X171425500Y-83701299D01*
X171425500Y-79782737D01*
X171427224Y-79767123D01*
X171426938Y-79767096D01*
X171427672Y-79759333D01*
X171425500Y-79690202D01*
X171425500Y-79660651D01*
X171425500Y-79660650D01*
X171424629Y-79653759D01*
X171424172Y-79647945D01*
X171422709Y-79601374D01*
X171422709Y-79601372D01*
X171417120Y-79582137D01*
X171413174Y-79563084D01*
X171410664Y-79543208D01*
X171393501Y-79499859D01*
X171391614Y-79494346D01*
X171388839Y-79484796D01*
X171378617Y-79449610D01*
X171368421Y-79432369D01*
X171359860Y-79414893D01*
X171352486Y-79396269D01*
X171352486Y-79396267D01*
X171340020Y-79379110D01*
X171325083Y-79358550D01*
X171321900Y-79353705D01*
X171298170Y-79313579D01*
X171298165Y-79313573D01*
X171284005Y-79299413D01*
X171271370Y-79284620D01*
X171259593Y-79268412D01*
X171223693Y-79238713D01*
X171219381Y-79234790D01*
X171148803Y-79164212D01*
X171138980Y-79151950D01*
X171138759Y-79152134D01*
X171133786Y-79146123D01*
X171115159Y-79128631D01*
X171083364Y-79098773D01*
X171072919Y-79088328D01*
X171062475Y-79077883D01*
X171056986Y-79073625D01*
X171052561Y-79069847D01*
X171018582Y-79037938D01*
X171018580Y-79037936D01*
X171018577Y-79037935D01*
X171001029Y-79028288D01*
X170984763Y-79017604D01*
X170968936Y-79005327D01*
X170968935Y-79005326D01*
X170968933Y-79005325D01*
X170926168Y-78986818D01*
X170920922Y-78984248D01*
X170880093Y-78961803D01*
X170880092Y-78961802D01*
X170860693Y-78956822D01*
X170842281Y-78950518D01*
X170823898Y-78942562D01*
X170823892Y-78942560D01*
X170777873Y-78935272D01*
X170772150Y-78934087D01*
X170729333Y-78923093D01*
X170669296Y-78887354D01*
X170638111Y-78824830D01*
X170645679Y-78755372D01*
X170685860Y-78703723D01*
X170747546Y-78657546D01*
X170833796Y-78542331D01*
X170884091Y-78407483D01*
X170890500Y-78347873D01*
X170890499Y-75852128D01*
X170884091Y-75792517D01*
X170880039Y-75781654D01*
X170833797Y-75657671D01*
X170833793Y-75657664D01*
X170760217Y-75559380D01*
X170747546Y-75542454D01*
X170734689Y-75532829D01*
X170695188Y-75503258D01*
X170653318Y-75447324D01*
X170645500Y-75403992D01*
X170645500Y-74540452D01*
X170665185Y-74473413D01*
X170681819Y-74452771D01*
X170697771Y-74436819D01*
X170759094Y-74403334D01*
X170785452Y-74400500D01*
X170844644Y-74400500D01*
X170844646Y-74400500D01*
X171029803Y-74361144D01*
X171202730Y-74284151D01*
X171355871Y-74172888D01*
X171482533Y-74032216D01*
X171577179Y-73868284D01*
X171635674Y-73688256D01*
X171655460Y-73500000D01*
X171635674Y-73311744D01*
X171577179Y-73131716D01*
X171482533Y-72967784D01*
X171355871Y-72827112D01*
X171355870Y-72827111D01*
X171202734Y-72715851D01*
X171202729Y-72715848D01*
X171029807Y-72638857D01*
X171029802Y-72638855D01*
X170884001Y-72607865D01*
X170844646Y-72599500D01*
X170655354Y-72599500D01*
X170622897Y-72606398D01*
X170470197Y-72638855D01*
X170470192Y-72638857D01*
X170297270Y-72715848D01*
X170297265Y-72715851D01*
X170144129Y-72827111D01*
X170017466Y-72967785D01*
X169922821Y-73131715D01*
X169922818Y-73131722D01*
X169886401Y-73243804D01*
X169864326Y-73311744D01*
X169855146Y-73399089D01*
X169846679Y-73479649D01*
X169820094Y-73544263D01*
X169811039Y-73554368D01*
X169636208Y-73729199D01*
X169623951Y-73739020D01*
X169624134Y-73739241D01*
X169618123Y-73744213D01*
X169570772Y-73794636D01*
X169549889Y-73815519D01*
X169549877Y-73815532D01*
X169545621Y-73821017D01*
X169541837Y-73825447D01*
X169509937Y-73859418D01*
X169509936Y-73859420D01*
X169500284Y-73876976D01*
X169489610Y-73893226D01*
X169477329Y-73909061D01*
X169477324Y-73909068D01*
X169458815Y-73951838D01*
X169456245Y-73957084D01*
X169433803Y-73997906D01*
X169428822Y-74017307D01*
X169422521Y-74035710D01*
X169414562Y-74054102D01*
X169414561Y-74054105D01*
X169407271Y-74100127D01*
X169406087Y-74105846D01*
X169394501Y-74150972D01*
X169394500Y-74150982D01*
X169394500Y-74171016D01*
X169392973Y-74190415D01*
X169389840Y-74210194D01*
X169389840Y-74210195D01*
X169394225Y-74256583D01*
X169394500Y-74262421D01*
X169394500Y-75290141D01*
X169374815Y-75357180D01*
X169322011Y-75402935D01*
X169252853Y-75412879D01*
X169228698Y-75406714D01*
X169227372Y-75406401D01*
X169167844Y-75400000D01*
X169000000Y-75400000D01*
X169000000Y-77226000D01*
X168980315Y-77293039D01*
X168927511Y-77338794D01*
X168876000Y-77350000D01*
X167354000Y-77350000D01*
X167286961Y-77330315D01*
X167241206Y-77277511D01*
X167230000Y-77226000D01*
X167230000Y-75400000D01*
X167730000Y-75400000D01*
X167730000Y-76850000D01*
X168500000Y-76850000D01*
X168500000Y-75400000D01*
X168332155Y-75400000D01*
X168272627Y-75406401D01*
X168272619Y-75406403D01*
X168158333Y-75449029D01*
X168088641Y-75454013D01*
X168071667Y-75449029D01*
X167957380Y-75406403D01*
X167957372Y-75406401D01*
X167897844Y-75400000D01*
X167730000Y-75400000D01*
X167230000Y-75400000D01*
X167062155Y-75400000D01*
X167002627Y-75406401D01*
X167002620Y-75406403D01*
X166889047Y-75448763D01*
X166819355Y-75453747D01*
X166802381Y-75448763D01*
X166687482Y-75405908D01*
X166687483Y-75405908D01*
X166627883Y-75399501D01*
X166627881Y-75399500D01*
X166627873Y-75399500D01*
X166627864Y-75399500D01*
X165792129Y-75399500D01*
X165792123Y-75399501D01*
X165732516Y-75405908D01*
X165617618Y-75448763D01*
X165547926Y-75453747D01*
X165530952Y-75448763D01*
X165417379Y-75406403D01*
X165417372Y-75406401D01*
X165357844Y-75400000D01*
X165190000Y-75400000D01*
X165190000Y-78800000D01*
X165224874Y-78834874D01*
X165258359Y-78896197D01*
X165253375Y-78965889D01*
X165211503Y-79021822D01*
X165200317Y-79029285D01*
X165165580Y-79049829D01*
X165151414Y-79063995D01*
X165136624Y-79076627D01*
X165120414Y-79088404D01*
X165120411Y-79088407D01*
X165090710Y-79124309D01*
X165086777Y-79128631D01*
X164952227Y-79263181D01*
X164890904Y-79296666D01*
X164864546Y-79299500D01*
X164522130Y-79299500D01*
X164522123Y-79299501D01*
X164462516Y-79305908D01*
X164327671Y-79356202D01*
X164319890Y-79360452D01*
X164318935Y-79358704D01*
X164264215Y-79379110D01*
X164195943Y-79364253D01*
X164167697Y-79343106D01*
X163840803Y-79016212D01*
X163830980Y-79003950D01*
X163830759Y-79004134D01*
X163825786Y-78998123D01*
X163823008Y-78995514D01*
X163775364Y-78950773D01*
X163759863Y-78935272D01*
X163754475Y-78929883D01*
X163748986Y-78925625D01*
X163744561Y-78921847D01*
X163710582Y-78889938D01*
X163710580Y-78889936D01*
X163710577Y-78889935D01*
X163693029Y-78880288D01*
X163676763Y-78869604D01*
X163660933Y-78857325D01*
X163618168Y-78838818D01*
X163612922Y-78836248D01*
X163572093Y-78813803D01*
X163572092Y-78813802D01*
X163552693Y-78808822D01*
X163534281Y-78802518D01*
X163515898Y-78794562D01*
X163515892Y-78794560D01*
X163469874Y-78787272D01*
X163464152Y-78786087D01*
X163419021Y-78774500D01*
X163419019Y-78774500D01*
X163398984Y-78774500D01*
X163379586Y-78772973D01*
X163372162Y-78771797D01*
X163359805Y-78769840D01*
X163359804Y-78769840D01*
X163313416Y-78774225D01*
X163307578Y-78774500D01*
X162815004Y-78774500D01*
X162747965Y-78754815D01*
X162709465Y-78715596D01*
X162701387Y-78702500D01*
X162697968Y-78696956D01*
X162578044Y-78577032D01*
X162578040Y-78577029D01*
X162433705Y-78488001D01*
X162433699Y-78487998D01*
X162433697Y-78487997D01*
X162414157Y-78481522D01*
X162272709Y-78434651D01*
X162173352Y-78424500D01*
X162173345Y-78424500D01*
X161860453Y-78424500D01*
X161793414Y-78404815D01*
X161772772Y-78388181D01*
X161096271Y-77711680D01*
X161062786Y-77650357D01*
X161067770Y-77580665D01*
X161109642Y-77524732D01*
X161175106Y-77500315D01*
X161183952Y-77499999D01*
X162011971Y-77499999D01*
X162011987Y-77499998D01*
X162088616Y-77492169D01*
X161946447Y-77350000D01*
X164070000Y-77350000D01*
X164070000Y-78347844D01*
X164076401Y-78407372D01*
X164076403Y-78407379D01*
X164126645Y-78542086D01*
X164126649Y-78542093D01*
X164212809Y-78657187D01*
X164212812Y-78657190D01*
X164327906Y-78743350D01*
X164327913Y-78743354D01*
X164462620Y-78793596D01*
X164462627Y-78793598D01*
X164522155Y-78799999D01*
X164522172Y-78800000D01*
X164690000Y-78800000D01*
X164690000Y-77350000D01*
X164070000Y-77350000D01*
X161946447Y-77350000D01*
X161184128Y-76587681D01*
X161150643Y-76526358D01*
X161152528Y-76500000D01*
X161803553Y-76500000D01*
X162538107Y-77234554D01*
X162554315Y-77218345D01*
X162646356Y-77069124D01*
X162646358Y-77069119D01*
X162701505Y-76902697D01*
X162701506Y-76902690D01*
X162706889Y-76850000D01*
X164070000Y-76850000D01*
X164690000Y-76850000D01*
X164690000Y-75400000D01*
X164522155Y-75400000D01*
X164462627Y-75406401D01*
X164462620Y-75406403D01*
X164327913Y-75456645D01*
X164327906Y-75456649D01*
X164212812Y-75542809D01*
X164212809Y-75542812D01*
X164126649Y-75657906D01*
X164126645Y-75657913D01*
X164076403Y-75792620D01*
X164076401Y-75792627D01*
X164070000Y-75852155D01*
X164070000Y-76850000D01*
X162706889Y-76850000D01*
X162711999Y-76799986D01*
X162711999Y-76200028D01*
X162711998Y-76200012D01*
X162701505Y-76097302D01*
X162646358Y-75930880D01*
X162646356Y-75930875D01*
X162554315Y-75781654D01*
X162538107Y-75765446D01*
X161803553Y-76500000D01*
X161152528Y-76500000D01*
X161155627Y-76456666D01*
X161184128Y-76412319D01*
X161450000Y-76146447D01*
X162088617Y-75507828D01*
X162011980Y-75500000D01*
X160888028Y-75500000D01*
X160888012Y-75500001D01*
X160785301Y-75510494D01*
X160654850Y-75553721D01*
X160585022Y-75556123D01*
X160524980Y-75520391D01*
X160493788Y-75457870D01*
X160492526Y-75423059D01*
X160505460Y-75300000D01*
X160485674Y-75111744D01*
X160427179Y-74931716D01*
X160332533Y-74767784D01*
X160205871Y-74627112D01*
X160205870Y-74627111D01*
X160052734Y-74515851D01*
X160052729Y-74515848D01*
X159879807Y-74438857D01*
X159879802Y-74438855D01*
X159734001Y-74407865D01*
X159694646Y-74399500D01*
X159505354Y-74399500D01*
X159472897Y-74406398D01*
X159320197Y-74438855D01*
X159320192Y-74438857D01*
X159147270Y-74515848D01*
X159147265Y-74515851D01*
X158994129Y-74627111D01*
X158867466Y-74767785D01*
X158772821Y-74931715D01*
X158772818Y-74931722D01*
X158714327Y-75111740D01*
X158714326Y-75111744D01*
X158705050Y-75200000D01*
X158694540Y-75300000D01*
X158707416Y-75422509D01*
X158694846Y-75491239D01*
X158647114Y-75542262D01*
X158579374Y-75559380D01*
X158545091Y-75553176D01*
X158460496Y-75525144D01*
X158403051Y-75485371D01*
X158376228Y-75420856D01*
X158375500Y-75407438D01*
X158375500Y-71592561D01*
X158395185Y-71525522D01*
X158447989Y-71479767D01*
X158460482Y-71474860D01*
X158581334Y-71434814D01*
X158730656Y-71342712D01*
X158765002Y-71308365D01*
X158826322Y-71274881D01*
X158896014Y-71279865D01*
X158925567Y-71295729D01*
X159047265Y-71384148D01*
X159047270Y-71384151D01*
X159220192Y-71461142D01*
X159220197Y-71461144D01*
X159405354Y-71500500D01*
X159405355Y-71500500D01*
X159594644Y-71500500D01*
X159594646Y-71500500D01*
X159633836Y-71492170D01*
X160811382Y-71492170D01*
X160888019Y-71499999D01*
X161444946Y-71499999D01*
X161511985Y-71519683D01*
X161557740Y-71572487D01*
X161567684Y-71641646D01*
X161562877Y-71662317D01*
X161514327Y-71811740D01*
X161514326Y-71811744D01*
X161494540Y-72000000D01*
X161514326Y-72188256D01*
X161514327Y-72188259D01*
X161572818Y-72368277D01*
X161572821Y-72368284D01*
X161670716Y-72537844D01*
X161668150Y-72539325D01*
X161687250Y-72593098D01*
X161671327Y-72661129D01*
X161670680Y-72662135D01*
X161670716Y-72662156D01*
X161572821Y-72831715D01*
X161572818Y-72831722D01*
X161528609Y-72967785D01*
X161514326Y-73011744D01*
X161494540Y-73200000D01*
X161514326Y-73388256D01*
X161514327Y-73388259D01*
X161572818Y-73568277D01*
X161572821Y-73568284D01*
X161667467Y-73732216D01*
X161747424Y-73821017D01*
X161794129Y-73872888D01*
X161947265Y-73984148D01*
X161947270Y-73984151D01*
X162120192Y-74061142D01*
X162120197Y-74061144D01*
X162305354Y-74100500D01*
X162305355Y-74100500D01*
X162494644Y-74100500D01*
X162494646Y-74100500D01*
X162679803Y-74061144D01*
X162852730Y-73984151D01*
X162852733Y-73984148D01*
X162858363Y-73980899D01*
X162859614Y-73983066D01*
X162914807Y-73963354D01*
X162982866Y-73979157D01*
X163031577Y-74029246D01*
X163038108Y-74043815D01*
X163056203Y-74092329D01*
X163056206Y-74092335D01*
X163142452Y-74207544D01*
X163142455Y-74207547D01*
X163257664Y-74293793D01*
X163257671Y-74293797D01*
X163392517Y-74344091D01*
X163392516Y-74344091D01*
X163399444Y-74344835D01*
X163452127Y-74350500D01*
X165347872Y-74350499D01*
X165407483Y-74344091D01*
X165516801Y-74303318D01*
X165560134Y-74295500D01*
X165758333Y-74295500D01*
X165825372Y-74315185D01*
X165846014Y-74331819D01*
X165864307Y-74350112D01*
X165864311Y-74350115D01*
X165864313Y-74350117D01*
X166003605Y-74432494D01*
X166044587Y-74444400D01*
X166159002Y-74477642D01*
X166159005Y-74477642D01*
X166159007Y-74477643D01*
X166171108Y-74478595D01*
X166195308Y-74480500D01*
X166195310Y-74480500D01*
X166604692Y-74480500D01*
X166622841Y-74479071D01*
X166640993Y-74477643D01*
X166640995Y-74477642D01*
X166640997Y-74477642D01*
X166681975Y-74465736D01*
X166796395Y-74432494D01*
X166817369Y-74420089D01*
X166885088Y-74402906D01*
X166943613Y-74420090D01*
X166963803Y-74432031D01*
X167110000Y-74474504D01*
X167110000Y-74168352D01*
X167127267Y-74105233D01*
X167132494Y-74096395D01*
X167133676Y-74092329D01*
X167177642Y-73940997D01*
X167177643Y-73940991D01*
X167179295Y-73920000D01*
X167610000Y-73920000D01*
X167610000Y-74474503D01*
X167756195Y-74432031D01*
X167895374Y-74349721D01*
X167895383Y-74349714D01*
X168009714Y-74235383D01*
X168009721Y-74235374D01*
X168092031Y-74096195D01*
X168092033Y-74096190D01*
X168137144Y-73940918D01*
X168137145Y-73940912D01*
X168138790Y-73920000D01*
X167610000Y-73920000D01*
X167179295Y-73920000D01*
X167180500Y-73904692D01*
X167180500Y-73435308D01*
X167177643Y-73399008D01*
X167177642Y-73399002D01*
X167132495Y-73243608D01*
X167132492Y-73243600D01*
X167127266Y-73234763D01*
X167110000Y-73171645D01*
X167110000Y-72898352D01*
X167127267Y-72835233D01*
X167132494Y-72826395D01*
X167164611Y-72715851D01*
X167177642Y-72670997D01*
X167177643Y-72670991D01*
X167177896Y-72667784D01*
X167179295Y-72650000D01*
X167610000Y-72650000D01*
X167610000Y-73420000D01*
X168138790Y-73420000D01*
X168137145Y-73399089D01*
X168092031Y-73243804D01*
X168005874Y-73098121D01*
X167988691Y-73030397D01*
X168005874Y-72971879D01*
X168092031Y-72826195D01*
X168092033Y-72826190D01*
X168137144Y-72670918D01*
X168137145Y-72670912D01*
X168138790Y-72650000D01*
X167610000Y-72650000D01*
X167179295Y-72650000D01*
X167180500Y-72634690D01*
X167180500Y-72165310D01*
X167179295Y-72150000D01*
X167610000Y-72150000D01*
X168138790Y-72150000D01*
X168137145Y-72129089D01*
X168092031Y-71973804D01*
X168009721Y-71834625D01*
X168009714Y-71834616D01*
X167895383Y-71720285D01*
X167895374Y-71720278D01*
X167756193Y-71637967D01*
X167756190Y-71637965D01*
X167610001Y-71595493D01*
X167610000Y-71595494D01*
X167610000Y-72150000D01*
X167179295Y-72150000D01*
X167177643Y-72129007D01*
X167132494Y-71973605D01*
X167132493Y-71973604D01*
X167132492Y-71973600D01*
X167127266Y-71964763D01*
X167110000Y-71901645D01*
X167110000Y-71595494D01*
X167109998Y-71595493D01*
X166963809Y-71637965D01*
X166963806Y-71637967D01*
X166943608Y-71649912D01*
X166875884Y-71667092D01*
X166817370Y-71649910D01*
X166796397Y-71637507D01*
X166796390Y-71637504D01*
X166640997Y-71592357D01*
X166640991Y-71592356D01*
X166604692Y-71589500D01*
X166604690Y-71589500D01*
X166195310Y-71589500D01*
X166195308Y-71589500D01*
X166159013Y-71592356D01*
X166159008Y-71592356D01*
X166159007Y-71592357D01*
X166159005Y-71592357D01*
X166158997Y-71592359D01*
X166127094Y-71601627D01*
X166057225Y-71601426D01*
X166004822Y-71570231D01*
X165836818Y-71402227D01*
X165803333Y-71340904D01*
X165800499Y-71314546D01*
X165800499Y-70302129D01*
X165800498Y-70302123D01*
X165800497Y-70302116D01*
X165794091Y-70242517D01*
X165790062Y-70231716D01*
X165743797Y-70107671D01*
X165743793Y-70107664D01*
X165657547Y-69992455D01*
X165657544Y-69992452D01*
X165542335Y-69906206D01*
X165542328Y-69906202D01*
X165407482Y-69855908D01*
X165407483Y-69855908D01*
X165347883Y-69849501D01*
X165347881Y-69849500D01*
X165347873Y-69849500D01*
X165347864Y-69849500D01*
X163452129Y-69849500D01*
X163452123Y-69849501D01*
X163392516Y-69855908D01*
X163257671Y-69906202D01*
X163257664Y-69906206D01*
X163142455Y-69992452D01*
X163142452Y-69992455D01*
X163056206Y-70107664D01*
X163056202Y-70107671D01*
X163005908Y-70242517D01*
X162999501Y-70302116D01*
X162999501Y-70302123D01*
X162999500Y-70302135D01*
X162999500Y-71090252D01*
X162979815Y-71157291D01*
X162927011Y-71203046D01*
X162857853Y-71212990D01*
X162825064Y-71203531D01*
X162733116Y-71162592D01*
X162679879Y-71117341D01*
X162659558Y-71050492D01*
X162665846Y-71010309D01*
X162701505Y-70902697D01*
X162701506Y-70902690D01*
X162711999Y-70799986D01*
X162711999Y-70200028D01*
X162711998Y-70200012D01*
X162701505Y-70097302D01*
X162646358Y-69930880D01*
X162646356Y-69930875D01*
X162554315Y-69781654D01*
X162538107Y-69765446D01*
X161450000Y-70853553D01*
X160811382Y-71492170D01*
X159633836Y-71492170D01*
X159779803Y-71461144D01*
X159952730Y-71384151D01*
X160105871Y-71272888D01*
X160158219Y-71214748D01*
X160217704Y-71178102D01*
X160287561Y-71179431D01*
X160339552Y-71214260D01*
X160340576Y-71213237D01*
X160361893Y-71234554D01*
X161096447Y-70500000D01*
X160361893Y-69765446D01*
X160345683Y-69781655D01*
X160345682Y-69781656D01*
X160279732Y-69888578D01*
X160227784Y-69935302D01*
X160158821Y-69946523D01*
X160101311Y-69923799D01*
X159952730Y-69815849D01*
X159952729Y-69815848D01*
X159779807Y-69738857D01*
X159779802Y-69738855D01*
X159634001Y-69707865D01*
X159594646Y-69699500D01*
X159405354Y-69699500D01*
X159372897Y-69706398D01*
X159220197Y-69738855D01*
X159220192Y-69738857D01*
X159047270Y-69815848D01*
X159047266Y-69815851D01*
X159037197Y-69823166D01*
X158971389Y-69846641D01*
X158903336Y-69830812D01*
X158858780Y-69787940D01*
X158854712Y-69781344D01*
X158730656Y-69657288D01*
X158581334Y-69565186D01*
X158414797Y-69510001D01*
X158414795Y-69510000D01*
X158393543Y-69507829D01*
X160811381Y-69507829D01*
X161450000Y-70146447D01*
X161450001Y-70146447D01*
X162088617Y-69507828D01*
X162011980Y-69500000D01*
X160888029Y-69500000D01*
X160888008Y-69500002D01*
X160811382Y-69507828D01*
X160811381Y-69507829D01*
X158393543Y-69507829D01*
X158312010Y-69499500D01*
X157187998Y-69499500D01*
X157187981Y-69499501D01*
X157085203Y-69510000D01*
X157085200Y-69510001D01*
X156918668Y-69565185D01*
X156918663Y-69565187D01*
X156769342Y-69657289D01*
X156645289Y-69781342D01*
X156553184Y-69930668D01*
X156527884Y-70007016D01*
X156497860Y-70055691D01*
X156053553Y-70499999D01*
X156053553Y-70500000D01*
X156497860Y-70944307D01*
X156527884Y-70992982D01*
X156553184Y-71069331D01*
X156568604Y-71094331D01*
X156645288Y-71218656D01*
X156769344Y-71342712D01*
X156918666Y-71434814D01*
X157039506Y-71474856D01*
X157096949Y-71514627D01*
X157123772Y-71579143D01*
X157124500Y-71592561D01*
X157124500Y-75407438D01*
X157104815Y-75474477D01*
X157052011Y-75520232D01*
X157039507Y-75525143D01*
X156986195Y-75542809D01*
X156918666Y-75565186D01*
X156918663Y-75565187D01*
X156769342Y-75657289D01*
X156645289Y-75781342D01*
X156553184Y-75930668D01*
X156527884Y-76007016D01*
X156497860Y-76055691D01*
X155787680Y-76765871D01*
X155726357Y-76799356D01*
X155656665Y-76794372D01*
X155612318Y-76765871D01*
X155434127Y-76587680D01*
X155400642Y-76526357D01*
X155405626Y-76456665D01*
X155434127Y-76412318D01*
X156338617Y-75507828D01*
X156261980Y-75500000D01*
X155138028Y-75500000D01*
X155138005Y-75500002D01*
X155124025Y-75501430D01*
X155055332Y-75488659D01*
X155004449Y-75440777D01*
X154987530Y-75372987D01*
X154988101Y-75365162D01*
X155005460Y-75200000D01*
X154985674Y-75011744D01*
X154927179Y-74831716D01*
X154832533Y-74667784D01*
X154705871Y-74527112D01*
X154690369Y-74515849D01*
X154552734Y-74415851D01*
X154552729Y-74415848D01*
X154379807Y-74338857D01*
X154379802Y-74338855D01*
X154212608Y-74303318D01*
X154194646Y-74299500D01*
X154005354Y-74299500D01*
X153987392Y-74303318D01*
X153820197Y-74338855D01*
X153820192Y-74338857D01*
X153647270Y-74415848D01*
X153647265Y-74415851D01*
X153494129Y-74527111D01*
X153367466Y-74667785D01*
X153272821Y-74831715D01*
X153272818Y-74831722D01*
X153214327Y-75011740D01*
X153214326Y-75011744D01*
X153194540Y-75200000D01*
X153214326Y-75388256D01*
X153214327Y-75388259D01*
X153272818Y-75568277D01*
X153272821Y-75568284D01*
X153367467Y-75732216D01*
X153376304Y-75742030D01*
X153442650Y-75815715D01*
X153472880Y-75878706D01*
X153474500Y-75898687D01*
X153474500Y-76000242D01*
X153454815Y-76067281D01*
X153402011Y-76113036D01*
X153332853Y-76122980D01*
X153269297Y-76093955D01*
X153232794Y-76039246D01*
X153205167Y-75955875D01*
X153196814Y-75930666D01*
X153104712Y-75781344D01*
X152980656Y-75657288D01*
X152836357Y-75568284D01*
X152831336Y-75565187D01*
X152831335Y-75565186D01*
X152831334Y-75565186D01*
X152710494Y-75525143D01*
X152653051Y-75485371D01*
X152626228Y-75420855D01*
X152625500Y-75407438D01*
X152625500Y-71592561D01*
X152645185Y-71525522D01*
X152683675Y-71492170D01*
X155061382Y-71492170D01*
X155138019Y-71499999D01*
X156261971Y-71499999D01*
X156261987Y-71499998D01*
X156338617Y-71492169D01*
X155700001Y-70853553D01*
X155700000Y-70853553D01*
X155061382Y-71492170D01*
X152683675Y-71492170D01*
X152697989Y-71479767D01*
X152710482Y-71474860D01*
X152831334Y-71434814D01*
X152980656Y-71342712D01*
X153104712Y-71218656D01*
X153196814Y-71069334D01*
X153251999Y-70902797D01*
X153262500Y-70800009D01*
X153262500Y-70799971D01*
X154438000Y-70799971D01*
X154438001Y-70799987D01*
X154448494Y-70902697D01*
X154503641Y-71069119D01*
X154503643Y-71069124D01*
X154595684Y-71218345D01*
X154611893Y-71234554D01*
X155346447Y-70500000D01*
X154611893Y-69765446D01*
X154595684Y-69781654D01*
X154503643Y-69930875D01*
X154503641Y-69930880D01*
X154448494Y-70097302D01*
X154448493Y-70097309D01*
X154438000Y-70200013D01*
X154438000Y-70799971D01*
X153262500Y-70799971D01*
X153262499Y-70199992D01*
X153254552Y-70122200D01*
X153251999Y-70097203D01*
X153251998Y-70097200D01*
X153222114Y-70007016D01*
X153196814Y-69930666D01*
X153104712Y-69781344D01*
X152980656Y-69657288D01*
X152831334Y-69565186D01*
X152664797Y-69510001D01*
X152664795Y-69510000D01*
X152643544Y-69507829D01*
X155061381Y-69507829D01*
X155700000Y-70146447D01*
X155700001Y-70146447D01*
X156338617Y-69507828D01*
X156261980Y-69500000D01*
X155138029Y-69500000D01*
X155138008Y-69500002D01*
X155061382Y-69507828D01*
X155061381Y-69507829D01*
X152643544Y-69507829D01*
X152562016Y-69499500D01*
X152562009Y-69499500D01*
X151935453Y-69499500D01*
X151868414Y-69479815D01*
X151847772Y-69463181D01*
X151773803Y-69389212D01*
X151763980Y-69376950D01*
X151763759Y-69377134D01*
X151758786Y-69371123D01*
X151740159Y-69353631D01*
X151708364Y-69323773D01*
X151697919Y-69313328D01*
X151687475Y-69302883D01*
X151681986Y-69298625D01*
X151677561Y-69294847D01*
X151643582Y-69262938D01*
X151643580Y-69262936D01*
X151643577Y-69262935D01*
X151626029Y-69253288D01*
X151609763Y-69242604D01*
X151593933Y-69230325D01*
X151551168Y-69211818D01*
X151545922Y-69209248D01*
X151505093Y-69186803D01*
X151505092Y-69186802D01*
X151485693Y-69181822D01*
X151467281Y-69175518D01*
X151448898Y-69167562D01*
X151448892Y-69167560D01*
X151402874Y-69160272D01*
X151397152Y-69159087D01*
X151352021Y-69147500D01*
X151352019Y-69147500D01*
X151331984Y-69147500D01*
X151312586Y-69145973D01*
X151305162Y-69144797D01*
X151292805Y-69142840D01*
X151292804Y-69142840D01*
X151246416Y-69147225D01*
X151240578Y-69147500D01*
X149362807Y-69147500D01*
X149347186Y-69145775D01*
X149347159Y-69146061D01*
X149339397Y-69145326D01*
X149270236Y-69147500D01*
X149240713Y-69147500D01*
X149233842Y-69148367D01*
X149228023Y-69148825D01*
X149181438Y-69150289D01*
X149181432Y-69150290D01*
X149162190Y-69155880D01*
X149143151Y-69159823D01*
X149123281Y-69162334D01*
X149123267Y-69162337D01*
X149079947Y-69179488D01*
X149074422Y-69181380D01*
X149029677Y-69194380D01*
X149029674Y-69194381D01*
X149012430Y-69204579D01*
X148994969Y-69213133D01*
X148976338Y-69220510D01*
X148976326Y-69220517D01*
X148938634Y-69247902D01*
X148933751Y-69251109D01*
X148893644Y-69274829D01*
X148879478Y-69288995D01*
X148864688Y-69301627D01*
X148848478Y-69313404D01*
X148848475Y-69313407D01*
X148818774Y-69349309D01*
X148814841Y-69353631D01*
X148485125Y-69683347D01*
X148423802Y-69716832D01*
X148423226Y-69716956D01*
X148320196Y-69738856D01*
X148320192Y-69738857D01*
X148150436Y-69814439D01*
X148081186Y-69823724D01*
X148049564Y-69814439D01*
X147879807Y-69738857D01*
X147879802Y-69738855D01*
X147734001Y-69707865D01*
X147694646Y-69699500D01*
X147505354Y-69699500D01*
X147400091Y-69721873D01*
X147330426Y-69716557D01*
X147286632Y-69688264D01*
X147280657Y-69682289D01*
X147280656Y-69682288D01*
X147131334Y-69590186D01*
X146964797Y-69535001D01*
X146964795Y-69535000D01*
X146862010Y-69524500D01*
X145737998Y-69524500D01*
X145737981Y-69524501D01*
X145635203Y-69535000D01*
X145635200Y-69535001D01*
X145468668Y-69590185D01*
X145468663Y-69590187D01*
X145319342Y-69682289D01*
X145195289Y-69806342D01*
X145103187Y-69955663D01*
X145103185Y-69955668D01*
X145048001Y-70122201D01*
X145047998Y-70122216D01*
X145045843Y-70143310D01*
X145019445Y-70208001D01*
X145010167Y-70218384D01*
X144703553Y-70524999D01*
X144703553Y-70525000D01*
X145010168Y-70831615D01*
X145043653Y-70892938D01*
X145045845Y-70906693D01*
X145048001Y-70927797D01*
X145103186Y-71094334D01*
X145195288Y-71243656D01*
X145319344Y-71367712D01*
X145468666Y-71459814D01*
X145589506Y-71499856D01*
X145646949Y-71539627D01*
X145673772Y-71604143D01*
X145674500Y-71617561D01*
X145674500Y-75432438D01*
X145654815Y-75499477D01*
X145602011Y-75545232D01*
X145589507Y-75550143D01*
X145544111Y-75565186D01*
X145468666Y-75590186D01*
X145468663Y-75590187D01*
X145319342Y-75682289D01*
X145195289Y-75806342D01*
X145103187Y-75955663D01*
X145103185Y-75955668D01*
X145048001Y-76122201D01*
X145047998Y-76122216D01*
X145045843Y-76143310D01*
X145019445Y-76208001D01*
X145010167Y-76218384D01*
X144437680Y-76790871D01*
X144376357Y-76824356D01*
X144306665Y-76819372D01*
X144262318Y-76790871D01*
X143261893Y-75790446D01*
X143245684Y-75806654D01*
X143153643Y-75955875D01*
X143153641Y-75955880D01*
X143098494Y-76122302D01*
X143098493Y-76122309D01*
X143088000Y-76225013D01*
X143088000Y-76824971D01*
X143088001Y-76824987D01*
X143098494Y-76927697D01*
X143153641Y-77094119D01*
X143153643Y-77094124D01*
X143245684Y-77243346D01*
X143250161Y-77249007D01*
X143248075Y-77250656D01*
X143275643Y-77301142D01*
X143270659Y-77370834D01*
X143228787Y-77426767D01*
X143163323Y-77451184D01*
X143154477Y-77451500D01*
X142412452Y-77451500D01*
X142345413Y-77431815D01*
X142324771Y-77415181D01*
X141937675Y-77028085D01*
X141904190Y-76966762D01*
X141901998Y-76927801D01*
X141901998Y-76927799D01*
X141901999Y-76927797D01*
X141912500Y-76825009D01*
X141912499Y-76224992D01*
X141910763Y-76208001D01*
X141901999Y-76122203D01*
X141901998Y-76122200D01*
X141893715Y-76097203D01*
X141846814Y-75955666D01*
X141754712Y-75806344D01*
X141630656Y-75682288D01*
X141481334Y-75590186D01*
X141360494Y-75550143D01*
X141335487Y-75532829D01*
X143711381Y-75532829D01*
X144350000Y-76171447D01*
X144350001Y-76171447D01*
X144988617Y-75532828D01*
X144911980Y-75525000D01*
X143788029Y-75525000D01*
X143788008Y-75525002D01*
X143711382Y-75532828D01*
X143711381Y-75532829D01*
X141335487Y-75532829D01*
X141303051Y-75510371D01*
X141276228Y-75445855D01*
X141275500Y-75432438D01*
X141275500Y-71617561D01*
X141295185Y-71550522D01*
X141333675Y-71517170D01*
X143711382Y-71517170D01*
X143788019Y-71524999D01*
X144911971Y-71524999D01*
X144911987Y-71524998D01*
X144988617Y-71517169D01*
X144350001Y-70878553D01*
X144350000Y-70878553D01*
X143711382Y-71517170D01*
X141333675Y-71517170D01*
X141347989Y-71504767D01*
X141360482Y-71499860D01*
X141481334Y-71459814D01*
X141630656Y-71367712D01*
X141754712Y-71243656D01*
X141846814Y-71094334D01*
X141901999Y-70927797D01*
X141912500Y-70825009D01*
X141912500Y-70824971D01*
X143088000Y-70824971D01*
X143088001Y-70824987D01*
X143098494Y-70927697D01*
X143153641Y-71094119D01*
X143153643Y-71094124D01*
X143245684Y-71243345D01*
X143261893Y-71259554D01*
X143996447Y-70525000D01*
X143261893Y-69790446D01*
X143245684Y-69806654D01*
X143153643Y-69955875D01*
X143153641Y-69955880D01*
X143098494Y-70122302D01*
X143098493Y-70122309D01*
X143088000Y-70225013D01*
X143088000Y-70824971D01*
X141912500Y-70824971D01*
X141912499Y-70224992D01*
X141910763Y-70208001D01*
X141901999Y-70122203D01*
X141901998Y-70122200D01*
X141846814Y-69955666D01*
X141754712Y-69806344D01*
X141630656Y-69682288D01*
X141481334Y-69590186D01*
X141314797Y-69535001D01*
X141314795Y-69535000D01*
X141293543Y-69532829D01*
X143711381Y-69532829D01*
X144350000Y-70171447D01*
X144350001Y-70171447D01*
X144988617Y-69532828D01*
X144911980Y-69525000D01*
X143788029Y-69525000D01*
X143788008Y-69525002D01*
X143711382Y-69532828D01*
X143711381Y-69532829D01*
X141293543Y-69532829D01*
X141212010Y-69524500D01*
X140087998Y-69524500D01*
X140087981Y-69524501D01*
X139985203Y-69535000D01*
X139985200Y-69535001D01*
X139818668Y-69590185D01*
X139818663Y-69590187D01*
X139669342Y-69682289D01*
X139545289Y-69806342D01*
X139453187Y-69955663D01*
X139453185Y-69955668D01*
X139440995Y-69992455D01*
X139398001Y-70122203D01*
X139398001Y-70122204D01*
X139398000Y-70122204D01*
X139387500Y-70224983D01*
X139387500Y-70825001D01*
X139387501Y-70825019D01*
X139398000Y-70927796D01*
X139398001Y-70927799D01*
X139444832Y-71069124D01*
X139453186Y-71094334D01*
X139545288Y-71243656D01*
X139669344Y-71367712D01*
X139818666Y-71459814D01*
X139939506Y-71499856D01*
X139996949Y-71539627D01*
X140023772Y-71604143D01*
X140024500Y-71617561D01*
X140024500Y-75432438D01*
X140004815Y-75499477D01*
X139952011Y-75545232D01*
X139939507Y-75550143D01*
X139894111Y-75565186D01*
X139818666Y-75590186D01*
X139818663Y-75590187D01*
X139669342Y-75682289D01*
X139545289Y-75806342D01*
X139453187Y-75955663D01*
X139453185Y-75955668D01*
X139453115Y-75955880D01*
X139398001Y-76122203D01*
X139398001Y-76122204D01*
X139398000Y-76122204D01*
X139387500Y-76224983D01*
X139387500Y-76825001D01*
X139387501Y-76825019D01*
X139398000Y-76927796D01*
X139398001Y-76927799D01*
X139453185Y-77094331D01*
X139453187Y-77094336D01*
X139480952Y-77139350D01*
X139545288Y-77243656D01*
X139669344Y-77367712D01*
X139818666Y-77459814D01*
X139985203Y-77514999D01*
X140087991Y-77525500D01*
X140614547Y-77525499D01*
X140681586Y-77545183D01*
X140702228Y-77561818D01*
X141463181Y-78322771D01*
X141496666Y-78384094D01*
X141499500Y-78410452D01*
X141499500Y-78508480D01*
X141479815Y-78575519D01*
X141463181Y-78596161D01*
X141387681Y-78671661D01*
X141326358Y-78705146D01*
X141256666Y-78700162D01*
X141212319Y-78671661D01*
X141110188Y-78569530D01*
X141100499Y-78563673D01*
X140964606Y-78481522D01*
X140802196Y-78430914D01*
X140802194Y-78430913D01*
X140802192Y-78430913D01*
X140752778Y-78426423D01*
X140731616Y-78424500D01*
X140218384Y-78424500D01*
X140199145Y-78426248D01*
X140147807Y-78430913D01*
X139985393Y-78481522D01*
X139839811Y-78569530D01*
X139719530Y-78689811D01*
X139631522Y-78835393D01*
X139580913Y-78997807D01*
X139574500Y-79068386D01*
X139574500Y-79731613D01*
X139580913Y-79802192D01*
X139580913Y-79802194D01*
X139580914Y-79802196D01*
X139631522Y-79964606D01*
X139719528Y-80110185D01*
X139838182Y-80228839D01*
X139871666Y-80290160D01*
X139874500Y-80316519D01*
X139874500Y-81275452D01*
X139854815Y-81342491D01*
X139827410Y-81372719D01*
X139821958Y-81377029D01*
X139702029Y-81496959D01*
X139613001Y-81641294D01*
X139612996Y-81641305D01*
X139559651Y-81802290D01*
X139549500Y-81901647D01*
X139549500Y-82498337D01*
X139549501Y-82498355D01*
X139559650Y-82597707D01*
X139559651Y-82597710D01*
X139612996Y-82758694D01*
X139613001Y-82758705D01*
X139702029Y-82903040D01*
X139702032Y-82903044D01*
X139802380Y-83003392D01*
X139835865Y-83064715D01*
X139830881Y-83134407D01*
X139806850Y-83174044D01*
X139767466Y-83217785D01*
X139672821Y-83381715D01*
X139672818Y-83381722D01*
X139615861Y-83557019D01*
X139614326Y-83561744D01*
X139594540Y-83750000D01*
X139614326Y-83938256D01*
X139614327Y-83938259D01*
X139672818Y-84118277D01*
X139672821Y-84118284D01*
X139767467Y-84282216D01*
X139801620Y-84320146D01*
X139842650Y-84365715D01*
X139872880Y-84428706D01*
X139874500Y-84448687D01*
X139874500Y-84667255D01*
X139872775Y-84682872D01*
X139873061Y-84682899D01*
X139872326Y-84690665D01*
X139874500Y-84759814D01*
X139874500Y-84789343D01*
X139874501Y-84789360D01*
X139875368Y-84796231D01*
X139875826Y-84802050D01*
X139877290Y-84848626D01*
X139882879Y-84867862D01*
X139886824Y-84886914D01*
X139889334Y-84906788D01*
X139890792Y-84910469D01*
X139899500Y-84956117D01*
X139899500Y-85398337D01*
X139899501Y-85398355D01*
X139909650Y-85497707D01*
X139909651Y-85497710D01*
X139962996Y-85658694D01*
X139963001Y-85658705D01*
X140052029Y-85803040D01*
X140052032Y-85803044D01*
X140061307Y-85812319D01*
X140094792Y-85873642D01*
X140089808Y-85943334D01*
X140061307Y-85987681D01*
X140052032Y-85996955D01*
X140052029Y-85996959D01*
X139963001Y-86141294D01*
X139962996Y-86141305D01*
X139909651Y-86302290D01*
X139899500Y-86401647D01*
X139899500Y-86998337D01*
X139899501Y-86998355D01*
X139909650Y-87097707D01*
X139909651Y-87097710D01*
X139962996Y-87258694D01*
X139963001Y-87258705D01*
X140052029Y-87403040D01*
X140052032Y-87403044D01*
X140171955Y-87522967D01*
X140171959Y-87522970D01*
X140316294Y-87611998D01*
X140316297Y-87611999D01*
X140316303Y-87612003D01*
X140477292Y-87665349D01*
X140576655Y-87675500D01*
X141123344Y-87675499D01*
X141123352Y-87675498D01*
X141123355Y-87675498D01*
X141177760Y-87669940D01*
X141222708Y-87665349D01*
X141383697Y-87612003D01*
X141528044Y-87522968D01*
X141537668Y-87513343D01*
X141598987Y-87479856D01*
X141668679Y-87484835D01*
X141713034Y-87513339D01*
X141722267Y-87522572D01*
X141722271Y-87522575D01*
X141866507Y-87611542D01*
X141866518Y-87611547D01*
X142027393Y-87664855D01*
X142126683Y-87674999D01*
X142150000Y-87674998D01*
X142150000Y-86950000D01*
X142650000Y-86950000D01*
X142650000Y-87674999D01*
X142673308Y-87674999D01*
X142673322Y-87674998D01*
X142772607Y-87664855D01*
X142933481Y-87611547D01*
X142933492Y-87611542D01*
X143077728Y-87522575D01*
X143077732Y-87522572D01*
X143197572Y-87402732D01*
X143197575Y-87402728D01*
X143286542Y-87258492D01*
X143286547Y-87258481D01*
X143339855Y-87097606D01*
X143349999Y-86998322D01*
X143350000Y-86998309D01*
X143350000Y-86950000D01*
X142650000Y-86950000D01*
X142150000Y-86950000D01*
X142150000Y-85350000D01*
X142650000Y-85350000D01*
X142650000Y-86450000D01*
X143349999Y-86450000D01*
X143349999Y-86401692D01*
X143349998Y-86401677D01*
X143339855Y-86302392D01*
X143286547Y-86141518D01*
X143286542Y-86141507D01*
X143197575Y-85997271D01*
X143197572Y-85997267D01*
X143187986Y-85987681D01*
X143154501Y-85926358D01*
X143159485Y-85856666D01*
X143187986Y-85812319D01*
X143197572Y-85802732D01*
X143197575Y-85802728D01*
X143286542Y-85658492D01*
X143286547Y-85658481D01*
X143339855Y-85497606D01*
X143349999Y-85398322D01*
X143350000Y-85398309D01*
X143350000Y-85350000D01*
X142650000Y-85350000D01*
X142150000Y-85350000D01*
X142150000Y-84125000D01*
X142650000Y-84125000D01*
X142650000Y-84850000D01*
X143349999Y-84850000D01*
X143349999Y-84801692D01*
X143349998Y-84801677D01*
X143339855Y-84702392D01*
X143286547Y-84541518D01*
X143286542Y-84541507D01*
X143197575Y-84397271D01*
X143197572Y-84397267D01*
X143077732Y-84277427D01*
X143077728Y-84277424D01*
X142933492Y-84188457D01*
X142933481Y-84188452D01*
X142772606Y-84135144D01*
X142673322Y-84125000D01*
X142650000Y-84125000D01*
X142150000Y-84125000D01*
X142150000Y-84124999D01*
X142126693Y-84125000D01*
X142126674Y-84125001D01*
X142027392Y-84135144D01*
X141866518Y-84188452D01*
X141866507Y-84188457D01*
X141722271Y-84277424D01*
X141722265Y-84277428D01*
X141713031Y-84286663D01*
X141651707Y-84320146D01*
X141582015Y-84315159D01*
X141537672Y-84286660D01*
X141528044Y-84277032D01*
X141528040Y-84277029D01*
X141400696Y-84198482D01*
X141353971Y-84146534D01*
X141342750Y-84077572D01*
X141347859Y-84054636D01*
X141385674Y-83938256D01*
X141405460Y-83750000D01*
X141399097Y-83689460D01*
X141411667Y-83620731D01*
X141459399Y-83569708D01*
X141522418Y-83552500D01*
X143115257Y-83552500D01*
X143130877Y-83554224D01*
X143130904Y-83553939D01*
X143138660Y-83554671D01*
X143138667Y-83554673D01*
X143207814Y-83552500D01*
X143237350Y-83552500D01*
X143244228Y-83551630D01*
X143250041Y-83551172D01*
X143296627Y-83549709D01*
X143315869Y-83544117D01*
X143334912Y-83540174D01*
X143354792Y-83537664D01*
X143398122Y-83520507D01*
X143403646Y-83518617D01*
X143408389Y-83517239D01*
X143448390Y-83505618D01*
X143465629Y-83495422D01*
X143483103Y-83486862D01*
X143501727Y-83479488D01*
X143501727Y-83479487D01*
X143501732Y-83479486D01*
X143539449Y-83452082D01*
X143544305Y-83448892D01*
X143584420Y-83425170D01*
X143598589Y-83410999D01*
X143613379Y-83398368D01*
X143629587Y-83386594D01*
X143659299Y-83350676D01*
X143663212Y-83346376D01*
X143797773Y-83211815D01*
X143859094Y-83178333D01*
X143885452Y-83175499D01*
X144198338Y-83175499D01*
X144198344Y-83175499D01*
X144198352Y-83175498D01*
X144198355Y-83175498D01*
X144252760Y-83169940D01*
X144297708Y-83165349D01*
X144458697Y-83112003D01*
X144603044Y-83022968D01*
X144612668Y-83013343D01*
X144673987Y-82979856D01*
X144743679Y-82984835D01*
X144788034Y-83013339D01*
X144797267Y-83022572D01*
X144797271Y-83022575D01*
X144941507Y-83111542D01*
X144941518Y-83111547D01*
X145102393Y-83164855D01*
X145201683Y-83174999D01*
X145225000Y-83174998D01*
X145225000Y-81225000D01*
X145725000Y-81225000D01*
X145725000Y-81950000D01*
X146424999Y-81950000D01*
X146424999Y-81901692D01*
X146424998Y-81901677D01*
X146414855Y-81802392D01*
X146361547Y-81641518D01*
X146361542Y-81641507D01*
X146272575Y-81497271D01*
X146272572Y-81497267D01*
X146152732Y-81377427D01*
X146152728Y-81377424D01*
X146008492Y-81288457D01*
X146008481Y-81288452D01*
X145847606Y-81235144D01*
X145748322Y-81225000D01*
X145725000Y-81225000D01*
X145225000Y-81225000D01*
X145225000Y-81224999D01*
X145201693Y-81225000D01*
X145201674Y-81225001D01*
X145102392Y-81235144D01*
X144941518Y-81288452D01*
X144941507Y-81288457D01*
X144797271Y-81377424D01*
X144797264Y-81377430D01*
X144788028Y-81386665D01*
X144726703Y-81420146D01*
X144657011Y-81415157D01*
X144612672Y-81386659D01*
X144603047Y-81377034D01*
X144584400Y-81365532D01*
X144537677Y-81313582D01*
X144525500Y-81259995D01*
X144525500Y-80324547D01*
X144545185Y-80257508D01*
X144572595Y-80227276D01*
X144578041Y-80222969D01*
X144578044Y-80222968D01*
X144587668Y-80213343D01*
X144648987Y-80179856D01*
X144718679Y-80184835D01*
X144763034Y-80213339D01*
X144772267Y-80222572D01*
X144772271Y-80222575D01*
X144916507Y-80311542D01*
X144916518Y-80311547D01*
X145077393Y-80364855D01*
X145176683Y-80374999D01*
X145200000Y-80374998D01*
X145200000Y-79274000D01*
X145219685Y-79206961D01*
X145272489Y-79161206D01*
X145324000Y-79150000D01*
X145576000Y-79150000D01*
X145643039Y-79169685D01*
X145688794Y-79222489D01*
X145700000Y-79274000D01*
X145700000Y-80374999D01*
X145723308Y-80374999D01*
X145723322Y-80374998D01*
X145822607Y-80364855D01*
X145983481Y-80311547D01*
X145983492Y-80311542D01*
X146127728Y-80222575D01*
X146127732Y-80222572D01*
X146247572Y-80102732D01*
X146247575Y-80102728D01*
X146336540Y-79958495D01*
X146337336Y-79956789D01*
X146338194Y-79955814D01*
X146340339Y-79952337D01*
X146340932Y-79952703D01*
X146383506Y-79904347D01*
X146450698Y-79885191D01*
X146517580Y-79905402D01*
X146558704Y-79952858D01*
X146559205Y-79952550D01*
X146561102Y-79955626D01*
X146562104Y-79956782D01*
X146562998Y-79958699D01*
X146652029Y-80103040D01*
X146652032Y-80103044D01*
X146771955Y-80222967D01*
X146771959Y-80222970D01*
X146916294Y-80311998D01*
X146916297Y-80311999D01*
X146916303Y-80312003D01*
X147077292Y-80365349D01*
X147176655Y-80375500D01*
X147723344Y-80375499D01*
X147723352Y-80375498D01*
X147723355Y-80375498D01*
X147786124Y-80369086D01*
X147822708Y-80365349D01*
X147983697Y-80312003D01*
X148128044Y-80222968D01*
X148137668Y-80213343D01*
X148198987Y-80179856D01*
X148268679Y-80184835D01*
X148313034Y-80213339D01*
X148322266Y-80222571D01*
X148435265Y-80292270D01*
X148481990Y-80344218D01*
X148493211Y-80413181D01*
X148465368Y-80477263D01*
X148457849Y-80485490D01*
X146529658Y-82413681D01*
X146468335Y-82447166D01*
X146441977Y-82450000D01*
X145725000Y-82450000D01*
X145725000Y-83164300D01*
X145705315Y-83231339D01*
X145691391Y-83249185D01*
X145648772Y-83294568D01*
X145627889Y-83315451D01*
X145627877Y-83315464D01*
X145623621Y-83320949D01*
X145619837Y-83325379D01*
X145587937Y-83359350D01*
X145587936Y-83359352D01*
X145578284Y-83376908D01*
X145567610Y-83393158D01*
X145555329Y-83408993D01*
X145555324Y-83409000D01*
X145536815Y-83451770D01*
X145534245Y-83457016D01*
X145511803Y-83497838D01*
X145506822Y-83517239D01*
X145500521Y-83535642D01*
X145492562Y-83554034D01*
X145492561Y-83554037D01*
X145485271Y-83600059D01*
X145484087Y-83605778D01*
X145472501Y-83650904D01*
X145472500Y-83650914D01*
X145472500Y-83670948D01*
X145470973Y-83690347D01*
X145467840Y-83710126D01*
X145467840Y-83710127D01*
X145472225Y-83756515D01*
X145472500Y-83762353D01*
X145472500Y-84265255D01*
X145470775Y-84280872D01*
X145471061Y-84280899D01*
X145470326Y-84288665D01*
X145472500Y-84357814D01*
X145472500Y-84387343D01*
X145472501Y-84387360D01*
X145473368Y-84394231D01*
X145473826Y-84400050D01*
X145475290Y-84446624D01*
X145475291Y-84446627D01*
X145480880Y-84465866D01*
X145484825Y-84484916D01*
X145485815Y-84492754D01*
X145487627Y-84507100D01*
X145476497Y-84576078D01*
X145437490Y-84622954D01*
X145294127Y-84727113D01*
X145167466Y-84867785D01*
X145072821Y-85031715D01*
X145072818Y-85031722D01*
X145033480Y-85152794D01*
X145014326Y-85211744D01*
X144994540Y-85400000D01*
X145014326Y-85588256D01*
X145014327Y-85588259D01*
X145072818Y-85768277D01*
X145072821Y-85768284D01*
X145167467Y-85932216D01*
X145252911Y-86027111D01*
X145294129Y-86072888D01*
X145447265Y-86184148D01*
X145447270Y-86184151D01*
X145620192Y-86261142D01*
X145620197Y-86261144D01*
X145805354Y-86300500D01*
X145805355Y-86300500D01*
X145994644Y-86300500D01*
X145994646Y-86300500D01*
X146179803Y-86261144D01*
X146352730Y-86184151D01*
X146505871Y-86072888D01*
X146632533Y-85932216D01*
X146727179Y-85768284D01*
X146736310Y-85740183D01*
X146775747Y-85682507D01*
X146840105Y-85655308D01*
X146854241Y-85654500D01*
X149150895Y-85654500D01*
X149217934Y-85674185D01*
X149263689Y-85726989D01*
X149273633Y-85796147D01*
X149244608Y-85859703D01*
X149201331Y-85891779D01*
X149147270Y-85915848D01*
X149147265Y-85915851D01*
X148994129Y-86027111D01*
X148867466Y-86167785D01*
X148772821Y-86331715D01*
X148772818Y-86331722D01*
X148714497Y-86511217D01*
X148714326Y-86511744D01*
X148694540Y-86700000D01*
X148714326Y-86888256D01*
X148714327Y-86888259D01*
X148772818Y-87068277D01*
X148772821Y-87068284D01*
X148867467Y-87232216D01*
X148994129Y-87372888D01*
X149147265Y-87484148D01*
X149147270Y-87484151D01*
X149320192Y-87561142D01*
X149320197Y-87561144D01*
X149505354Y-87600500D01*
X149505355Y-87600500D01*
X149694644Y-87600500D01*
X149694646Y-87600500D01*
X149879803Y-87561144D01*
X149994759Y-87509961D01*
X150064005Y-87500676D01*
X150127282Y-87530304D01*
X150164496Y-87589438D01*
X150163832Y-87659305D01*
X150163123Y-87661558D01*
X150114327Y-87811739D01*
X150114326Y-87811741D01*
X150114326Y-87811744D01*
X150094540Y-88000000D01*
X150114326Y-88188256D01*
X150114327Y-88188259D01*
X150172818Y-88368277D01*
X150172821Y-88368284D01*
X150267467Y-88532216D01*
X150394129Y-88672888D01*
X150547265Y-88784148D01*
X150547270Y-88784151D01*
X150720192Y-88861142D01*
X150720197Y-88861144D01*
X150905354Y-88900500D01*
X150905355Y-88900500D01*
X151094644Y-88900500D01*
X151094646Y-88900500D01*
X151279803Y-88861144D01*
X151452730Y-88784151D01*
X151605871Y-88672888D01*
X151732533Y-88532216D01*
X151827179Y-88368284D01*
X151827181Y-88368277D01*
X151828112Y-88366665D01*
X151878679Y-88318449D01*
X151947286Y-88305225D01*
X152012151Y-88331193D01*
X152052680Y-88388107D01*
X152059500Y-88428663D01*
X152059501Y-88522374D01*
X152059501Y-88522375D01*
X152062220Y-88556937D01*
X152105196Y-88704861D01*
X152105199Y-88704868D01*
X152183608Y-88837453D01*
X152183617Y-88837465D01*
X152292534Y-88946382D01*
X152292538Y-88946385D01*
X152292540Y-88946387D01*
X152292543Y-88946388D01*
X152292546Y-88946391D01*
X152374499Y-88994857D01*
X152425134Y-89024802D01*
X152427537Y-89025500D01*
X152573059Y-89067779D01*
X152573062Y-89067779D01*
X152573064Y-89067780D01*
X152607625Y-89070500D01*
X152792374Y-89070499D01*
X152792375Y-89070499D01*
X152794724Y-89070314D01*
X152826936Y-89067780D01*
X152915404Y-89042076D01*
X152984591Y-89042076D01*
X153068975Y-89066592D01*
X153127858Y-89104197D01*
X153157065Y-89167669D01*
X153147319Y-89236856D01*
X153122059Y-89273348D01*
X152457228Y-89938181D01*
X152395905Y-89971666D01*
X152369547Y-89974500D01*
X151582743Y-89974500D01*
X151567122Y-89972775D01*
X151567096Y-89973061D01*
X151559334Y-89972327D01*
X151559333Y-89972327D01*
X151490186Y-89974500D01*
X151460649Y-89974500D01*
X151453766Y-89975369D01*
X151447949Y-89975826D01*
X151401373Y-89977290D01*
X151382129Y-89982881D01*
X151363079Y-89986825D01*
X151343211Y-89989334D01*
X151299884Y-90006488D01*
X151294358Y-90008379D01*
X151249614Y-90021379D01*
X151249610Y-90021381D01*
X151232366Y-90031579D01*
X151214905Y-90040133D01*
X151196274Y-90047510D01*
X151196262Y-90047517D01*
X151158570Y-90074902D01*
X151153687Y-90078109D01*
X151113580Y-90101829D01*
X151099414Y-90115995D01*
X151084624Y-90128627D01*
X151068414Y-90140404D01*
X151068411Y-90140407D01*
X151038710Y-90176309D01*
X151034777Y-90180631D01*
X150616211Y-90599197D01*
X150603948Y-90609022D01*
X150604131Y-90609244D01*
X150598121Y-90614215D01*
X150550772Y-90664636D01*
X150529889Y-90685519D01*
X150529877Y-90685532D01*
X150525621Y-90691017D01*
X150521837Y-90695447D01*
X150489937Y-90729418D01*
X150489936Y-90729420D01*
X150480284Y-90746976D01*
X150469610Y-90763226D01*
X150457329Y-90779061D01*
X150457324Y-90779068D01*
X150438815Y-90821838D01*
X150436245Y-90827084D01*
X150413803Y-90867906D01*
X150408822Y-90887307D01*
X150402521Y-90905710D01*
X150394562Y-90924102D01*
X150394561Y-90924105D01*
X150387271Y-90970127D01*
X150386087Y-90975846D01*
X150374501Y-91020972D01*
X150374500Y-91020982D01*
X150374500Y-91041016D01*
X150372973Y-91060415D01*
X150369840Y-91080194D01*
X150369840Y-91080195D01*
X150374225Y-91126583D01*
X150374500Y-91132421D01*
X150374500Y-91401312D01*
X150354815Y-91468351D01*
X150342650Y-91484284D01*
X150267466Y-91567784D01*
X150172821Y-91731715D01*
X150172818Y-91731722D01*
X150131562Y-91858697D01*
X150114326Y-91911744D01*
X150094540Y-92100000D01*
X150114326Y-92288256D01*
X150114327Y-92288259D01*
X150172818Y-92468277D01*
X150172823Y-92468289D01*
X150260130Y-92619510D01*
X150276603Y-92687410D01*
X150253750Y-92753437D01*
X150217841Y-92787047D01*
X150071956Y-92877031D01*
X149952032Y-92996955D01*
X149952029Y-92996959D01*
X149863001Y-93141294D01*
X149862996Y-93141305D01*
X149809651Y-93302290D01*
X149799500Y-93401647D01*
X149799500Y-93998337D01*
X149799501Y-93998355D01*
X149809650Y-94097707D01*
X149809651Y-94097710D01*
X149862996Y-94258694D01*
X149863001Y-94258705D01*
X149952029Y-94403040D01*
X149952032Y-94403044D01*
X149955408Y-94406420D01*
X149988893Y-94467743D01*
X149983909Y-94537435D01*
X149970658Y-94562122D01*
X149970716Y-94562156D01*
X149969641Y-94564016D01*
X149968055Y-94566973D01*
X149967469Y-94567778D01*
X149872821Y-94731715D01*
X149872818Y-94731722D01*
X149814327Y-94911740D01*
X149814326Y-94911744D01*
X149794540Y-95100000D01*
X149814326Y-95288256D01*
X149814327Y-95288259D01*
X149872818Y-95468277D01*
X149872821Y-95468284D01*
X149967467Y-95632218D01*
X149968049Y-95633018D01*
X149968241Y-95633558D01*
X149970716Y-95637844D01*
X149969932Y-95638296D01*
X149991525Y-95698826D01*
X149975696Y-95766879D01*
X149955413Y-95793574D01*
X149952034Y-95796952D01*
X149952029Y-95796959D01*
X149863001Y-95941294D01*
X149862996Y-95941305D01*
X149809651Y-96102290D01*
X149799500Y-96201647D01*
X149799500Y-96798337D01*
X149799501Y-96798355D01*
X149809650Y-96897707D01*
X149809651Y-96897710D01*
X149862996Y-97058694D01*
X149863001Y-97058705D01*
X149952029Y-97203040D01*
X149952032Y-97203044D01*
X150071955Y-97322967D01*
X150071959Y-97322970D01*
X150216294Y-97411998D01*
X150216297Y-97411999D01*
X150216303Y-97412003D01*
X150377292Y-97465349D01*
X150476655Y-97475500D01*
X150702500Y-97475499D01*
X150769539Y-97495183D01*
X150815294Y-97547987D01*
X150826500Y-97599499D01*
X150826500Y-98200500D01*
X150806815Y-98267539D01*
X150754011Y-98313294D01*
X150702501Y-98324500D01*
X150476663Y-98324500D01*
X150476644Y-98324501D01*
X150377292Y-98334650D01*
X150377289Y-98334651D01*
X150216305Y-98387996D01*
X150216294Y-98388001D01*
X150071959Y-98477029D01*
X150071955Y-98477032D01*
X149952031Y-98596956D01*
X149948469Y-98602732D01*
X149940544Y-98615582D01*
X149940535Y-98615596D01*
X149888588Y-98662321D01*
X149834996Y-98674500D01*
X148732737Y-98674500D01*
X148717120Y-98672776D01*
X148717093Y-98673062D01*
X148709331Y-98672327D01*
X148640203Y-98674500D01*
X148610650Y-98674500D01*
X148609929Y-98674590D01*
X148603757Y-98675369D01*
X148597945Y-98675826D01*
X148551372Y-98677290D01*
X148551369Y-98677291D01*
X148532126Y-98682881D01*
X148513083Y-98686825D01*
X148493204Y-98689336D01*
X148493203Y-98689337D01*
X148449878Y-98706490D01*
X148444352Y-98708382D01*
X148399608Y-98721383D01*
X148399604Y-98721385D01*
X148382365Y-98731580D01*
X148364898Y-98740137D01*
X148346269Y-98747512D01*
X148346267Y-98747513D01*
X148308564Y-98774906D01*
X148303682Y-98778112D01*
X148263580Y-98801828D01*
X148249408Y-98816000D01*
X148234623Y-98828628D01*
X148218411Y-98840407D01*
X148218410Y-98840408D01*
X148206714Y-98854546D01*
X148148813Y-98893650D01*
X148111175Y-98899500D01*
X147676662Y-98899500D01*
X147676644Y-98899501D01*
X147577292Y-98909650D01*
X147577289Y-98909651D01*
X147416305Y-98962996D01*
X147416294Y-98963001D01*
X147271959Y-99052029D01*
X147271955Y-99052032D01*
X147152032Y-99171955D01*
X147152029Y-99171959D01*
X147063001Y-99316294D01*
X147062997Y-99316303D01*
X147023662Y-99435008D01*
X146983889Y-99492452D01*
X146919373Y-99519275D01*
X146850597Y-99506960D01*
X146818275Y-99483684D01*
X146509551Y-99174960D01*
X146476066Y-99113637D01*
X146481050Y-99043945D01*
X146522922Y-98988012D01*
X146524283Y-98987007D01*
X146543444Y-98973085D01*
X146548305Y-98969892D01*
X146588420Y-98946170D01*
X146602589Y-98931999D01*
X146617379Y-98919368D01*
X146633587Y-98907594D01*
X146663299Y-98871676D01*
X146667212Y-98867376D01*
X147997772Y-97536818D01*
X148059095Y-97503333D01*
X148085453Y-97500499D01*
X148523338Y-97500499D01*
X148523344Y-97500499D01*
X148523352Y-97500498D01*
X148523355Y-97500498D01*
X148577760Y-97494940D01*
X148622708Y-97490349D01*
X148783697Y-97437003D01*
X148928044Y-97347968D01*
X149047968Y-97228044D01*
X149137003Y-97083697D01*
X149190349Y-96922708D01*
X149200500Y-96823345D01*
X149200499Y-96276656D01*
X149198559Y-96257669D01*
X149190349Y-96177292D01*
X149190348Y-96177289D01*
X149178805Y-96142454D01*
X149137003Y-96016303D01*
X149136999Y-96016297D01*
X149136998Y-96016294D01*
X149047970Y-95871959D01*
X149047967Y-95871955D01*
X148928043Y-95752031D01*
X148784402Y-95663431D01*
X148737678Y-95611483D01*
X148725500Y-95557893D01*
X148725500Y-94832737D01*
X148727224Y-94817123D01*
X148726938Y-94817096D01*
X148727672Y-94809331D01*
X148727470Y-94802890D01*
X148745041Y-94735266D01*
X148796383Y-94687877D01*
X148851409Y-94674999D01*
X148873308Y-94674999D01*
X148873322Y-94674998D01*
X148972607Y-94664855D01*
X149133481Y-94611547D01*
X149133492Y-94611542D01*
X149277728Y-94522575D01*
X149277732Y-94522572D01*
X149397572Y-94402732D01*
X149397575Y-94402728D01*
X149486542Y-94258492D01*
X149486547Y-94258481D01*
X149539855Y-94097606D01*
X149549999Y-93998322D01*
X149550000Y-93998309D01*
X149550000Y-93950000D01*
X148474000Y-93950000D01*
X148406961Y-93930315D01*
X148361206Y-93877511D01*
X148350000Y-93826000D01*
X148350000Y-92725000D01*
X148850000Y-92725000D01*
X148850000Y-93450000D01*
X149549999Y-93450000D01*
X149549999Y-93401692D01*
X149549998Y-93401677D01*
X149539855Y-93302392D01*
X149486547Y-93141518D01*
X149486542Y-93141507D01*
X149397575Y-92997271D01*
X149397572Y-92997267D01*
X149277732Y-92877427D01*
X149277728Y-92877424D01*
X149133492Y-92788457D01*
X149133481Y-92788452D01*
X148972606Y-92735144D01*
X148873322Y-92725000D01*
X148850000Y-92725000D01*
X148350000Y-92725000D01*
X148350000Y-92724999D01*
X148326693Y-92725000D01*
X148326674Y-92725001D01*
X148227392Y-92735144D01*
X148066518Y-92788452D01*
X148066507Y-92788457D01*
X147922271Y-92877424D01*
X147922265Y-92877428D01*
X147913031Y-92886663D01*
X147851707Y-92920146D01*
X147782015Y-92915159D01*
X147737672Y-92886660D01*
X147728044Y-92877032D01*
X147728040Y-92877029D01*
X147583705Y-92788001D01*
X147583699Y-92787998D01*
X147583697Y-92787997D01*
X147564157Y-92781522D01*
X147422709Y-92734651D01*
X147323346Y-92724500D01*
X146776662Y-92724500D01*
X146776644Y-92724501D01*
X146677292Y-92734650D01*
X146677289Y-92734651D01*
X146516305Y-92787996D01*
X146516294Y-92788001D01*
X146371959Y-92877029D01*
X146371955Y-92877032D01*
X146252031Y-92996956D01*
X146202664Y-93076993D01*
X146150716Y-93123717D01*
X146081753Y-93134938D01*
X146017671Y-93107095D01*
X145979420Y-93050899D01*
X145936547Y-92921518D01*
X145936542Y-92921507D01*
X145847575Y-92777271D01*
X145847572Y-92777267D01*
X145837986Y-92767681D01*
X145804501Y-92706358D01*
X145809485Y-92636666D01*
X145837986Y-92592319D01*
X145847572Y-92582732D01*
X145847575Y-92582728D01*
X145936542Y-92438492D01*
X145936547Y-92438481D01*
X145989855Y-92277606D01*
X145999999Y-92178322D01*
X146000000Y-92178309D01*
X146000000Y-92130000D01*
X145300000Y-92130000D01*
X145300000Y-94830000D01*
X145999999Y-94830000D01*
X145999999Y-94781692D01*
X145999998Y-94781677D01*
X145989855Y-94682392D01*
X145936547Y-94521518D01*
X145936542Y-94521507D01*
X145847575Y-94377271D01*
X145847572Y-94377267D01*
X145837986Y-94367681D01*
X145804501Y-94306358D01*
X145809485Y-94236666D01*
X145837986Y-94192319D01*
X145847571Y-94182733D01*
X145896787Y-94102943D01*
X145948735Y-94056218D01*
X146017698Y-94044997D01*
X146081780Y-94072840D01*
X146120032Y-94129036D01*
X146162996Y-94258694D01*
X146163001Y-94258705D01*
X146252029Y-94403040D01*
X146252032Y-94403044D01*
X146371955Y-94522967D01*
X146371959Y-94522970D01*
X146516294Y-94611998D01*
X146516297Y-94611999D01*
X146516303Y-94612003D01*
X146677292Y-94665349D01*
X146776655Y-94675500D01*
X147089546Y-94675499D01*
X147156585Y-94695183D01*
X147177227Y-94711818D01*
X147438181Y-94972771D01*
X147471666Y-95034094D01*
X147474500Y-95060452D01*
X147474500Y-95557893D01*
X147454815Y-95624932D01*
X147415598Y-95663431D01*
X147271956Y-95752031D01*
X147152032Y-95871955D01*
X147152029Y-95871959D01*
X147063001Y-96016294D01*
X147062996Y-96016305D01*
X147009651Y-96177290D01*
X146999500Y-96276647D01*
X146999500Y-96714546D01*
X146979815Y-96781585D01*
X146963181Y-96802227D01*
X145979228Y-97786181D01*
X145917905Y-97819666D01*
X145891547Y-97822500D01*
X145824500Y-97822500D01*
X145757461Y-97802815D01*
X145711706Y-97750011D01*
X145700500Y-97698500D01*
X145700499Y-96452129D01*
X145700498Y-96452123D01*
X145700497Y-96452116D01*
X145694091Y-96392517D01*
X145692725Y-96388855D01*
X145643797Y-96257671D01*
X145643793Y-96257664D01*
X145569768Y-96158780D01*
X145545350Y-96093316D01*
X145560201Y-96025043D01*
X145603937Y-95978930D01*
X145727733Y-95902571D01*
X145847572Y-95782732D01*
X145847575Y-95782728D01*
X145936542Y-95638492D01*
X145936547Y-95638481D01*
X145989855Y-95477606D01*
X145999999Y-95378322D01*
X146000000Y-95378309D01*
X146000000Y-95330000D01*
X144924000Y-95330000D01*
X144856961Y-95310315D01*
X144811206Y-95257511D01*
X144800000Y-95206000D01*
X144800000Y-90500000D01*
X145300000Y-90500000D01*
X145300000Y-91630000D01*
X145999999Y-91630000D01*
X145999999Y-91581692D01*
X145999998Y-91581677D01*
X145989855Y-91482392D01*
X145936547Y-91321518D01*
X145936542Y-91321507D01*
X145847575Y-91177271D01*
X145847572Y-91177267D01*
X145822986Y-91152681D01*
X145789501Y-91091358D01*
X145794485Y-91021666D01*
X145822986Y-90977319D01*
X145847572Y-90952732D01*
X145847575Y-90952728D01*
X145936542Y-90808492D01*
X145936547Y-90808481D01*
X145989855Y-90647606D01*
X145999999Y-90548322D01*
X146000000Y-90548309D01*
X146000000Y-90500000D01*
X145300000Y-90500000D01*
X144800000Y-90500000D01*
X144800000Y-89275000D01*
X145300000Y-89275000D01*
X145300000Y-90000000D01*
X145999999Y-90000000D01*
X145999999Y-89951692D01*
X145999998Y-89951677D01*
X145989855Y-89852392D01*
X145936547Y-89691518D01*
X145936542Y-89691507D01*
X145847575Y-89547271D01*
X145847572Y-89547267D01*
X145727732Y-89427427D01*
X145727728Y-89427424D01*
X145583492Y-89338457D01*
X145583481Y-89338452D01*
X145422606Y-89285144D01*
X145323322Y-89275000D01*
X145300000Y-89275000D01*
X144800000Y-89275000D01*
X144800000Y-89274999D01*
X144776693Y-89275000D01*
X144776674Y-89275001D01*
X144677392Y-89285144D01*
X144516518Y-89338452D01*
X144516507Y-89338457D01*
X144372271Y-89427424D01*
X144372265Y-89427428D01*
X144363031Y-89436663D01*
X144301707Y-89470146D01*
X144232015Y-89465159D01*
X144187672Y-89436660D01*
X144178044Y-89427032D01*
X144178040Y-89427029D01*
X144033705Y-89338001D01*
X144033699Y-89337998D01*
X144033697Y-89337997D01*
X143993104Y-89324546D01*
X143872709Y-89284651D01*
X143773346Y-89274500D01*
X143226662Y-89274500D01*
X143226644Y-89274501D01*
X143127292Y-89284650D01*
X143127289Y-89284651D01*
X142966305Y-89337996D01*
X142966294Y-89338001D01*
X142821959Y-89427029D01*
X142821955Y-89427032D01*
X142702032Y-89546955D01*
X142702029Y-89546959D01*
X142613001Y-89691294D01*
X142612996Y-89691305D01*
X142559651Y-89852290D01*
X142549500Y-89951647D01*
X142549500Y-90548337D01*
X142549501Y-90548355D01*
X142559650Y-90647707D01*
X142559651Y-90647710D01*
X142612996Y-90808694D01*
X142613001Y-90808705D01*
X142702029Y-90953040D01*
X142702032Y-90953044D01*
X142726307Y-90977319D01*
X142759792Y-91038642D01*
X142754808Y-91108334D01*
X142726307Y-91152681D01*
X142702032Y-91176955D01*
X142702029Y-91176959D01*
X142613001Y-91321294D01*
X142612996Y-91321305D01*
X142559651Y-91482290D01*
X142549500Y-91581647D01*
X142549500Y-92178337D01*
X142549501Y-92178355D01*
X142559650Y-92277707D01*
X142559651Y-92277710D01*
X142612996Y-92438694D01*
X142613001Y-92438705D01*
X142702029Y-92583040D01*
X142702032Y-92583044D01*
X142711307Y-92592319D01*
X142744792Y-92653642D01*
X142739808Y-92723334D01*
X142711307Y-92767681D01*
X142702032Y-92776955D01*
X142702029Y-92776959D01*
X142613001Y-92921294D01*
X142612996Y-92921305D01*
X142559651Y-93082290D01*
X142549500Y-93181647D01*
X142549500Y-93778337D01*
X142549501Y-93778355D01*
X142559650Y-93877707D01*
X142559651Y-93877710D01*
X142612996Y-94038694D01*
X142613001Y-94038705D01*
X142702029Y-94183040D01*
X142702032Y-94183044D01*
X142711306Y-94192318D01*
X142744791Y-94253641D01*
X142739807Y-94323333D01*
X142711306Y-94367680D01*
X142701001Y-94377985D01*
X142639678Y-94411470D01*
X142569986Y-94406486D01*
X142562887Y-94403585D01*
X142529802Y-94388855D01*
X142384001Y-94357865D01*
X142344646Y-94349500D01*
X142155354Y-94349500D01*
X142122897Y-94356398D01*
X141970197Y-94388855D01*
X141970192Y-94388857D01*
X141797270Y-94465848D01*
X141797265Y-94465851D01*
X141644129Y-94577111D01*
X141517466Y-94717785D01*
X141422821Y-94881715D01*
X141422818Y-94881722D01*
X141364327Y-95061740D01*
X141364326Y-95061744D01*
X141344540Y-95250000D01*
X141364326Y-95438256D01*
X141364327Y-95438259D01*
X141422818Y-95618277D01*
X141422821Y-95618284D01*
X141517467Y-95782216D01*
X141644129Y-95922888D01*
X141772704Y-96016303D01*
X141777288Y-96019633D01*
X141819954Y-96074962D01*
X141825933Y-96144576D01*
X141803670Y-96194262D01*
X141756204Y-96257668D01*
X141756202Y-96257671D01*
X141705908Y-96392517D01*
X141699501Y-96452116D01*
X141699501Y-96452123D01*
X141699500Y-96452135D01*
X141699500Y-97901438D01*
X141679815Y-97968477D01*
X141668547Y-97982022D01*
X141669002Y-97982398D01*
X141634327Y-98024310D01*
X141630395Y-98028631D01*
X141564208Y-98094817D01*
X141551951Y-98104638D01*
X141552134Y-98104859D01*
X141546123Y-98109831D01*
X141498772Y-98160254D01*
X141477889Y-98181137D01*
X141477877Y-98181150D01*
X141473621Y-98186635D01*
X141469837Y-98191065D01*
X141437937Y-98225036D01*
X141437936Y-98225038D01*
X141428284Y-98242594D01*
X141417610Y-98258844D01*
X141405329Y-98274679D01*
X141405324Y-98274686D01*
X141386815Y-98317456D01*
X141384245Y-98322702D01*
X141361803Y-98363524D01*
X141356822Y-98382925D01*
X141350521Y-98401328D01*
X141342562Y-98419720D01*
X141342561Y-98419723D01*
X141335271Y-98465745D01*
X141334087Y-98471464D01*
X141322501Y-98516590D01*
X141322500Y-98516600D01*
X141322500Y-98536634D01*
X141320973Y-98556033D01*
X141317840Y-98575812D01*
X141317840Y-98575813D01*
X141322225Y-98622201D01*
X141322500Y-98628039D01*
X141322500Y-102500191D01*
X141320775Y-102515808D01*
X141321061Y-102515835D01*
X141320326Y-102523601D01*
X141322500Y-102592750D01*
X141322500Y-102622279D01*
X141322501Y-102622296D01*
X141323368Y-102629167D01*
X141323826Y-102634986D01*
X141325290Y-102681560D01*
X141325291Y-102681563D01*
X141330880Y-102700803D01*
X141334824Y-102719847D01*
X141337247Y-102739022D01*
X141337336Y-102739727D01*
X141354490Y-102783055D01*
X141356382Y-102788583D01*
X141369381Y-102833324D01*
X141379580Y-102850570D01*
X141388138Y-102868039D01*
X141395514Y-102886668D01*
X141422898Y-102924359D01*
X141426106Y-102929243D01*
X141449827Y-102969352D01*
X141449833Y-102969360D01*
X141463990Y-102983516D01*
X141476627Y-102998311D01*
X141488406Y-103014523D01*
X141512624Y-103034558D01*
X141524309Y-103044224D01*
X141528620Y-103048146D01*
X142891733Y-104411260D01*
X143341261Y-104860788D01*
X143351086Y-104873051D01*
X143351307Y-104872869D01*
X143356278Y-104878878D01*
X143368967Y-104890793D01*
X143406699Y-104926226D01*
X143427593Y-104947120D01*
X143433075Y-104951373D01*
X143437507Y-104955157D01*
X143471482Y-104987062D01*
X143489040Y-104996714D01*
X143505297Y-105007393D01*
X143521128Y-105019673D01*
X143540801Y-105028186D01*
X143563897Y-105038182D01*
X143569141Y-105040750D01*
X143609972Y-105063197D01*
X143622587Y-105066435D01*
X143629369Y-105068177D01*
X143647776Y-105074478D01*
X143666168Y-105082438D01*
X143666170Y-105082438D01*
X143666803Y-105082712D01*
X143720510Y-105127403D01*
X143741530Y-105194036D01*
X143723189Y-105261455D01*
X143671309Y-105308256D01*
X143627286Y-105320131D01*
X143599007Y-105322356D01*
X143599002Y-105322357D01*
X143443609Y-105367504D01*
X143443606Y-105367505D01*
X143304315Y-105449881D01*
X143304307Y-105449887D01*
X143189887Y-105564307D01*
X143189881Y-105564315D01*
X143107505Y-105703606D01*
X143107504Y-105703609D01*
X143062357Y-105859002D01*
X143062356Y-105859008D01*
X143059599Y-105894048D01*
X143059500Y-105895310D01*
X143059500Y-106364690D01*
X143059500Y-106364694D01*
X143059403Y-106363462D01*
X143045036Y-106431839D01*
X143027935Y-106456158D01*
X143017466Y-106467784D01*
X142922821Y-106631715D01*
X142922818Y-106631722D01*
X142864983Y-106809721D01*
X142864326Y-106811744D01*
X142844540Y-107000000D01*
X142864326Y-107188256D01*
X142864327Y-107188259D01*
X142922818Y-107368277D01*
X142922819Y-107368279D01*
X142922821Y-107368284D01*
X143017467Y-107532216D01*
X143048945Y-107567176D01*
X143070415Y-107591021D01*
X143100645Y-107654013D01*
X143097342Y-107708587D01*
X143062356Y-107829008D01*
X143059500Y-107865308D01*
X143059500Y-108013423D01*
X143044162Y-108073160D01*
X143038801Y-108082910D01*
X143033820Y-108102310D01*
X143027521Y-108120709D01*
X143019562Y-108139102D01*
X143019561Y-108139105D01*
X143012271Y-108185127D01*
X143011087Y-108190846D01*
X142999501Y-108235972D01*
X142999500Y-108235982D01*
X142999500Y-108256016D01*
X142997973Y-108275415D01*
X142994840Y-108295194D01*
X142994840Y-108295195D01*
X142999225Y-108341583D01*
X142999500Y-108347421D01*
X142999500Y-109175452D01*
X142979815Y-109242491D01*
X142952410Y-109272719D01*
X142946958Y-109277029D01*
X142827029Y-109396959D01*
X142738001Y-109541294D01*
X142737996Y-109541305D01*
X142684651Y-109702290D01*
X142674500Y-109801647D01*
X142674500Y-110398337D01*
X142674501Y-110398355D01*
X142684650Y-110497707D01*
X142684651Y-110497710D01*
X142737996Y-110658694D01*
X142738001Y-110658705D01*
X142827029Y-110803040D01*
X142827032Y-110803044D01*
X142836307Y-110812319D01*
X142869792Y-110873642D01*
X142864808Y-110943334D01*
X142836307Y-110987681D01*
X142827032Y-110996955D01*
X142827029Y-110996959D01*
X142738001Y-111141294D01*
X142737996Y-111141305D01*
X142684651Y-111302290D01*
X142674500Y-111401647D01*
X142674500Y-111998337D01*
X142674501Y-111998355D01*
X142684650Y-112097707D01*
X142684651Y-112097710D01*
X142737996Y-112258694D01*
X142738001Y-112258705D01*
X142827029Y-112403040D01*
X142827032Y-112403044D01*
X142946955Y-112522967D01*
X142952623Y-112527449D01*
X142951011Y-112529486D01*
X142989620Y-112572417D01*
X143000837Y-112641380D01*
X142972990Y-112705460D01*
X142914918Y-112744313D01*
X142877795Y-112750000D01*
X139124000Y-112750000D01*
X139056961Y-112730315D01*
X139011206Y-112677511D01*
X139000000Y-112626000D01*
X139000000Y-68874000D01*
X139019685Y-68806961D01*
X139072489Y-68761206D01*
X139124000Y-68750000D01*
X172126000Y-68750000D01*
X172193039Y-68769685D01*
G37*
%TD.AperFunction*%
%TA.AperFunction,Conductor*%
G36*
X157909425Y-107659257D02*
G01*
X157924305Y-107668820D01*
X157950312Y-107688289D01*
X157986108Y-107736108D01*
X158000000Y-107750000D01*
X158047819Y-107750000D01*
X158047833Y-107749999D01*
X158084395Y-107746068D01*
X158110905Y-107746068D01*
X158152127Y-107750500D01*
X158547872Y-107750499D01*
X158547873Y-107750498D01*
X158547885Y-107750498D01*
X158586744Y-107746320D01*
X158613335Y-107746328D01*
X158613842Y-107746383D01*
X158678373Y-107773166D01*
X158718182Y-107830586D01*
X158724500Y-107869663D01*
X158724500Y-108595187D01*
X158722775Y-108610804D01*
X158723061Y-108610831D01*
X158722326Y-108618597D01*
X158724500Y-108687746D01*
X158724500Y-108717275D01*
X158724501Y-108717292D01*
X158725368Y-108724163D01*
X158725826Y-108729982D01*
X158727290Y-108776556D01*
X158727291Y-108776559D01*
X158732880Y-108795799D01*
X158736824Y-108814843D01*
X158739336Y-108834724D01*
X158756490Y-108878051D01*
X158758382Y-108883579D01*
X158771381Y-108928320D01*
X158781580Y-108945566D01*
X158790138Y-108963035D01*
X158797514Y-108981664D01*
X158824898Y-109019355D01*
X158828106Y-109024239D01*
X158851827Y-109064348D01*
X158851833Y-109064356D01*
X158865990Y-109078512D01*
X158878627Y-109093307D01*
X158890406Y-109109519D01*
X158909118Y-109124999D01*
X158926308Y-109139219D01*
X158930619Y-109143141D01*
X158949796Y-109162318D01*
X158983281Y-109223641D01*
X158978297Y-109293333D01*
X158949796Y-109337680D01*
X158369066Y-109918411D01*
X158307743Y-109951896D01*
X158281385Y-109954730D01*
X157719763Y-109954730D01*
X157652724Y-109935045D01*
X157606969Y-109882241D01*
X157597025Y-109813083D01*
X157601832Y-109792412D01*
X157620418Y-109735209D01*
X157635674Y-109688256D01*
X157655460Y-109500000D01*
X157635674Y-109311744D01*
X157577179Y-109131716D01*
X157577176Y-109131710D01*
X157492113Y-108984375D01*
X157475500Y-108922376D01*
X157475500Y-107869663D01*
X157495185Y-107802624D01*
X157547989Y-107756869D01*
X157586254Y-107746373D01*
X157589110Y-107746066D01*
X157615606Y-107746068D01*
X157652166Y-107749999D01*
X157652182Y-107750000D01*
X157700000Y-107750000D01*
X157715611Y-107734388D01*
X157719685Y-107720515D01*
X157749686Y-107688289D01*
X157775689Y-107668823D01*
X157841152Y-107644406D01*
X157909425Y-107659257D01*
G37*
%TD.AperFunction*%
%TA.AperFunction,Conductor*%
G36*
X146817540Y-103843185D02*
G01*
X146863295Y-103895989D01*
X146874501Y-103947500D01*
X146874501Y-104197876D01*
X146880908Y-104257483D01*
X146931202Y-104392328D01*
X146931206Y-104392335D01*
X147017452Y-104507544D01*
X147017455Y-104507547D01*
X147132664Y-104593793D01*
X147132671Y-104593797D01*
X147177618Y-104610561D01*
X147267517Y-104644091D01*
X147327127Y-104650500D01*
X147514546Y-104650499D01*
X147581586Y-104670183D01*
X147602228Y-104686818D01*
X148797194Y-105881784D01*
X148807019Y-105894048D01*
X148807240Y-105893866D01*
X148812210Y-105899873D01*
X148812213Y-105899876D01*
X148812214Y-105899877D01*
X148862651Y-105947241D01*
X148883530Y-105968120D01*
X148889004Y-105972366D01*
X148893442Y-105976156D01*
X148927418Y-106008062D01*
X148944973Y-106017713D01*
X148961231Y-106028392D01*
X148977064Y-106040674D01*
X148999015Y-106050172D01*
X149019837Y-106059183D01*
X149025081Y-106061752D01*
X149065908Y-106084197D01*
X149085312Y-106089179D01*
X149103710Y-106095478D01*
X149122105Y-106103438D01*
X149122106Y-106103438D01*
X149124745Y-106104580D01*
X149178453Y-106149269D01*
X149199475Y-106215901D01*
X149199500Y-106218382D01*
X149199500Y-107209165D01*
X149179815Y-107276204D01*
X149127011Y-107321959D01*
X149057853Y-107331903D01*
X148994297Y-107302878D01*
X148987819Y-107296846D01*
X145784185Y-104093212D01*
X145774362Y-104080950D01*
X145774141Y-104081134D01*
X145769167Y-104075122D01*
X145739614Y-104047369D01*
X145704220Y-103987128D01*
X145700499Y-103956978D01*
X145700499Y-103947500D01*
X145720184Y-103880461D01*
X145772988Y-103834706D01*
X145824499Y-103823500D01*
X146750501Y-103823500D01*
X146817540Y-103843185D01*
G37*
%TD.AperFunction*%
%TA.AperFunction,Conductor*%
G36*
X159751655Y-102468185D02*
G01*
X159772297Y-102484819D01*
X159990181Y-102702703D01*
X160023666Y-102764026D01*
X160026500Y-102790384D01*
X160026500Y-103500011D01*
X160019329Y-103524429D01*
X160024238Y-103533928D01*
X160026500Y-103557507D01*
X160026500Y-104435545D01*
X160006815Y-104502584D01*
X159990181Y-104523226D01*
X159989181Y-104524226D01*
X159927858Y-104557711D01*
X159858166Y-104552727D01*
X159802233Y-104510855D01*
X159777816Y-104445391D01*
X159777500Y-104436545D01*
X159777500Y-103562669D01*
X159779224Y-103547056D01*
X159778938Y-103547029D01*
X159779051Y-103545834D01*
X159779476Y-103544767D01*
X159780488Y-103535611D01*
X159781375Y-103531644D01*
X159783055Y-103532019D01*
X159778561Y-103503905D01*
X159777500Y-103470134D01*
X159777500Y-103440583D01*
X159777500Y-103440582D01*
X159776629Y-103433691D01*
X159776172Y-103427877D01*
X159774893Y-103387178D01*
X159774709Y-103381304D01*
X159769120Y-103362069D01*
X159765174Y-103343016D01*
X159765111Y-103342516D01*
X159762664Y-103323140D01*
X159745501Y-103279791D01*
X159743614Y-103274278D01*
X159736299Y-103249101D01*
X159730617Y-103229542D01*
X159720421Y-103212301D01*
X159711860Y-103194825D01*
X159704486Y-103176201D01*
X159704486Y-103176199D01*
X159693983Y-103161744D01*
X159677083Y-103138482D01*
X159673900Y-103133637D01*
X159650170Y-103093511D01*
X159650165Y-103093505D01*
X159636005Y-103079345D01*
X159623370Y-103064552D01*
X159611593Y-103048344D01*
X159575693Y-103018645D01*
X159571381Y-103014722D01*
X159270871Y-102714212D01*
X159261048Y-102701950D01*
X159260827Y-102702134D01*
X159255854Y-102696122D01*
X159220467Y-102662892D01*
X159185073Y-102602651D01*
X159187865Y-102532837D01*
X159227959Y-102475616D01*
X159292624Y-102449155D01*
X159305351Y-102448500D01*
X159684616Y-102448500D01*
X159751655Y-102468185D01*
G37*
%TD.AperFunction*%
%TA.AperFunction,Conductor*%
G36*
X145823675Y-100265370D02*
G01*
X145851933Y-100286523D01*
X147488181Y-101922771D01*
X147521666Y-101984094D01*
X147524500Y-102010451D01*
X147524500Y-102197869D01*
X147524501Y-102197876D01*
X147530908Y-102257483D01*
X147584303Y-102400641D01*
X147582119Y-102401455D01*
X147594275Y-102457354D01*
X147569854Y-102522817D01*
X147513918Y-102564685D01*
X147470592Y-102572500D01*
X145771822Y-102572500D01*
X145704783Y-102552815D01*
X145659028Y-102500011D01*
X145649084Y-102430853D01*
X145654116Y-102409496D01*
X145689505Y-102302697D01*
X145689506Y-102302690D01*
X145699999Y-102199986D01*
X145700000Y-102199973D01*
X145700000Y-102137500D01*
X143300001Y-102137500D01*
X143300001Y-102199986D01*
X143310494Y-102302697D01*
X143365641Y-102469119D01*
X143365643Y-102469124D01*
X143457684Y-102618345D01*
X143551304Y-102711965D01*
X143584789Y-102773288D01*
X143579805Y-102842980D01*
X143551305Y-102887327D01*
X143457284Y-102981348D01*
X143453281Y-102987838D01*
X143401329Y-103034558D01*
X143332366Y-103045774D01*
X143268286Y-103017925D01*
X143260067Y-103010413D01*
X142971490Y-102721836D01*
X142609819Y-102360164D01*
X142576334Y-102298841D01*
X142573500Y-102272483D01*
X142573500Y-101637500D01*
X143300000Y-101637500D01*
X144250000Y-101637500D01*
X144250000Y-100875000D01*
X144750000Y-100875000D01*
X144750000Y-101637500D01*
X145699999Y-101637500D01*
X145699999Y-101575028D01*
X145699998Y-101575013D01*
X145689505Y-101472302D01*
X145634358Y-101305880D01*
X145634356Y-101305875D01*
X145542315Y-101156654D01*
X145418345Y-101032684D01*
X145269124Y-100940643D01*
X145269119Y-100940641D01*
X145102697Y-100885494D01*
X145102690Y-100885493D01*
X144999986Y-100875000D01*
X144750000Y-100875000D01*
X144250000Y-100875000D01*
X144000029Y-100875000D01*
X144000012Y-100875001D01*
X143897302Y-100885494D01*
X143730880Y-100940641D01*
X143730875Y-100940643D01*
X143581654Y-101032684D01*
X143457684Y-101156654D01*
X143365643Y-101305875D01*
X143365641Y-101305880D01*
X143310494Y-101472302D01*
X143310493Y-101472309D01*
X143300000Y-101575013D01*
X143300000Y-101637500D01*
X142573500Y-101637500D01*
X142573500Y-100724499D01*
X142593185Y-100657460D01*
X142645989Y-100611705D01*
X142697500Y-100600499D01*
X145247871Y-100600499D01*
X145247872Y-100600499D01*
X145307483Y-100594091D01*
X145442331Y-100543796D01*
X145557546Y-100457546D01*
X145643796Y-100342331D01*
X145643796Y-100342329D01*
X145643798Y-100342327D01*
X145648069Y-100330875D01*
X145689938Y-100274940D01*
X145755401Y-100250520D01*
X145823675Y-100265370D01*
G37*
%TD.AperFunction*%
%TA.AperFunction,Conductor*%
G36*
X154642971Y-97284835D02*
G01*
X154687327Y-97313339D01*
X154696955Y-97322967D01*
X154696959Y-97322970D01*
X154841294Y-97411998D01*
X154841297Y-97411999D01*
X154841303Y-97412003D01*
X155002292Y-97465349D01*
X155101655Y-97475500D01*
X155414546Y-97475499D01*
X155481585Y-97495183D01*
X155502227Y-97511818D01*
X155936181Y-97945771D01*
X155969666Y-98007094D01*
X155972500Y-98033452D01*
X155972500Y-100189837D01*
X155970775Y-100205454D01*
X155971061Y-100205481D01*
X155970326Y-100213247D01*
X155972500Y-100282396D01*
X155972500Y-100311925D01*
X155972501Y-100311942D01*
X155973368Y-100318813D01*
X155973826Y-100324632D01*
X155975290Y-100371206D01*
X155975291Y-100371209D01*
X155980880Y-100390449D01*
X155984824Y-100409493D01*
X155985580Y-100415472D01*
X155987336Y-100429373D01*
X156004490Y-100472701D01*
X156006382Y-100478229D01*
X156014244Y-100505290D01*
X156019382Y-100522972D01*
X156022381Y-100528044D01*
X156029580Y-100540216D01*
X156038138Y-100557685D01*
X156045514Y-100576314D01*
X156072898Y-100614005D01*
X156076106Y-100618889D01*
X156099827Y-100658998D01*
X156099833Y-100659006D01*
X156113990Y-100673162D01*
X156126628Y-100687958D01*
X156138405Y-100704168D01*
X156138406Y-100704169D01*
X156174309Y-100733870D01*
X156178620Y-100737792D01*
X156381469Y-100940641D01*
X156545080Y-101104252D01*
X156578565Y-101165575D01*
X156573581Y-101235267D01*
X156545081Y-101279614D01*
X156452424Y-101372271D01*
X156363457Y-101516507D01*
X156363449Y-101516525D01*
X156361388Y-101522745D01*
X156321612Y-101580187D01*
X156257094Y-101607006D01*
X156188319Y-101594686D01*
X156156005Y-101571415D01*
X155363819Y-100779228D01*
X155330334Y-100717905D01*
X155327500Y-100691547D01*
X155327500Y-99084737D01*
X155329224Y-99069123D01*
X155328938Y-99069096D01*
X155329672Y-99061333D01*
X155327500Y-98992203D01*
X155327500Y-98962651D01*
X155327500Y-98962650D01*
X155326629Y-98955759D01*
X155326172Y-98949945D01*
X155326053Y-98946170D01*
X155324709Y-98903373D01*
X155319122Y-98884144D01*
X155315174Y-98865084D01*
X155313843Y-98854546D01*
X155312664Y-98845208D01*
X155295507Y-98801875D01*
X155293619Y-98796359D01*
X155280619Y-98751612D01*
X155278195Y-98747514D01*
X155270418Y-98734363D01*
X155261860Y-98716894D01*
X155254486Y-98698268D01*
X155254483Y-98698264D01*
X155254483Y-98698263D01*
X155227098Y-98660571D01*
X155223890Y-98655687D01*
X155200172Y-98615582D01*
X155200163Y-98615571D01*
X155186005Y-98601413D01*
X155173370Y-98586620D01*
X155161593Y-98570412D01*
X155125693Y-98540713D01*
X155121381Y-98536790D01*
X154228475Y-97643884D01*
X154194990Y-97582561D01*
X154199974Y-97512869D01*
X154241846Y-97456936D01*
X154277152Y-97438497D01*
X154358481Y-97411547D01*
X154358492Y-97411542D01*
X154502731Y-97322573D01*
X154511959Y-97313345D01*
X154573279Y-97279856D01*
X154642971Y-97284835D01*
G37*
%TD.AperFunction*%
%TA.AperFunction,Conductor*%
G36*
X159897398Y-97145185D02*
G01*
X159943153Y-97197989D01*
X159953097Y-97267147D01*
X159935897Y-97314597D01*
X159888457Y-97391507D01*
X159888452Y-97391518D01*
X159835144Y-97552393D01*
X159825000Y-97651677D01*
X159825000Y-97675000D01*
X160777500Y-97675000D01*
X160844539Y-97694685D01*
X160890294Y-97747489D01*
X160901500Y-97799000D01*
X160901500Y-98051000D01*
X160881815Y-98118039D01*
X160829011Y-98163794D01*
X160777500Y-98175000D01*
X159825001Y-98175000D01*
X159825001Y-98198322D01*
X159835144Y-98297607D01*
X159888452Y-98458481D01*
X159888457Y-98458492D01*
X159977424Y-98602728D01*
X159977427Y-98602732D01*
X159986660Y-98611965D01*
X160020145Y-98673288D01*
X160015161Y-98742980D01*
X159986663Y-98787324D01*
X159977031Y-98796955D01*
X159972720Y-98802409D01*
X159915699Y-98842787D01*
X159875453Y-98849500D01*
X158126874Y-98849500D01*
X158059835Y-98829815D01*
X158039193Y-98813181D01*
X157978044Y-98752032D01*
X157978040Y-98752029D01*
X157833705Y-98663001D01*
X157833699Y-98662998D01*
X157833697Y-98662997D01*
X157710582Y-98622201D01*
X157672709Y-98609651D01*
X157573352Y-98599500D01*
X157573345Y-98599500D01*
X157347500Y-98599500D01*
X157280461Y-98579815D01*
X157234706Y-98527011D01*
X157223500Y-98475500D01*
X157223500Y-97805737D01*
X157225223Y-97790120D01*
X157224938Y-97790093D01*
X157225672Y-97782331D01*
X157223500Y-97713203D01*
X157223500Y-97683651D01*
X157223500Y-97683650D01*
X157222629Y-97676759D01*
X157222172Y-97670945D01*
X157220709Y-97624373D01*
X157219563Y-97617142D01*
X157228511Y-97547847D01*
X157273502Y-97494391D01*
X157329433Y-97474374D01*
X157422606Y-97464856D01*
X157583481Y-97411547D01*
X157583492Y-97411542D01*
X157727731Y-97322573D01*
X157736959Y-97313345D01*
X157798279Y-97279856D01*
X157867971Y-97284835D01*
X157912327Y-97313339D01*
X157921955Y-97322967D01*
X157921959Y-97322970D01*
X158066294Y-97411998D01*
X158066297Y-97411999D01*
X158066303Y-97412003D01*
X158227292Y-97465349D01*
X158326655Y-97475500D01*
X158873344Y-97475499D01*
X158873352Y-97475498D01*
X158873355Y-97475498D01*
X158934705Y-97469231D01*
X158972708Y-97465349D01*
X159133697Y-97412003D01*
X159278044Y-97322968D01*
X159397968Y-97203044D01*
X159409465Y-97184403D01*
X159461412Y-97137679D01*
X159515004Y-97125500D01*
X159830359Y-97125500D01*
X159897398Y-97145185D01*
G37*
%TD.AperFunction*%
%TA.AperFunction,Conductor*%
G36*
X152267539Y-91245185D02*
G01*
X152313294Y-91297989D01*
X152324500Y-91349500D01*
X152324500Y-91617255D01*
X152322775Y-91632872D01*
X152323061Y-91632899D01*
X152322326Y-91640665D01*
X152324500Y-91709814D01*
X152324500Y-91739343D01*
X152324501Y-91739360D01*
X152325368Y-91746231D01*
X152325826Y-91752050D01*
X152327290Y-91798624D01*
X152327291Y-91798627D01*
X152332880Y-91817867D01*
X152336824Y-91836911D01*
X152339336Y-91856792D01*
X152356490Y-91900119D01*
X152358382Y-91905647D01*
X152371381Y-91950388D01*
X152381580Y-91967634D01*
X152390138Y-91985103D01*
X152397514Y-92003732D01*
X152406598Y-92016235D01*
X152430077Y-92082042D01*
X152424210Y-92127437D01*
X152364327Y-92311740D01*
X152364326Y-92311744D01*
X152344540Y-92500000D01*
X152364326Y-92688256D01*
X152364327Y-92688259D01*
X152422818Y-92868277D01*
X152422821Y-92868284D01*
X152517467Y-93032216D01*
X152518146Y-93032970D01*
X152518401Y-93033502D01*
X152521285Y-93037471D01*
X152520559Y-93037998D01*
X152548379Y-93095960D01*
X152550000Y-93115946D01*
X152550000Y-93450000D01*
X153976000Y-93450000D01*
X154043039Y-93469685D01*
X154088794Y-93522489D01*
X154100000Y-93574000D01*
X154100000Y-93826000D01*
X154080315Y-93893039D01*
X154027511Y-93938794D01*
X153976000Y-93950000D01*
X152550000Y-93950000D01*
X152550000Y-94674999D01*
X152573308Y-94674999D01*
X152573322Y-94674998D01*
X152672607Y-94664855D01*
X152833481Y-94611547D01*
X152833492Y-94611542D01*
X152977728Y-94522575D01*
X152977732Y-94522572D01*
X152987319Y-94512986D01*
X153048642Y-94479501D01*
X153118334Y-94484485D01*
X153162681Y-94512986D01*
X153172267Y-94522572D01*
X153172271Y-94522575D01*
X153316507Y-94611542D01*
X153316515Y-94611545D01*
X153341511Y-94619828D01*
X153398956Y-94659600D01*
X153425781Y-94724115D01*
X153413467Y-94792891D01*
X153390190Y-94825216D01*
X152739207Y-95476200D01*
X152726946Y-95486024D01*
X152727129Y-95486245D01*
X152715111Y-95496187D01*
X152714285Y-95495189D01*
X152660959Y-95526512D01*
X152618223Y-95529587D01*
X152573327Y-95525000D01*
X152550000Y-95525000D01*
X152550000Y-95689065D01*
X152537724Y-95736885D01*
X152539674Y-95737657D01*
X152536803Y-95744906D01*
X152531822Y-95764307D01*
X152525521Y-95782710D01*
X152517562Y-95801102D01*
X152517561Y-95801105D01*
X152510271Y-95847127D01*
X152509087Y-95852846D01*
X152497501Y-95897972D01*
X152497500Y-95897982D01*
X152497500Y-95918016D01*
X152495973Y-95937413D01*
X152495751Y-95938818D01*
X152492840Y-95957194D01*
X152492840Y-95957195D01*
X152497225Y-96003583D01*
X152497500Y-96009421D01*
X152497500Y-97340255D01*
X152495775Y-97355872D01*
X152496061Y-97355899D01*
X152495326Y-97363665D01*
X152497500Y-97432814D01*
X152497500Y-97462343D01*
X152497501Y-97462360D01*
X152498368Y-97469231D01*
X152498826Y-97475050D01*
X152500290Y-97521624D01*
X152500291Y-97521627D01*
X152505880Y-97540867D01*
X152509824Y-97559911D01*
X152512336Y-97579792D01*
X152527124Y-97617142D01*
X152529490Y-97623119D01*
X152531382Y-97628647D01*
X152543671Y-97670945D01*
X152544382Y-97673390D01*
X152550449Y-97683650D01*
X152554580Y-97690634D01*
X152563138Y-97708103D01*
X152570514Y-97726732D01*
X152597898Y-97764423D01*
X152601106Y-97769307D01*
X152624827Y-97809416D01*
X152624833Y-97809424D01*
X152638990Y-97823580D01*
X152651628Y-97838376D01*
X152663405Y-97854586D01*
X152663406Y-97854587D01*
X152699309Y-97884288D01*
X152703620Y-97888210D01*
X152898485Y-98083075D01*
X153048357Y-98232947D01*
X153081842Y-98294270D01*
X153076858Y-98363962D01*
X153034986Y-98419895D01*
X152969522Y-98444312D01*
X152901249Y-98429460D01*
X152895579Y-98426166D01*
X152833705Y-98388001D01*
X152833699Y-98387998D01*
X152833697Y-98387997D01*
X152759842Y-98363524D01*
X152672709Y-98334651D01*
X152573352Y-98324500D01*
X152573345Y-98324500D01*
X152201500Y-98324500D01*
X152134461Y-98304815D01*
X152088706Y-98252011D01*
X152077500Y-98200500D01*
X152077500Y-97284742D01*
X152079224Y-97269122D01*
X152078939Y-97269096D01*
X152079671Y-97261340D01*
X152079673Y-97261333D01*
X152077500Y-97192185D01*
X152077500Y-97162650D01*
X152076631Y-97155772D01*
X152076172Y-97149943D01*
X152074709Y-97103372D01*
X152069122Y-97084144D01*
X152065174Y-97065084D01*
X152064752Y-97061740D01*
X152062664Y-97045208D01*
X152058708Y-97035216D01*
X152050000Y-96989568D01*
X152050000Y-95524999D01*
X152026693Y-95525000D01*
X152026674Y-95525001D01*
X151927392Y-95535144D01*
X151766518Y-95588452D01*
X151766509Y-95588457D01*
X151704451Y-95626734D01*
X151637058Y-95645174D01*
X151570395Y-95624251D01*
X151525626Y-95570608D01*
X151516965Y-95501278D01*
X151526084Y-95470740D01*
X151527168Y-95468301D01*
X151527179Y-95468284D01*
X151585674Y-95288256D01*
X151605460Y-95100000D01*
X151585674Y-94911744D01*
X151529937Y-94740203D01*
X151527181Y-94731722D01*
X151527180Y-94731721D01*
X151527179Y-94731716D01*
X151527176Y-94731710D01*
X151526082Y-94729254D01*
X151525872Y-94727694D01*
X151525171Y-94725535D01*
X151525565Y-94725406D01*
X151516788Y-94660005D01*
X151546409Y-94596725D01*
X151605539Y-94559504D01*
X151675406Y-94560160D01*
X151704452Y-94573265D01*
X151766513Y-94611545D01*
X151766518Y-94611547D01*
X151927393Y-94664855D01*
X152026683Y-94674999D01*
X152050000Y-94674998D01*
X152050000Y-92724999D01*
X152026693Y-92725000D01*
X152026674Y-92725001D01*
X151927389Y-92735144D01*
X151922259Y-92736844D01*
X151852430Y-92739239D01*
X151792392Y-92703501D01*
X151761206Y-92640977D01*
X151768773Y-92571519D01*
X151775867Y-92557158D01*
X151827179Y-92468284D01*
X151885674Y-92288256D01*
X151905460Y-92100000D01*
X151885674Y-91911744D01*
X151827179Y-91731716D01*
X151732533Y-91567784D01*
X151716520Y-91550000D01*
X151661680Y-91489093D01*
X151631450Y-91426101D01*
X151640076Y-91356766D01*
X151666147Y-91318442D01*
X151722772Y-91261818D01*
X151784095Y-91228334D01*
X151810452Y-91225500D01*
X152200500Y-91225500D01*
X152267539Y-91245185D01*
G37*
%TD.AperFunction*%
%TA.AperFunction,Conductor*%
G36*
X154018039Y-96269685D02*
G01*
X154063794Y-96322489D01*
X154075000Y-96374000D01*
X154075000Y-96626000D01*
X154055315Y-96693039D01*
X154002511Y-96738794D01*
X153951000Y-96750000D01*
X153872500Y-96750000D01*
X153805461Y-96730315D01*
X153759706Y-96677511D01*
X153748500Y-96626000D01*
X153748500Y-96374000D01*
X153768185Y-96306961D01*
X153820989Y-96261206D01*
X153872500Y-96250000D01*
X153951000Y-96250000D01*
X154018039Y-96269685D01*
G37*
%TD.AperFunction*%
%TA.AperFunction,Conductor*%
G36*
X157743328Y-88913025D02*
G01*
X157787685Y-88941532D01*
X157798060Y-88951908D01*
X157797029Y-88952938D01*
X157832902Y-89002595D01*
X157840000Y-89043947D01*
X157840000Y-89072326D01*
X157866743Y-89108157D01*
X157874500Y-89151325D01*
X157874500Y-90551312D01*
X157854815Y-90618351D01*
X157842650Y-90634284D01*
X157767466Y-90717784D01*
X157672821Y-90881715D01*
X157672818Y-90881722D01*
X157614758Y-91060415D01*
X157614326Y-91061744D01*
X157594540Y-91250000D01*
X157614326Y-91438256D01*
X157614327Y-91438259D01*
X157672818Y-91618277D01*
X157672821Y-91618284D01*
X157767467Y-91782216D01*
X157836331Y-91858697D01*
X157894129Y-91922888D01*
X158047265Y-92034148D01*
X158047270Y-92034151D01*
X158220192Y-92111142D01*
X158220197Y-92111144D01*
X158405354Y-92150500D01*
X158405355Y-92150500D01*
X158594644Y-92150500D01*
X158594646Y-92150500D01*
X158779803Y-92111144D01*
X158952730Y-92034151D01*
X159105871Y-91922888D01*
X159232533Y-91782216D01*
X159327179Y-91618284D01*
X159385674Y-91438256D01*
X159405460Y-91250000D01*
X159385674Y-91061744D01*
X159327179Y-90881716D01*
X159232533Y-90717784D01*
X159203493Y-90685532D01*
X159157350Y-90634284D01*
X159127120Y-90571292D01*
X159125500Y-90551312D01*
X159125500Y-89149500D01*
X159145185Y-89082461D01*
X159197989Y-89036706D01*
X159249500Y-89025500D01*
X160584996Y-89025500D01*
X160652035Y-89045185D01*
X160690535Y-89084404D01*
X160701839Y-89102732D01*
X160702032Y-89103044D01*
X160821956Y-89222968D01*
X160821963Y-89222972D01*
X160827404Y-89227274D01*
X160867785Y-89284293D01*
X160874500Y-89324546D01*
X160874500Y-90423125D01*
X160854815Y-90490164D01*
X160838182Y-90510806D01*
X160752029Y-90596959D01*
X160663001Y-90741294D01*
X160662996Y-90741305D01*
X160609651Y-90902290D01*
X160599500Y-91001647D01*
X160599500Y-91314546D01*
X160579815Y-91381585D01*
X160563181Y-91402227D01*
X159267706Y-92697701D01*
X159206383Y-92731186D01*
X159155841Y-92731639D01*
X159152196Y-92730914D01*
X159152185Y-92730913D01*
X159081616Y-92724500D01*
X158568384Y-92724500D01*
X158549145Y-92726248D01*
X158497807Y-92730913D01*
X158335393Y-92781522D01*
X158189811Y-92869530D01*
X158189810Y-92869531D01*
X158087681Y-92971661D01*
X158026358Y-93005146D01*
X157956666Y-93000162D01*
X157912319Y-92971661D01*
X157810188Y-92869530D01*
X157808115Y-92868277D01*
X157664606Y-92781522D01*
X157502196Y-92730914D01*
X157502194Y-92730913D01*
X157502192Y-92730913D01*
X157452778Y-92726423D01*
X157431616Y-92724500D01*
X156918384Y-92724500D01*
X156865449Y-92729310D01*
X156847803Y-92730914D01*
X156742257Y-92763802D01*
X156672397Y-92764952D01*
X156617688Y-92733097D01*
X155718769Y-91834178D01*
X155685284Y-91772855D01*
X155690268Y-91703163D01*
X155714298Y-91663528D01*
X155832533Y-91532216D01*
X155927179Y-91368284D01*
X155985674Y-91188256D01*
X156003321Y-91020344D01*
X156029904Y-90955734D01*
X156038951Y-90945638D01*
X156583788Y-90400801D01*
X156596042Y-90390986D01*
X156595859Y-90390764D01*
X156601866Y-90385792D01*
X156601877Y-90385786D01*
X156632775Y-90352882D01*
X156649227Y-90335364D01*
X156659671Y-90324918D01*
X156670120Y-90314471D01*
X156674379Y-90308978D01*
X156678152Y-90304561D01*
X156710062Y-90270582D01*
X156719715Y-90253020D01*
X156730389Y-90236770D01*
X156742673Y-90220936D01*
X156761180Y-90178167D01*
X156763749Y-90172924D01*
X156778305Y-90146447D01*
X156786197Y-90132092D01*
X156791177Y-90112691D01*
X156797478Y-90094288D01*
X156805438Y-90075896D01*
X156812730Y-90029849D01*
X156813911Y-90024152D01*
X156825500Y-89979019D01*
X156825500Y-89958983D01*
X156827027Y-89939582D01*
X156827249Y-89938181D01*
X156830160Y-89919804D01*
X156825775Y-89873415D01*
X156825500Y-89867577D01*
X156825500Y-89161298D01*
X156845185Y-89094259D01*
X156897989Y-89048504D01*
X156914887Y-89042227D01*
X156915401Y-89042077D01*
X156984595Y-89042077D01*
X156985098Y-89042223D01*
X157073064Y-89067780D01*
X157107625Y-89070500D01*
X157292374Y-89070499D01*
X157292375Y-89070499D01*
X157294724Y-89070314D01*
X157326936Y-89067780D01*
X157416300Y-89041816D01*
X157485487Y-89041816D01*
X157559999Y-89063462D01*
X157560000Y-89063462D01*
X157560000Y-89043947D01*
X157579685Y-88976908D01*
X157602267Y-88952235D01*
X157601940Y-88951908D01*
X157612315Y-88941532D01*
X157673636Y-88908044D01*
X157743328Y-88913025D01*
G37*
%TD.AperFunction*%
%TA.AperFunction,Conductor*%
G36*
X154755662Y-80647912D02*
G01*
X154787486Y-80670210D01*
X154790452Y-80666261D01*
X154839999Y-80703462D01*
X154914510Y-80681816D01*
X154983699Y-80681817D01*
X155073059Y-80707779D01*
X155073062Y-80707779D01*
X155073064Y-80707780D01*
X155107625Y-80710500D01*
X155292374Y-80710499D01*
X155292375Y-80710499D01*
X155294724Y-80710314D01*
X155326936Y-80707780D01*
X155415405Y-80682077D01*
X155484595Y-80682077D01*
X155573064Y-80707780D01*
X155607625Y-80710500D01*
X155792374Y-80710499D01*
X155792375Y-80710499D01*
X155794724Y-80710314D01*
X155826936Y-80707780D01*
X155915405Y-80682077D01*
X155984595Y-80682077D01*
X156073064Y-80707780D01*
X156107625Y-80710500D01*
X156292374Y-80710499D01*
X156292375Y-80710499D01*
X156294724Y-80710314D01*
X156326936Y-80707780D01*
X156415405Y-80682077D01*
X156484595Y-80682077D01*
X156573064Y-80707780D01*
X156584327Y-80708666D01*
X156649615Y-80733546D01*
X156691089Y-80789775D01*
X156695579Y-80859500D01*
X156662284Y-80919965D01*
X155116208Y-82466040D01*
X155103951Y-82475861D01*
X155104134Y-82476082D01*
X155098123Y-82481054D01*
X155050772Y-82531477D01*
X155029889Y-82552360D01*
X155029877Y-82552373D01*
X155025621Y-82557858D01*
X155021837Y-82562288D01*
X154989937Y-82596259D01*
X154989936Y-82596261D01*
X154980284Y-82613817D01*
X154969610Y-82630067D01*
X154957329Y-82645902D01*
X154957324Y-82645909D01*
X154938815Y-82688679D01*
X154936245Y-82693925D01*
X154913803Y-82734747D01*
X154908822Y-82754148D01*
X154902521Y-82772551D01*
X154894562Y-82790943D01*
X154894560Y-82790951D01*
X154893447Y-82797977D01*
X154863513Y-82861110D01*
X154863126Y-82861542D01*
X154767466Y-82967785D01*
X154672821Y-83131715D01*
X154672818Y-83131722D01*
X154614327Y-83311740D01*
X154614326Y-83311744D01*
X154594540Y-83500000D01*
X154614326Y-83688256D01*
X154614327Y-83688259D01*
X154672818Y-83868277D01*
X154672821Y-83868284D01*
X154767467Y-84032216D01*
X154860144Y-84135144D01*
X154894129Y-84172888D01*
X155047265Y-84284148D01*
X155047270Y-84284151D01*
X155220192Y-84361142D01*
X155220197Y-84361144D01*
X155405354Y-84400500D01*
X155405355Y-84400500D01*
X155594644Y-84400500D01*
X155594646Y-84400500D01*
X155779803Y-84361144D01*
X155952730Y-84284151D01*
X156105871Y-84172888D01*
X156232533Y-84032216D01*
X156327179Y-83868284D01*
X156385674Y-83688256D01*
X156405460Y-83500000D01*
X156385674Y-83311744D01*
X156331363Y-83144592D01*
X156325171Y-83125535D01*
X156327345Y-83124828D01*
X156319449Y-83065970D01*
X156349074Y-83002691D01*
X156354317Y-82997113D01*
X157819613Y-81531819D01*
X157880936Y-81498334D01*
X157907294Y-81495500D01*
X158256086Y-81495500D01*
X158323125Y-81515185D01*
X158368880Y-81567989D01*
X158378824Y-81637147D01*
X158375163Y-81654094D01*
X158352220Y-81733064D01*
X158352219Y-81733070D01*
X158349500Y-81767622D01*
X158349501Y-81952375D01*
X158352219Y-81986934D01*
X158377922Y-82075406D01*
X158377922Y-82144592D01*
X158352221Y-82233060D01*
X158352219Y-82233070D01*
X158349500Y-82267622D01*
X158349501Y-82452375D01*
X158352219Y-82486934D01*
X158377922Y-82575406D01*
X158377922Y-82644592D01*
X158352221Y-82733060D01*
X158352219Y-82733070D01*
X158349500Y-82767622D01*
X158349501Y-82952375D01*
X158352219Y-82986934D01*
X158377922Y-83075406D01*
X158377922Y-83144592D01*
X158352221Y-83233060D01*
X158352219Y-83233070D01*
X158349500Y-83267622D01*
X158349501Y-83452375D01*
X158352219Y-83486934D01*
X158377922Y-83575406D01*
X158377922Y-83644592D01*
X158352221Y-83733060D01*
X158352219Y-83733070D01*
X158349500Y-83767622D01*
X158349501Y-83952375D01*
X158352219Y-83986934D01*
X158377922Y-84075406D01*
X158377922Y-84144592D01*
X158352221Y-84233060D01*
X158352219Y-84233070D01*
X158349500Y-84267622D01*
X158349501Y-84452375D01*
X158352219Y-84486934D01*
X158377922Y-84575406D01*
X158377922Y-84644592D01*
X158352221Y-84733060D01*
X158352219Y-84733070D01*
X158349500Y-84767622D01*
X158349501Y-84952375D01*
X158352219Y-84986934D01*
X158377922Y-85075406D01*
X158377922Y-85144592D01*
X158352221Y-85233060D01*
X158352219Y-85233070D01*
X158349500Y-85267622D01*
X158349501Y-85452375D01*
X158352219Y-85486934D01*
X158377922Y-85575406D01*
X158377922Y-85644592D01*
X158352221Y-85733060D01*
X158352219Y-85733070D01*
X158349500Y-85767622D01*
X158349501Y-85952375D01*
X158352679Y-85992776D01*
X158338313Y-86061152D01*
X158289259Y-86110907D01*
X158229061Y-86126500D01*
X157540738Y-86126500D01*
X157525121Y-86124776D01*
X157525094Y-86125062D01*
X157517332Y-86124327D01*
X157448204Y-86126500D01*
X157418650Y-86126500D01*
X157417929Y-86126590D01*
X157411757Y-86127369D01*
X157405945Y-86127826D01*
X157359373Y-86129290D01*
X157359372Y-86129290D01*
X157340129Y-86134881D01*
X157321079Y-86138825D01*
X157301211Y-86141334D01*
X157257884Y-86158488D01*
X157252358Y-86160379D01*
X157207614Y-86173379D01*
X157207610Y-86173381D01*
X157190366Y-86183579D01*
X157172905Y-86192133D01*
X157154274Y-86199510D01*
X157154262Y-86199517D01*
X157116570Y-86226902D01*
X157111687Y-86230109D01*
X157071580Y-86253829D01*
X157057414Y-86267995D01*
X157042624Y-86280627D01*
X157026414Y-86292404D01*
X157026408Y-86292410D01*
X156996711Y-86328308D01*
X156992778Y-86332630D01*
X156852227Y-86473181D01*
X156790904Y-86506666D01*
X156764547Y-86509500D01*
X156607625Y-86509501D01*
X156573065Y-86512219D01*
X156484593Y-86537922D01*
X156415407Y-86537922D01*
X156326939Y-86512221D01*
X156326940Y-86512221D01*
X156326936Y-86512220D01*
X156326932Y-86512219D01*
X156326929Y-86512219D01*
X156292377Y-86509500D01*
X156292375Y-86509500D01*
X156169209Y-86509500D01*
X156107625Y-86509501D01*
X156073065Y-86512219D01*
X155984593Y-86537922D01*
X155915407Y-86537922D01*
X155826939Y-86512221D01*
X155826940Y-86512221D01*
X155826936Y-86512220D01*
X155826932Y-86512219D01*
X155826929Y-86512219D01*
X155792377Y-86509500D01*
X155792375Y-86509500D01*
X155669209Y-86509500D01*
X155607625Y-86509501D01*
X155573065Y-86512219D01*
X155484593Y-86537922D01*
X155415407Y-86537922D01*
X155326939Y-86512221D01*
X155326940Y-86512221D01*
X155326936Y-86512220D01*
X155326932Y-86512219D01*
X155326929Y-86512219D01*
X155292377Y-86509500D01*
X155292375Y-86509500D01*
X155169209Y-86509500D01*
X155107625Y-86509501D01*
X155073065Y-86512219D01*
X154984593Y-86537922D01*
X154915407Y-86537922D01*
X154826939Y-86512221D01*
X154826940Y-86512221D01*
X154826936Y-86512220D01*
X154826932Y-86512219D01*
X154826929Y-86512219D01*
X154792377Y-86509500D01*
X154792375Y-86509500D01*
X154669209Y-86509500D01*
X154607625Y-86509501D01*
X154573065Y-86512219D01*
X154484593Y-86537922D01*
X154415407Y-86537922D01*
X154326939Y-86512221D01*
X154326940Y-86512221D01*
X154326936Y-86512220D01*
X154326932Y-86512219D01*
X154326929Y-86512219D01*
X154292377Y-86509500D01*
X154292375Y-86509500D01*
X154169209Y-86509500D01*
X154107625Y-86509501D01*
X154073065Y-86512219D01*
X153984593Y-86537922D01*
X153915407Y-86537922D01*
X153826939Y-86512221D01*
X153826940Y-86512221D01*
X153826936Y-86512220D01*
X153826932Y-86512219D01*
X153826929Y-86512219D01*
X153792377Y-86509500D01*
X153792375Y-86509500D01*
X153669209Y-86509500D01*
X153607625Y-86509501D01*
X153573065Y-86512219D01*
X153484593Y-86537922D01*
X153415407Y-86537922D01*
X153326939Y-86512221D01*
X153326940Y-86512221D01*
X153326936Y-86512220D01*
X153326932Y-86512219D01*
X153326929Y-86512219D01*
X153292377Y-86509500D01*
X153292375Y-86509500D01*
X153169209Y-86509500D01*
X153107625Y-86509501D01*
X153073065Y-86512219D01*
X152984593Y-86537922D01*
X152915407Y-86537922D01*
X152826939Y-86512221D01*
X152826940Y-86512221D01*
X152826936Y-86512220D01*
X152826932Y-86512219D01*
X152826929Y-86512219D01*
X152792377Y-86509500D01*
X152674499Y-86509500D01*
X152607460Y-86489815D01*
X152561705Y-86437011D01*
X152550499Y-86385502D01*
X152550499Y-86267626D01*
X152547780Y-86233064D01*
X152521816Y-86143696D01*
X152521816Y-86074507D01*
X152543463Y-86000000D01*
X152523948Y-86000000D01*
X152456909Y-85980315D01*
X152432234Y-85957733D01*
X152431908Y-85958060D01*
X152421532Y-85947685D01*
X152388044Y-85886364D01*
X152393025Y-85816672D01*
X152421532Y-85772315D01*
X152431908Y-85761940D01*
X152432936Y-85762968D01*
X152482609Y-85727094D01*
X152523948Y-85720000D01*
X152543463Y-85720000D01*
X152543464Y-85719998D01*
X152521817Y-85645491D01*
X152521817Y-85576299D01*
X152547780Y-85486936D01*
X152550500Y-85452375D01*
X152550499Y-85267626D01*
X152547780Y-85233064D01*
X152522077Y-85144595D01*
X152522077Y-85075404D01*
X152523840Y-85069336D01*
X152547780Y-84986936D01*
X152550500Y-84952375D01*
X152550499Y-84767626D01*
X152547780Y-84733064D01*
X152522077Y-84644595D01*
X152522077Y-84575404D01*
X152547780Y-84486936D01*
X152550500Y-84452375D01*
X152550499Y-84267626D01*
X152547780Y-84233064D01*
X152522077Y-84144595D01*
X152522077Y-84075404D01*
X152528114Y-84054625D01*
X152547780Y-83986936D01*
X152550500Y-83952375D01*
X152550499Y-83767626D01*
X152550327Y-83765446D01*
X152549112Y-83749999D01*
X152547780Y-83733064D01*
X152522077Y-83644595D01*
X152522077Y-83575404D01*
X152526047Y-83561740D01*
X152547780Y-83486936D01*
X152550500Y-83452375D01*
X152550499Y-83267626D01*
X152547780Y-83233064D01*
X152522077Y-83144595D01*
X152522077Y-83075404D01*
X152524818Y-83065970D01*
X152547780Y-82986936D01*
X152550500Y-82952375D01*
X152550499Y-82767626D01*
X152547780Y-82733064D01*
X152522077Y-82644595D01*
X152522077Y-82575404D01*
X152527265Y-82557547D01*
X152547780Y-82486936D01*
X152550500Y-82452375D01*
X152550499Y-82267626D01*
X152547780Y-82233064D01*
X152522076Y-82144595D01*
X152522076Y-82075408D01*
X152522077Y-82075406D01*
X152530713Y-82045677D01*
X152568317Y-81986793D01*
X152631789Y-81957585D01*
X152700975Y-81967330D01*
X152722669Y-81979950D01*
X152797266Y-82034148D01*
X152797270Y-82034151D01*
X152970192Y-82111142D01*
X152970197Y-82111144D01*
X153155354Y-82150500D01*
X153155355Y-82150500D01*
X153344644Y-82150500D01*
X153344646Y-82150500D01*
X153529803Y-82111144D01*
X153702730Y-82034151D01*
X153855871Y-81922888D01*
X153982533Y-81782216D01*
X154077179Y-81618284D01*
X154135674Y-81438256D01*
X154155460Y-81250000D01*
X154152048Y-81217541D01*
X154164617Y-81148814D01*
X154187685Y-81116903D01*
X154583787Y-80720802D01*
X154596042Y-80710986D01*
X154595859Y-80710764D01*
X154601867Y-80705792D01*
X154601877Y-80705786D01*
X154625608Y-80680513D01*
X154685848Y-80645120D01*
X154755662Y-80647912D01*
G37*
%TD.AperFunction*%
%TA.AperFunction,Conductor*%
G36*
X163096587Y-80045185D02*
G01*
X163117229Y-80061819D01*
X164033181Y-80977771D01*
X164066666Y-81039094D01*
X164069500Y-81065452D01*
X164069500Y-82247870D01*
X164069501Y-82247881D01*
X164072352Y-82274402D01*
X164060973Y-82337457D01*
X164065242Y-82338957D01*
X164108181Y-82394075D01*
X164109036Y-82396302D01*
X164126202Y-82442328D01*
X164126206Y-82442335D01*
X164212452Y-82557544D01*
X164212455Y-82557547D01*
X164327664Y-82643793D01*
X164327671Y-82643797D01*
X164462517Y-82694091D01*
X164462516Y-82694091D01*
X164469444Y-82694835D01*
X164522127Y-82700500D01*
X165357872Y-82700499D01*
X165417483Y-82694091D01*
X165531667Y-82651502D01*
X165601358Y-82646519D01*
X165618333Y-82651503D01*
X165732517Y-82694091D01*
X165732516Y-82694091D01*
X165739444Y-82694835D01*
X165792127Y-82700500D01*
X166627872Y-82700499D01*
X166687483Y-82694091D01*
X166801667Y-82651502D01*
X166871358Y-82646519D01*
X166888330Y-82651502D01*
X167002517Y-82694091D01*
X167062127Y-82700500D01*
X167250500Y-82700499D01*
X167317539Y-82720183D01*
X167363294Y-82772987D01*
X167374500Y-82824499D01*
X167374500Y-83379289D01*
X167354815Y-83446328D01*
X167302011Y-83492083D01*
X167237901Y-83502647D01*
X167211995Y-83500001D01*
X167211973Y-83500000D01*
X166088029Y-83500000D01*
X166088008Y-83500002D01*
X166011382Y-83507828D01*
X166011381Y-83507829D01*
X166915871Y-84412319D01*
X166949356Y-84473642D01*
X166944372Y-84543334D01*
X166915871Y-84587681D01*
X166737681Y-84765872D01*
X166676358Y-84799357D01*
X166606667Y-84794373D01*
X166562319Y-84765872D01*
X165561893Y-83765446D01*
X165545684Y-83781654D01*
X165453643Y-83930875D01*
X165453641Y-83930880D01*
X165398494Y-84097302D01*
X165398493Y-84097309D01*
X165388000Y-84200013D01*
X165388000Y-84799971D01*
X165388001Y-84799987D01*
X165398494Y-84902697D01*
X165453641Y-85069119D01*
X165453644Y-85069126D01*
X165463684Y-85085402D01*
X165482125Y-85152794D01*
X165461203Y-85219458D01*
X165407562Y-85264228D01*
X165358146Y-85274500D01*
X163814812Y-85274500D01*
X163747773Y-85254815D01*
X163702018Y-85202011D01*
X163692074Y-85132853D01*
X163721099Y-85069297D01*
X163727131Y-85062819D01*
X163730071Y-85059878D01*
X163730072Y-85059877D01*
X163818019Y-84914395D01*
X163868590Y-84752106D01*
X163875000Y-84681572D01*
X163875000Y-84675000D01*
X161925001Y-84675000D01*
X161891820Y-84708181D01*
X161830497Y-84741666D01*
X161804139Y-84744500D01*
X161004204Y-84744500D01*
X160937165Y-84724815D01*
X160891410Y-84672011D01*
X160885129Y-84655100D01*
X160882078Y-84644600D01*
X160882077Y-84575404D01*
X160907780Y-84486936D01*
X160910500Y-84452375D01*
X160910499Y-84267626D01*
X160907780Y-84233064D01*
X160882077Y-84144595D01*
X160882077Y-84075404D01*
X160888114Y-84054625D01*
X160907780Y-83986936D01*
X160910500Y-83952375D01*
X160910499Y-83767626D01*
X160910327Y-83765446D01*
X160909112Y-83749999D01*
X160907780Y-83733064D01*
X160882077Y-83644595D01*
X160882077Y-83575404D01*
X160888101Y-83554672D01*
X160902353Y-83505617D01*
X160906918Y-83489904D01*
X160944525Y-83431019D01*
X161007998Y-83401813D01*
X161025994Y-83400500D01*
X162008480Y-83400500D01*
X162075519Y-83420185D01*
X162096161Y-83436819D01*
X162172015Y-83512673D01*
X162205500Y-83573996D01*
X162200516Y-83643688D01*
X162172015Y-83688035D01*
X162069928Y-83790121D01*
X162069927Y-83790122D01*
X161981980Y-83935604D01*
X161931409Y-84097893D01*
X161925000Y-84168427D01*
X161925000Y-84175000D01*
X163874999Y-84175000D01*
X163874999Y-84168417D01*
X163868591Y-84097897D01*
X163868590Y-84097892D01*
X163818018Y-83935603D01*
X163730072Y-83790122D01*
X163627984Y-83688034D01*
X163594499Y-83626711D01*
X163599483Y-83557019D01*
X163627983Y-83512673D01*
X163730472Y-83410185D01*
X163818478Y-83264606D01*
X163869086Y-83102196D01*
X163875500Y-83031616D01*
X163875500Y-82518384D01*
X163869363Y-82450856D01*
X163881284Y-82390487D01*
X163878339Y-82389507D01*
X163834499Y-82335102D01*
X163830681Y-82324557D01*
X163818478Y-82285394D01*
X163730472Y-82139815D01*
X163730470Y-82139813D01*
X163730469Y-82139811D01*
X163610188Y-82019530D01*
X163556271Y-81986936D01*
X163464606Y-81931522D01*
X163302196Y-81880914D01*
X163302194Y-81880913D01*
X163302192Y-81880913D01*
X163252778Y-81876423D01*
X163231616Y-81874500D01*
X162568384Y-81874500D01*
X162549145Y-81876248D01*
X162497807Y-81880913D01*
X162335393Y-81931522D01*
X162189811Y-82019530D01*
X162189810Y-82019531D01*
X162096161Y-82113181D01*
X162034838Y-82146666D01*
X162008480Y-82149500D01*
X161025703Y-82149500D01*
X160958664Y-82129815D01*
X160912909Y-82077011D01*
X160902965Y-82007853D01*
X160906628Y-81990901D01*
X160907780Y-81986936D01*
X160910500Y-81952375D01*
X160910499Y-81767626D01*
X160907780Y-81733064D01*
X160881816Y-81643696D01*
X160881816Y-81574507D01*
X160903463Y-81500000D01*
X160883948Y-81500000D01*
X160816909Y-81480315D01*
X160792234Y-81457733D01*
X160791908Y-81458060D01*
X160781532Y-81447685D01*
X160748044Y-81386364D01*
X160753025Y-81316672D01*
X160781532Y-81272315D01*
X160791908Y-81261940D01*
X160792936Y-81262968D01*
X160842609Y-81227094D01*
X160883948Y-81220000D01*
X160903463Y-81220000D01*
X160903464Y-81219998D01*
X160881817Y-81145491D01*
X160881817Y-81076299D01*
X160907780Y-80986936D01*
X160910500Y-80952375D01*
X160910499Y-80767626D01*
X160907780Y-80733064D01*
X160864802Y-80585134D01*
X160838664Y-80540936D01*
X160810896Y-80493982D01*
X160793713Y-80426258D01*
X160815873Y-80359996D01*
X160870340Y-80316233D01*
X160878633Y-80313153D01*
X160883485Y-80311545D01*
X160883492Y-80311542D01*
X161027731Y-80222573D01*
X161036959Y-80213345D01*
X161098279Y-80179856D01*
X161167971Y-80184835D01*
X161212327Y-80213339D01*
X161221955Y-80222967D01*
X161221959Y-80222970D01*
X161366294Y-80311998D01*
X161366297Y-80311999D01*
X161366303Y-80312003D01*
X161527292Y-80365349D01*
X161626655Y-80375500D01*
X162173344Y-80375499D01*
X162173352Y-80375498D01*
X162173355Y-80375498D01*
X162236124Y-80369086D01*
X162272708Y-80365349D01*
X162433697Y-80312003D01*
X162578044Y-80222968D01*
X162697968Y-80103044D01*
X162709465Y-80084403D01*
X162761412Y-80037679D01*
X162815004Y-80025500D01*
X163029548Y-80025500D01*
X163096587Y-80045185D01*
G37*
%TD.AperFunction*%
%TA.AperFunction,Conductor*%
G36*
X143071978Y-80067187D02*
G01*
X143098920Y-80097998D01*
X143102032Y-80103044D01*
X143221956Y-80222968D01*
X143221963Y-80222972D01*
X143227404Y-80227274D01*
X143267785Y-80284293D01*
X143274500Y-80324546D01*
X143274500Y-81298125D01*
X143254815Y-81365164D01*
X143238182Y-81385806D01*
X143127030Y-81496958D01*
X143092744Y-81552544D01*
X143040795Y-81599268D01*
X142971833Y-81610489D01*
X142907751Y-81582645D01*
X142881668Y-81552544D01*
X142847573Y-81497268D01*
X142727732Y-81377427D01*
X142727728Y-81377424D01*
X142583492Y-81288457D01*
X142583481Y-81288452D01*
X142422606Y-81235144D01*
X142323322Y-81225000D01*
X142300000Y-81225000D01*
X142300000Y-82177500D01*
X142280315Y-82244539D01*
X142227511Y-82290294D01*
X142176000Y-82301500D01*
X141924000Y-82301500D01*
X141856961Y-82281815D01*
X141811206Y-82229011D01*
X141800000Y-82177500D01*
X141800000Y-81224999D01*
X141776693Y-81225000D01*
X141776674Y-81225001D01*
X141677392Y-81235144D01*
X141516518Y-81288452D01*
X141516507Y-81288457D01*
X141372271Y-81377424D01*
X141372264Y-81377430D01*
X141363028Y-81386665D01*
X141301703Y-81420146D01*
X141232011Y-81415157D01*
X141187672Y-81386659D01*
X141178046Y-81377033D01*
X141172590Y-81372719D01*
X141132213Y-81315697D01*
X141125500Y-81275452D01*
X141125500Y-80266519D01*
X141145185Y-80199480D01*
X141161818Y-80178839D01*
X141178283Y-80162374D01*
X141212319Y-80128337D01*
X141273640Y-80094853D01*
X141343331Y-80099837D01*
X141387680Y-80128338D01*
X141489811Y-80230469D01*
X141489813Y-80230470D01*
X141489815Y-80230472D01*
X141635394Y-80318478D01*
X141797804Y-80369086D01*
X141868384Y-80375500D01*
X141868387Y-80375500D01*
X142381613Y-80375500D01*
X142381616Y-80375500D01*
X142452196Y-80369086D01*
X142614606Y-80318478D01*
X142760185Y-80230472D01*
X142880472Y-80110185D01*
X142887266Y-80098946D01*
X142938790Y-80051760D01*
X143007649Y-80039919D01*
X143071978Y-80067187D01*
G37*
%TD.AperFunction*%
%TA.AperFunction,Conductor*%
G36*
X158936957Y-77238923D02*
G01*
X158992891Y-77280794D01*
X159012700Y-77320509D01*
X159021381Y-77350388D01*
X159031580Y-77367634D01*
X159040138Y-77385103D01*
X159047514Y-77403732D01*
X159074898Y-77441423D01*
X159078106Y-77446307D01*
X159101827Y-77486416D01*
X159101833Y-77486424D01*
X159115990Y-77500580D01*
X159128628Y-77515376D01*
X159140405Y-77531586D01*
X159140406Y-77531587D01*
X159176309Y-77561288D01*
X159180620Y-77565210D01*
X159624810Y-78009400D01*
X159890191Y-78274782D01*
X159923676Y-78336105D01*
X159918692Y-78405797D01*
X159876820Y-78461730D01*
X159841517Y-78480168D01*
X159816520Y-78488451D01*
X159816507Y-78488457D01*
X159672271Y-78577424D01*
X159672267Y-78577427D01*
X159552427Y-78697267D01*
X159552424Y-78697271D01*
X159463457Y-78841507D01*
X159463452Y-78841518D01*
X159410144Y-79002393D01*
X159400000Y-79101677D01*
X159400000Y-79150000D01*
X160476000Y-79150000D01*
X160543039Y-79169685D01*
X160588794Y-79222489D01*
X160600000Y-79274000D01*
X160600000Y-79526000D01*
X160580315Y-79593039D01*
X160527511Y-79638794D01*
X160476000Y-79650000D01*
X159400001Y-79650000D01*
X159400001Y-79698322D01*
X159410144Y-79797607D01*
X159463452Y-79958481D01*
X159463457Y-79958492D01*
X159507813Y-80030403D01*
X159526254Y-80097795D01*
X159505332Y-80164459D01*
X159451690Y-80209228D01*
X159402275Y-80219500D01*
X158964499Y-80219500D01*
X158897460Y-80199815D01*
X158851705Y-80147011D01*
X158840499Y-80095504D01*
X158840499Y-78697626D01*
X158837780Y-78663064D01*
X158794802Y-78515134D01*
X158744995Y-78430914D01*
X158716391Y-78382546D01*
X158716382Y-78382534D01*
X158607465Y-78273617D01*
X158607453Y-78273608D01*
X158474868Y-78195199D01*
X158474866Y-78195198D01*
X158464902Y-78192303D01*
X158406017Y-78154695D01*
X158376813Y-78091222D01*
X158375500Y-78073227D01*
X158375500Y-77592561D01*
X158395185Y-77525522D01*
X158447989Y-77479767D01*
X158460482Y-77474860D01*
X158581334Y-77434814D01*
X158730656Y-77342712D01*
X158805946Y-77267421D01*
X158867265Y-77233939D01*
X158936957Y-77238923D01*
G37*
%TD.AperFunction*%
%TA.AperFunction,Conductor*%
G36*
X150242730Y-70418185D02*
G01*
X150263372Y-70434819D01*
X150735471Y-70906918D01*
X150765496Y-70955594D01*
X150803116Y-71069124D01*
X150803186Y-71069333D01*
X150803187Y-71069336D01*
X150818604Y-71094331D01*
X150895288Y-71218656D01*
X151019344Y-71342712D01*
X151168666Y-71434814D01*
X151289506Y-71474856D01*
X151346949Y-71514627D01*
X151373772Y-71579143D01*
X151374500Y-71592561D01*
X151374500Y-75407438D01*
X151354815Y-75474477D01*
X151302011Y-75520232D01*
X151289507Y-75525143D01*
X151236195Y-75542809D01*
X151168666Y-75565186D01*
X151168663Y-75565187D01*
X151019342Y-75657289D01*
X150895289Y-75781342D01*
X150803187Y-75930663D01*
X150803185Y-75930668D01*
X150747998Y-76097210D01*
X150746582Y-76103826D01*
X150713294Y-76165256D01*
X150713013Y-76165538D01*
X150087680Y-76790871D01*
X150026357Y-76824356D01*
X149956665Y-76819372D01*
X149912318Y-76790871D01*
X148911893Y-75790446D01*
X148895684Y-75806654D01*
X148803643Y-75955875D01*
X148803641Y-75955880D01*
X148748494Y-76122302D01*
X148748493Y-76122309D01*
X148738000Y-76225013D01*
X148738000Y-76824971D01*
X148738001Y-76824987D01*
X148749182Y-76934431D01*
X148747063Y-76934647D01*
X148742601Y-76994224D01*
X148700542Y-77050016D01*
X148634996Y-77074213D01*
X148626566Y-77074500D01*
X147685452Y-77074500D01*
X147618413Y-77054815D01*
X147597771Y-77038181D01*
X147587675Y-77028085D01*
X147554190Y-76966762D01*
X147551998Y-76927801D01*
X147551998Y-76927799D01*
X147551999Y-76927797D01*
X147562500Y-76825009D01*
X147562499Y-76224992D01*
X147560763Y-76208001D01*
X147551999Y-76122203D01*
X147551998Y-76122200D01*
X147543715Y-76097203D01*
X147496814Y-75955666D01*
X147404712Y-75806344D01*
X147280656Y-75682288D01*
X147131334Y-75590186D01*
X147010494Y-75550143D01*
X146985487Y-75532829D01*
X149361381Y-75532829D01*
X150000000Y-76171447D01*
X150000001Y-76171447D01*
X150638617Y-75532828D01*
X150561980Y-75525000D01*
X149438029Y-75525000D01*
X149438008Y-75525002D01*
X149361382Y-75532828D01*
X149361381Y-75532829D01*
X146985487Y-75532829D01*
X146953051Y-75510371D01*
X146926228Y-75445855D01*
X146925500Y-75432438D01*
X146925500Y-71617561D01*
X146945185Y-71550522D01*
X146983675Y-71517170D01*
X149361382Y-71517170D01*
X149438019Y-71524999D01*
X150561971Y-71524999D01*
X150561987Y-71524998D01*
X150638617Y-71517169D01*
X150000001Y-70878553D01*
X150000000Y-70878553D01*
X149361382Y-71517170D01*
X146983675Y-71517170D01*
X146997989Y-71504767D01*
X147010482Y-71499860D01*
X147131334Y-71459814D01*
X147153534Y-71446120D01*
X147220925Y-71427679D01*
X147269068Y-71438379D01*
X147302727Y-71453366D01*
X147320192Y-71461142D01*
X147320197Y-71461144D01*
X147505354Y-71500500D01*
X147505355Y-71500500D01*
X147694644Y-71500500D01*
X147694646Y-71500500D01*
X147879803Y-71461144D01*
X148049566Y-71385559D01*
X148118813Y-71376275D01*
X148150430Y-71385557D01*
X148320197Y-71461144D01*
X148505354Y-71500500D01*
X148505355Y-71500500D01*
X148694644Y-71500500D01*
X148694646Y-71500500D01*
X148879803Y-71461144D01*
X149052730Y-71384151D01*
X149205871Y-71272888D01*
X149332533Y-71132216D01*
X149427179Y-70968284D01*
X149485674Y-70788256D01*
X149493120Y-70717403D01*
X149519705Y-70652791D01*
X149528760Y-70642686D01*
X149736628Y-70434819D01*
X149797951Y-70401334D01*
X149824309Y-70398500D01*
X150175691Y-70398500D01*
X150242730Y-70418185D01*
G37*
%TD.AperFunction*%
%TD*%
M02*
