%TF.GenerationSoftware,KiCad,Pcbnew,7.0.8*%
%TF.CreationDate,2023-11-29T21:04:09-06:00*%
%TF.ProjectId,Clock1_v2,436c6f63-6b31-45f7-9632-2e6b69636164,rev?*%
%TF.SameCoordinates,Original*%
%TF.FileFunction,Legend,Bot*%
%TF.FilePolarity,Positive*%
%FSLAX46Y46*%
G04 Gerber Fmt 4.6, Leading zero omitted, Abs format (unit mm)*
G04 Created by KiCad (PCBNEW 7.0.8) date 2023-11-29 21:04:09*
%MOMM*%
%LPD*%
G01*
G04 APERTURE LIST*
%ADD10C,0.200000*%
%ADD11C,0.160000*%
%ADD12C,0.120000*%
%ADD13C,0.100000*%
G04 APERTURE END LIST*
D10*
X122200000Y-110700000D02*
X134700000Y-110700000D01*
X134700000Y-114200000D01*
X122200000Y-114200000D01*
X122200000Y-110700000D01*
X112150000Y-84100000D02*
X143950000Y-84100000D01*
X143950000Y-115900000D01*
X112150000Y-115900000D01*
X112150000Y-84100000D01*
D11*
X137442857Y-83754299D02*
X137776190Y-83278108D01*
X138014285Y-83754299D02*
X138014285Y-82754299D01*
X138014285Y-82754299D02*
X137633333Y-82754299D01*
X137633333Y-82754299D02*
X137538095Y-82801918D01*
X137538095Y-82801918D02*
X137490476Y-82849537D01*
X137490476Y-82849537D02*
X137442857Y-82944775D01*
X137442857Y-82944775D02*
X137442857Y-83087632D01*
X137442857Y-83087632D02*
X137490476Y-83182870D01*
X137490476Y-83182870D02*
X137538095Y-83230489D01*
X137538095Y-83230489D02*
X137633333Y-83278108D01*
X137633333Y-83278108D02*
X138014285Y-83278108D01*
X136490476Y-83754299D02*
X137061904Y-83754299D01*
X136776190Y-83754299D02*
X136776190Y-82754299D01*
X136776190Y-82754299D02*
X136871428Y-82897156D01*
X136871428Y-82897156D02*
X136966666Y-82992394D01*
X136966666Y-82992394D02*
X137061904Y-83040013D01*
X135871428Y-82754299D02*
X135776190Y-82754299D01*
X135776190Y-82754299D02*
X135680952Y-82801918D01*
X135680952Y-82801918D02*
X135633333Y-82849537D01*
X135633333Y-82849537D02*
X135585714Y-82944775D01*
X135585714Y-82944775D02*
X135538095Y-83135251D01*
X135538095Y-83135251D02*
X135538095Y-83373346D01*
X135538095Y-83373346D02*
X135585714Y-83563822D01*
X135585714Y-83563822D02*
X135633333Y-83659060D01*
X135633333Y-83659060D02*
X135680952Y-83706680D01*
X135680952Y-83706680D02*
X135776190Y-83754299D01*
X135776190Y-83754299D02*
X135871428Y-83754299D01*
X135871428Y-83754299D02*
X135966666Y-83706680D01*
X135966666Y-83706680D02*
X136014285Y-83659060D01*
X136014285Y-83659060D02*
X136061904Y-83563822D01*
X136061904Y-83563822D02*
X136109523Y-83373346D01*
X136109523Y-83373346D02*
X136109523Y-83135251D01*
X136109523Y-83135251D02*
X136061904Y-82944775D01*
X136061904Y-82944775D02*
X136014285Y-82849537D01*
X136014285Y-82849537D02*
X135966666Y-82801918D01*
X135966666Y-82801918D02*
X135871428Y-82754299D01*
X132838094Y-82054299D02*
X132838094Y-81054299D01*
X132838094Y-81054299D02*
X132599999Y-81054299D01*
X132599999Y-81054299D02*
X132457142Y-81101918D01*
X132457142Y-81101918D02*
X132361904Y-81197156D01*
X132361904Y-81197156D02*
X132314285Y-81292394D01*
X132314285Y-81292394D02*
X132266666Y-81482870D01*
X132266666Y-81482870D02*
X132266666Y-81625727D01*
X132266666Y-81625727D02*
X132314285Y-81816203D01*
X132314285Y-81816203D02*
X132361904Y-81911441D01*
X132361904Y-81911441D02*
X132457142Y-82006680D01*
X132457142Y-82006680D02*
X132599999Y-82054299D01*
X132599999Y-82054299D02*
X132838094Y-82054299D01*
X131409523Y-81054299D02*
X131599999Y-81054299D01*
X131599999Y-81054299D02*
X131695237Y-81101918D01*
X131695237Y-81101918D02*
X131742856Y-81149537D01*
X131742856Y-81149537D02*
X131838094Y-81292394D01*
X131838094Y-81292394D02*
X131885713Y-81482870D01*
X131885713Y-81482870D02*
X131885713Y-81863822D01*
X131885713Y-81863822D02*
X131838094Y-81959060D01*
X131838094Y-81959060D02*
X131790475Y-82006680D01*
X131790475Y-82006680D02*
X131695237Y-82054299D01*
X131695237Y-82054299D02*
X131504761Y-82054299D01*
X131504761Y-82054299D02*
X131409523Y-82006680D01*
X131409523Y-82006680D02*
X131361904Y-81959060D01*
X131361904Y-81959060D02*
X131314285Y-81863822D01*
X131314285Y-81863822D02*
X131314285Y-81625727D01*
X131314285Y-81625727D02*
X131361904Y-81530489D01*
X131361904Y-81530489D02*
X131409523Y-81482870D01*
X131409523Y-81482870D02*
X131504761Y-81435251D01*
X131504761Y-81435251D02*
X131695237Y-81435251D01*
X131695237Y-81435251D02*
X131790475Y-81482870D01*
X131790475Y-81482870D02*
X131838094Y-81530489D01*
X131838094Y-81530489D02*
X131885713Y-81625727D01*
X104108332Y-95184680D02*
X103965475Y-95232299D01*
X103965475Y-95232299D02*
X103727380Y-95232299D01*
X103727380Y-95232299D02*
X103632142Y-95184680D01*
X103632142Y-95184680D02*
X103584523Y-95137060D01*
X103584523Y-95137060D02*
X103536904Y-95041822D01*
X103536904Y-95041822D02*
X103536904Y-94946584D01*
X103536904Y-94946584D02*
X103584523Y-94851346D01*
X103584523Y-94851346D02*
X103632142Y-94803727D01*
X103632142Y-94803727D02*
X103727380Y-94756108D01*
X103727380Y-94756108D02*
X103917856Y-94708489D01*
X103917856Y-94708489D02*
X104013094Y-94660870D01*
X104013094Y-94660870D02*
X104060713Y-94613251D01*
X104060713Y-94613251D02*
X104108332Y-94518013D01*
X104108332Y-94518013D02*
X104108332Y-94422775D01*
X104108332Y-94422775D02*
X104060713Y-94327537D01*
X104060713Y-94327537D02*
X104013094Y-94279918D01*
X104013094Y-94279918D02*
X103917856Y-94232299D01*
X103917856Y-94232299D02*
X103679761Y-94232299D01*
X103679761Y-94232299D02*
X103536904Y-94279918D01*
X103203570Y-94232299D02*
X102965475Y-95232299D01*
X102965475Y-95232299D02*
X102774999Y-94518013D01*
X102774999Y-94518013D02*
X102584523Y-95232299D01*
X102584523Y-95232299D02*
X102346428Y-94232299D01*
X102060713Y-94232299D02*
X101441666Y-94232299D01*
X101441666Y-94232299D02*
X101774999Y-94613251D01*
X101774999Y-94613251D02*
X101632142Y-94613251D01*
X101632142Y-94613251D02*
X101536904Y-94660870D01*
X101536904Y-94660870D02*
X101489285Y-94708489D01*
X101489285Y-94708489D02*
X101441666Y-94803727D01*
X101441666Y-94803727D02*
X101441666Y-95041822D01*
X101441666Y-95041822D02*
X101489285Y-95137060D01*
X101489285Y-95137060D02*
X101536904Y-95184680D01*
X101536904Y-95184680D02*
X101632142Y-95232299D01*
X101632142Y-95232299D02*
X101917856Y-95232299D01*
X101917856Y-95232299D02*
X102013094Y-95184680D01*
X102013094Y-95184680D02*
X102060713Y-95137060D01*
X104108332Y-113856680D02*
X103965475Y-113904299D01*
X103965475Y-113904299D02*
X103727380Y-113904299D01*
X103727380Y-113904299D02*
X103632142Y-113856680D01*
X103632142Y-113856680D02*
X103584523Y-113809060D01*
X103584523Y-113809060D02*
X103536904Y-113713822D01*
X103536904Y-113713822D02*
X103536904Y-113618584D01*
X103536904Y-113618584D02*
X103584523Y-113523346D01*
X103584523Y-113523346D02*
X103632142Y-113475727D01*
X103632142Y-113475727D02*
X103727380Y-113428108D01*
X103727380Y-113428108D02*
X103917856Y-113380489D01*
X103917856Y-113380489D02*
X104013094Y-113332870D01*
X104013094Y-113332870D02*
X104060713Y-113285251D01*
X104060713Y-113285251D02*
X104108332Y-113190013D01*
X104108332Y-113190013D02*
X104108332Y-113094775D01*
X104108332Y-113094775D02*
X104060713Y-112999537D01*
X104060713Y-112999537D02*
X104013094Y-112951918D01*
X104013094Y-112951918D02*
X103917856Y-112904299D01*
X103917856Y-112904299D02*
X103679761Y-112904299D01*
X103679761Y-112904299D02*
X103536904Y-112951918D01*
X103203570Y-112904299D02*
X102965475Y-113904299D01*
X102965475Y-113904299D02*
X102774999Y-113190013D01*
X102774999Y-113190013D02*
X102584523Y-113904299D01*
X102584523Y-113904299D02*
X102346428Y-112904299D01*
X101536904Y-112904299D02*
X101727380Y-112904299D01*
X101727380Y-112904299D02*
X101822618Y-112951918D01*
X101822618Y-112951918D02*
X101870237Y-112999537D01*
X101870237Y-112999537D02*
X101965475Y-113142394D01*
X101965475Y-113142394D02*
X102013094Y-113332870D01*
X102013094Y-113332870D02*
X102013094Y-113713822D01*
X102013094Y-113713822D02*
X101965475Y-113809060D01*
X101965475Y-113809060D02*
X101917856Y-113856680D01*
X101917856Y-113856680D02*
X101822618Y-113904299D01*
X101822618Y-113904299D02*
X101632142Y-113904299D01*
X101632142Y-113904299D02*
X101536904Y-113856680D01*
X101536904Y-113856680D02*
X101489285Y-113809060D01*
X101489285Y-113809060D02*
X101441666Y-113713822D01*
X101441666Y-113713822D02*
X101441666Y-113475727D01*
X101441666Y-113475727D02*
X101489285Y-113380489D01*
X101489285Y-113380489D02*
X101536904Y-113332870D01*
X101536904Y-113332870D02*
X101632142Y-113285251D01*
X101632142Y-113285251D02*
X101822618Y-113285251D01*
X101822618Y-113285251D02*
X101917856Y-113332870D01*
X101917856Y-113332870D02*
X101965475Y-113380489D01*
X101965475Y-113380489D02*
X102013094Y-113475727D01*
X104108332Y-107632680D02*
X103965475Y-107680299D01*
X103965475Y-107680299D02*
X103727380Y-107680299D01*
X103727380Y-107680299D02*
X103632142Y-107632680D01*
X103632142Y-107632680D02*
X103584523Y-107585060D01*
X103584523Y-107585060D02*
X103536904Y-107489822D01*
X103536904Y-107489822D02*
X103536904Y-107394584D01*
X103536904Y-107394584D02*
X103584523Y-107299346D01*
X103584523Y-107299346D02*
X103632142Y-107251727D01*
X103632142Y-107251727D02*
X103727380Y-107204108D01*
X103727380Y-107204108D02*
X103917856Y-107156489D01*
X103917856Y-107156489D02*
X104013094Y-107108870D01*
X104013094Y-107108870D02*
X104060713Y-107061251D01*
X104060713Y-107061251D02*
X104108332Y-106966013D01*
X104108332Y-106966013D02*
X104108332Y-106870775D01*
X104108332Y-106870775D02*
X104060713Y-106775537D01*
X104060713Y-106775537D02*
X104013094Y-106727918D01*
X104013094Y-106727918D02*
X103917856Y-106680299D01*
X103917856Y-106680299D02*
X103679761Y-106680299D01*
X103679761Y-106680299D02*
X103536904Y-106727918D01*
X103203570Y-106680299D02*
X102965475Y-107680299D01*
X102965475Y-107680299D02*
X102774999Y-106966013D01*
X102774999Y-106966013D02*
X102584523Y-107680299D01*
X102584523Y-107680299D02*
X102346428Y-106680299D01*
X101489285Y-106680299D02*
X101965475Y-106680299D01*
X101965475Y-106680299D02*
X102013094Y-107156489D01*
X102013094Y-107156489D02*
X101965475Y-107108870D01*
X101965475Y-107108870D02*
X101870237Y-107061251D01*
X101870237Y-107061251D02*
X101632142Y-107061251D01*
X101632142Y-107061251D02*
X101536904Y-107108870D01*
X101536904Y-107108870D02*
X101489285Y-107156489D01*
X101489285Y-107156489D02*
X101441666Y-107251727D01*
X101441666Y-107251727D02*
X101441666Y-107489822D01*
X101441666Y-107489822D02*
X101489285Y-107585060D01*
X101489285Y-107585060D02*
X101536904Y-107632680D01*
X101536904Y-107632680D02*
X101632142Y-107680299D01*
X101632142Y-107680299D02*
X101870237Y-107680299D01*
X101870237Y-107680299D02*
X101965475Y-107632680D01*
X101965475Y-107632680D02*
X102013094Y-107585060D01*
X145738094Y-82154299D02*
X145738094Y-81154299D01*
X145738094Y-81154299D02*
X145499999Y-81154299D01*
X145499999Y-81154299D02*
X145357142Y-81201918D01*
X145357142Y-81201918D02*
X145261904Y-81297156D01*
X145261904Y-81297156D02*
X145214285Y-81392394D01*
X145214285Y-81392394D02*
X145166666Y-81582870D01*
X145166666Y-81582870D02*
X145166666Y-81725727D01*
X145166666Y-81725727D02*
X145214285Y-81916203D01*
X145214285Y-81916203D02*
X145261904Y-82011441D01*
X145261904Y-82011441D02*
X145357142Y-82106680D01*
X145357142Y-82106680D02*
X145499999Y-82154299D01*
X145499999Y-82154299D02*
X145738094Y-82154299D01*
X144261904Y-81154299D02*
X144738094Y-81154299D01*
X144738094Y-81154299D02*
X144785713Y-81630489D01*
X144785713Y-81630489D02*
X144738094Y-81582870D01*
X144738094Y-81582870D02*
X144642856Y-81535251D01*
X144642856Y-81535251D02*
X144404761Y-81535251D01*
X144404761Y-81535251D02*
X144309523Y-81582870D01*
X144309523Y-81582870D02*
X144261904Y-81630489D01*
X144261904Y-81630489D02*
X144214285Y-81725727D01*
X144214285Y-81725727D02*
X144214285Y-81963822D01*
X144214285Y-81963822D02*
X144261904Y-82059060D01*
X144261904Y-82059060D02*
X144309523Y-82106680D01*
X144309523Y-82106680D02*
X144404761Y-82154299D01*
X144404761Y-82154299D02*
X144642856Y-82154299D01*
X144642856Y-82154299D02*
X144738094Y-82106680D01*
X144738094Y-82106680D02*
X144785713Y-82059060D01*
X109441666Y-80254299D02*
X109774999Y-79778108D01*
X110013094Y-80254299D02*
X110013094Y-79254299D01*
X110013094Y-79254299D02*
X109632142Y-79254299D01*
X109632142Y-79254299D02*
X109536904Y-79301918D01*
X109536904Y-79301918D02*
X109489285Y-79349537D01*
X109489285Y-79349537D02*
X109441666Y-79444775D01*
X109441666Y-79444775D02*
X109441666Y-79587632D01*
X109441666Y-79587632D02*
X109489285Y-79682870D01*
X109489285Y-79682870D02*
X109536904Y-79730489D01*
X109536904Y-79730489D02*
X109632142Y-79778108D01*
X109632142Y-79778108D02*
X110013094Y-79778108D01*
X108965475Y-80254299D02*
X108774999Y-80254299D01*
X108774999Y-80254299D02*
X108679761Y-80206680D01*
X108679761Y-80206680D02*
X108632142Y-80159060D01*
X108632142Y-80159060D02*
X108536904Y-80016203D01*
X108536904Y-80016203D02*
X108489285Y-79825727D01*
X108489285Y-79825727D02*
X108489285Y-79444775D01*
X108489285Y-79444775D02*
X108536904Y-79349537D01*
X108536904Y-79349537D02*
X108584523Y-79301918D01*
X108584523Y-79301918D02*
X108679761Y-79254299D01*
X108679761Y-79254299D02*
X108870237Y-79254299D01*
X108870237Y-79254299D02*
X108965475Y-79301918D01*
X108965475Y-79301918D02*
X109013094Y-79349537D01*
X109013094Y-79349537D02*
X109060713Y-79444775D01*
X109060713Y-79444775D02*
X109060713Y-79682870D01*
X109060713Y-79682870D02*
X109013094Y-79778108D01*
X109013094Y-79778108D02*
X108965475Y-79825727D01*
X108965475Y-79825727D02*
X108870237Y-79873346D01*
X108870237Y-79873346D02*
X108679761Y-79873346D01*
X108679761Y-79873346D02*
X108584523Y-79825727D01*
X108584523Y-79825727D02*
X108536904Y-79778108D01*
X108536904Y-79778108D02*
X108489285Y-79682870D01*
X104108332Y-101408680D02*
X103965475Y-101456299D01*
X103965475Y-101456299D02*
X103727380Y-101456299D01*
X103727380Y-101456299D02*
X103632142Y-101408680D01*
X103632142Y-101408680D02*
X103584523Y-101361060D01*
X103584523Y-101361060D02*
X103536904Y-101265822D01*
X103536904Y-101265822D02*
X103536904Y-101170584D01*
X103536904Y-101170584D02*
X103584523Y-101075346D01*
X103584523Y-101075346D02*
X103632142Y-101027727D01*
X103632142Y-101027727D02*
X103727380Y-100980108D01*
X103727380Y-100980108D02*
X103917856Y-100932489D01*
X103917856Y-100932489D02*
X104013094Y-100884870D01*
X104013094Y-100884870D02*
X104060713Y-100837251D01*
X104060713Y-100837251D02*
X104108332Y-100742013D01*
X104108332Y-100742013D02*
X104108332Y-100646775D01*
X104108332Y-100646775D02*
X104060713Y-100551537D01*
X104060713Y-100551537D02*
X104013094Y-100503918D01*
X104013094Y-100503918D02*
X103917856Y-100456299D01*
X103917856Y-100456299D02*
X103679761Y-100456299D01*
X103679761Y-100456299D02*
X103536904Y-100503918D01*
X103203570Y-100456299D02*
X102965475Y-101456299D01*
X102965475Y-101456299D02*
X102774999Y-100742013D01*
X102774999Y-100742013D02*
X102584523Y-101456299D01*
X102584523Y-101456299D02*
X102346428Y-100456299D01*
X101536904Y-100789632D02*
X101536904Y-101456299D01*
X101774999Y-100408680D02*
X102013094Y-101122965D01*
X102013094Y-101122965D02*
X101394047Y-101122965D01*
X115438094Y-80254299D02*
X115438094Y-79254299D01*
X115438094Y-79254299D02*
X115199999Y-79254299D01*
X115199999Y-79254299D02*
X115057142Y-79301918D01*
X115057142Y-79301918D02*
X114961904Y-79397156D01*
X114961904Y-79397156D02*
X114914285Y-79492394D01*
X114914285Y-79492394D02*
X114866666Y-79682870D01*
X114866666Y-79682870D02*
X114866666Y-79825727D01*
X114866666Y-79825727D02*
X114914285Y-80016203D01*
X114914285Y-80016203D02*
X114961904Y-80111441D01*
X114961904Y-80111441D02*
X115057142Y-80206680D01*
X115057142Y-80206680D02*
X115199999Y-80254299D01*
X115199999Y-80254299D02*
X115438094Y-80254299D01*
X114009523Y-79587632D02*
X114009523Y-80254299D01*
X114247618Y-79206680D02*
X114485713Y-79920965D01*
X114485713Y-79920965D02*
X113866666Y-79920965D01*
X124780357Y-83854299D02*
X125113690Y-83378108D01*
X125351785Y-83854299D02*
X125351785Y-82854299D01*
X125351785Y-82854299D02*
X124970833Y-82854299D01*
X124970833Y-82854299D02*
X124875595Y-82901918D01*
X124875595Y-82901918D02*
X124827976Y-82949537D01*
X124827976Y-82949537D02*
X124780357Y-83044775D01*
X124780357Y-83044775D02*
X124780357Y-83187632D01*
X124780357Y-83187632D02*
X124827976Y-83282870D01*
X124827976Y-83282870D02*
X124875595Y-83330489D01*
X124875595Y-83330489D02*
X124970833Y-83378108D01*
X124970833Y-83378108D02*
X125351785Y-83378108D01*
X123827976Y-83854299D02*
X124399404Y-83854299D01*
X124113690Y-83854299D02*
X124113690Y-82854299D01*
X124113690Y-82854299D02*
X124208928Y-82997156D01*
X124208928Y-82997156D02*
X124304166Y-83092394D01*
X124304166Y-83092394D02*
X124399404Y-83140013D01*
X122875595Y-83854299D02*
X123447023Y-83854299D01*
X123161309Y-83854299D02*
X123161309Y-82854299D01*
X123161309Y-82854299D02*
X123256547Y-82997156D01*
X123256547Y-82997156D02*
X123351785Y-83092394D01*
X123351785Y-83092394D02*
X123447023Y-83140013D01*
D12*
%TO.C,R10*%
X137527064Y-82510000D02*
X136072936Y-82510000D01*
X137527064Y-80690000D02*
X136072936Y-80690000D01*
%TO.C,D6*%
X130985000Y-82735000D02*
X127100000Y-82735000D01*
X130985000Y-80465000D02*
X130985000Y-82735000D01*
X127100000Y-80465000D02*
X130985000Y-80465000D01*
D13*
%TO.C,SW3*%
X109975000Y-92578000D02*
X104975000Y-92578000D01*
X104975000Y-92578000D02*
X104975000Y-96278000D01*
X104975000Y-96278000D02*
X109975000Y-96278000D01*
X109975000Y-96278000D02*
X109975000Y-92578000D01*
X108556665Y-94378000D02*
G75*
G03*
X108556665Y-94378000I-1081665J0D01*
G01*
%TO.C,SW6*%
X109975000Y-111250000D02*
X104975000Y-111250000D01*
X104975000Y-111250000D02*
X104975000Y-114950000D01*
X104975000Y-114950000D02*
X109975000Y-114950000D01*
X109975000Y-114950000D02*
X109975000Y-111250000D01*
X108556665Y-113050000D02*
G75*
G03*
X108556665Y-113050000I-1081665J0D01*
G01*
%TO.C,SW5*%
X109975000Y-105026000D02*
X104975000Y-105026000D01*
X104975000Y-105026000D02*
X104975000Y-108726000D01*
X104975000Y-108726000D02*
X109975000Y-108726000D01*
X109975000Y-108726000D02*
X109975000Y-105026000D01*
X108556665Y-106826000D02*
G75*
G03*
X108556665Y-106826000I-1081665J0D01*
G01*
D12*
%TO.C,D5*%
X143985000Y-82735000D02*
X140100000Y-82735000D01*
X143985000Y-80465000D02*
X143985000Y-82735000D01*
X140100000Y-80465000D02*
X143985000Y-80465000D01*
%TO.C,R9*%
X109964564Y-82510000D02*
X108510436Y-82510000D01*
X109964564Y-80690000D02*
X108510436Y-80690000D01*
D13*
%TO.C,SW4*%
X109975000Y-98802000D02*
X104975000Y-98802000D01*
X104975000Y-98802000D02*
X104975000Y-102502000D01*
X104975000Y-102502000D02*
X109975000Y-102502000D01*
X109975000Y-102502000D02*
X109975000Y-98802000D01*
X108556665Y-100602000D02*
G75*
G03*
X108556665Y-100602000I-1081665J0D01*
G01*
D12*
%TO.C,D4*%
X116685000Y-82735000D02*
X112800000Y-82735000D01*
X116685000Y-80465000D02*
X116685000Y-82735000D01*
X112800000Y-80465000D02*
X116685000Y-80465000D01*
%TO.C,R11*%
X124664564Y-82510000D02*
X123210436Y-82510000D01*
X124664564Y-80690000D02*
X123210436Y-80690000D01*
%TD*%
M02*
