%TF.GenerationSoftware,KiCad,Pcbnew,7.0.8*%
%TF.CreationDate,2023-11-29T21:04:09-06:00*%
%TF.ProjectId,Clock1_v2,436c6f63-6b31-45f7-9632-2e6b69636164,rev?*%
%TF.SameCoordinates,Original*%
%TF.FileFunction,Legend,Top*%
%TF.FilePolarity,Positive*%
%FSLAX46Y46*%
G04 Gerber Fmt 4.6, Leading zero omitted, Abs format (unit mm)*
G04 Created by KiCad (PCBNEW 7.0.8) date 2023-11-29 21:04:09*
%MOMM*%
%LPD*%
G01*
G04 APERTURE LIST*
%ADD10C,0.160000*%
%ADD11C,0.254000*%
%ADD12C,0.120000*%
%ADD13C,0.100000*%
%ADD14C,0.200000*%
G04 APERTURE END LIST*
D10*
X102866666Y-90254299D02*
X102866666Y-90968584D01*
X102866666Y-90968584D02*
X102819047Y-91111441D01*
X102819047Y-91111441D02*
X102723809Y-91206680D01*
X102723809Y-91206680D02*
X102580952Y-91254299D01*
X102580952Y-91254299D02*
X102485714Y-91254299D01*
X103866666Y-91254299D02*
X103295238Y-91254299D01*
X103580952Y-91254299D02*
X103580952Y-90254299D01*
X103580952Y-90254299D02*
X103485714Y-90397156D01*
X103485714Y-90397156D02*
X103390476Y-90492394D01*
X103390476Y-90492394D02*
X103295238Y-90540013D01*
X116016666Y-81959299D02*
X116016666Y-82673584D01*
X116016666Y-82673584D02*
X115969047Y-82816441D01*
X115969047Y-82816441D02*
X115873809Y-82911680D01*
X115873809Y-82911680D02*
X115730952Y-82959299D01*
X115730952Y-82959299D02*
X115635714Y-82959299D01*
X116445238Y-82054537D02*
X116492857Y-82006918D01*
X116492857Y-82006918D02*
X116588095Y-81959299D01*
X116588095Y-81959299D02*
X116826190Y-81959299D01*
X116826190Y-81959299D02*
X116921428Y-82006918D01*
X116921428Y-82006918D02*
X116969047Y-82054537D01*
X116969047Y-82054537D02*
X117016666Y-82149775D01*
X117016666Y-82149775D02*
X117016666Y-82245013D01*
X117016666Y-82245013D02*
X116969047Y-82387870D01*
X116969047Y-82387870D02*
X116397619Y-82959299D01*
X116397619Y-82959299D02*
X117016666Y-82959299D01*
D11*
X127532380Y-111804318D02*
X127532380Y-112832413D01*
X127532380Y-112832413D02*
X127592857Y-112953365D01*
X127592857Y-112953365D02*
X127653333Y-113013842D01*
X127653333Y-113013842D02*
X127774285Y-113074318D01*
X127774285Y-113074318D02*
X128016190Y-113074318D01*
X128016190Y-113074318D02*
X128137142Y-113013842D01*
X128137142Y-113013842D02*
X128197619Y-112953365D01*
X128197619Y-112953365D02*
X128258095Y-112832413D01*
X128258095Y-112832413D02*
X128258095Y-111804318D01*
X128741904Y-111804318D02*
X129528095Y-111804318D01*
X129528095Y-111804318D02*
X129104761Y-112288127D01*
X129104761Y-112288127D02*
X129286190Y-112288127D01*
X129286190Y-112288127D02*
X129407142Y-112348603D01*
X129407142Y-112348603D02*
X129467618Y-112409080D01*
X129467618Y-112409080D02*
X129528095Y-112530032D01*
X129528095Y-112530032D02*
X129528095Y-112832413D01*
X129528095Y-112832413D02*
X129467618Y-112953365D01*
X129467618Y-112953365D02*
X129407142Y-113013842D01*
X129407142Y-113013842D02*
X129286190Y-113074318D01*
X129286190Y-113074318D02*
X128923333Y-113074318D01*
X128923333Y-113074318D02*
X128802380Y-113013842D01*
X128802380Y-113013842D02*
X128741904Y-112953365D01*
D10*
X143657142Y-114834060D02*
X143609523Y-114881680D01*
X143609523Y-114881680D02*
X143466666Y-114929299D01*
X143466666Y-114929299D02*
X143371428Y-114929299D01*
X143371428Y-114929299D02*
X143228571Y-114881680D01*
X143228571Y-114881680D02*
X143133333Y-114786441D01*
X143133333Y-114786441D02*
X143085714Y-114691203D01*
X143085714Y-114691203D02*
X143038095Y-114500727D01*
X143038095Y-114500727D02*
X143038095Y-114357870D01*
X143038095Y-114357870D02*
X143085714Y-114167394D01*
X143085714Y-114167394D02*
X143133333Y-114072156D01*
X143133333Y-114072156D02*
X143228571Y-113976918D01*
X143228571Y-113976918D02*
X143371428Y-113929299D01*
X143371428Y-113929299D02*
X143466666Y-113929299D01*
X143466666Y-113929299D02*
X143609523Y-113976918D01*
X143609523Y-113976918D02*
X143657142Y-114024537D01*
X144609523Y-114929299D02*
X144038095Y-114929299D01*
X144323809Y-114929299D02*
X144323809Y-113929299D01*
X144323809Y-113929299D02*
X144228571Y-114072156D01*
X144228571Y-114072156D02*
X144133333Y-114167394D01*
X144133333Y-114167394D02*
X144038095Y-114215013D01*
X145085714Y-114929299D02*
X145276190Y-114929299D01*
X145276190Y-114929299D02*
X145371428Y-114881680D01*
X145371428Y-114881680D02*
X145419047Y-114834060D01*
X145419047Y-114834060D02*
X145514285Y-114691203D01*
X145514285Y-114691203D02*
X145561904Y-114500727D01*
X145561904Y-114500727D02*
X145561904Y-114119775D01*
X145561904Y-114119775D02*
X145514285Y-114024537D01*
X145514285Y-114024537D02*
X145466666Y-113976918D01*
X145466666Y-113976918D02*
X145371428Y-113929299D01*
X145371428Y-113929299D02*
X145180952Y-113929299D01*
X145180952Y-113929299D02*
X145085714Y-113976918D01*
X145085714Y-113976918D02*
X145038095Y-114024537D01*
X145038095Y-114024537D02*
X144990476Y-114119775D01*
X144990476Y-114119775D02*
X144990476Y-114357870D01*
X144990476Y-114357870D02*
X145038095Y-114453108D01*
X145038095Y-114453108D02*
X145085714Y-114500727D01*
X145085714Y-114500727D02*
X145180952Y-114548346D01*
X145180952Y-114548346D02*
X145371428Y-114548346D01*
X145371428Y-114548346D02*
X145466666Y-114500727D01*
X145466666Y-114500727D02*
X145514285Y-114453108D01*
X145514285Y-114453108D02*
X145561904Y-114357870D01*
X143657142Y-106834060D02*
X143609523Y-106881680D01*
X143609523Y-106881680D02*
X143466666Y-106929299D01*
X143466666Y-106929299D02*
X143371428Y-106929299D01*
X143371428Y-106929299D02*
X143228571Y-106881680D01*
X143228571Y-106881680D02*
X143133333Y-106786441D01*
X143133333Y-106786441D02*
X143085714Y-106691203D01*
X143085714Y-106691203D02*
X143038095Y-106500727D01*
X143038095Y-106500727D02*
X143038095Y-106357870D01*
X143038095Y-106357870D02*
X143085714Y-106167394D01*
X143085714Y-106167394D02*
X143133333Y-106072156D01*
X143133333Y-106072156D02*
X143228571Y-105976918D01*
X143228571Y-105976918D02*
X143371428Y-105929299D01*
X143371428Y-105929299D02*
X143466666Y-105929299D01*
X143466666Y-105929299D02*
X143609523Y-105976918D01*
X143609523Y-105976918D02*
X143657142Y-106024537D01*
X144609523Y-106929299D02*
X144038095Y-106929299D01*
X144323809Y-106929299D02*
X144323809Y-105929299D01*
X144323809Y-105929299D02*
X144228571Y-106072156D01*
X144228571Y-106072156D02*
X144133333Y-106167394D01*
X144133333Y-106167394D02*
X144038095Y-106215013D01*
X145466666Y-106262632D02*
X145466666Y-106929299D01*
X145228571Y-105881680D02*
X144990476Y-106595965D01*
X144990476Y-106595965D02*
X145609523Y-106595965D01*
X126459060Y-102242855D02*
X126506680Y-102290474D01*
X126506680Y-102290474D02*
X126554299Y-102433331D01*
X126554299Y-102433331D02*
X126554299Y-102528569D01*
X126554299Y-102528569D02*
X126506680Y-102671426D01*
X126506680Y-102671426D02*
X126411441Y-102766664D01*
X126411441Y-102766664D02*
X126316203Y-102814283D01*
X126316203Y-102814283D02*
X126125727Y-102861902D01*
X126125727Y-102861902D02*
X125982870Y-102861902D01*
X125982870Y-102861902D02*
X125792394Y-102814283D01*
X125792394Y-102814283D02*
X125697156Y-102766664D01*
X125697156Y-102766664D02*
X125601918Y-102671426D01*
X125601918Y-102671426D02*
X125554299Y-102528569D01*
X125554299Y-102528569D02*
X125554299Y-102433331D01*
X125554299Y-102433331D02*
X125601918Y-102290474D01*
X125601918Y-102290474D02*
X125649537Y-102242855D01*
X125649537Y-101861902D02*
X125601918Y-101814283D01*
X125601918Y-101814283D02*
X125554299Y-101719045D01*
X125554299Y-101719045D02*
X125554299Y-101480950D01*
X125554299Y-101480950D02*
X125601918Y-101385712D01*
X125601918Y-101385712D02*
X125649537Y-101338093D01*
X125649537Y-101338093D02*
X125744775Y-101290474D01*
X125744775Y-101290474D02*
X125840013Y-101290474D01*
X125840013Y-101290474D02*
X125982870Y-101338093D01*
X125982870Y-101338093D02*
X126554299Y-101909521D01*
X126554299Y-101909521D02*
X126554299Y-101290474D01*
X125554299Y-100957140D02*
X125554299Y-100338093D01*
X125554299Y-100338093D02*
X125935251Y-100671426D01*
X125935251Y-100671426D02*
X125935251Y-100528569D01*
X125935251Y-100528569D02*
X125982870Y-100433331D01*
X125982870Y-100433331D02*
X126030489Y-100385712D01*
X126030489Y-100385712D02*
X126125727Y-100338093D01*
X126125727Y-100338093D02*
X126363822Y-100338093D01*
X126363822Y-100338093D02*
X126459060Y-100385712D01*
X126459060Y-100385712D02*
X126506680Y-100433331D01*
X126506680Y-100433331D02*
X126554299Y-100528569D01*
X126554299Y-100528569D02*
X126554299Y-100814283D01*
X126554299Y-100814283D02*
X126506680Y-100909521D01*
X126506680Y-100909521D02*
X126459060Y-100957140D01*
X143657142Y-110034060D02*
X143609523Y-110081680D01*
X143609523Y-110081680D02*
X143466666Y-110129299D01*
X143466666Y-110129299D02*
X143371428Y-110129299D01*
X143371428Y-110129299D02*
X143228571Y-110081680D01*
X143228571Y-110081680D02*
X143133333Y-109986441D01*
X143133333Y-109986441D02*
X143085714Y-109891203D01*
X143085714Y-109891203D02*
X143038095Y-109700727D01*
X143038095Y-109700727D02*
X143038095Y-109557870D01*
X143038095Y-109557870D02*
X143085714Y-109367394D01*
X143085714Y-109367394D02*
X143133333Y-109272156D01*
X143133333Y-109272156D02*
X143228571Y-109176918D01*
X143228571Y-109176918D02*
X143371428Y-109129299D01*
X143371428Y-109129299D02*
X143466666Y-109129299D01*
X143466666Y-109129299D02*
X143609523Y-109176918D01*
X143609523Y-109176918D02*
X143657142Y-109224537D01*
X144609523Y-110129299D02*
X144038095Y-110129299D01*
X144323809Y-110129299D02*
X144323809Y-109129299D01*
X144323809Y-109129299D02*
X144228571Y-109272156D01*
X144228571Y-109272156D02*
X144133333Y-109367394D01*
X144133333Y-109367394D02*
X144038095Y-109415013D01*
X145466666Y-109129299D02*
X145276190Y-109129299D01*
X145276190Y-109129299D02*
X145180952Y-109176918D01*
X145180952Y-109176918D02*
X145133333Y-109224537D01*
X145133333Y-109224537D02*
X145038095Y-109367394D01*
X145038095Y-109367394D02*
X144990476Y-109557870D01*
X144990476Y-109557870D02*
X144990476Y-109938822D01*
X144990476Y-109938822D02*
X145038095Y-110034060D01*
X145038095Y-110034060D02*
X145085714Y-110081680D01*
X145085714Y-110081680D02*
X145180952Y-110129299D01*
X145180952Y-110129299D02*
X145371428Y-110129299D01*
X145371428Y-110129299D02*
X145466666Y-110081680D01*
X145466666Y-110081680D02*
X145514285Y-110034060D01*
X145514285Y-110034060D02*
X145561904Y-109938822D01*
X145561904Y-109938822D02*
X145561904Y-109700727D01*
X145561904Y-109700727D02*
X145514285Y-109605489D01*
X145514285Y-109605489D02*
X145466666Y-109557870D01*
X145466666Y-109557870D02*
X145371428Y-109510251D01*
X145371428Y-109510251D02*
X145180952Y-109510251D01*
X145180952Y-109510251D02*
X145085714Y-109557870D01*
X145085714Y-109557870D02*
X145038095Y-109605489D01*
X145038095Y-109605489D02*
X144990476Y-109700727D01*
X127111905Y-109754297D02*
X127111905Y-108754297D01*
X127111905Y-108754297D02*
X127350000Y-108754297D01*
X127350000Y-108754297D02*
X127492857Y-108801916D01*
X127492857Y-108801916D02*
X127588095Y-108897154D01*
X127588095Y-108897154D02*
X127635714Y-108992392D01*
X127635714Y-108992392D02*
X127683333Y-109182868D01*
X127683333Y-109182868D02*
X127683333Y-109325725D01*
X127683333Y-109325725D02*
X127635714Y-109516201D01*
X127635714Y-109516201D02*
X127588095Y-109611439D01*
X127588095Y-109611439D02*
X127492857Y-109706678D01*
X127492857Y-109706678D02*
X127350000Y-109754297D01*
X127350000Y-109754297D02*
X127111905Y-109754297D01*
X128016667Y-108754297D02*
X128635714Y-108754297D01*
X128635714Y-108754297D02*
X128302381Y-109135249D01*
X128302381Y-109135249D02*
X128445238Y-109135249D01*
X128445238Y-109135249D02*
X128540476Y-109182868D01*
X128540476Y-109182868D02*
X128588095Y-109230487D01*
X128588095Y-109230487D02*
X128635714Y-109325725D01*
X128635714Y-109325725D02*
X128635714Y-109563820D01*
X128635714Y-109563820D02*
X128588095Y-109659058D01*
X128588095Y-109659058D02*
X128540476Y-109706678D01*
X128540476Y-109706678D02*
X128445238Y-109754297D01*
X128445238Y-109754297D02*
X128159524Y-109754297D01*
X128159524Y-109754297D02*
X128064286Y-109706678D01*
X128064286Y-109706678D02*
X128016667Y-109659058D01*
X134859060Y-99322855D02*
X134906680Y-99370474D01*
X134906680Y-99370474D02*
X134954299Y-99513331D01*
X134954299Y-99513331D02*
X134954299Y-99608569D01*
X134954299Y-99608569D02*
X134906680Y-99751426D01*
X134906680Y-99751426D02*
X134811441Y-99846664D01*
X134811441Y-99846664D02*
X134716203Y-99894283D01*
X134716203Y-99894283D02*
X134525727Y-99941902D01*
X134525727Y-99941902D02*
X134382870Y-99941902D01*
X134382870Y-99941902D02*
X134192394Y-99894283D01*
X134192394Y-99894283D02*
X134097156Y-99846664D01*
X134097156Y-99846664D02*
X134001918Y-99751426D01*
X134001918Y-99751426D02*
X133954299Y-99608569D01*
X133954299Y-99608569D02*
X133954299Y-99513331D01*
X133954299Y-99513331D02*
X134001918Y-99370474D01*
X134001918Y-99370474D02*
X134049537Y-99322855D01*
X134049537Y-98941902D02*
X134001918Y-98894283D01*
X134001918Y-98894283D02*
X133954299Y-98799045D01*
X133954299Y-98799045D02*
X133954299Y-98560950D01*
X133954299Y-98560950D02*
X134001918Y-98465712D01*
X134001918Y-98465712D02*
X134049537Y-98418093D01*
X134049537Y-98418093D02*
X134144775Y-98370474D01*
X134144775Y-98370474D02*
X134240013Y-98370474D01*
X134240013Y-98370474D02*
X134382870Y-98418093D01*
X134382870Y-98418093D02*
X134954299Y-98989521D01*
X134954299Y-98989521D02*
X134954299Y-98370474D01*
X134382870Y-97799045D02*
X134335251Y-97894283D01*
X134335251Y-97894283D02*
X134287632Y-97941902D01*
X134287632Y-97941902D02*
X134192394Y-97989521D01*
X134192394Y-97989521D02*
X134144775Y-97989521D01*
X134144775Y-97989521D02*
X134049537Y-97941902D01*
X134049537Y-97941902D02*
X134001918Y-97894283D01*
X134001918Y-97894283D02*
X133954299Y-97799045D01*
X133954299Y-97799045D02*
X133954299Y-97608569D01*
X133954299Y-97608569D02*
X134001918Y-97513331D01*
X134001918Y-97513331D02*
X134049537Y-97465712D01*
X134049537Y-97465712D02*
X134144775Y-97418093D01*
X134144775Y-97418093D02*
X134192394Y-97418093D01*
X134192394Y-97418093D02*
X134287632Y-97465712D01*
X134287632Y-97465712D02*
X134335251Y-97513331D01*
X134335251Y-97513331D02*
X134382870Y-97608569D01*
X134382870Y-97608569D02*
X134382870Y-97799045D01*
X134382870Y-97799045D02*
X134430489Y-97894283D01*
X134430489Y-97894283D02*
X134478108Y-97941902D01*
X134478108Y-97941902D02*
X134573346Y-97989521D01*
X134573346Y-97989521D02*
X134763822Y-97989521D01*
X134763822Y-97989521D02*
X134859060Y-97941902D01*
X134859060Y-97941902D02*
X134906680Y-97894283D01*
X134906680Y-97894283D02*
X134954299Y-97799045D01*
X134954299Y-97799045D02*
X134954299Y-97608569D01*
X134954299Y-97608569D02*
X134906680Y-97513331D01*
X134906680Y-97513331D02*
X134859060Y-97465712D01*
X134859060Y-97465712D02*
X134763822Y-97418093D01*
X134763822Y-97418093D02*
X134573346Y-97418093D01*
X134573346Y-97418093D02*
X134478108Y-97465712D01*
X134478108Y-97465712D02*
X134430489Y-97513331D01*
X134430489Y-97513331D02*
X134382870Y-97608569D01*
X122261905Y-109554299D02*
X122261905Y-108554299D01*
X122261905Y-108554299D02*
X122500000Y-108554299D01*
X122500000Y-108554299D02*
X122642857Y-108601918D01*
X122642857Y-108601918D02*
X122738095Y-108697156D01*
X122738095Y-108697156D02*
X122785714Y-108792394D01*
X122785714Y-108792394D02*
X122833333Y-108982870D01*
X122833333Y-108982870D02*
X122833333Y-109125727D01*
X122833333Y-109125727D02*
X122785714Y-109316203D01*
X122785714Y-109316203D02*
X122738095Y-109411441D01*
X122738095Y-109411441D02*
X122642857Y-109506680D01*
X122642857Y-109506680D02*
X122500000Y-109554299D01*
X122500000Y-109554299D02*
X122261905Y-109554299D01*
X123214286Y-108649537D02*
X123261905Y-108601918D01*
X123261905Y-108601918D02*
X123357143Y-108554299D01*
X123357143Y-108554299D02*
X123595238Y-108554299D01*
X123595238Y-108554299D02*
X123690476Y-108601918D01*
X123690476Y-108601918D02*
X123738095Y-108649537D01*
X123738095Y-108649537D02*
X123785714Y-108744775D01*
X123785714Y-108744775D02*
X123785714Y-108840013D01*
X123785714Y-108840013D02*
X123738095Y-108982870D01*
X123738095Y-108982870D02*
X123166667Y-109554299D01*
X123166667Y-109554299D02*
X123785714Y-109554299D01*
X143657142Y-111634060D02*
X143609523Y-111681680D01*
X143609523Y-111681680D02*
X143466666Y-111729299D01*
X143466666Y-111729299D02*
X143371428Y-111729299D01*
X143371428Y-111729299D02*
X143228571Y-111681680D01*
X143228571Y-111681680D02*
X143133333Y-111586441D01*
X143133333Y-111586441D02*
X143085714Y-111491203D01*
X143085714Y-111491203D02*
X143038095Y-111300727D01*
X143038095Y-111300727D02*
X143038095Y-111157870D01*
X143038095Y-111157870D02*
X143085714Y-110967394D01*
X143085714Y-110967394D02*
X143133333Y-110872156D01*
X143133333Y-110872156D02*
X143228571Y-110776918D01*
X143228571Y-110776918D02*
X143371428Y-110729299D01*
X143371428Y-110729299D02*
X143466666Y-110729299D01*
X143466666Y-110729299D02*
X143609523Y-110776918D01*
X143609523Y-110776918D02*
X143657142Y-110824537D01*
X144609523Y-111729299D02*
X144038095Y-111729299D01*
X144323809Y-111729299D02*
X144323809Y-110729299D01*
X144323809Y-110729299D02*
X144228571Y-110872156D01*
X144228571Y-110872156D02*
X144133333Y-110967394D01*
X144133333Y-110967394D02*
X144038095Y-111015013D01*
X144942857Y-110729299D02*
X145609523Y-110729299D01*
X145609523Y-110729299D02*
X145180952Y-111729299D01*
X123359060Y-102217855D02*
X123406680Y-102265474D01*
X123406680Y-102265474D02*
X123454299Y-102408331D01*
X123454299Y-102408331D02*
X123454299Y-102503569D01*
X123454299Y-102503569D02*
X123406680Y-102646426D01*
X123406680Y-102646426D02*
X123311441Y-102741664D01*
X123311441Y-102741664D02*
X123216203Y-102789283D01*
X123216203Y-102789283D02*
X123025727Y-102836902D01*
X123025727Y-102836902D02*
X122882870Y-102836902D01*
X122882870Y-102836902D02*
X122692394Y-102789283D01*
X122692394Y-102789283D02*
X122597156Y-102741664D01*
X122597156Y-102741664D02*
X122501918Y-102646426D01*
X122501918Y-102646426D02*
X122454299Y-102503569D01*
X122454299Y-102503569D02*
X122454299Y-102408331D01*
X122454299Y-102408331D02*
X122501918Y-102265474D01*
X122501918Y-102265474D02*
X122549537Y-102217855D01*
X122549537Y-101836902D02*
X122501918Y-101789283D01*
X122501918Y-101789283D02*
X122454299Y-101694045D01*
X122454299Y-101694045D02*
X122454299Y-101455950D01*
X122454299Y-101455950D02*
X122501918Y-101360712D01*
X122501918Y-101360712D02*
X122549537Y-101313093D01*
X122549537Y-101313093D02*
X122644775Y-101265474D01*
X122644775Y-101265474D02*
X122740013Y-101265474D01*
X122740013Y-101265474D02*
X122882870Y-101313093D01*
X122882870Y-101313093D02*
X123454299Y-101884521D01*
X123454299Y-101884521D02*
X123454299Y-101265474D01*
X122787632Y-100408331D02*
X123454299Y-100408331D01*
X122406680Y-100646426D02*
X123120965Y-100884521D01*
X123120965Y-100884521D02*
X123120965Y-100265474D01*
X143733333Y-98884060D02*
X143685714Y-98931680D01*
X143685714Y-98931680D02*
X143542857Y-98979299D01*
X143542857Y-98979299D02*
X143447619Y-98979299D01*
X143447619Y-98979299D02*
X143304762Y-98931680D01*
X143304762Y-98931680D02*
X143209524Y-98836441D01*
X143209524Y-98836441D02*
X143161905Y-98741203D01*
X143161905Y-98741203D02*
X143114286Y-98550727D01*
X143114286Y-98550727D02*
X143114286Y-98407870D01*
X143114286Y-98407870D02*
X143161905Y-98217394D01*
X143161905Y-98217394D02*
X143209524Y-98122156D01*
X143209524Y-98122156D02*
X143304762Y-98026918D01*
X143304762Y-98026918D02*
X143447619Y-97979299D01*
X143447619Y-97979299D02*
X143542857Y-97979299D01*
X143542857Y-97979299D02*
X143685714Y-98026918D01*
X143685714Y-98026918D02*
X143733333Y-98074537D01*
X144209524Y-98979299D02*
X144400000Y-98979299D01*
X144400000Y-98979299D02*
X144495238Y-98931680D01*
X144495238Y-98931680D02*
X144542857Y-98884060D01*
X144542857Y-98884060D02*
X144638095Y-98741203D01*
X144638095Y-98741203D02*
X144685714Y-98550727D01*
X144685714Y-98550727D02*
X144685714Y-98169775D01*
X144685714Y-98169775D02*
X144638095Y-98074537D01*
X144638095Y-98074537D02*
X144590476Y-98026918D01*
X144590476Y-98026918D02*
X144495238Y-97979299D01*
X144495238Y-97979299D02*
X144304762Y-97979299D01*
X144304762Y-97979299D02*
X144209524Y-98026918D01*
X144209524Y-98026918D02*
X144161905Y-98074537D01*
X144161905Y-98074537D02*
X144114286Y-98169775D01*
X144114286Y-98169775D02*
X144114286Y-98407870D01*
X144114286Y-98407870D02*
X144161905Y-98503108D01*
X144161905Y-98503108D02*
X144209524Y-98550727D01*
X144209524Y-98550727D02*
X144304762Y-98598346D01*
X144304762Y-98598346D02*
X144495238Y-98598346D01*
X144495238Y-98598346D02*
X144590476Y-98550727D01*
X144590476Y-98550727D02*
X144638095Y-98503108D01*
X144638095Y-98503108D02*
X144685714Y-98407870D01*
X113483333Y-93754299D02*
X113150000Y-93278108D01*
X112911905Y-93754299D02*
X112911905Y-92754299D01*
X112911905Y-92754299D02*
X113292857Y-92754299D01*
X113292857Y-92754299D02*
X113388095Y-92801918D01*
X113388095Y-92801918D02*
X113435714Y-92849537D01*
X113435714Y-92849537D02*
X113483333Y-92944775D01*
X113483333Y-92944775D02*
X113483333Y-93087632D01*
X113483333Y-93087632D02*
X113435714Y-93182870D01*
X113435714Y-93182870D02*
X113388095Y-93230489D01*
X113388095Y-93230489D02*
X113292857Y-93278108D01*
X113292857Y-93278108D02*
X112911905Y-93278108D01*
X113864286Y-92849537D02*
X113911905Y-92801918D01*
X113911905Y-92801918D02*
X114007143Y-92754299D01*
X114007143Y-92754299D02*
X114245238Y-92754299D01*
X114245238Y-92754299D02*
X114340476Y-92801918D01*
X114340476Y-92801918D02*
X114388095Y-92849537D01*
X114388095Y-92849537D02*
X114435714Y-92944775D01*
X114435714Y-92944775D02*
X114435714Y-93040013D01*
X114435714Y-93040013D02*
X114388095Y-93182870D01*
X114388095Y-93182870D02*
X113816667Y-93754299D01*
X113816667Y-93754299D02*
X114435714Y-93754299D01*
X113206680Y-114033332D02*
X113254299Y-113890475D01*
X113254299Y-113890475D02*
X113254299Y-113652380D01*
X113254299Y-113652380D02*
X113206680Y-113557142D01*
X113206680Y-113557142D02*
X113159060Y-113509523D01*
X113159060Y-113509523D02*
X113063822Y-113461904D01*
X113063822Y-113461904D02*
X112968584Y-113461904D01*
X112968584Y-113461904D02*
X112873346Y-113509523D01*
X112873346Y-113509523D02*
X112825727Y-113557142D01*
X112825727Y-113557142D02*
X112778108Y-113652380D01*
X112778108Y-113652380D02*
X112730489Y-113842856D01*
X112730489Y-113842856D02*
X112682870Y-113938094D01*
X112682870Y-113938094D02*
X112635251Y-113985713D01*
X112635251Y-113985713D02*
X112540013Y-114033332D01*
X112540013Y-114033332D02*
X112444775Y-114033332D01*
X112444775Y-114033332D02*
X112349537Y-113985713D01*
X112349537Y-113985713D02*
X112301918Y-113938094D01*
X112301918Y-113938094D02*
X112254299Y-113842856D01*
X112254299Y-113842856D02*
X112254299Y-113604761D01*
X112254299Y-113604761D02*
X112301918Y-113461904D01*
X112254299Y-113128570D02*
X113254299Y-112890475D01*
X113254299Y-112890475D02*
X112540013Y-112699999D01*
X112540013Y-112699999D02*
X113254299Y-112509523D01*
X113254299Y-112509523D02*
X112254299Y-112271428D01*
X112254299Y-111985713D02*
X112254299Y-111319047D01*
X112254299Y-111319047D02*
X113254299Y-111747618D01*
X116278333Y-102059060D02*
X116230714Y-102106680D01*
X116230714Y-102106680D02*
X116087857Y-102154299D01*
X116087857Y-102154299D02*
X115992619Y-102154299D01*
X115992619Y-102154299D02*
X115849762Y-102106680D01*
X115849762Y-102106680D02*
X115754524Y-102011441D01*
X115754524Y-102011441D02*
X115706905Y-101916203D01*
X115706905Y-101916203D02*
X115659286Y-101725727D01*
X115659286Y-101725727D02*
X115659286Y-101582870D01*
X115659286Y-101582870D02*
X115706905Y-101392394D01*
X115706905Y-101392394D02*
X115754524Y-101297156D01*
X115754524Y-101297156D02*
X115849762Y-101201918D01*
X115849762Y-101201918D02*
X115992619Y-101154299D01*
X115992619Y-101154299D02*
X116087857Y-101154299D01*
X116087857Y-101154299D02*
X116230714Y-101201918D01*
X116230714Y-101201918D02*
X116278333Y-101249537D01*
X117183095Y-101154299D02*
X116706905Y-101154299D01*
X116706905Y-101154299D02*
X116659286Y-101630489D01*
X116659286Y-101630489D02*
X116706905Y-101582870D01*
X116706905Y-101582870D02*
X116802143Y-101535251D01*
X116802143Y-101535251D02*
X117040238Y-101535251D01*
X117040238Y-101535251D02*
X117135476Y-101582870D01*
X117135476Y-101582870D02*
X117183095Y-101630489D01*
X117183095Y-101630489D02*
X117230714Y-101725727D01*
X117230714Y-101725727D02*
X117230714Y-101963822D01*
X117230714Y-101963822D02*
X117183095Y-102059060D01*
X117183095Y-102059060D02*
X117135476Y-102106680D01*
X117135476Y-102106680D02*
X117040238Y-102154299D01*
X117040238Y-102154299D02*
X116802143Y-102154299D01*
X116802143Y-102154299D02*
X116706905Y-102106680D01*
X116706905Y-102106680D02*
X116659286Y-102059060D01*
X143657142Y-105234060D02*
X143609523Y-105281680D01*
X143609523Y-105281680D02*
X143466666Y-105329299D01*
X143466666Y-105329299D02*
X143371428Y-105329299D01*
X143371428Y-105329299D02*
X143228571Y-105281680D01*
X143228571Y-105281680D02*
X143133333Y-105186441D01*
X143133333Y-105186441D02*
X143085714Y-105091203D01*
X143085714Y-105091203D02*
X143038095Y-104900727D01*
X143038095Y-104900727D02*
X143038095Y-104757870D01*
X143038095Y-104757870D02*
X143085714Y-104567394D01*
X143085714Y-104567394D02*
X143133333Y-104472156D01*
X143133333Y-104472156D02*
X143228571Y-104376918D01*
X143228571Y-104376918D02*
X143371428Y-104329299D01*
X143371428Y-104329299D02*
X143466666Y-104329299D01*
X143466666Y-104329299D02*
X143609523Y-104376918D01*
X143609523Y-104376918D02*
X143657142Y-104424537D01*
X144609523Y-105329299D02*
X144038095Y-105329299D01*
X144323809Y-105329299D02*
X144323809Y-104329299D01*
X144323809Y-104329299D02*
X144228571Y-104472156D01*
X144228571Y-104472156D02*
X144133333Y-104567394D01*
X144133333Y-104567394D02*
X144038095Y-104615013D01*
X144942857Y-104329299D02*
X145561904Y-104329299D01*
X145561904Y-104329299D02*
X145228571Y-104710251D01*
X145228571Y-104710251D02*
X145371428Y-104710251D01*
X145371428Y-104710251D02*
X145466666Y-104757870D01*
X145466666Y-104757870D02*
X145514285Y-104805489D01*
X145514285Y-104805489D02*
X145561904Y-104900727D01*
X145561904Y-104900727D02*
X145561904Y-105138822D01*
X145561904Y-105138822D02*
X145514285Y-105234060D01*
X145514285Y-105234060D02*
X145466666Y-105281680D01*
X145466666Y-105281680D02*
X145371428Y-105329299D01*
X145371428Y-105329299D02*
X145085714Y-105329299D01*
X145085714Y-105329299D02*
X144990476Y-105281680D01*
X144990476Y-105281680D02*
X144942857Y-105234060D01*
X124959060Y-102242855D02*
X125006680Y-102290474D01*
X125006680Y-102290474D02*
X125054299Y-102433331D01*
X125054299Y-102433331D02*
X125054299Y-102528569D01*
X125054299Y-102528569D02*
X125006680Y-102671426D01*
X125006680Y-102671426D02*
X124911441Y-102766664D01*
X124911441Y-102766664D02*
X124816203Y-102814283D01*
X124816203Y-102814283D02*
X124625727Y-102861902D01*
X124625727Y-102861902D02*
X124482870Y-102861902D01*
X124482870Y-102861902D02*
X124292394Y-102814283D01*
X124292394Y-102814283D02*
X124197156Y-102766664D01*
X124197156Y-102766664D02*
X124101918Y-102671426D01*
X124101918Y-102671426D02*
X124054299Y-102528569D01*
X124054299Y-102528569D02*
X124054299Y-102433331D01*
X124054299Y-102433331D02*
X124101918Y-102290474D01*
X124101918Y-102290474D02*
X124149537Y-102242855D01*
X124149537Y-101861902D02*
X124101918Y-101814283D01*
X124101918Y-101814283D02*
X124054299Y-101719045D01*
X124054299Y-101719045D02*
X124054299Y-101480950D01*
X124054299Y-101480950D02*
X124101918Y-101385712D01*
X124101918Y-101385712D02*
X124149537Y-101338093D01*
X124149537Y-101338093D02*
X124244775Y-101290474D01*
X124244775Y-101290474D02*
X124340013Y-101290474D01*
X124340013Y-101290474D02*
X124482870Y-101338093D01*
X124482870Y-101338093D02*
X125054299Y-101909521D01*
X125054299Y-101909521D02*
X125054299Y-101290474D01*
X124149537Y-100909521D02*
X124101918Y-100861902D01*
X124101918Y-100861902D02*
X124054299Y-100766664D01*
X124054299Y-100766664D02*
X124054299Y-100528569D01*
X124054299Y-100528569D02*
X124101918Y-100433331D01*
X124101918Y-100433331D02*
X124149537Y-100385712D01*
X124149537Y-100385712D02*
X124244775Y-100338093D01*
X124244775Y-100338093D02*
X124340013Y-100338093D01*
X124340013Y-100338093D02*
X124482870Y-100385712D01*
X124482870Y-100385712D02*
X125054299Y-100957140D01*
X125054299Y-100957140D02*
X125054299Y-100338093D01*
X143757142Y-100459060D02*
X143709523Y-100506680D01*
X143709523Y-100506680D02*
X143566666Y-100554299D01*
X143566666Y-100554299D02*
X143471428Y-100554299D01*
X143471428Y-100554299D02*
X143328571Y-100506680D01*
X143328571Y-100506680D02*
X143233333Y-100411441D01*
X143233333Y-100411441D02*
X143185714Y-100316203D01*
X143185714Y-100316203D02*
X143138095Y-100125727D01*
X143138095Y-100125727D02*
X143138095Y-99982870D01*
X143138095Y-99982870D02*
X143185714Y-99792394D01*
X143185714Y-99792394D02*
X143233333Y-99697156D01*
X143233333Y-99697156D02*
X143328571Y-99601918D01*
X143328571Y-99601918D02*
X143471428Y-99554299D01*
X143471428Y-99554299D02*
X143566666Y-99554299D01*
X143566666Y-99554299D02*
X143709523Y-99601918D01*
X143709523Y-99601918D02*
X143757142Y-99649537D01*
X144709523Y-100554299D02*
X144138095Y-100554299D01*
X144423809Y-100554299D02*
X144423809Y-99554299D01*
X144423809Y-99554299D02*
X144328571Y-99697156D01*
X144328571Y-99697156D02*
X144233333Y-99792394D01*
X144233333Y-99792394D02*
X144138095Y-99840013D01*
X145328571Y-99554299D02*
X145423809Y-99554299D01*
X145423809Y-99554299D02*
X145519047Y-99601918D01*
X145519047Y-99601918D02*
X145566666Y-99649537D01*
X145566666Y-99649537D02*
X145614285Y-99744775D01*
X145614285Y-99744775D02*
X145661904Y-99935251D01*
X145661904Y-99935251D02*
X145661904Y-100173346D01*
X145661904Y-100173346D02*
X145614285Y-100363822D01*
X145614285Y-100363822D02*
X145566666Y-100459060D01*
X145566666Y-100459060D02*
X145519047Y-100506680D01*
X145519047Y-100506680D02*
X145423809Y-100554299D01*
X145423809Y-100554299D02*
X145328571Y-100554299D01*
X145328571Y-100554299D02*
X145233333Y-100506680D01*
X145233333Y-100506680D02*
X145185714Y-100459060D01*
X145185714Y-100459060D02*
X145138095Y-100363822D01*
X145138095Y-100363822D02*
X145090476Y-100173346D01*
X145090476Y-100173346D02*
X145090476Y-99935251D01*
X145090476Y-99935251D02*
X145138095Y-99744775D01*
X145138095Y-99744775D02*
X145185714Y-99649537D01*
X145185714Y-99649537D02*
X145233333Y-99601918D01*
X145233333Y-99601918D02*
X145328571Y-99554299D01*
X137608333Y-98909060D02*
X137560714Y-98956680D01*
X137560714Y-98956680D02*
X137417857Y-99004299D01*
X137417857Y-99004299D02*
X137322619Y-99004299D01*
X137322619Y-99004299D02*
X137179762Y-98956680D01*
X137179762Y-98956680D02*
X137084524Y-98861441D01*
X137084524Y-98861441D02*
X137036905Y-98766203D01*
X137036905Y-98766203D02*
X136989286Y-98575727D01*
X136989286Y-98575727D02*
X136989286Y-98432870D01*
X136989286Y-98432870D02*
X137036905Y-98242394D01*
X137036905Y-98242394D02*
X137084524Y-98147156D01*
X137084524Y-98147156D02*
X137179762Y-98051918D01*
X137179762Y-98051918D02*
X137322619Y-98004299D01*
X137322619Y-98004299D02*
X137417857Y-98004299D01*
X137417857Y-98004299D02*
X137560714Y-98051918D01*
X137560714Y-98051918D02*
X137608333Y-98099537D01*
X138560714Y-99004299D02*
X137989286Y-99004299D01*
X138275000Y-99004299D02*
X138275000Y-98004299D01*
X138275000Y-98004299D02*
X138179762Y-98147156D01*
X138179762Y-98147156D02*
X138084524Y-98242394D01*
X138084524Y-98242394D02*
X137989286Y-98290013D01*
X143657142Y-108434060D02*
X143609523Y-108481680D01*
X143609523Y-108481680D02*
X143466666Y-108529299D01*
X143466666Y-108529299D02*
X143371428Y-108529299D01*
X143371428Y-108529299D02*
X143228571Y-108481680D01*
X143228571Y-108481680D02*
X143133333Y-108386441D01*
X143133333Y-108386441D02*
X143085714Y-108291203D01*
X143085714Y-108291203D02*
X143038095Y-108100727D01*
X143038095Y-108100727D02*
X143038095Y-107957870D01*
X143038095Y-107957870D02*
X143085714Y-107767394D01*
X143085714Y-107767394D02*
X143133333Y-107672156D01*
X143133333Y-107672156D02*
X143228571Y-107576918D01*
X143228571Y-107576918D02*
X143371428Y-107529299D01*
X143371428Y-107529299D02*
X143466666Y-107529299D01*
X143466666Y-107529299D02*
X143609523Y-107576918D01*
X143609523Y-107576918D02*
X143657142Y-107624537D01*
X144609523Y-108529299D02*
X144038095Y-108529299D01*
X144323809Y-108529299D02*
X144323809Y-107529299D01*
X144323809Y-107529299D02*
X144228571Y-107672156D01*
X144228571Y-107672156D02*
X144133333Y-107767394D01*
X144133333Y-107767394D02*
X144038095Y-107815013D01*
X145514285Y-107529299D02*
X145038095Y-107529299D01*
X145038095Y-107529299D02*
X144990476Y-108005489D01*
X144990476Y-108005489D02*
X145038095Y-107957870D01*
X145038095Y-107957870D02*
X145133333Y-107910251D01*
X145133333Y-107910251D02*
X145371428Y-107910251D01*
X145371428Y-107910251D02*
X145466666Y-107957870D01*
X145466666Y-107957870D02*
X145514285Y-108005489D01*
X145514285Y-108005489D02*
X145561904Y-108100727D01*
X145561904Y-108100727D02*
X145561904Y-108338822D01*
X145561904Y-108338822D02*
X145514285Y-108434060D01*
X145514285Y-108434060D02*
X145466666Y-108481680D01*
X145466666Y-108481680D02*
X145371428Y-108529299D01*
X145371428Y-108529299D02*
X145133333Y-108529299D01*
X145133333Y-108529299D02*
X145038095Y-108481680D01*
X145038095Y-108481680D02*
X144990476Y-108434060D01*
X143657142Y-113159060D02*
X143609523Y-113206680D01*
X143609523Y-113206680D02*
X143466666Y-113254299D01*
X143466666Y-113254299D02*
X143371428Y-113254299D01*
X143371428Y-113254299D02*
X143228571Y-113206680D01*
X143228571Y-113206680D02*
X143133333Y-113111441D01*
X143133333Y-113111441D02*
X143085714Y-113016203D01*
X143085714Y-113016203D02*
X143038095Y-112825727D01*
X143038095Y-112825727D02*
X143038095Y-112682870D01*
X143038095Y-112682870D02*
X143085714Y-112492394D01*
X143085714Y-112492394D02*
X143133333Y-112397156D01*
X143133333Y-112397156D02*
X143228571Y-112301918D01*
X143228571Y-112301918D02*
X143371428Y-112254299D01*
X143371428Y-112254299D02*
X143466666Y-112254299D01*
X143466666Y-112254299D02*
X143609523Y-112301918D01*
X143609523Y-112301918D02*
X143657142Y-112349537D01*
X144609523Y-113254299D02*
X144038095Y-113254299D01*
X144323809Y-113254299D02*
X144323809Y-112254299D01*
X144323809Y-112254299D02*
X144228571Y-112397156D01*
X144228571Y-112397156D02*
X144133333Y-112492394D01*
X144133333Y-112492394D02*
X144038095Y-112540013D01*
X145180952Y-112682870D02*
X145085714Y-112635251D01*
X145085714Y-112635251D02*
X145038095Y-112587632D01*
X145038095Y-112587632D02*
X144990476Y-112492394D01*
X144990476Y-112492394D02*
X144990476Y-112444775D01*
X144990476Y-112444775D02*
X145038095Y-112349537D01*
X145038095Y-112349537D02*
X145085714Y-112301918D01*
X145085714Y-112301918D02*
X145180952Y-112254299D01*
X145180952Y-112254299D02*
X145371428Y-112254299D01*
X145371428Y-112254299D02*
X145466666Y-112301918D01*
X145466666Y-112301918D02*
X145514285Y-112349537D01*
X145514285Y-112349537D02*
X145561904Y-112444775D01*
X145561904Y-112444775D02*
X145561904Y-112492394D01*
X145561904Y-112492394D02*
X145514285Y-112587632D01*
X145514285Y-112587632D02*
X145466666Y-112635251D01*
X145466666Y-112635251D02*
X145371428Y-112682870D01*
X145371428Y-112682870D02*
X145180952Y-112682870D01*
X145180952Y-112682870D02*
X145085714Y-112730489D01*
X145085714Y-112730489D02*
X145038095Y-112778108D01*
X145038095Y-112778108D02*
X144990476Y-112873346D01*
X144990476Y-112873346D02*
X144990476Y-113063822D01*
X144990476Y-113063822D02*
X145038095Y-113159060D01*
X145038095Y-113159060D02*
X145085714Y-113206680D01*
X145085714Y-113206680D02*
X145180952Y-113254299D01*
X145180952Y-113254299D02*
X145371428Y-113254299D01*
X145371428Y-113254299D02*
X145466666Y-113206680D01*
X145466666Y-113206680D02*
X145514285Y-113159060D01*
X145514285Y-113159060D02*
X145561904Y-113063822D01*
X145561904Y-113063822D02*
X145561904Y-112873346D01*
X145561904Y-112873346D02*
X145514285Y-112778108D01*
X145514285Y-112778108D02*
X145466666Y-112730489D01*
X145466666Y-112730489D02*
X145371428Y-112682870D01*
X135033333Y-101659060D02*
X134985714Y-101706680D01*
X134985714Y-101706680D02*
X134842857Y-101754299D01*
X134842857Y-101754299D02*
X134747619Y-101754299D01*
X134747619Y-101754299D02*
X134604762Y-101706680D01*
X134604762Y-101706680D02*
X134509524Y-101611441D01*
X134509524Y-101611441D02*
X134461905Y-101516203D01*
X134461905Y-101516203D02*
X134414286Y-101325727D01*
X134414286Y-101325727D02*
X134414286Y-101182870D01*
X134414286Y-101182870D02*
X134461905Y-100992394D01*
X134461905Y-100992394D02*
X134509524Y-100897156D01*
X134509524Y-100897156D02*
X134604762Y-100801918D01*
X134604762Y-100801918D02*
X134747619Y-100754299D01*
X134747619Y-100754299D02*
X134842857Y-100754299D01*
X134842857Y-100754299D02*
X134985714Y-100801918D01*
X134985714Y-100801918D02*
X135033333Y-100849537D01*
X135414286Y-100849537D02*
X135461905Y-100801918D01*
X135461905Y-100801918D02*
X135557143Y-100754299D01*
X135557143Y-100754299D02*
X135795238Y-100754299D01*
X135795238Y-100754299D02*
X135890476Y-100801918D01*
X135890476Y-100801918D02*
X135938095Y-100849537D01*
X135938095Y-100849537D02*
X135985714Y-100944775D01*
X135985714Y-100944775D02*
X135985714Y-101040013D01*
X135985714Y-101040013D02*
X135938095Y-101182870D01*
X135938095Y-101182870D02*
X135366667Y-101754299D01*
X135366667Y-101754299D02*
X135985714Y-101754299D01*
X115033333Y-106659060D02*
X114985714Y-106706680D01*
X114985714Y-106706680D02*
X114842857Y-106754299D01*
X114842857Y-106754299D02*
X114747619Y-106754299D01*
X114747619Y-106754299D02*
X114604762Y-106706680D01*
X114604762Y-106706680D02*
X114509524Y-106611441D01*
X114509524Y-106611441D02*
X114461905Y-106516203D01*
X114461905Y-106516203D02*
X114414286Y-106325727D01*
X114414286Y-106325727D02*
X114414286Y-106182870D01*
X114414286Y-106182870D02*
X114461905Y-105992394D01*
X114461905Y-105992394D02*
X114509524Y-105897156D01*
X114509524Y-105897156D02*
X114604762Y-105801918D01*
X114604762Y-105801918D02*
X114747619Y-105754299D01*
X114747619Y-105754299D02*
X114842857Y-105754299D01*
X114842857Y-105754299D02*
X114985714Y-105801918D01*
X114985714Y-105801918D02*
X115033333Y-105849537D01*
X115366667Y-105754299D02*
X115985714Y-105754299D01*
X115985714Y-105754299D02*
X115652381Y-106135251D01*
X115652381Y-106135251D02*
X115795238Y-106135251D01*
X115795238Y-106135251D02*
X115890476Y-106182870D01*
X115890476Y-106182870D02*
X115938095Y-106230489D01*
X115938095Y-106230489D02*
X115985714Y-106325727D01*
X115985714Y-106325727D02*
X115985714Y-106563822D01*
X115985714Y-106563822D02*
X115938095Y-106659060D01*
X115938095Y-106659060D02*
X115890476Y-106706680D01*
X115890476Y-106706680D02*
X115795238Y-106754299D01*
X115795238Y-106754299D02*
X115509524Y-106754299D01*
X115509524Y-106754299D02*
X115414286Y-106706680D01*
X115414286Y-106706680D02*
X115366667Y-106659060D01*
X133233333Y-102754297D02*
X132757143Y-102754297D01*
X132757143Y-102754297D02*
X132757143Y-101754297D01*
X134090476Y-102754297D02*
X133519048Y-102754297D01*
X133804762Y-102754297D02*
X133804762Y-101754297D01*
X133804762Y-101754297D02*
X133709524Y-101897154D01*
X133709524Y-101897154D02*
X133614286Y-101992392D01*
X133614286Y-101992392D02*
X133519048Y-102040011D01*
X103054299Y-109291666D02*
X102578108Y-109624999D01*
X103054299Y-109863094D02*
X102054299Y-109863094D01*
X102054299Y-109863094D02*
X102054299Y-109482142D01*
X102054299Y-109482142D02*
X102101918Y-109386904D01*
X102101918Y-109386904D02*
X102149537Y-109339285D01*
X102149537Y-109339285D02*
X102244775Y-109291666D01*
X102244775Y-109291666D02*
X102387632Y-109291666D01*
X102387632Y-109291666D02*
X102482870Y-109339285D01*
X102482870Y-109339285D02*
X102530489Y-109386904D01*
X102530489Y-109386904D02*
X102578108Y-109482142D01*
X102578108Y-109482142D02*
X102578108Y-109863094D01*
X102054299Y-108958332D02*
X102054299Y-108291666D01*
X102054299Y-108291666D02*
X103054299Y-108720237D01*
X143657142Y-103659060D02*
X143609523Y-103706680D01*
X143609523Y-103706680D02*
X143466666Y-103754299D01*
X143466666Y-103754299D02*
X143371428Y-103754299D01*
X143371428Y-103754299D02*
X143228571Y-103706680D01*
X143228571Y-103706680D02*
X143133333Y-103611441D01*
X143133333Y-103611441D02*
X143085714Y-103516203D01*
X143085714Y-103516203D02*
X143038095Y-103325727D01*
X143038095Y-103325727D02*
X143038095Y-103182870D01*
X143038095Y-103182870D02*
X143085714Y-102992394D01*
X143085714Y-102992394D02*
X143133333Y-102897156D01*
X143133333Y-102897156D02*
X143228571Y-102801918D01*
X143228571Y-102801918D02*
X143371428Y-102754299D01*
X143371428Y-102754299D02*
X143466666Y-102754299D01*
X143466666Y-102754299D02*
X143609523Y-102801918D01*
X143609523Y-102801918D02*
X143657142Y-102849537D01*
X144609523Y-103754299D02*
X144038095Y-103754299D01*
X144323809Y-103754299D02*
X144323809Y-102754299D01*
X144323809Y-102754299D02*
X144228571Y-102897156D01*
X144228571Y-102897156D02*
X144133333Y-102992394D01*
X144133333Y-102992394D02*
X144038095Y-103040013D01*
X144990476Y-102849537D02*
X145038095Y-102801918D01*
X145038095Y-102801918D02*
X145133333Y-102754299D01*
X145133333Y-102754299D02*
X145371428Y-102754299D01*
X145371428Y-102754299D02*
X145466666Y-102801918D01*
X145466666Y-102801918D02*
X145514285Y-102849537D01*
X145514285Y-102849537D02*
X145561904Y-102944775D01*
X145561904Y-102944775D02*
X145561904Y-103040013D01*
X145561904Y-103040013D02*
X145514285Y-103182870D01*
X145514285Y-103182870D02*
X144942857Y-103754299D01*
X144942857Y-103754299D02*
X145561904Y-103754299D01*
X103054299Y-103941666D02*
X102578108Y-104274999D01*
X103054299Y-104513094D02*
X102054299Y-104513094D01*
X102054299Y-104513094D02*
X102054299Y-104132142D01*
X102054299Y-104132142D02*
X102101918Y-104036904D01*
X102101918Y-104036904D02*
X102149537Y-103989285D01*
X102149537Y-103989285D02*
X102244775Y-103941666D01*
X102244775Y-103941666D02*
X102387632Y-103941666D01*
X102387632Y-103941666D02*
X102482870Y-103989285D01*
X102482870Y-103989285D02*
X102530489Y-104036904D01*
X102530489Y-104036904D02*
X102578108Y-104132142D01*
X102578108Y-104132142D02*
X102578108Y-104513094D01*
X102054299Y-103084523D02*
X102054299Y-103274999D01*
X102054299Y-103274999D02*
X102101918Y-103370237D01*
X102101918Y-103370237D02*
X102149537Y-103417856D01*
X102149537Y-103417856D02*
X102292394Y-103513094D01*
X102292394Y-103513094D02*
X102482870Y-103560713D01*
X102482870Y-103560713D02*
X102863822Y-103560713D01*
X102863822Y-103560713D02*
X102959060Y-103513094D01*
X102959060Y-103513094D02*
X103006680Y-103465475D01*
X103006680Y-103465475D02*
X103054299Y-103370237D01*
X103054299Y-103370237D02*
X103054299Y-103179761D01*
X103054299Y-103179761D02*
X103006680Y-103084523D01*
X103006680Y-103084523D02*
X102959060Y-103036904D01*
X102959060Y-103036904D02*
X102863822Y-102989285D01*
X102863822Y-102989285D02*
X102625727Y-102989285D01*
X102625727Y-102989285D02*
X102530489Y-103036904D01*
X102530489Y-103036904D02*
X102482870Y-103084523D01*
X102482870Y-103084523D02*
X102435251Y-103179761D01*
X102435251Y-103179761D02*
X102435251Y-103370237D01*
X102435251Y-103370237D02*
X102482870Y-103465475D01*
X102482870Y-103465475D02*
X102530489Y-103513094D01*
X102530489Y-103513094D02*
X102625727Y-103560713D01*
X134207142Y-105659058D02*
X134159523Y-105706678D01*
X134159523Y-105706678D02*
X134016666Y-105754297D01*
X134016666Y-105754297D02*
X133921428Y-105754297D01*
X133921428Y-105754297D02*
X133778571Y-105706678D01*
X133778571Y-105706678D02*
X133683333Y-105611439D01*
X133683333Y-105611439D02*
X133635714Y-105516201D01*
X133635714Y-105516201D02*
X133588095Y-105325725D01*
X133588095Y-105325725D02*
X133588095Y-105182868D01*
X133588095Y-105182868D02*
X133635714Y-104992392D01*
X133635714Y-104992392D02*
X133683333Y-104897154D01*
X133683333Y-104897154D02*
X133778571Y-104801916D01*
X133778571Y-104801916D02*
X133921428Y-104754297D01*
X133921428Y-104754297D02*
X134016666Y-104754297D01*
X134016666Y-104754297D02*
X134159523Y-104801916D01*
X134159523Y-104801916D02*
X134207142Y-104849535D01*
X134588095Y-104849535D02*
X134635714Y-104801916D01*
X134635714Y-104801916D02*
X134730952Y-104754297D01*
X134730952Y-104754297D02*
X134969047Y-104754297D01*
X134969047Y-104754297D02*
X135064285Y-104801916D01*
X135064285Y-104801916D02*
X135111904Y-104849535D01*
X135111904Y-104849535D02*
X135159523Y-104944773D01*
X135159523Y-104944773D02*
X135159523Y-105040011D01*
X135159523Y-105040011D02*
X135111904Y-105182868D01*
X135111904Y-105182868D02*
X134540476Y-105754297D01*
X134540476Y-105754297D02*
X135159523Y-105754297D01*
X135778571Y-104754297D02*
X135873809Y-104754297D01*
X135873809Y-104754297D02*
X135969047Y-104801916D01*
X135969047Y-104801916D02*
X136016666Y-104849535D01*
X136016666Y-104849535D02*
X136064285Y-104944773D01*
X136064285Y-104944773D02*
X136111904Y-105135249D01*
X136111904Y-105135249D02*
X136111904Y-105373344D01*
X136111904Y-105373344D02*
X136064285Y-105563820D01*
X136064285Y-105563820D02*
X136016666Y-105659058D01*
X136016666Y-105659058D02*
X135969047Y-105706678D01*
X135969047Y-105706678D02*
X135873809Y-105754297D01*
X135873809Y-105754297D02*
X135778571Y-105754297D01*
X135778571Y-105754297D02*
X135683333Y-105706678D01*
X135683333Y-105706678D02*
X135635714Y-105659058D01*
X135635714Y-105659058D02*
X135588095Y-105563820D01*
X135588095Y-105563820D02*
X135540476Y-105373344D01*
X135540476Y-105373344D02*
X135540476Y-105135249D01*
X135540476Y-105135249D02*
X135588095Y-104944773D01*
X135588095Y-104944773D02*
X135635714Y-104849535D01*
X135635714Y-104849535D02*
X135683333Y-104801916D01*
X135683333Y-104801916D02*
X135778571Y-104754297D01*
X116433333Y-100559060D02*
X116385714Y-100606680D01*
X116385714Y-100606680D02*
X116242857Y-100654299D01*
X116242857Y-100654299D02*
X116147619Y-100654299D01*
X116147619Y-100654299D02*
X116004762Y-100606680D01*
X116004762Y-100606680D02*
X115909524Y-100511441D01*
X115909524Y-100511441D02*
X115861905Y-100416203D01*
X115861905Y-100416203D02*
X115814286Y-100225727D01*
X115814286Y-100225727D02*
X115814286Y-100082870D01*
X115814286Y-100082870D02*
X115861905Y-99892394D01*
X115861905Y-99892394D02*
X115909524Y-99797156D01*
X115909524Y-99797156D02*
X116004762Y-99701918D01*
X116004762Y-99701918D02*
X116147619Y-99654299D01*
X116147619Y-99654299D02*
X116242857Y-99654299D01*
X116242857Y-99654299D02*
X116385714Y-99701918D01*
X116385714Y-99701918D02*
X116433333Y-99749537D01*
X117290476Y-99987632D02*
X117290476Y-100654299D01*
X117052381Y-99606680D02*
X116814286Y-100320965D01*
X116814286Y-100320965D02*
X117433333Y-100320965D01*
X117357142Y-106659058D02*
X117309523Y-106706678D01*
X117309523Y-106706678D02*
X117166666Y-106754297D01*
X117166666Y-106754297D02*
X117071428Y-106754297D01*
X117071428Y-106754297D02*
X116928571Y-106706678D01*
X116928571Y-106706678D02*
X116833333Y-106611439D01*
X116833333Y-106611439D02*
X116785714Y-106516201D01*
X116785714Y-106516201D02*
X116738095Y-106325725D01*
X116738095Y-106325725D02*
X116738095Y-106182868D01*
X116738095Y-106182868D02*
X116785714Y-105992392D01*
X116785714Y-105992392D02*
X116833333Y-105897154D01*
X116833333Y-105897154D02*
X116928571Y-105801916D01*
X116928571Y-105801916D02*
X117071428Y-105754297D01*
X117071428Y-105754297D02*
X117166666Y-105754297D01*
X117166666Y-105754297D02*
X117309523Y-105801916D01*
X117309523Y-105801916D02*
X117357142Y-105849535D01*
X117738095Y-105849535D02*
X117785714Y-105801916D01*
X117785714Y-105801916D02*
X117880952Y-105754297D01*
X117880952Y-105754297D02*
X118119047Y-105754297D01*
X118119047Y-105754297D02*
X118214285Y-105801916D01*
X118214285Y-105801916D02*
X118261904Y-105849535D01*
X118261904Y-105849535D02*
X118309523Y-105944773D01*
X118309523Y-105944773D02*
X118309523Y-106040011D01*
X118309523Y-106040011D02*
X118261904Y-106182868D01*
X118261904Y-106182868D02*
X117690476Y-106754297D01*
X117690476Y-106754297D02*
X118309523Y-106754297D01*
X119261904Y-106754297D02*
X118690476Y-106754297D01*
X118976190Y-106754297D02*
X118976190Y-105754297D01*
X118976190Y-105754297D02*
X118880952Y-105897154D01*
X118880952Y-105897154D02*
X118785714Y-105992392D01*
X118785714Y-105992392D02*
X118690476Y-106040011D01*
X103154299Y-114841666D02*
X102678108Y-115174999D01*
X103154299Y-115413094D02*
X102154299Y-115413094D01*
X102154299Y-115413094D02*
X102154299Y-115032142D01*
X102154299Y-115032142D02*
X102201918Y-114936904D01*
X102201918Y-114936904D02*
X102249537Y-114889285D01*
X102249537Y-114889285D02*
X102344775Y-114841666D01*
X102344775Y-114841666D02*
X102487632Y-114841666D01*
X102487632Y-114841666D02*
X102582870Y-114889285D01*
X102582870Y-114889285D02*
X102630489Y-114936904D01*
X102630489Y-114936904D02*
X102678108Y-115032142D01*
X102678108Y-115032142D02*
X102678108Y-115413094D01*
X102582870Y-114270237D02*
X102535251Y-114365475D01*
X102535251Y-114365475D02*
X102487632Y-114413094D01*
X102487632Y-114413094D02*
X102392394Y-114460713D01*
X102392394Y-114460713D02*
X102344775Y-114460713D01*
X102344775Y-114460713D02*
X102249537Y-114413094D01*
X102249537Y-114413094D02*
X102201918Y-114365475D01*
X102201918Y-114365475D02*
X102154299Y-114270237D01*
X102154299Y-114270237D02*
X102154299Y-114079761D01*
X102154299Y-114079761D02*
X102201918Y-113984523D01*
X102201918Y-113984523D02*
X102249537Y-113936904D01*
X102249537Y-113936904D02*
X102344775Y-113889285D01*
X102344775Y-113889285D02*
X102392394Y-113889285D01*
X102392394Y-113889285D02*
X102487632Y-113936904D01*
X102487632Y-113936904D02*
X102535251Y-113984523D01*
X102535251Y-113984523D02*
X102582870Y-114079761D01*
X102582870Y-114079761D02*
X102582870Y-114270237D01*
X102582870Y-114270237D02*
X102630489Y-114365475D01*
X102630489Y-114365475D02*
X102678108Y-114413094D01*
X102678108Y-114413094D02*
X102773346Y-114460713D01*
X102773346Y-114460713D02*
X102963822Y-114460713D01*
X102963822Y-114460713D02*
X103059060Y-114413094D01*
X103059060Y-114413094D02*
X103106680Y-114365475D01*
X103106680Y-114365475D02*
X103154299Y-114270237D01*
X103154299Y-114270237D02*
X103154299Y-114079761D01*
X103154299Y-114079761D02*
X103106680Y-113984523D01*
X103106680Y-113984523D02*
X103059060Y-113936904D01*
X103059060Y-113936904D02*
X102963822Y-113889285D01*
X102963822Y-113889285D02*
X102773346Y-113889285D01*
X102773346Y-113889285D02*
X102678108Y-113936904D01*
X102678108Y-113936904D02*
X102630489Y-113984523D01*
X102630489Y-113984523D02*
X102582870Y-114079761D01*
X138404761Y-109949537D02*
X138309523Y-109901918D01*
X138309523Y-109901918D02*
X138214285Y-109806680D01*
X138214285Y-109806680D02*
X138071428Y-109663822D01*
X138071428Y-109663822D02*
X137976190Y-109616203D01*
X137976190Y-109616203D02*
X137880952Y-109616203D01*
X137928571Y-109854299D02*
X137833333Y-109806680D01*
X137833333Y-109806680D02*
X137738095Y-109711441D01*
X137738095Y-109711441D02*
X137690476Y-109520965D01*
X137690476Y-109520965D02*
X137690476Y-109187632D01*
X137690476Y-109187632D02*
X137738095Y-108997156D01*
X137738095Y-108997156D02*
X137833333Y-108901918D01*
X137833333Y-108901918D02*
X137928571Y-108854299D01*
X137928571Y-108854299D02*
X138119047Y-108854299D01*
X138119047Y-108854299D02*
X138214285Y-108901918D01*
X138214285Y-108901918D02*
X138309523Y-108997156D01*
X138309523Y-108997156D02*
X138357142Y-109187632D01*
X138357142Y-109187632D02*
X138357142Y-109520965D01*
X138357142Y-109520965D02*
X138309523Y-109711441D01*
X138309523Y-109711441D02*
X138214285Y-109806680D01*
X138214285Y-109806680D02*
X138119047Y-109854299D01*
X138119047Y-109854299D02*
X137928571Y-109854299D01*
X139309523Y-109854299D02*
X138738095Y-109854299D01*
X139023809Y-109854299D02*
X139023809Y-108854299D01*
X139023809Y-108854299D02*
X138928571Y-108997156D01*
X138928571Y-108997156D02*
X138833333Y-109092394D01*
X138833333Y-109092394D02*
X138738095Y-109140013D01*
X124433333Y-99854299D02*
X124100000Y-99378108D01*
X123861905Y-99854299D02*
X123861905Y-98854299D01*
X123861905Y-98854299D02*
X124242857Y-98854299D01*
X124242857Y-98854299D02*
X124338095Y-98901918D01*
X124338095Y-98901918D02*
X124385714Y-98949537D01*
X124385714Y-98949537D02*
X124433333Y-99044775D01*
X124433333Y-99044775D02*
X124433333Y-99187632D01*
X124433333Y-99187632D02*
X124385714Y-99282870D01*
X124385714Y-99282870D02*
X124338095Y-99330489D01*
X124338095Y-99330489D02*
X124242857Y-99378108D01*
X124242857Y-99378108D02*
X123861905Y-99378108D01*
X125385714Y-99854299D02*
X124814286Y-99854299D01*
X125100000Y-99854299D02*
X125100000Y-98854299D01*
X125100000Y-98854299D02*
X125004762Y-98997156D01*
X125004762Y-98997156D02*
X124909524Y-99092394D01*
X124909524Y-99092394D02*
X124814286Y-99140013D01*
X132161905Y-109654297D02*
X132161905Y-108654297D01*
X132161905Y-108654297D02*
X132400000Y-108654297D01*
X132400000Y-108654297D02*
X132542857Y-108701916D01*
X132542857Y-108701916D02*
X132638095Y-108797154D01*
X132638095Y-108797154D02*
X132685714Y-108892392D01*
X132685714Y-108892392D02*
X132733333Y-109082868D01*
X132733333Y-109082868D02*
X132733333Y-109225725D01*
X132733333Y-109225725D02*
X132685714Y-109416201D01*
X132685714Y-109416201D02*
X132638095Y-109511439D01*
X132638095Y-109511439D02*
X132542857Y-109606678D01*
X132542857Y-109606678D02*
X132400000Y-109654297D01*
X132400000Y-109654297D02*
X132161905Y-109654297D01*
X133685714Y-109654297D02*
X133114286Y-109654297D01*
X133400000Y-109654297D02*
X133400000Y-108654297D01*
X133400000Y-108654297D02*
X133304762Y-108797154D01*
X133304762Y-108797154D02*
X133209524Y-108892392D01*
X133209524Y-108892392D02*
X133114286Y-108940011D01*
X118623809Y-97378108D02*
X118623809Y-97854299D01*
X118290476Y-96854299D02*
X118623809Y-97378108D01*
X118623809Y-97378108D02*
X118957142Y-96854299D01*
X119814285Y-97854299D02*
X119242857Y-97854299D01*
X119528571Y-97854299D02*
X119528571Y-96854299D01*
X119528571Y-96854299D02*
X119433333Y-96997156D01*
X119433333Y-96997156D02*
X119338095Y-97092394D01*
X119338095Y-97092394D02*
X119242857Y-97140013D01*
X143657142Y-102034060D02*
X143609523Y-102081680D01*
X143609523Y-102081680D02*
X143466666Y-102129299D01*
X143466666Y-102129299D02*
X143371428Y-102129299D01*
X143371428Y-102129299D02*
X143228571Y-102081680D01*
X143228571Y-102081680D02*
X143133333Y-101986441D01*
X143133333Y-101986441D02*
X143085714Y-101891203D01*
X143085714Y-101891203D02*
X143038095Y-101700727D01*
X143038095Y-101700727D02*
X143038095Y-101557870D01*
X143038095Y-101557870D02*
X143085714Y-101367394D01*
X143085714Y-101367394D02*
X143133333Y-101272156D01*
X143133333Y-101272156D02*
X143228571Y-101176918D01*
X143228571Y-101176918D02*
X143371428Y-101129299D01*
X143371428Y-101129299D02*
X143466666Y-101129299D01*
X143466666Y-101129299D02*
X143609523Y-101176918D01*
X143609523Y-101176918D02*
X143657142Y-101224537D01*
X144609523Y-102129299D02*
X144038095Y-102129299D01*
X144323809Y-102129299D02*
X144323809Y-101129299D01*
X144323809Y-101129299D02*
X144228571Y-101272156D01*
X144228571Y-101272156D02*
X144133333Y-101367394D01*
X144133333Y-101367394D02*
X144038095Y-101415013D01*
X145561904Y-102129299D02*
X144990476Y-102129299D01*
X145276190Y-102129299D02*
X145276190Y-101129299D01*
X145276190Y-101129299D02*
X145180952Y-101272156D01*
X145180952Y-101272156D02*
X145085714Y-101367394D01*
X145085714Y-101367394D02*
X144990476Y-101415013D01*
X120784299Y-93499404D02*
X121593822Y-93499404D01*
X121593822Y-93499404D02*
X121689060Y-93451785D01*
X121689060Y-93451785D02*
X121736680Y-93404166D01*
X121736680Y-93404166D02*
X121784299Y-93308928D01*
X121784299Y-93308928D02*
X121784299Y-93118452D01*
X121784299Y-93118452D02*
X121736680Y-93023214D01*
X121736680Y-93023214D02*
X121689060Y-92975595D01*
X121689060Y-92975595D02*
X121593822Y-92927976D01*
X121593822Y-92927976D02*
X120784299Y-92927976D01*
X121784299Y-91927976D02*
X121784299Y-92499404D01*
X121784299Y-92213690D02*
X120784299Y-92213690D01*
X120784299Y-92213690D02*
X120927156Y-92308928D01*
X120927156Y-92308928D02*
X121022394Y-92404166D01*
X121022394Y-92404166D02*
X121070013Y-92499404D01*
X143733333Y-97059060D02*
X143685714Y-97106680D01*
X143685714Y-97106680D02*
X143542857Y-97154299D01*
X143542857Y-97154299D02*
X143447619Y-97154299D01*
X143447619Y-97154299D02*
X143304762Y-97106680D01*
X143304762Y-97106680D02*
X143209524Y-97011441D01*
X143209524Y-97011441D02*
X143161905Y-96916203D01*
X143161905Y-96916203D02*
X143114286Y-96725727D01*
X143114286Y-96725727D02*
X143114286Y-96582870D01*
X143114286Y-96582870D02*
X143161905Y-96392394D01*
X143161905Y-96392394D02*
X143209524Y-96297156D01*
X143209524Y-96297156D02*
X143304762Y-96201918D01*
X143304762Y-96201918D02*
X143447619Y-96154299D01*
X143447619Y-96154299D02*
X143542857Y-96154299D01*
X143542857Y-96154299D02*
X143685714Y-96201918D01*
X143685714Y-96201918D02*
X143733333Y-96249537D01*
X144304762Y-96582870D02*
X144209524Y-96535251D01*
X144209524Y-96535251D02*
X144161905Y-96487632D01*
X144161905Y-96487632D02*
X144114286Y-96392394D01*
X144114286Y-96392394D02*
X144114286Y-96344775D01*
X144114286Y-96344775D02*
X144161905Y-96249537D01*
X144161905Y-96249537D02*
X144209524Y-96201918D01*
X144209524Y-96201918D02*
X144304762Y-96154299D01*
X144304762Y-96154299D02*
X144495238Y-96154299D01*
X144495238Y-96154299D02*
X144590476Y-96201918D01*
X144590476Y-96201918D02*
X144638095Y-96249537D01*
X144638095Y-96249537D02*
X144685714Y-96344775D01*
X144685714Y-96344775D02*
X144685714Y-96392394D01*
X144685714Y-96392394D02*
X144638095Y-96487632D01*
X144638095Y-96487632D02*
X144590476Y-96535251D01*
X144590476Y-96535251D02*
X144495238Y-96582870D01*
X144495238Y-96582870D02*
X144304762Y-96582870D01*
X144304762Y-96582870D02*
X144209524Y-96630489D01*
X144209524Y-96630489D02*
X144161905Y-96678108D01*
X144161905Y-96678108D02*
X144114286Y-96773346D01*
X144114286Y-96773346D02*
X144114286Y-96963822D01*
X144114286Y-96963822D02*
X144161905Y-97059060D01*
X144161905Y-97059060D02*
X144209524Y-97106680D01*
X144209524Y-97106680D02*
X144304762Y-97154299D01*
X144304762Y-97154299D02*
X144495238Y-97154299D01*
X144495238Y-97154299D02*
X144590476Y-97106680D01*
X144590476Y-97106680D02*
X144638095Y-97059060D01*
X144638095Y-97059060D02*
X144685714Y-96963822D01*
X144685714Y-96963822D02*
X144685714Y-96773346D01*
X144685714Y-96773346D02*
X144638095Y-96678108D01*
X144638095Y-96678108D02*
X144590476Y-96630489D01*
X144590476Y-96630489D02*
X144495238Y-96582870D01*
X120159060Y-102217855D02*
X120206680Y-102265474D01*
X120206680Y-102265474D02*
X120254299Y-102408331D01*
X120254299Y-102408331D02*
X120254299Y-102503569D01*
X120254299Y-102503569D02*
X120206680Y-102646426D01*
X120206680Y-102646426D02*
X120111441Y-102741664D01*
X120111441Y-102741664D02*
X120016203Y-102789283D01*
X120016203Y-102789283D02*
X119825727Y-102836902D01*
X119825727Y-102836902D02*
X119682870Y-102836902D01*
X119682870Y-102836902D02*
X119492394Y-102789283D01*
X119492394Y-102789283D02*
X119397156Y-102741664D01*
X119397156Y-102741664D02*
X119301918Y-102646426D01*
X119301918Y-102646426D02*
X119254299Y-102503569D01*
X119254299Y-102503569D02*
X119254299Y-102408331D01*
X119254299Y-102408331D02*
X119301918Y-102265474D01*
X119301918Y-102265474D02*
X119349537Y-102217855D01*
X119349537Y-101836902D02*
X119301918Y-101789283D01*
X119301918Y-101789283D02*
X119254299Y-101694045D01*
X119254299Y-101694045D02*
X119254299Y-101455950D01*
X119254299Y-101455950D02*
X119301918Y-101360712D01*
X119301918Y-101360712D02*
X119349537Y-101313093D01*
X119349537Y-101313093D02*
X119444775Y-101265474D01*
X119444775Y-101265474D02*
X119540013Y-101265474D01*
X119540013Y-101265474D02*
X119682870Y-101313093D01*
X119682870Y-101313093D02*
X120254299Y-101884521D01*
X120254299Y-101884521D02*
X120254299Y-101265474D01*
X119254299Y-100408331D02*
X119254299Y-100598807D01*
X119254299Y-100598807D02*
X119301918Y-100694045D01*
X119301918Y-100694045D02*
X119349537Y-100741664D01*
X119349537Y-100741664D02*
X119492394Y-100836902D01*
X119492394Y-100836902D02*
X119682870Y-100884521D01*
X119682870Y-100884521D02*
X120063822Y-100884521D01*
X120063822Y-100884521D02*
X120159060Y-100836902D01*
X120159060Y-100836902D02*
X120206680Y-100789283D01*
X120206680Y-100789283D02*
X120254299Y-100694045D01*
X120254299Y-100694045D02*
X120254299Y-100503569D01*
X120254299Y-100503569D02*
X120206680Y-100408331D01*
X120206680Y-100408331D02*
X120159060Y-100360712D01*
X120159060Y-100360712D02*
X120063822Y-100313093D01*
X120063822Y-100313093D02*
X119825727Y-100313093D01*
X119825727Y-100313093D02*
X119730489Y-100360712D01*
X119730489Y-100360712D02*
X119682870Y-100408331D01*
X119682870Y-100408331D02*
X119635251Y-100503569D01*
X119635251Y-100503569D02*
X119635251Y-100694045D01*
X119635251Y-100694045D02*
X119682870Y-100789283D01*
X119682870Y-100789283D02*
X119730489Y-100836902D01*
X119730489Y-100836902D02*
X119825727Y-100884521D01*
X121859060Y-102242855D02*
X121906680Y-102290474D01*
X121906680Y-102290474D02*
X121954299Y-102433331D01*
X121954299Y-102433331D02*
X121954299Y-102528569D01*
X121954299Y-102528569D02*
X121906680Y-102671426D01*
X121906680Y-102671426D02*
X121811441Y-102766664D01*
X121811441Y-102766664D02*
X121716203Y-102814283D01*
X121716203Y-102814283D02*
X121525727Y-102861902D01*
X121525727Y-102861902D02*
X121382870Y-102861902D01*
X121382870Y-102861902D02*
X121192394Y-102814283D01*
X121192394Y-102814283D02*
X121097156Y-102766664D01*
X121097156Y-102766664D02*
X121001918Y-102671426D01*
X121001918Y-102671426D02*
X120954299Y-102528569D01*
X120954299Y-102528569D02*
X120954299Y-102433331D01*
X120954299Y-102433331D02*
X121001918Y-102290474D01*
X121001918Y-102290474D02*
X121049537Y-102242855D01*
X121049537Y-101861902D02*
X121001918Y-101814283D01*
X121001918Y-101814283D02*
X120954299Y-101719045D01*
X120954299Y-101719045D02*
X120954299Y-101480950D01*
X120954299Y-101480950D02*
X121001918Y-101385712D01*
X121001918Y-101385712D02*
X121049537Y-101338093D01*
X121049537Y-101338093D02*
X121144775Y-101290474D01*
X121144775Y-101290474D02*
X121240013Y-101290474D01*
X121240013Y-101290474D02*
X121382870Y-101338093D01*
X121382870Y-101338093D02*
X121954299Y-101909521D01*
X121954299Y-101909521D02*
X121954299Y-101290474D01*
X120954299Y-100385712D02*
X120954299Y-100861902D01*
X120954299Y-100861902D02*
X121430489Y-100909521D01*
X121430489Y-100909521D02*
X121382870Y-100861902D01*
X121382870Y-100861902D02*
X121335251Y-100766664D01*
X121335251Y-100766664D02*
X121335251Y-100528569D01*
X121335251Y-100528569D02*
X121382870Y-100433331D01*
X121382870Y-100433331D02*
X121430489Y-100385712D01*
X121430489Y-100385712D02*
X121525727Y-100338093D01*
X121525727Y-100338093D02*
X121763822Y-100338093D01*
X121763822Y-100338093D02*
X121859060Y-100385712D01*
X121859060Y-100385712D02*
X121906680Y-100433331D01*
X121906680Y-100433331D02*
X121954299Y-100528569D01*
X121954299Y-100528569D02*
X121954299Y-100766664D01*
X121954299Y-100766664D02*
X121906680Y-100861902D01*
X121906680Y-100861902D02*
X121859060Y-100909521D01*
X124888095Y-79454299D02*
X124888095Y-80263822D01*
X124888095Y-80263822D02*
X124935714Y-80359060D01*
X124935714Y-80359060D02*
X124983333Y-80406680D01*
X124983333Y-80406680D02*
X125078571Y-80454299D01*
X125078571Y-80454299D02*
X125269047Y-80454299D01*
X125269047Y-80454299D02*
X125364285Y-80406680D01*
X125364285Y-80406680D02*
X125411904Y-80359060D01*
X125411904Y-80359060D02*
X125459523Y-80263822D01*
X125459523Y-80263822D02*
X125459523Y-79454299D01*
X125888095Y-79549537D02*
X125935714Y-79501918D01*
X125935714Y-79501918D02*
X126030952Y-79454299D01*
X126030952Y-79454299D02*
X126269047Y-79454299D01*
X126269047Y-79454299D02*
X126364285Y-79501918D01*
X126364285Y-79501918D02*
X126411904Y-79549537D01*
X126411904Y-79549537D02*
X126459523Y-79644775D01*
X126459523Y-79644775D02*
X126459523Y-79740013D01*
X126459523Y-79740013D02*
X126411904Y-79882870D01*
X126411904Y-79882870D02*
X125840476Y-80454299D01*
X125840476Y-80454299D02*
X126459523Y-80454299D01*
X138020833Y-105654299D02*
X137687500Y-105178108D01*
X137449405Y-105654299D02*
X137449405Y-104654299D01*
X137449405Y-104654299D02*
X137830357Y-104654299D01*
X137830357Y-104654299D02*
X137925595Y-104701918D01*
X137925595Y-104701918D02*
X137973214Y-104749537D01*
X137973214Y-104749537D02*
X138020833Y-104844775D01*
X138020833Y-104844775D02*
X138020833Y-104987632D01*
X138020833Y-104987632D02*
X137973214Y-105082870D01*
X137973214Y-105082870D02*
X137925595Y-105130489D01*
X137925595Y-105130489D02*
X137830357Y-105178108D01*
X137830357Y-105178108D02*
X137449405Y-105178108D01*
X138877976Y-104987632D02*
X138877976Y-105654299D01*
X138639881Y-104606680D02*
X138401786Y-105320965D01*
X138401786Y-105320965D02*
X139020833Y-105320965D01*
X102954299Y-98869666D02*
X102478108Y-99202999D01*
X102954299Y-99441094D02*
X101954299Y-99441094D01*
X101954299Y-99441094D02*
X101954299Y-99060142D01*
X101954299Y-99060142D02*
X102001918Y-98964904D01*
X102001918Y-98964904D02*
X102049537Y-98917285D01*
X102049537Y-98917285D02*
X102144775Y-98869666D01*
X102144775Y-98869666D02*
X102287632Y-98869666D01*
X102287632Y-98869666D02*
X102382870Y-98917285D01*
X102382870Y-98917285D02*
X102430489Y-98964904D01*
X102430489Y-98964904D02*
X102478108Y-99060142D01*
X102478108Y-99060142D02*
X102478108Y-99441094D01*
X101954299Y-97964904D02*
X101954299Y-98441094D01*
X101954299Y-98441094D02*
X102430489Y-98488713D01*
X102430489Y-98488713D02*
X102382870Y-98441094D01*
X102382870Y-98441094D02*
X102335251Y-98345856D01*
X102335251Y-98345856D02*
X102335251Y-98107761D01*
X102335251Y-98107761D02*
X102382870Y-98012523D01*
X102382870Y-98012523D02*
X102430489Y-97964904D01*
X102430489Y-97964904D02*
X102525727Y-97917285D01*
X102525727Y-97917285D02*
X102763822Y-97917285D01*
X102763822Y-97917285D02*
X102859060Y-97964904D01*
X102859060Y-97964904D02*
X102906680Y-98012523D01*
X102906680Y-98012523D02*
X102954299Y-98107761D01*
X102954299Y-98107761D02*
X102954299Y-98345856D01*
X102954299Y-98345856D02*
X102906680Y-98441094D01*
X102906680Y-98441094D02*
X102859060Y-98488713D01*
X135359060Y-103942857D02*
X135406680Y-103990476D01*
X135406680Y-103990476D02*
X135454299Y-104133333D01*
X135454299Y-104133333D02*
X135454299Y-104228571D01*
X135454299Y-104228571D02*
X135406680Y-104371428D01*
X135406680Y-104371428D02*
X135311441Y-104466666D01*
X135311441Y-104466666D02*
X135216203Y-104514285D01*
X135216203Y-104514285D02*
X135025727Y-104561904D01*
X135025727Y-104561904D02*
X134882870Y-104561904D01*
X134882870Y-104561904D02*
X134692394Y-104514285D01*
X134692394Y-104514285D02*
X134597156Y-104466666D01*
X134597156Y-104466666D02*
X134501918Y-104371428D01*
X134501918Y-104371428D02*
X134454299Y-104228571D01*
X134454299Y-104228571D02*
X134454299Y-104133333D01*
X134454299Y-104133333D02*
X134501918Y-103990476D01*
X134501918Y-103990476D02*
X134549537Y-103942857D01*
X134549537Y-103561904D02*
X134501918Y-103514285D01*
X134501918Y-103514285D02*
X134454299Y-103419047D01*
X134454299Y-103419047D02*
X134454299Y-103180952D01*
X134454299Y-103180952D02*
X134501918Y-103085714D01*
X134501918Y-103085714D02*
X134549537Y-103038095D01*
X134549537Y-103038095D02*
X134644775Y-102990476D01*
X134644775Y-102990476D02*
X134740013Y-102990476D01*
X134740013Y-102990476D02*
X134882870Y-103038095D01*
X134882870Y-103038095D02*
X135454299Y-103609523D01*
X135454299Y-103609523D02*
X135454299Y-102990476D01*
X134454299Y-102657142D02*
X134454299Y-101990476D01*
X134454299Y-101990476D02*
X135454299Y-102419047D01*
X133659060Y-99342855D02*
X133706680Y-99390474D01*
X133706680Y-99390474D02*
X133754299Y-99533331D01*
X133754299Y-99533331D02*
X133754299Y-99628569D01*
X133754299Y-99628569D02*
X133706680Y-99771426D01*
X133706680Y-99771426D02*
X133611441Y-99866664D01*
X133611441Y-99866664D02*
X133516203Y-99914283D01*
X133516203Y-99914283D02*
X133325727Y-99961902D01*
X133325727Y-99961902D02*
X133182870Y-99961902D01*
X133182870Y-99961902D02*
X132992394Y-99914283D01*
X132992394Y-99914283D02*
X132897156Y-99866664D01*
X132897156Y-99866664D02*
X132801918Y-99771426D01*
X132801918Y-99771426D02*
X132754299Y-99628569D01*
X132754299Y-99628569D02*
X132754299Y-99533331D01*
X132754299Y-99533331D02*
X132801918Y-99390474D01*
X132801918Y-99390474D02*
X132849537Y-99342855D01*
X132849537Y-98961902D02*
X132801918Y-98914283D01*
X132801918Y-98914283D02*
X132754299Y-98819045D01*
X132754299Y-98819045D02*
X132754299Y-98580950D01*
X132754299Y-98580950D02*
X132801918Y-98485712D01*
X132801918Y-98485712D02*
X132849537Y-98438093D01*
X132849537Y-98438093D02*
X132944775Y-98390474D01*
X132944775Y-98390474D02*
X133040013Y-98390474D01*
X133040013Y-98390474D02*
X133182870Y-98438093D01*
X133182870Y-98438093D02*
X133754299Y-99009521D01*
X133754299Y-99009521D02*
X133754299Y-98390474D01*
X133754299Y-97914283D02*
X133754299Y-97723807D01*
X133754299Y-97723807D02*
X133706680Y-97628569D01*
X133706680Y-97628569D02*
X133659060Y-97580950D01*
X133659060Y-97580950D02*
X133516203Y-97485712D01*
X133516203Y-97485712D02*
X133325727Y-97438093D01*
X133325727Y-97438093D02*
X132944775Y-97438093D01*
X132944775Y-97438093D02*
X132849537Y-97485712D01*
X132849537Y-97485712D02*
X132801918Y-97533331D01*
X132801918Y-97533331D02*
X132754299Y-97628569D01*
X132754299Y-97628569D02*
X132754299Y-97819045D01*
X132754299Y-97819045D02*
X132801918Y-97914283D01*
X132801918Y-97914283D02*
X132849537Y-97961902D01*
X132849537Y-97961902D02*
X132944775Y-98009521D01*
X132944775Y-98009521D02*
X133182870Y-98009521D01*
X133182870Y-98009521D02*
X133278108Y-97961902D01*
X133278108Y-97961902D02*
X133325727Y-97914283D01*
X133325727Y-97914283D02*
X133373346Y-97819045D01*
X133373346Y-97819045D02*
X133373346Y-97628569D01*
X133373346Y-97628569D02*
X133325727Y-97533331D01*
X133325727Y-97533331D02*
X133278108Y-97485712D01*
X133278108Y-97485712D02*
X133182870Y-97438093D01*
D12*
%TO.C,J1*%
X101700000Y-80500000D02*
X110600000Y-80500000D01*
X101700000Y-89700000D02*
X101700000Y-80500000D01*
X104700000Y-89700000D02*
X101700000Y-89700000D01*
X109750000Y-80300000D02*
X110800000Y-80300000D01*
X110600000Y-80500000D02*
X110600000Y-83100000D01*
X110600000Y-87000000D02*
X110600000Y-89700000D01*
X110600000Y-89700000D02*
X108700000Y-89700000D01*
X110800000Y-81350000D02*
X110800000Y-80300000D01*
D13*
%TO.C,J2*%
X112989931Y-84140446D02*
G75*
G03*
X112989931Y-84140446I-282843J0D01*
G01*
D12*
X113260000Y-83570000D02*
X114585000Y-83570000D01*
X114585000Y-83505000D02*
X114585000Y-83570000D01*
X114585000Y-83505000D02*
X118115000Y-83505000D01*
X114585000Y-89910000D02*
X114585000Y-89975000D01*
X114585000Y-89975000D02*
X118115000Y-89975000D01*
X118115000Y-83505000D02*
X118115000Y-83570000D01*
X118115000Y-89910000D02*
X118115000Y-89975000D01*
D14*
%TO.C,U3*%
X120299731Y-110917624D02*
X120299731Y-111992624D01*
X120299731Y-114592624D02*
X120299731Y-115417624D01*
X120299731Y-115417624D02*
X136399731Y-115417624D01*
X122149731Y-110917624D02*
X120299731Y-110917624D01*
X122149731Y-110917624D02*
X122149731Y-110917624D01*
D13*
X134149731Y-109742624D02*
X134149731Y-109742624D01*
X134149731Y-109842624D02*
X134149731Y-109842624D01*
D14*
X134549731Y-110917624D02*
X136399731Y-110917624D01*
X136399731Y-110917624D02*
X136399731Y-111992624D01*
X136399731Y-115417624D02*
X136399731Y-114592624D01*
D13*
X134149731Y-109842624D02*
G75*
G03*
X134149731Y-109742624I0J50000D01*
G01*
X134149731Y-109742624D02*
G75*
G03*
X134149731Y-109842624I0J-50000D01*
G01*
D12*
%TO.C,C19*%
X140759420Y-113990000D02*
X141040580Y-113990000D01*
X140759420Y-115010000D02*
X141040580Y-115010000D01*
%TO.C,C14*%
X140759420Y-105990000D02*
X141040580Y-105990000D01*
X140759420Y-107010000D02*
X141040580Y-107010000D01*
%TO.C,C23*%
X126710000Y-104334418D02*
X126710000Y-104615578D01*
X125690000Y-104334418D02*
X125690000Y-104615578D01*
%TO.C,C16*%
X140759420Y-109190000D02*
X141040580Y-109190000D01*
X140759420Y-110210000D02*
X141040580Y-110210000D01*
%TO.C,D3*%
X130210000Y-108299998D02*
X130210000Y-106299998D01*
X130210000Y-108299998D02*
X126200000Y-108299998D01*
X130210000Y-106299998D02*
X126200000Y-106299998D01*
%TO.C,D2*%
X125310000Y-108299998D02*
X125310000Y-106299998D01*
X125310000Y-108299998D02*
X121300000Y-108299998D01*
X125310000Y-106299998D02*
X121300000Y-106299998D01*
%TO.C,C17*%
X140759420Y-110790000D02*
X141040580Y-110790000D01*
X140759420Y-111810000D02*
X141040580Y-111810000D01*
%TO.C,C24*%
X123510000Y-104334418D02*
X123510000Y-104615578D01*
X122490000Y-104334418D02*
X122490000Y-104615578D01*
%TO.C,C9*%
X140759420Y-97990000D02*
X141040580Y-97990000D01*
X140759420Y-99010000D02*
X141040580Y-99010000D01*
%TO.C,R2*%
X115837742Y-92977500D02*
X116312258Y-92977500D01*
X115837742Y-94022500D02*
X116312258Y-94022500D01*
D13*
%TO.C,SW7*%
X113700000Y-115200000D02*
X117400000Y-115200000D01*
X117400000Y-115200000D02*
X117400000Y-110200000D01*
X117400000Y-110200000D02*
X113700000Y-110200000D01*
X113700000Y-110200000D02*
X113700000Y-115200000D01*
X116581665Y-112700000D02*
G75*
G03*
X116581665Y-112700000I-1081665J0D01*
G01*
D12*
%TO.C,C13*%
X140759420Y-104390000D02*
X141040580Y-104390000D01*
X140759420Y-105410000D02*
X141040580Y-105410000D01*
%TO.C,C22*%
X125110000Y-104334418D02*
X125110000Y-104615578D01*
X124090000Y-104334418D02*
X124090000Y-104615578D01*
%TO.C,C10*%
X140759420Y-99590000D02*
X141040580Y-99590000D01*
X140759420Y-100610000D02*
X141040580Y-100610000D01*
%TO.C,C1*%
X137556920Y-99490000D02*
X137838080Y-99490000D01*
X137556920Y-100510000D02*
X137838080Y-100510000D01*
%TO.C,C15*%
X140759420Y-107590000D02*
X141040580Y-107590000D01*
X140759420Y-108610000D02*
X141040580Y-108610000D01*
%TO.C,C18*%
X140759420Y-112390000D02*
X141040580Y-112390000D01*
X140759420Y-113410000D02*
X141040580Y-113410000D01*
%TO.C,C2*%
X137559420Y-101090000D02*
X137840580Y-101090000D01*
X137559420Y-102110000D02*
X137840580Y-102110000D01*
%TO.C,C3*%
X115265580Y-108210000D02*
X114984420Y-108210000D01*
X115265580Y-107190000D02*
X114984420Y-107190000D01*
D13*
%TO.C,L1*%
X129500000Y-99099998D02*
X132500000Y-99099998D01*
X132500000Y-99099998D02*
X132500000Y-102699998D01*
X132500000Y-102699998D02*
X129500000Y-102699998D01*
X129500000Y-102699998D02*
X129500000Y-99099998D01*
D12*
%TO.C,R7*%
X102077500Y-106637258D02*
X102077500Y-106162742D01*
X103122500Y-106637258D02*
X103122500Y-106162742D01*
%TO.C,C12*%
X140759420Y-102790000D02*
X141040580Y-102790000D01*
X140759420Y-103810000D02*
X141040580Y-103810000D01*
%TO.C,R6*%
X102077500Y-101412258D02*
X102077500Y-100937742D01*
X103122500Y-101412258D02*
X103122500Y-100937742D01*
%TO.C,C20*%
X131834420Y-104789998D02*
X132115580Y-104789998D01*
X131834420Y-105809998D02*
X132115580Y-105809998D01*
%TO.C,C21*%
X118159420Y-107189998D02*
X118440580Y-107189998D01*
X118159420Y-108209998D02*
X118440580Y-108209998D01*
%TO.C,R8*%
X102177500Y-112337258D02*
X102177500Y-111862742D01*
X103222500Y-112337258D02*
X103222500Y-111862742D01*
%TO.C,Q1*%
X136620000Y-108410000D02*
X138030000Y-108410000D01*
X138030000Y-106090000D02*
X136000000Y-106090000D01*
X138030000Y-106090000D02*
X138030000Y-106750000D01*
X138030000Y-107750000D02*
X138030000Y-108410000D01*
%TO.C,R1*%
X121937742Y-98777500D02*
X122412258Y-98777500D01*
X121937742Y-99822500D02*
X122412258Y-99822500D01*
%TO.C,D1*%
X135210000Y-108299998D02*
X135210000Y-106299998D01*
X135210000Y-108299998D02*
X131200000Y-108299998D01*
X135210000Y-106299998D02*
X131200000Y-106299998D01*
%TO.C,Y1*%
X118000000Y-98300000D02*
X118000000Y-99900000D01*
X118000000Y-99900000D02*
X120400000Y-99900000D01*
X120400000Y-98300000D02*
X118000000Y-98300000D01*
%TO.C,C11*%
X140759420Y-101190000D02*
X141040580Y-101190000D01*
X140759420Y-102210000D02*
X141040580Y-102210000D01*
%TO.C,U1*%
X129760000Y-96347500D02*
X129285000Y-96347500D01*
X122540000Y-95872500D02*
X122540000Y-96347500D01*
X129760000Y-95872500D02*
X129760000Y-96347500D01*
X122540000Y-89602500D02*
X122540000Y-89127500D01*
X129760000Y-89602500D02*
X129760000Y-89127500D01*
X122540000Y-89127500D02*
X123015000Y-89127500D01*
X129760000Y-89127500D02*
X129285000Y-89127500D01*
%TO.C,C8*%
X140759420Y-96415000D02*
X141040580Y-96415000D01*
X140759420Y-97435000D02*
X141040580Y-97435000D01*
%TO.C,C26*%
X120310000Y-104334418D02*
X120310000Y-104615578D01*
X119290000Y-104334418D02*
X119290000Y-104615578D01*
%TO.C,C25*%
X121910000Y-104334418D02*
X121910000Y-104615578D01*
X120890000Y-104334418D02*
X120890000Y-104615578D01*
%TO.C,U2*%
X121550000Y-81090000D02*
X127560000Y-81090000D01*
X123800000Y-87910000D02*
X127560000Y-87910000D01*
X127560000Y-81090000D02*
X127560000Y-82350000D01*
X127560000Y-87910000D02*
X127560000Y-86650000D01*
%TO.C,R4*%
X137714564Y-104235000D02*
X137260436Y-104235000D01*
X137714564Y-102765000D02*
X137260436Y-102765000D01*
%TO.C,R5*%
X103122500Y-96165742D02*
X103122500Y-96640258D01*
X102077500Y-96165742D02*
X102077500Y-96640258D01*
%TO.C,C27*%
X132165580Y-104209998D02*
X131884420Y-104209998D01*
X132165580Y-103189998D02*
X131884420Y-103189998D01*
%TD*%
M02*
