%TF.GenerationSoftware,KiCad,Pcbnew,7.0.8*%
%TF.CreationDate,2023-11-29T21:04:09-06:00*%
%TF.ProjectId,Clock1_v2,436c6f63-6b31-45f7-9632-2e6b69636164,rev?*%
%TF.SameCoordinates,Original*%
%TF.FileFunction,Copper,L1,Top*%
%TF.FilePolarity,Positive*%
%FSLAX46Y46*%
G04 Gerber Fmt 4.6, Leading zero omitted, Abs format (unit mm)*
G04 Created by KiCad (PCBNEW 7.0.8) date 2023-11-29 21:04:09*
%MOMM*%
%LPD*%
G01*
G04 APERTURE LIST*
G04 Aperture macros list*
%AMRoundRect*
0 Rectangle with rounded corners*
0 $1 Rounding radius*
0 $2 $3 $4 $5 $6 $7 $8 $9 X,Y pos of 4 corners*
0 Add a 4 corners polygon primitive as box body*
4,1,4,$2,$3,$4,$5,$6,$7,$8,$9,$2,$3,0*
0 Add four circle primitives for the rounded corners*
1,1,$1+$1,$2,$3*
1,1,$1+$1,$4,$5*
1,1,$1+$1,$6,$7*
1,1,$1+$1,$8,$9*
0 Add four rect primitives between the rounded corners*
20,1,$1+$1,$2,$3,$4,$5,0*
20,1,$1+$1,$4,$5,$6,$7,0*
20,1,$1+$1,$6,$7,$8,$9,0*
20,1,$1+$1,$8,$9,$2,$3,0*%
G04 Aperture macros list end*
%TA.AperFunction,ComponentPad*%
%ADD10R,3.500000X3.500000*%
%TD*%
%TA.AperFunction,ComponentPad*%
%ADD11RoundRect,0.750000X-0.750000X-1.000000X0.750000X-1.000000X0.750000X1.000000X-0.750000X1.000000X0*%
%TD*%
%TA.AperFunction,ComponentPad*%
%ADD12RoundRect,0.875000X-0.875000X-0.875000X0.875000X-0.875000X0.875000X0.875000X-0.875000X0.875000X0*%
%TD*%
%TA.AperFunction,SMDPad,CuDef*%
%ADD13R,2.400000X0.740000*%
%TD*%
%TA.AperFunction,SMDPad,CuDef*%
%ADD14R,0.300000X0.900000*%
%TD*%
%TA.AperFunction,SMDPad,CuDef*%
%ADD15R,1.100000X1.800000*%
%TD*%
%TA.AperFunction,SMDPad,CuDef*%
%ADD16RoundRect,0.225000X-0.225000X-0.250000X0.225000X-0.250000X0.225000X0.250000X-0.225000X0.250000X0*%
%TD*%
%TA.AperFunction,SMDPad,CuDef*%
%ADD17RoundRect,0.225000X-0.250000X0.225000X-0.250000X-0.225000X0.250000X-0.225000X0.250000X0.225000X0*%
%TD*%
%TA.AperFunction,SMDPad,CuDef*%
%ADD18RoundRect,0.225000X0.225000X0.375000X-0.225000X0.375000X-0.225000X-0.375000X0.225000X-0.375000X0*%
%TD*%
%TA.AperFunction,SMDPad,CuDef*%
%ADD19RoundRect,0.100000X-0.100000X0.130000X-0.100000X-0.130000X0.100000X-0.130000X0.100000X0.130000X0*%
%TD*%
%TA.AperFunction,SMDPad,CuDef*%
%ADD20RoundRect,0.200000X-0.200000X-0.275000X0.200000X-0.275000X0.200000X0.275000X-0.200000X0.275000X0*%
%TD*%
%TA.AperFunction,SMDPad,CuDef*%
%ADD21RoundRect,0.250000X0.512000X-0.250000X0.512000X0.250000X-0.512000X0.250000X-0.512000X-0.250000X0*%
%TD*%
%TA.AperFunction,SMDPad,CuDef*%
%ADD22RoundRect,0.100000X-0.130000X-0.100000X0.130000X-0.100000X0.130000X0.100000X-0.130000X0.100000X0*%
%TD*%
%TA.AperFunction,SMDPad,CuDef*%
%ADD23RoundRect,0.225000X0.225000X0.250000X-0.225000X0.250000X-0.225000X-0.250000X0.225000X-0.250000X0*%
%TD*%
%TA.AperFunction,SMDPad,CuDef*%
%ADD24RoundRect,0.350000X1.150000X-0.350000X1.150000X0.350000X-1.150000X0.350000X-1.150000X-0.350000X0*%
%TD*%
%TA.AperFunction,SMDPad,CuDef*%
%ADD25RoundRect,0.200000X0.275000X-0.200000X0.275000X0.200000X-0.275000X0.200000X-0.275000X-0.200000X0*%
%TD*%
%TA.AperFunction,SMDPad,CuDef*%
%ADD26R,0.700000X0.450000*%
%TD*%
%TA.AperFunction,SMDPad,CuDef*%
%ADD27R,0.600000X1.100000*%
%TD*%
%TA.AperFunction,SMDPad,CuDef*%
%ADD28RoundRect,0.062500X0.062500X-0.375000X0.062500X0.375000X-0.062500X0.375000X-0.062500X-0.375000X0*%
%TD*%
%TA.AperFunction,SMDPad,CuDef*%
%ADD29RoundRect,0.062500X0.375000X-0.062500X0.375000X0.062500X-0.375000X0.062500X-0.375000X-0.062500X0*%
%TD*%
%TA.AperFunction,SMDPad,CuDef*%
%ADD30R,5.600000X5.600000*%
%TD*%
%TA.AperFunction,SMDPad,CuDef*%
%ADD31R,2.000000X1.500000*%
%TD*%
%TA.AperFunction,SMDPad,CuDef*%
%ADD32R,2.000000X3.800000*%
%TD*%
%TA.AperFunction,SMDPad,CuDef*%
%ADD33RoundRect,0.250000X0.262500X0.450000X-0.262500X0.450000X-0.262500X-0.450000X0.262500X-0.450000X0*%
%TD*%
%TA.AperFunction,SMDPad,CuDef*%
%ADD34RoundRect,0.200000X-0.275000X0.200000X-0.275000X-0.200000X0.275000X-0.200000X0.275000X0.200000X0*%
%TD*%
%TA.AperFunction,ViaPad*%
%ADD35C,0.800000*%
%TD*%
%TA.AperFunction,Conductor*%
%ADD36C,0.250000*%
%TD*%
%TA.AperFunction,Conductor*%
%ADD37C,0.500000*%
%TD*%
G04 APERTURE END LIST*
D10*
%TO.P,J1,1*%
%TO.N,Vin*%
X109700000Y-85100000D03*
D11*
%TO.P,J1,2*%
%TO.N,GND*%
X103700000Y-85100000D03*
D12*
%TO.P,J1,3*%
%TO.N,N/C*%
X106700000Y-89800000D03*
%TD*%
D13*
%TO.P,J2,1,VTref*%
%TO.N,VDD*%
X114400000Y-84200000D03*
%TO.P,J2,2,SWDIO/TMS*%
%TO.N,Net-(J2-SWDIO{slash}TMS)*%
X118300000Y-84200000D03*
%TO.P,J2,3,GND*%
%TO.N,GND*%
X114400000Y-85470000D03*
%TO.P,J2,4,SWDCLK/TCK*%
%TO.N,Net-(J2-SWDCLK{slash}TCK)*%
X118300000Y-85470000D03*
%TO.P,J2,5,GND*%
%TO.N,GND*%
X114400000Y-86740000D03*
%TO.P,J2,6,SWO/TDO*%
%TO.N,Net-(J2-SWO{slash}TDO)*%
X118300000Y-86740000D03*
%TO.P,J2,7,KEY*%
%TO.N,unconnected-(J2-KEY-Pad7)*%
X114400000Y-88010000D03*
%TO.P,J2,8,NC/TDI*%
%TO.N,Net-(J2-NC{slash}TDI)*%
X118300000Y-88010000D03*
%TO.P,J2,9,GNDDetect*%
%TO.N,GND*%
X114400000Y-89280000D03*
%TO.P,J2,10,~{RESET}*%
%TO.N,/nreset*%
X118300000Y-89280000D03*
%TD*%
D14*
%TO.P,U3,24,VCOM*%
%TO.N,Net-(U3-VCOM)*%
X122606030Y-110600000D03*
%TO.P,U3,23,VGL*%
%TO.N,Net-(D2-A)*%
X123106030Y-110600000D03*
%TO.P,U3,22,VDL*%
%TO.N,Net-(U3-VDL)*%
X123606030Y-110600000D03*
%TO.P,U3,21,VGH*%
%TO.N,Net-(D1-K)*%
X124106030Y-110600000D03*
%TO.P,U3,20,VDH*%
%TO.N,Net-(U3-VDH)*%
X124606030Y-110600000D03*
%TO.P,U3,19,NC*%
%TO.N,unconnected-(U3-NC-Pad19)*%
X125106030Y-110600000D03*
%TO.P,U3,18,VDDD*%
%TO.N,Net-(U3-VDDD)*%
X125606030Y-110600000D03*
%TO.P,U3,17,GND*%
%TO.N,GND*%
X126106030Y-110600000D03*
%TO.P,U3,16,VDDA*%
%TO.N,VDD*%
X126606030Y-110600000D03*
%TO.P,U3,15,VDDIO*%
X127106030Y-110600000D03*
%TO.P,U3,14,SDA*%
%TO.N,/epaper/epaper.spi_sda*%
X127606030Y-110600000D03*
%TO.P,U3,13,SCL*%
%TO.N,/epaper/epaper.spi_scl*%
X128106030Y-110600000D03*
%TO.P,U3,12,CS*%
%TO.N,/epaper/epaper.spi_cs*%
X128606030Y-110600000D03*
%TO.P,U3,11,D/C*%
%TO.N,/epaper/epaper.gpio_dc*%
X129106030Y-110600000D03*
%TO.P,U3,10,RESET*%
%TO.N,/epaper/epaper.gpio_reset_n*%
X129606030Y-110600000D03*
%TO.P,U3,9,BUSY*%
%TO.N,/epaper/epaper.gpio_busy_n*%
X130106030Y-110600000D03*
%TO.P,U3,8,BS*%
%TO.N,/epaper/epaper.gpio_bs*%
X130606030Y-110600000D03*
%TO.P,U3,7,NC*%
%TO.N,unconnected-(U3-NC-Pad7)*%
X131106030Y-110600000D03*
%TO.P,U3,6,NC*%
%TO.N,unconnected-(U3-NC-Pad6)*%
X131606030Y-110600000D03*
%TO.P,U3,5,VHDR*%
%TO.N,Net-(U3-VHDR)*%
X132106030Y-110600000D03*
%TO.P,U3,4,NC*%
%TO.N,unconnected-(U3-NC-Pad4)*%
X132606030Y-110600000D03*
%TO.P,U3,3,RSE*%
%TO.N,Net-(Q1-S)*%
X133106030Y-110600000D03*
%TO.P,U3,2,GDR*%
%TO.N,Net-(Q1-G)*%
X133606030Y-110600000D03*
%TO.P,U3,1,NC*%
%TO.N,unconnected-(U3-NC-Pad1)*%
X134106030Y-110600000D03*
D15*
%TO.P,U3,MP1*%
%TO.N,N/C*%
X120449731Y-113267624D03*
%TO.P,U3,MP2*%
X136249731Y-113267624D03*
%TD*%
D16*
%TO.P,C19,1*%
%TO.N,VDD*%
X140125000Y-114500000D03*
%TO.P,C19,2*%
%TO.N,GND*%
X141675000Y-114500000D03*
%TD*%
%TO.P,C14,1*%
%TO.N,VDD*%
X140125000Y-106500000D03*
%TO.P,C14,2*%
%TO.N,GND*%
X141675000Y-106500000D03*
%TD*%
D17*
%TO.P,C23,1*%
%TO.N,GND*%
X126200000Y-103699998D03*
%TO.P,C23,2*%
%TO.N,Net-(U3-VDDD)*%
X126200000Y-105249998D03*
%TD*%
D16*
%TO.P,C16,1*%
%TO.N,VDD*%
X140125000Y-109700000D03*
%TO.P,C16,2*%
%TO.N,GND*%
X141675000Y-109700000D03*
%TD*%
D18*
%TO.P,D3,1,K*%
%TO.N,GND*%
X129500000Y-107299998D03*
%TO.P,D3,2,A*%
%TO.N,Net-(D2-K)*%
X126200000Y-107299998D03*
%TD*%
D19*
%TO.P,C28,1*%
%TO.N,VDD*%
X134300000Y-100479998D03*
%TO.P,C28,2*%
%TO.N,GND*%
X134300000Y-101119998D03*
%TD*%
D18*
%TO.P,D2,1,K*%
%TO.N,Net-(D2-K)*%
X124600000Y-107299998D03*
%TO.P,D2,2,A*%
%TO.N,Net-(D2-A)*%
X121300000Y-107299998D03*
%TD*%
D16*
%TO.P,C17,1*%
%TO.N,VDD*%
X140125000Y-111300000D03*
%TO.P,C17,2*%
%TO.N,GND*%
X141675000Y-111300000D03*
%TD*%
D17*
%TO.P,C24,1*%
%TO.N,GND*%
X123000000Y-103699998D03*
%TO.P,C24,2*%
%TO.N,Net-(U3-VDL)*%
X123000000Y-105249998D03*
%TD*%
D16*
%TO.P,C9,1*%
%TO.N,VDD*%
X140125000Y-98500000D03*
%TO.P,C9,2*%
%TO.N,GND*%
X141675000Y-98500000D03*
%TD*%
D20*
%TO.P,R2,1*%
%TO.N,GND*%
X115250000Y-93500000D03*
%TO.P,R2,2*%
%TO.N,Net-(U1-BOOT0)*%
X116900000Y-93500000D03*
%TD*%
D21*
%TO.P,SW7,1,1*%
%TO.N,GND*%
X113700000Y-115700000D03*
X113700000Y-109700000D03*
%TO.P,SW7,2,2*%
%TO.N,/nreset*%
X117400000Y-115700000D03*
X117400000Y-109700000D03*
%TD*%
D22*
%TO.P,C5,1*%
%TO.N,GND*%
X117925000Y-101400000D03*
%TO.P,C5,2*%
%TO.N,Net-(C5-Pad2)*%
X118565000Y-101400000D03*
%TD*%
D16*
%TO.P,C13,1*%
%TO.N,VDD*%
X140125000Y-104900000D03*
%TO.P,C13,2*%
%TO.N,GND*%
X141675000Y-104900000D03*
%TD*%
D17*
%TO.P,C22,1*%
%TO.N,GND*%
X124600000Y-103699998D03*
%TO.P,C22,2*%
%TO.N,Net-(U3-VDH)*%
X124600000Y-105249998D03*
%TD*%
D16*
%TO.P,C10,1*%
%TO.N,VDD*%
X140125000Y-100100000D03*
%TO.P,C10,2*%
%TO.N,GND*%
X141675000Y-100100000D03*
%TD*%
%TO.P,C1,1*%
%TO.N,VDD*%
X136922500Y-100000000D03*
%TO.P,C1,2*%
%TO.N,GND*%
X138472500Y-100000000D03*
%TD*%
%TO.P,C15,1*%
%TO.N,VDD*%
X140125000Y-108100000D03*
%TO.P,C15,2*%
%TO.N,GND*%
X141675000Y-108100000D03*
%TD*%
%TO.P,C18,1*%
%TO.N,VDD*%
X140125000Y-112900000D03*
%TO.P,C18,2*%
%TO.N,GND*%
X141675000Y-112900000D03*
%TD*%
%TO.P,C2,1*%
%TO.N,VDD*%
X136925000Y-101600000D03*
%TO.P,C2,2*%
%TO.N,GND*%
X138475000Y-101600000D03*
%TD*%
D23*
%TO.P,C3,1*%
%TO.N,GND*%
X115900000Y-107700000D03*
%TO.P,C3,2*%
%TO.N,/nreset*%
X114350000Y-107700000D03*
%TD*%
D24*
%TO.P,L1,1,1*%
%TO.N,VDD*%
X131019000Y-99799998D03*
%TO.P,L1,2,2*%
%TO.N,Net-(D1-A)*%
X131000000Y-101999998D03*
%TD*%
D25*
%TO.P,R7,1*%
%TO.N,Net-(U1-PB7)*%
X102600000Y-107225000D03*
%TO.P,R7,2*%
%TO.N,VDD*%
X102600000Y-105575000D03*
%TD*%
D16*
%TO.P,C12,1*%
%TO.N,VDD*%
X140125000Y-103300000D03*
%TO.P,C12,2*%
%TO.N,GND*%
X141675000Y-103300000D03*
%TD*%
D25*
%TO.P,R6,1*%
%TO.N,Net-(U1-PB6)*%
X102600000Y-102000000D03*
%TO.P,R6,2*%
%TO.N,VDD*%
X102600000Y-100350000D03*
%TD*%
D16*
%TO.P,C20,1*%
%TO.N,GND*%
X131200000Y-105299998D03*
%TO.P,C20,2*%
%TO.N,Net-(U3-VHDR)*%
X132750000Y-105299998D03*
%TD*%
D22*
%TO.P,C4,1*%
%TO.N,GND*%
X117925000Y-100500000D03*
%TO.P,C4,2*%
%TO.N,Net-(U1-PC14)*%
X118565000Y-100500000D03*
%TD*%
D16*
%TO.P,C21,1*%
%TO.N,GND*%
X117525000Y-107699998D03*
%TO.P,C21,2*%
%TO.N,Net-(D1-K)*%
X119075000Y-107699998D03*
%TD*%
D25*
%TO.P,R8,1*%
%TO.N,Net-(U1-PB8)*%
X102700000Y-112925000D03*
%TO.P,R8,2*%
%TO.N,VDD*%
X102700000Y-111275000D03*
%TD*%
D26*
%TO.P,Q1,1,G*%
%TO.N,Net-(Q1-G)*%
X136300000Y-106600000D03*
%TO.P,Q1,2,S*%
%TO.N,Net-(Q1-S)*%
X136300000Y-107900000D03*
%TO.P,Q1,3,D*%
%TO.N,Net-(D1-A)*%
X138300000Y-107250000D03*
%TD*%
D20*
%TO.P,R1,1*%
%TO.N,Net-(C5-Pad2)*%
X121350000Y-99300000D03*
%TO.P,R1,2*%
%TO.N,Net-(U1-PC15)*%
X123000000Y-99300000D03*
%TD*%
D18*
%TO.P,D1,1,K*%
%TO.N,Net-(D1-K)*%
X134500000Y-107299998D03*
%TO.P,D1,2,A*%
%TO.N,Net-(D1-A)*%
X131200000Y-107299998D03*
%TD*%
D27*
%TO.P,Y1,1,1*%
%TO.N,Net-(U1-PC14)*%
X118500000Y-99100000D03*
%TO.P,Y1,2,2*%
%TO.N,Net-(C5-Pad2)*%
X119900000Y-99100000D03*
%TD*%
D16*
%TO.P,C11,1*%
%TO.N,VDD*%
X140125000Y-101700000D03*
%TO.P,C11,2*%
%TO.N,GND*%
X141675000Y-101700000D03*
%TD*%
D28*
%TO.P,U1,1,VBAT*%
%TO.N,unconnected-(U1-VBAT-Pad1)*%
X123400000Y-96175000D03*
%TO.P,U1,2,PC13*%
%TO.N,unconnected-(U1-PC13-Pad2)*%
X123900000Y-96175000D03*
%TO.P,U1,3,PC14*%
%TO.N,Net-(U1-PC14)*%
X124400000Y-96175000D03*
%TO.P,U1,4,PC15*%
%TO.N,Net-(U1-PC15)*%
X124900000Y-96175000D03*
%TO.P,U1,5,PD0*%
%TO.N,unconnected-(U1-PD0-Pad5)*%
X125400000Y-96175000D03*
%TO.P,U1,6,PD1*%
%TO.N,unconnected-(U1-PD1-Pad6)*%
X125900000Y-96175000D03*
%TO.P,U1,7,NRST*%
%TO.N,/nreset*%
X126400000Y-96175000D03*
%TO.P,U1,8,VSSA*%
%TO.N,GND*%
X126900000Y-96175000D03*
%TO.P,U1,9,VDDA*%
%TO.N,VDD*%
X127400000Y-96175000D03*
%TO.P,U1,10,PA0*%
%TO.N,unconnected-(U1-PA0-Pad10)*%
X127900000Y-96175000D03*
%TO.P,U1,11,PA1*%
%TO.N,unconnected-(U1-PA1-Pad11)*%
X128400000Y-96175000D03*
%TO.P,U1,12,PA2*%
%TO.N,unconnected-(U1-PA2-Pad12)*%
X128900000Y-96175000D03*
D29*
%TO.P,U1,13,PA3*%
%TO.N,unconnected-(U1-PA3-Pad13)*%
X129587500Y-95487500D03*
%TO.P,U1,14,PA4*%
%TO.N,/epaper/epaper.spi_cs*%
X129587500Y-94987500D03*
%TO.P,U1,15,PA5*%
%TO.N,/epaper/epaper.spi_scl*%
X129587500Y-94487500D03*
%TO.P,U1,16,PA6*%
%TO.N,unconnected-(U1-PA6-Pad16)*%
X129587500Y-93987500D03*
%TO.P,U1,17,PA7*%
%TO.N,/epaper/epaper.spi_sda*%
X129587500Y-93487500D03*
%TO.P,U1,18,PB0*%
%TO.N,unconnected-(U1-PB0-Pad18)*%
X129587500Y-92987500D03*
%TO.P,U1,19,PB1*%
%TO.N,unconnected-(U1-PB1-Pad19)*%
X129587500Y-92487500D03*
%TO.P,U1,20,PB2*%
%TO.N,Net-(U1-PB2)*%
X129587500Y-91987500D03*
%TO.P,U1,21,PB10*%
%TO.N,Net-(U1-PB10)*%
X129587500Y-91487500D03*
%TO.P,U1,22,PB11*%
%TO.N,Net-(U1-PB11)*%
X129587500Y-90987500D03*
%TO.P,U1,23,VSS*%
%TO.N,GND*%
X129587500Y-90487500D03*
%TO.P,U1,24,VDD*%
%TO.N,VDD*%
X129587500Y-89987500D03*
D28*
%TO.P,U1,25,PB12*%
%TO.N,unconnected-(U1-PB12-Pad25)*%
X128900000Y-89300000D03*
%TO.P,U1,26,PB13*%
%TO.N,unconnected-(U1-PB13-Pad26)*%
X128400000Y-89300000D03*
%TO.P,U1,27,PB14*%
%TO.N,unconnected-(U1-PB14-Pad27)*%
X127900000Y-89300000D03*
%TO.P,U1,28,PB15*%
%TO.N,unconnected-(U1-PB15-Pad28)*%
X127400000Y-89300000D03*
%TO.P,U1,29,PA8*%
%TO.N,/epaper/epaper.gpio_bs*%
X126900000Y-89300000D03*
%TO.P,U1,30,PA9*%
%TO.N,/epaper/epaper.gpio_dc*%
X126400000Y-89300000D03*
%TO.P,U1,31,PA10*%
%TO.N,/epaper/epaper.gpio_busy_n*%
X125900000Y-89300000D03*
%TO.P,U1,32,PA11*%
%TO.N,/epaper/epaper.gpio_reset_n*%
X125400000Y-89300000D03*
%TO.P,U1,33,PA12*%
%TO.N,unconnected-(U1-PA12-Pad33)*%
X124900000Y-89300000D03*
%TO.P,U1,34,PA13_JTMS_SWDIO*%
%TO.N,Net-(J2-SWDIO{slash}TMS)*%
X124400000Y-89300000D03*
%TO.P,U1,35,VSS*%
%TO.N,GND*%
X123900000Y-89300000D03*
%TO.P,U1,36,VDD*%
%TO.N,VDD*%
X123400000Y-89300000D03*
D29*
%TO.P,U1,37,PA14_JTCK_SWCLK*%
%TO.N,Net-(J2-SWDCLK{slash}TCK)*%
X122712500Y-89987500D03*
%TO.P,U1,38,PA15_JTDI*%
%TO.N,Net-(J2-NC{slash}TDI)*%
X122712500Y-90487500D03*
%TO.P,U1,39,PB3*%
%TO.N,Net-(J2-SWO{slash}TDO)*%
X122712500Y-90987500D03*
%TO.P,U1,40,PB4*%
%TO.N,unconnected-(U1-PB4-Pad40)*%
X122712500Y-91487500D03*
%TO.P,U1,41,PB5*%
%TO.N,Net-(U1-PB5)*%
X122712500Y-91987500D03*
%TO.P,U1,42,PB6*%
%TO.N,Net-(U1-PB6)*%
X122712500Y-92487500D03*
%TO.P,U1,43,PB7*%
%TO.N,Net-(U1-PB7)*%
X122712500Y-92987500D03*
%TO.P,U1,44,BOOT0*%
%TO.N,Net-(U1-BOOT0)*%
X122712500Y-93487500D03*
%TO.P,U1,45,PB8*%
%TO.N,Net-(U1-PB8)*%
X122712500Y-93987500D03*
%TO.P,U1,46,PB9*%
%TO.N,unconnected-(U1-PB9-Pad46)*%
X122712500Y-94487500D03*
%TO.P,U1,47,VSS*%
%TO.N,GND*%
X122712500Y-94987500D03*
%TO.P,U1,48,VDD*%
%TO.N,VDD*%
X122712500Y-95487500D03*
D30*
%TO.P,U1,49,VSS*%
%TO.N,GND*%
X126150000Y-92737500D03*
%TD*%
D16*
%TO.P,C8,1*%
%TO.N,VDD*%
X140125000Y-96925000D03*
%TO.P,C8,2*%
%TO.N,GND*%
X141675000Y-96925000D03*
%TD*%
D17*
%TO.P,C26,1*%
%TO.N,GND*%
X119800000Y-103699998D03*
%TO.P,C26,2*%
%TO.N,Net-(D2-A)*%
X119800000Y-105249998D03*
%TD*%
%TO.P,C25,1*%
%TO.N,GND*%
X121400000Y-103699998D03*
%TO.P,C25,2*%
%TO.N,Net-(U3-VCOM)*%
X121400000Y-105249998D03*
%TD*%
D31*
%TO.P,U2,1,Vin*%
%TO.N,Vin*%
X122500000Y-82200000D03*
%TO.P,U2,2,GND*%
%TO.N,GND*%
X122500000Y-84500000D03*
%TO.P,U2,3,Vout*%
%TO.N,VDD*%
X122500000Y-86800000D03*
D32*
%TO.P,U2,4*%
%TO.N,N/C*%
X128800000Y-84500000D03*
%TD*%
D33*
%TO.P,R4,1*%
%TO.N,GND*%
X138400000Y-103500000D03*
%TO.P,R4,2*%
%TO.N,Net-(Q1-S)*%
X136575000Y-103500000D03*
%TD*%
D34*
%TO.P,R5,1*%
%TO.N,Net-(U1-PB5)*%
X102600000Y-95578000D03*
%TO.P,R5,2*%
%TO.N,VDD*%
X102600000Y-97228000D03*
%TD*%
D23*
%TO.P,C27,1*%
%TO.N,Net-(D1-A)*%
X132800000Y-103699998D03*
%TO.P,C27,2*%
%TO.N,Net-(D2-K)*%
X131250000Y-103699998D03*
%TD*%
D19*
%TO.P,C29,1*%
%TO.N,VDD*%
X133100000Y-100524998D03*
%TO.P,C29,2*%
%TO.N,GND*%
X133100000Y-101164998D03*
%TD*%
D35*
%TO.N,GND*%
X113800000Y-112700000D03*
X128300000Y-92000000D03*
X126300000Y-92000000D03*
X135400000Y-101599998D03*
X142800000Y-109000000D03*
X142800000Y-97000000D03*
X124050000Y-92000000D03*
X132900000Y-81800000D03*
X126300000Y-90500000D03*
X142800000Y-103000000D03*
X128300000Y-95000000D03*
X118300000Y-103699998D03*
X129500000Y-105399998D03*
X124050000Y-93500000D03*
X122300000Y-102300000D03*
X121700000Y-97100000D03*
X124050000Y-90500000D03*
X115300000Y-91500000D03*
X142800000Y-115000000D03*
X142800000Y-111000000D03*
X128300000Y-93500000D03*
X142800000Y-99000000D03*
X126300000Y-95000000D03*
X124050000Y-95000000D03*
X142800000Y-107000000D03*
X126000000Y-114399998D03*
X132000000Y-86000000D03*
X142800000Y-105000000D03*
X128300000Y-90500000D03*
X138500000Y-97200000D03*
X126300000Y-93500000D03*
X142800000Y-101000000D03*
X142800000Y-113000000D03*
%TO.N,VDD*%
X128250000Y-114500000D03*
X134250000Y-114500000D03*
X130050000Y-89000000D03*
X124250000Y-102250000D03*
X122700000Y-97600000D03*
X123550000Y-88250000D03*
X131100000Y-97700000D03*
X132900000Y-85100000D03*
%TO.N,Net-(D1-K)*%
X120500000Y-109099998D03*
X124300000Y-109300000D03*
X132700000Y-108200000D03*
%TO.N,Net-(D2-K)*%
X130100000Y-104300000D03*
X126300000Y-109599998D03*
%TO.N,/epaper/epaper.spi_scl*%
X129500000Y-97700000D03*
X131100000Y-95000000D03*
%TO.N,/epaper/epaper.spi_sda*%
X126300000Y-101200000D03*
X131200000Y-93800000D03*
%TO.N,/epaper/epaper.gpio_bs*%
X128300000Y-87000000D03*
X132550000Y-88000000D03*
X130200000Y-109100000D03*
X133400000Y-95500000D03*
%TO.N,/epaper/epaper.gpio_dc*%
X127000000Y-86750000D03*
X128700000Y-101100000D03*
%TO.N,/epaper/epaper.gpio_busy_n*%
X130250000Y-114750000D03*
X127000000Y-84750000D03*
%TO.N,/epaper/epaper.gpio_reset_n*%
X124600000Y-85200000D03*
X128900000Y-102600000D03*
%TO.N,Net-(U1-BOOT0)*%
X119100000Y-92200000D03*
X120400000Y-94800000D03*
%TO.N,Net-(U1-PB5)*%
X116200000Y-97900000D03*
X103500000Y-94300000D03*
%TO.N,Net-(U1-PB6)*%
X116200000Y-99300000D03*
X103000000Y-103400000D03*
%TO.N,Net-(U1-PB7)*%
X114200000Y-104100000D03*
X105500000Y-107200000D03*
%TO.N,Net-(U1-PB8)*%
X119000000Y-96700000D03*
X105500000Y-112900000D03*
%TO.N,/nreset*%
X119000000Y-90200000D03*
X116800000Y-103300000D03*
X119700000Y-102200000D03*
%TO.N,Net-(U1-PB11)*%
X131050000Y-83250000D03*
%TO.N,Net-(U1-PB10)*%
X132000000Y-90600000D03*
%TO.N,Net-(U1-PB2)*%
X131300000Y-91600000D03*
%TD*%
D36*
%TO.N,VDD*%
X139748000Y-96548000D02*
X137652000Y-96548000D01*
X136922500Y-97277500D02*
X136922500Y-100700000D01*
X140125000Y-96925000D02*
X139748000Y-96548000D01*
X136922500Y-100000000D02*
X136922500Y-100700000D01*
X136922500Y-100700000D02*
X136922500Y-101597500D01*
X137652000Y-96548000D02*
X136922500Y-97277500D01*
%TO.N,Net-(D1-A)*%
X138300000Y-107025000D02*
X135626998Y-104351998D01*
X135626998Y-104351998D02*
X133452000Y-104351998D01*
X138300000Y-107250000D02*
X138300000Y-107025000D01*
%TO.N,Net-(Q1-S)*%
X136902000Y-107298000D02*
X136300000Y-107900000D01*
X135777000Y-106123000D02*
X136823000Y-106123000D01*
X136902000Y-106202000D02*
X136902000Y-107298000D01*
X135202000Y-106698000D02*
X135777000Y-106123000D01*
X135202000Y-108743998D02*
X135202000Y-106698000D01*
X136823000Y-106123000D02*
X136902000Y-106202000D01*
X134623000Y-109322998D02*
X135202000Y-108743998D01*
%TO.N,Net-(Q1-G)*%
X135698000Y-108781157D02*
X135698000Y-107202000D01*
X135698000Y-107202000D02*
X136300000Y-106600000D01*
X134779159Y-109699998D02*
X135698000Y-108781157D01*
X134049650Y-109699998D02*
X134779159Y-109699998D01*
X133606030Y-110143618D02*
X134049650Y-109699998D01*
X133606030Y-110600000D02*
X133606030Y-110143618D01*
%TO.N,Net-(Q1-S)*%
X138902000Y-107579382D02*
X138902000Y-105827000D01*
X138581382Y-107900000D02*
X138902000Y-107579382D01*
X136300000Y-107900000D02*
X138581382Y-107900000D01*
X138902000Y-105827000D02*
X136575000Y-103500000D01*
%TO.N,GND*%
X138475000Y-103425000D02*
X138400000Y-103500000D01*
X138475000Y-101600000D02*
X138475000Y-103425000D01*
%TO.N,VDD*%
X135682066Y-100000000D02*
X136922500Y-100000000D01*
X135202068Y-100479998D02*
X135682066Y-100000000D01*
X134250000Y-114500000D02*
X140125000Y-114500000D01*
%TO.N,Net-(D1-K)*%
X124106030Y-109493970D02*
X124106030Y-110600000D01*
X124300000Y-109300000D02*
X124106030Y-109493970D01*
%TO.N,Net-(U3-VDH)*%
X124606030Y-110143618D02*
X124606030Y-110600000D01*
X125229030Y-109600000D02*
X125149648Y-109600000D01*
X125149648Y-109600000D02*
X124606030Y-110143618D01*
X124643842Y-108576998D02*
X125229030Y-109162186D01*
X125229030Y-109162186D02*
X125229030Y-109600000D01*
X124069259Y-108576998D02*
X124643842Y-108576998D01*
X123400000Y-107907739D02*
X124069259Y-108576998D01*
X124600000Y-105249998D02*
X123400000Y-106449998D01*
X123400000Y-106449998D02*
X123400000Y-107907739D01*
%TO.N,GND*%
X113700000Y-112600000D02*
X113700000Y-109700000D01*
X113800000Y-112700000D02*
X113700000Y-112600000D01*
X113800000Y-115700000D02*
X113800000Y-112700000D01*
X113700000Y-115700000D02*
X113800000Y-115700000D01*
%TO.N,/nreset*%
X117400000Y-115700000D02*
X117400000Y-109700000D01*
X116350000Y-109700000D02*
X114350000Y-107700000D01*
X117400000Y-109700000D02*
X116350000Y-109700000D01*
%TO.N,Net-(U3-VDDD)*%
X124225418Y-108199998D02*
X124800000Y-108199998D01*
X123898000Y-107872580D02*
X124225418Y-108199998D01*
X123898000Y-106727416D02*
X123898000Y-107872580D01*
X124177418Y-106447998D02*
X123898000Y-106727416D01*
X125002000Y-106447998D02*
X124177418Y-106447998D01*
X124800000Y-108199998D02*
X125606030Y-109006028D01*
X126200000Y-105249998D02*
X125002000Y-106447998D01*
X125606030Y-109006028D02*
X125606030Y-110600000D01*
%TO.N,Net-(U3-VDL)*%
X122100000Y-106325416D02*
X122100000Y-108308264D01*
X122100000Y-108308264D02*
X123606030Y-109814294D01*
X123606030Y-109814294D02*
X123606030Y-110600000D01*
X123000000Y-105425416D02*
X122100000Y-106325416D01*
X123000000Y-105249998D02*
X123000000Y-105425416D01*
%TO.N,Net-(D2-A)*%
X123106030Y-109847452D02*
X123106030Y-110600000D01*
X121300000Y-108041422D02*
X123106030Y-109847452D01*
X121300000Y-107299998D02*
X121300000Y-108041422D01*
%TO.N,Net-(U3-VCOM)*%
X120333421Y-107608001D02*
X122606030Y-109880610D01*
X119216579Y-106316577D02*
X119783421Y-106316577D01*
X118700000Y-104899998D02*
X118700000Y-105799998D01*
X118700000Y-105799998D02*
X119216579Y-106316577D01*
X120333421Y-106866577D02*
X120333421Y-107608001D01*
X120698000Y-104547998D02*
X119052000Y-104547998D01*
X122606030Y-109880610D02*
X122606030Y-110600000D01*
X119052000Y-104547998D02*
X118700000Y-104899998D01*
X119783421Y-106316577D02*
X120333421Y-106866577D01*
X121400000Y-105249998D02*
X120698000Y-104547998D01*
%TO.N,Net-(Q1-S)*%
X133106030Y-110110460D02*
X133106030Y-110600000D01*
X133893492Y-109322998D02*
X133106030Y-110110460D01*
X134623000Y-109322998D02*
X133893492Y-109322998D01*
%TO.N,VDD*%
X126606030Y-110600000D02*
X127106030Y-110600000D01*
X126606030Y-112193968D02*
X126606030Y-110600000D01*
X126600000Y-112199998D02*
X126606030Y-112193968D01*
%TO.N,GND*%
X126106030Y-112193968D02*
X126106030Y-110600000D01*
X126100000Y-112199998D02*
X126106030Y-112193968D01*
%TO.N,/epaper/epaper.gpio_busy_n*%
X130106030Y-112193968D02*
X130106030Y-110600000D01*
X130100000Y-112199998D02*
X130106030Y-112193968D01*
%TO.N,/epaper/epaper.gpio_reset_n*%
X129548000Y-110541970D02*
X129606030Y-110600000D01*
X129548000Y-108829932D02*
X129548000Y-110541970D01*
X128608000Y-107889932D02*
X129548000Y-108829932D01*
X128608000Y-103492000D02*
X128608000Y-107889932D01*
%TO.N,/epaper/epaper.gpio_dc*%
X129106030Y-109239714D02*
X129106030Y-110600000D01*
X128231000Y-108364684D02*
X129106030Y-109239714D01*
X128231000Y-101469000D02*
X128231000Y-108364684D01*
%TO.N,/epaper/epaper.spi_cs*%
X128606030Y-109272872D02*
X128606030Y-110600000D01*
X127854000Y-100587559D02*
X127854000Y-108520842D01*
X127854000Y-108520842D02*
X128606030Y-109272872D01*
%TO.N,/epaper/epaper.spi_scl*%
X128106030Y-109306030D02*
X128106030Y-110600000D01*
X127477000Y-108677000D02*
X128106030Y-109306030D01*
X127477000Y-99723000D02*
X127477000Y-108677000D01*
%TO.N,/epaper/epaper.spi_sda*%
X127606030Y-109706030D02*
X127606030Y-110600000D01*
X127100000Y-109200000D02*
X127606030Y-109706030D01*
X127100000Y-102100000D02*
X127100000Y-109200000D01*
%TO.N,Net-(D1-K)*%
X133600002Y-107299998D02*
X132700000Y-108200000D01*
X134500000Y-107299998D02*
X133600002Y-107299998D01*
%TO.N,Net-(U3-VHDR)*%
X130498000Y-106501998D02*
X130498000Y-107872580D01*
X131622582Y-106026998D02*
X130973000Y-106026998D01*
X132106030Y-109480610D02*
X132106030Y-110600000D01*
X132349582Y-105299998D02*
X131622582Y-106026998D01*
X130973000Y-106026998D02*
X130498000Y-106501998D01*
X130498000Y-107872580D02*
X132106030Y-109480610D01*
X132750000Y-105299998D02*
X132349582Y-105299998D01*
%TO.N,/epaper/epaper.gpio_bs*%
X130606030Y-109506030D02*
X130606030Y-110600000D01*
X130200000Y-109100000D02*
X130606030Y-109506030D01*
%TO.N,GND*%
X114400000Y-89280000D02*
X113200000Y-89280000D01*
X118300000Y-103699998D02*
X117925000Y-103324998D01*
X117525000Y-104474998D02*
X118300000Y-103699998D01*
X113200000Y-89280000D02*
X112948000Y-89028000D01*
X129587500Y-90487500D02*
X128312500Y-90487500D01*
X126300000Y-90500000D02*
X126300000Y-95000000D01*
X126900000Y-97700000D02*
X122300000Y-102300000D01*
X126100000Y-112199998D02*
X126100000Y-114299998D01*
X128312500Y-90487500D02*
X128300000Y-90500000D01*
X112948000Y-86992000D02*
X113200000Y-86740000D01*
X115250000Y-91550000D02*
X115300000Y-91500000D01*
X117524998Y-107700000D02*
X117525000Y-107699998D01*
X125500000Y-81500000D02*
X132600000Y-81500000D01*
X126900000Y-96175000D02*
X126900000Y-97700000D01*
X122712500Y-94987500D02*
X122275000Y-94987500D01*
X138500000Y-97200000D02*
X138475000Y-97225000D01*
X122300000Y-103599998D02*
X122200000Y-103699998D01*
X134255000Y-101164998D02*
X134300000Y-101119998D01*
X128300000Y-92000000D02*
X124050000Y-92000000D01*
X123900000Y-89300000D02*
X123900000Y-90350000D01*
X117525000Y-107699998D02*
X117525000Y-104474998D01*
X128300000Y-93500000D02*
X124050000Y-93500000D01*
X132000000Y-82700000D02*
X132900000Y-81800000D01*
X115900000Y-107700000D02*
X117524998Y-107700000D01*
X117925000Y-103324998D02*
X117925000Y-100500000D01*
X135400000Y-101599998D02*
X135300000Y-101499998D01*
X115250000Y-93500000D02*
X115250000Y-91550000D01*
X132600000Y-81500000D02*
X132900000Y-81800000D01*
X115250000Y-91450000D02*
X115250000Y-90130000D01*
X122712500Y-94987500D02*
X124037500Y-94987500D01*
X112948000Y-89028000D02*
X112948000Y-86992000D01*
X132000000Y-86000000D02*
X132000000Y-82700000D01*
X126900000Y-96175000D02*
X126900000Y-95600000D01*
X122300000Y-102300000D02*
X122300000Y-103599998D01*
X122275000Y-94987500D02*
X121700000Y-95562500D01*
X115300000Y-91500000D02*
X115250000Y-91450000D01*
X128300000Y-90500000D02*
X124050000Y-90500000D01*
X134300000Y-101119998D02*
X134920000Y-101119998D01*
X115250000Y-90130000D02*
X114400000Y-89280000D01*
X131200000Y-105299998D02*
X129600000Y-105299998D01*
X122500000Y-84500000D02*
X125500000Y-81500000D01*
X129600000Y-105299998D02*
X129500000Y-105399998D01*
X121700000Y-95562500D02*
X121700000Y-97100000D01*
X128300000Y-95000000D02*
X128300000Y-90500000D01*
X124050000Y-95000000D02*
X128300000Y-95000000D01*
X126100000Y-114299998D02*
X126000000Y-114399998D01*
X126900000Y-95600000D02*
X126300000Y-95000000D01*
X114400000Y-86740000D02*
X114400000Y-85470000D01*
X113200000Y-86740000D02*
X114400000Y-86740000D01*
X129500000Y-107299998D02*
X129500000Y-105399998D01*
X122200000Y-103699998D02*
X118300000Y-103699998D01*
X133100000Y-101164998D02*
X134255000Y-101164998D01*
X138475000Y-97225000D02*
X138475000Y-101600000D01*
X134920000Y-101119998D02*
X135400000Y-101599998D01*
X124050000Y-90500000D02*
X124050000Y-95000000D01*
X124037500Y-94987500D02*
X124050000Y-95000000D01*
X126200000Y-103699998D02*
X122200000Y-103699998D01*
X123900000Y-90350000D02*
X124050000Y-90500000D01*
%TO.N,VDD*%
X122500000Y-86800000D02*
X121556382Y-86800000D01*
X129587500Y-89987500D02*
X130100000Y-89475000D01*
X130958382Y-99048000D02*
X132153191Y-97853191D01*
X133145000Y-100479998D02*
X133100000Y-100524998D01*
X102600000Y-97228000D02*
X102600000Y-100350000D01*
X131100000Y-97700000D02*
X131253191Y-97853191D01*
X130050000Y-89000000D02*
X130100000Y-89200000D01*
X121556382Y-86800000D02*
X119578382Y-84822000D01*
X126600000Y-112199998D02*
X127100000Y-112199998D01*
X101873000Y-101077000D02*
X102600000Y-100350000D01*
X133100000Y-100524998D02*
X131744000Y-100524998D01*
X130267002Y-99048000D02*
X130958382Y-99048000D01*
X132153191Y-97853191D02*
X134053191Y-95953191D01*
X123400000Y-88400000D02*
X123550000Y-88250000D01*
X131019000Y-99799998D02*
X130267002Y-99048000D01*
X127100000Y-112199998D02*
X127100000Y-113699998D01*
X128000000Y-98500000D02*
X124250000Y-102250000D01*
X115022000Y-84822000D02*
X114400000Y-84200000D01*
X140050000Y-103200000D02*
X140050000Y-105700000D01*
X112571000Y-87732000D02*
X112571000Y-85372618D01*
X122700000Y-97600000D02*
X122712500Y-97487500D01*
X132900000Y-85100000D02*
X134053191Y-86253191D01*
X134053191Y-86253191D02*
X134053191Y-95953191D01*
X113743618Y-84200000D02*
X114400000Y-84200000D01*
X122712500Y-95487500D02*
X122700000Y-97600000D01*
X123550000Y-88250000D02*
X123550000Y-87850000D01*
X102600000Y-97228000D02*
X103075000Y-97228000D01*
X123550000Y-87850000D02*
X122500000Y-86800000D01*
X119578382Y-84822000D02*
X115022000Y-84822000D01*
X140050000Y-105150000D02*
X140050000Y-105700000D01*
X102700000Y-111275000D02*
X101873000Y-110448000D01*
X136922500Y-101597500D02*
X136925000Y-101600000D01*
X127400000Y-97900000D02*
X128000000Y-98500000D01*
X130100000Y-89475000D02*
X130050000Y-89000000D01*
X101873000Y-106302000D02*
X102600000Y-105575000D01*
X135202068Y-100479998D02*
X134300000Y-100479998D01*
X103075000Y-97228000D02*
X112571000Y-87732000D01*
X127100000Y-113699998D02*
X127900002Y-114500000D01*
X127400000Y-96175000D02*
X127400000Y-97900000D01*
X101873000Y-110448000D02*
X101873000Y-106302000D01*
X101873000Y-104848000D02*
X101873000Y-101077000D01*
X102600000Y-105575000D02*
X101873000Y-104848000D01*
X127900002Y-114500000D02*
X128250000Y-114500000D01*
X112571000Y-85372618D02*
X113743618Y-84200000D01*
X131744000Y-100524998D02*
X131019000Y-99799998D01*
X140050000Y-96825000D02*
X140050000Y-103027930D01*
X131253191Y-97853191D02*
X132153191Y-97853191D01*
X134300000Y-100479998D02*
X133145000Y-100479998D01*
X140050000Y-105700000D02*
X140050000Y-114400000D01*
X123400000Y-89300000D02*
X123400000Y-88400000D01*
%TO.N,Net-(C5-Pad2)*%
X121350000Y-99300000D02*
X120100000Y-99300000D01*
X118565000Y-101400000D02*
X119900000Y-100065000D01*
X119900000Y-100065000D02*
X119900000Y-99100000D01*
X120100000Y-99300000D02*
X119900000Y-99100000D01*
%TO.N,Net-(D1-K)*%
X119075000Y-107699998D02*
X119100000Y-107699998D01*
X119100000Y-107699998D02*
X120500000Y-109099998D01*
X120500000Y-109099998D02*
X120400000Y-108999998D01*
%TO.N,Net-(D2-A)*%
X119800000Y-105249998D02*
X119800000Y-105799998D01*
X119800000Y-105799998D02*
X121300000Y-107299998D01*
%TO.N,Net-(D1-A)*%
X133452000Y-105747580D02*
X133452000Y-104351998D01*
X131200000Y-107299998D02*
X131899582Y-107299998D01*
X131000000Y-101999998D02*
X132700000Y-103699998D01*
X133452000Y-104351998D02*
X132800000Y-103699998D01*
X131899582Y-107299998D02*
X133452000Y-105747580D01*
X132700000Y-103699998D02*
X132800000Y-103699998D01*
%TO.N,Net-(D2-K)*%
X126400000Y-109599998D02*
X126300000Y-109499998D01*
X124600000Y-107299998D02*
X126200000Y-107299998D01*
X130100000Y-104300000D02*
X130649998Y-104300000D01*
X126200000Y-107299998D02*
X126200000Y-109399998D01*
X130649998Y-104300000D02*
X131250000Y-103699998D01*
X126300000Y-109499998D02*
X126300000Y-109599998D01*
X126200000Y-109399998D02*
X126300000Y-109499998D01*
X126300000Y-109599998D02*
X126400000Y-109599998D01*
%TO.N,/epaper/epaper.spi_cs*%
X130277000Y-95239500D02*
X130025000Y-94987500D01*
X130025000Y-94987500D02*
X129587500Y-94987500D01*
X127854000Y-100587559D02*
X130277000Y-98164559D01*
X130277000Y-98164559D02*
X130277000Y-95239500D01*
%TO.N,/epaper/epaper.spi_scl*%
X129500000Y-97758441D02*
X129500000Y-97700000D01*
X129558441Y-97700000D02*
X129500000Y-97758441D01*
X129500000Y-97700000D02*
X129558441Y-97700000D01*
X130587500Y-94487500D02*
X129587500Y-94487500D01*
X131100000Y-95000000D02*
X130587500Y-94487500D01*
X129500000Y-97700000D02*
X127477000Y-99723000D01*
%TO.N,/epaper/epaper.spi_sda*%
X127100000Y-102100000D02*
X126300000Y-101300000D01*
X126200000Y-101200000D02*
X126300000Y-101300000D01*
X131200000Y-93800000D02*
X131100000Y-93700000D01*
X129587500Y-93487500D02*
X130887500Y-93487500D01*
X126300000Y-101200000D02*
X126200000Y-101200000D01*
X126300000Y-101300000D02*
X126300000Y-101200000D01*
X130887500Y-93487500D02*
X131200000Y-93800000D01*
%TO.N,/epaper/epaper.gpio_bs*%
X133300000Y-88000000D02*
X132550000Y-88000000D01*
X128300000Y-87000000D02*
X126900000Y-88400000D01*
X133400000Y-88100000D02*
X133300000Y-88000000D01*
X126900000Y-88400000D02*
X126900000Y-89300000D01*
X132550000Y-88000000D02*
X132800000Y-88000000D01*
X133400000Y-95500000D02*
X133400000Y-88100000D01*
%TO.N,/epaper/epaper.gpio_dc*%
X128700000Y-101100000D02*
X128700000Y-101000000D01*
X128231000Y-101469000D02*
X128600000Y-101100000D01*
X128700000Y-101000000D02*
X128600000Y-101100000D01*
X128600000Y-101100000D02*
X128700000Y-101100000D01*
X126450000Y-89300000D02*
X126450000Y-87300000D01*
X126450000Y-87300000D02*
X127000000Y-86750000D01*
X126400000Y-89300000D02*
X126450000Y-89300000D01*
%TO.N,/epaper/epaper.gpio_busy_n*%
X130100000Y-112199998D02*
X130100000Y-114650000D01*
X127000000Y-84750000D02*
X127000000Y-85577932D01*
X127000000Y-85577932D02*
X125900000Y-86677932D01*
X130200000Y-114750000D02*
X130250000Y-114750000D01*
X125900000Y-86677932D02*
X125900000Y-89300000D01*
X130250000Y-114750000D02*
X130250000Y-114800000D01*
X130100000Y-114650000D02*
X130200000Y-114750000D01*
X130250000Y-114800000D02*
X130200000Y-114750000D01*
%TO.N,/epaper/epaper.gpio_reset_n*%
X128900000Y-102600000D02*
X128900000Y-102700000D01*
X124600000Y-85200000D02*
X124848000Y-85448000D01*
X124848000Y-88365730D02*
X125400000Y-88917730D01*
X128608000Y-103492000D02*
X128900000Y-103200000D01*
X125400000Y-88917730D02*
X125400000Y-89300000D01*
X124848000Y-85448000D02*
X124848000Y-88365730D01*
X128900000Y-103200000D02*
X128900000Y-102600000D01*
%TO.N,Net-(U1-PC14)*%
X119302000Y-98298000D02*
X123468842Y-98298000D01*
X123468842Y-98298000D02*
X124400000Y-97366842D01*
X118565000Y-99165000D02*
X118500000Y-99100000D01*
X124400000Y-97366842D02*
X124400000Y-96175000D01*
X118565000Y-100500000D02*
X118565000Y-99165000D01*
X118500000Y-99100000D02*
X119302000Y-98298000D01*
%TO.N,Net-(U1-PC15)*%
X124900000Y-97400000D02*
X124900000Y-96175000D01*
X123000000Y-99300000D02*
X124900000Y-97400000D01*
%TO.N,Net-(U1-BOOT0)*%
X116900000Y-93500000D02*
X117800000Y-93500000D01*
X121712500Y-93487500D02*
X122712500Y-93487500D01*
X117800000Y-93500000D02*
X119100000Y-92200000D01*
X120400000Y-94800000D02*
X121712500Y-93487500D01*
%TO.N,Net-(U1-PB5)*%
X103500000Y-94678000D02*
X102600000Y-95578000D01*
X116800000Y-97300000D02*
X116800000Y-95966841D01*
X116200000Y-97900000D02*
X116800000Y-97300000D01*
X103500000Y-94300000D02*
X103500000Y-94678000D01*
X116800000Y-95966841D02*
X120779341Y-91987500D01*
X120779341Y-91987500D02*
X122712500Y-91987500D01*
%TO.N,Net-(U1-PB6)*%
X102600000Y-102000000D02*
X102600000Y-103000000D01*
X120812500Y-92487500D02*
X122712500Y-92487500D01*
X117400000Y-95900000D02*
X120812500Y-92487500D01*
X116200000Y-99300000D02*
X117400000Y-98100000D01*
X102600000Y-103000000D02*
X103000000Y-103400000D01*
X117400000Y-98100000D02*
X117400000Y-95900000D01*
%TO.N,Net-(U1-PB7)*%
X105450000Y-107225000D02*
X105425000Y-107225000D01*
X114200000Y-103100000D02*
X114200000Y-104100000D01*
X102600000Y-107225000D02*
X105400000Y-107225000D01*
X105500000Y-107200000D02*
X105450000Y-107225000D01*
X117777000Y-99523000D02*
X114200000Y-103100000D01*
X122712500Y-92987500D02*
X120912500Y-92987500D01*
X105400000Y-107225000D02*
X105500000Y-107200000D01*
X117777000Y-96123000D02*
X117777000Y-99523000D01*
X120912500Y-92987500D02*
X117777000Y-96123000D01*
X114200000Y-104100000D02*
X114200000Y-104000000D01*
%TO.N,Net-(U1-PB8)*%
X119617730Y-96700000D02*
X119000000Y-96700000D01*
X105400000Y-112925000D02*
X105500000Y-112900000D01*
X119000000Y-96700000D02*
X119200000Y-96700000D01*
X122330230Y-93987500D02*
X120700000Y-95617730D01*
X102700000Y-112925000D02*
X105400000Y-112925000D01*
X122712500Y-93987500D02*
X122330230Y-93987500D01*
X105500000Y-112900000D02*
X105450000Y-112925000D01*
X105450000Y-112925000D02*
X105425000Y-112925000D01*
X120700000Y-95617730D02*
X119617730Y-96700000D01*
%TO.N,/nreset*%
X118300000Y-89500000D02*
X119000000Y-90200000D01*
X114350000Y-105760000D02*
X116800000Y-103310000D01*
X119700000Y-102200000D02*
X121214224Y-102200000D01*
X116800000Y-103310000D02*
X116800000Y-103300000D01*
X116810000Y-103300000D02*
X116800000Y-103310000D01*
X126400000Y-97014224D02*
X126400000Y-96175000D01*
X116800000Y-103300000D02*
X116810000Y-103300000D01*
X121214224Y-102200000D02*
X126400000Y-97014224D01*
X114350000Y-107700000D02*
X114350000Y-105760000D01*
X118300000Y-89280000D02*
X118300000Y-89500000D01*
%TO.N,Net-(J2-SWDIO{slash}TMS)*%
X124400000Y-89300000D02*
X124400000Y-86593618D01*
X124400000Y-86593618D02*
X123308382Y-85502000D01*
X123308382Y-85502000D02*
X120802000Y-85502000D01*
X119500000Y-84200000D02*
X118300000Y-84200000D01*
X120802000Y-85502000D02*
X119500000Y-84200000D01*
%TO.N,Net-(J2-SWDCLK{slash}TCK)*%
X120583420Y-86553420D02*
X119500000Y-85470000D01*
X119500000Y-85470000D02*
X118300000Y-85470000D01*
X120583420Y-87858420D02*
X120583420Y-86553420D01*
X122712500Y-89987500D02*
X120583420Y-87858420D01*
%TO.N,Net-(J2-SWO{slash}TDO)*%
X117100000Y-86740000D02*
X118300000Y-86740000D01*
X116848000Y-89801618D02*
X116848000Y-86992000D01*
X118033882Y-90987500D02*
X116848000Y-89801618D01*
X116848000Y-86992000D02*
X117100000Y-86740000D01*
X122712500Y-90987500D02*
X118033882Y-90987500D01*
%TO.N,Net-(J2-NC{slash}TDI)*%
X122275000Y-90487500D02*
X119797500Y-88010000D01*
X122712500Y-90487500D02*
X122275000Y-90487500D01*
X119797500Y-88010000D02*
X118300000Y-88010000D01*
%TO.N,Vin*%
X122448000Y-82148000D02*
X122500000Y-82200000D01*
D37*
X112652000Y-82148000D02*
X122448000Y-82148000D01*
X109700000Y-85100000D02*
X112652000Y-82148000D01*
D36*
%TO.N,Net-(U1-PB11)*%
X130025000Y-90987500D02*
X129587500Y-90987500D01*
X131050000Y-83250000D02*
X131148000Y-88548000D01*
X131148000Y-88548000D02*
X131148000Y-89864500D01*
X131148000Y-89864500D02*
X130025000Y-90987500D01*
X131050000Y-83250000D02*
X131148000Y-83402000D01*
%TO.N,Net-(U1-PB10)*%
X130304158Y-91487500D02*
X131300000Y-90491658D01*
X132000000Y-90600000D02*
X131908342Y-90491658D01*
X129587500Y-91487500D02*
X130304158Y-91487500D01*
X131300000Y-90491658D02*
X132000000Y-90600000D01*
%TO.N,Net-(U1-PB2)*%
X131200000Y-92000000D02*
X131300000Y-91600000D01*
X130025000Y-91987500D02*
X130037500Y-92000000D01*
X131300000Y-91600000D02*
X131400000Y-91800000D01*
X129587500Y-91987500D02*
X130025000Y-91987500D01*
X130037500Y-92000000D02*
X131200000Y-92000000D01*
%TD*%
%TA.AperFunction,Conductor*%
%TO.N,GND*%
G36*
X143443039Y-95919685D02*
G01*
X143488794Y-95972489D01*
X143500000Y-96024000D01*
X143500000Y-115376000D01*
X143480315Y-115443039D01*
X143427511Y-115488794D01*
X143376000Y-115500000D01*
X142474667Y-115500000D01*
X142407628Y-115480315D01*
X142361873Y-115427511D01*
X142351929Y-115358353D01*
X142380954Y-115294797D01*
X142386986Y-115288319D01*
X142472572Y-115202732D01*
X142472575Y-115202728D01*
X142561542Y-115058492D01*
X142561547Y-115058481D01*
X142614855Y-114897606D01*
X142624999Y-114798322D01*
X142625000Y-114798309D01*
X142625000Y-114750000D01*
X141549000Y-114750000D01*
X141481961Y-114730315D01*
X141436206Y-114677511D01*
X141425000Y-114626000D01*
X141425000Y-113150000D01*
X141925000Y-113150000D01*
X141925000Y-114250000D01*
X142624999Y-114250000D01*
X142624999Y-114201692D01*
X142624998Y-114201677D01*
X142614855Y-114102392D01*
X142561547Y-113941518D01*
X142561542Y-113941507D01*
X142472575Y-113797271D01*
X142472572Y-113797267D01*
X142462986Y-113787681D01*
X142429501Y-113726358D01*
X142434485Y-113656666D01*
X142462986Y-113612319D01*
X142472572Y-113602732D01*
X142472575Y-113602728D01*
X142561542Y-113458492D01*
X142561547Y-113458481D01*
X142614855Y-113297606D01*
X142624999Y-113198322D01*
X142625000Y-113198309D01*
X142625000Y-113150000D01*
X141925000Y-113150000D01*
X141425000Y-113150000D01*
X141425000Y-111550000D01*
X141925000Y-111550000D01*
X141925000Y-112650000D01*
X142624999Y-112650000D01*
X142624999Y-112601692D01*
X142624998Y-112601677D01*
X142614855Y-112502392D01*
X142561547Y-112341518D01*
X142561542Y-112341507D01*
X142472575Y-112197271D01*
X142472572Y-112197267D01*
X142462986Y-112187681D01*
X142429501Y-112126358D01*
X142434485Y-112056666D01*
X142462986Y-112012319D01*
X142472572Y-112002732D01*
X142472575Y-112002728D01*
X142561542Y-111858492D01*
X142561547Y-111858481D01*
X142614855Y-111697606D01*
X142624999Y-111598322D01*
X142625000Y-111598309D01*
X142625000Y-111550000D01*
X141925000Y-111550000D01*
X141425000Y-111550000D01*
X141425000Y-109950000D01*
X141925000Y-109950000D01*
X141925000Y-111050000D01*
X142624999Y-111050000D01*
X142624999Y-111001692D01*
X142624998Y-111001677D01*
X142614855Y-110902392D01*
X142561547Y-110741518D01*
X142561542Y-110741507D01*
X142472575Y-110597271D01*
X142472572Y-110597267D01*
X142462986Y-110587681D01*
X142429501Y-110526358D01*
X142434485Y-110456666D01*
X142462986Y-110412319D01*
X142472572Y-110402732D01*
X142472575Y-110402728D01*
X142561542Y-110258492D01*
X142561547Y-110258481D01*
X142614855Y-110097606D01*
X142624999Y-109998322D01*
X142625000Y-109998309D01*
X142625000Y-109950000D01*
X141925000Y-109950000D01*
X141425000Y-109950000D01*
X141425000Y-108350000D01*
X141925000Y-108350000D01*
X141925000Y-109450000D01*
X142624999Y-109450000D01*
X142624999Y-109401692D01*
X142624998Y-109401677D01*
X142614855Y-109302392D01*
X142561547Y-109141518D01*
X142561542Y-109141507D01*
X142472575Y-108997271D01*
X142472572Y-108997267D01*
X142462986Y-108987681D01*
X142429501Y-108926358D01*
X142434485Y-108856666D01*
X142462986Y-108812319D01*
X142472572Y-108802732D01*
X142472575Y-108802728D01*
X142561542Y-108658492D01*
X142561547Y-108658481D01*
X142614855Y-108497606D01*
X142624999Y-108398322D01*
X142625000Y-108398309D01*
X142625000Y-108350000D01*
X141925000Y-108350000D01*
X141425000Y-108350000D01*
X141425000Y-106750000D01*
X141925000Y-106750000D01*
X141925000Y-107850000D01*
X142624999Y-107850000D01*
X142624999Y-107801692D01*
X142624998Y-107801677D01*
X142614855Y-107702392D01*
X142561547Y-107541518D01*
X142561542Y-107541507D01*
X142472575Y-107397271D01*
X142472572Y-107397267D01*
X142462986Y-107387681D01*
X142429501Y-107326358D01*
X142434485Y-107256666D01*
X142462986Y-107212319D01*
X142472572Y-107202732D01*
X142472575Y-107202728D01*
X142561542Y-107058492D01*
X142561547Y-107058481D01*
X142614855Y-106897606D01*
X142624999Y-106798322D01*
X142625000Y-106798309D01*
X142625000Y-106750000D01*
X141925000Y-106750000D01*
X141425000Y-106750000D01*
X141425000Y-105150000D01*
X141925000Y-105150000D01*
X141925000Y-106250000D01*
X142624999Y-106250000D01*
X142624999Y-106201692D01*
X142624998Y-106201677D01*
X142614855Y-106102392D01*
X142561547Y-105941518D01*
X142561542Y-105941507D01*
X142472575Y-105797271D01*
X142472572Y-105797267D01*
X142462986Y-105787681D01*
X142429501Y-105726358D01*
X142434485Y-105656666D01*
X142462986Y-105612319D01*
X142472572Y-105602732D01*
X142472575Y-105602728D01*
X142561542Y-105458492D01*
X142561547Y-105458481D01*
X142614855Y-105297606D01*
X142624999Y-105198322D01*
X142625000Y-105198309D01*
X142625000Y-105150000D01*
X141925000Y-105150000D01*
X141425000Y-105150000D01*
X141425000Y-103550000D01*
X141925000Y-103550000D01*
X141925000Y-104650000D01*
X142624999Y-104650000D01*
X142624999Y-104601692D01*
X142624998Y-104601677D01*
X142614855Y-104502392D01*
X142561547Y-104341518D01*
X142561542Y-104341507D01*
X142472575Y-104197271D01*
X142472572Y-104197267D01*
X142462986Y-104187681D01*
X142429501Y-104126358D01*
X142434485Y-104056666D01*
X142462986Y-104012319D01*
X142472572Y-104002732D01*
X142472575Y-104002728D01*
X142561542Y-103858492D01*
X142561547Y-103858481D01*
X142614855Y-103697606D01*
X142624999Y-103598322D01*
X142625000Y-103598309D01*
X142625000Y-103550000D01*
X141925000Y-103550000D01*
X141425000Y-103550000D01*
X141425000Y-101950000D01*
X141925000Y-101950000D01*
X141925000Y-103050000D01*
X142624999Y-103050000D01*
X142624999Y-103001692D01*
X142624998Y-103001677D01*
X142614855Y-102902392D01*
X142561547Y-102741518D01*
X142561542Y-102741507D01*
X142472575Y-102597271D01*
X142472572Y-102597267D01*
X142462986Y-102587681D01*
X142429501Y-102526358D01*
X142434485Y-102456666D01*
X142462986Y-102412319D01*
X142472572Y-102402732D01*
X142472575Y-102402728D01*
X142561542Y-102258492D01*
X142561547Y-102258481D01*
X142614855Y-102097606D01*
X142624999Y-101998322D01*
X142625000Y-101998309D01*
X142625000Y-101950000D01*
X141925000Y-101950000D01*
X141425000Y-101950000D01*
X141425000Y-100350000D01*
X141925000Y-100350000D01*
X141925000Y-101450000D01*
X142624999Y-101450000D01*
X142624999Y-101401692D01*
X142624998Y-101401677D01*
X142614855Y-101302392D01*
X142561547Y-101141518D01*
X142561542Y-101141507D01*
X142472575Y-100997271D01*
X142472572Y-100997267D01*
X142462986Y-100987681D01*
X142429501Y-100926358D01*
X142434485Y-100856666D01*
X142462986Y-100812319D01*
X142472572Y-100802732D01*
X142472575Y-100802728D01*
X142561542Y-100658492D01*
X142561547Y-100658481D01*
X142614855Y-100497606D01*
X142624999Y-100398322D01*
X142625000Y-100398309D01*
X142625000Y-100350000D01*
X141925000Y-100350000D01*
X141425000Y-100350000D01*
X141425000Y-98750000D01*
X141925000Y-98750000D01*
X141925000Y-99850000D01*
X142624999Y-99850000D01*
X142624999Y-99801692D01*
X142624998Y-99801677D01*
X142614855Y-99702392D01*
X142561547Y-99541518D01*
X142561542Y-99541507D01*
X142472575Y-99397271D01*
X142472572Y-99397267D01*
X142462986Y-99387681D01*
X142429501Y-99326358D01*
X142434485Y-99256666D01*
X142462986Y-99212319D01*
X142472572Y-99202732D01*
X142472575Y-99202728D01*
X142561542Y-99058492D01*
X142561547Y-99058481D01*
X142614855Y-98897606D01*
X142624999Y-98798322D01*
X142625000Y-98798309D01*
X142625000Y-98750000D01*
X141925000Y-98750000D01*
X141425000Y-98750000D01*
X141425000Y-97175000D01*
X141925000Y-97175000D01*
X141925000Y-98250000D01*
X142624999Y-98250000D01*
X142624999Y-98201692D01*
X142624998Y-98201677D01*
X142614855Y-98102392D01*
X142561547Y-97941518D01*
X142561542Y-97941507D01*
X142472575Y-97797271D01*
X142468095Y-97791605D01*
X142469986Y-97790109D01*
X142442001Y-97738858D01*
X142446985Y-97669166D01*
X142469341Y-97634380D01*
X142468095Y-97633395D01*
X142472575Y-97627728D01*
X142561542Y-97483492D01*
X142561547Y-97483481D01*
X142614855Y-97322606D01*
X142624999Y-97223322D01*
X142625000Y-97223309D01*
X142625000Y-97175000D01*
X141925000Y-97175000D01*
X141425000Y-97175000D01*
X141425000Y-96799000D01*
X141444685Y-96731961D01*
X141497489Y-96686206D01*
X141549000Y-96675000D01*
X142624999Y-96675000D01*
X142624999Y-96626692D01*
X142624998Y-96626677D01*
X142614855Y-96527392D01*
X142561547Y-96366518D01*
X142561542Y-96366507D01*
X142472575Y-96222271D01*
X142472572Y-96222267D01*
X142361986Y-96111681D01*
X142328501Y-96050358D01*
X142333485Y-95980666D01*
X142375357Y-95924733D01*
X142440821Y-95900316D01*
X142449667Y-95900000D01*
X143376000Y-95900000D01*
X143443039Y-95919685D01*
G37*
%TD.AperFunction*%
%TD*%
M02*
