M48
; DRILL file {KiCad 7.0.8} date Wed Nov 29 21:04:15 2023
; FORMAT={-:-/ absolute / inch / decimal}
; #@! TF.CreationDate,2023-11-29T21:04:15-06:00
; #@! TF.GenerationSoftware,Kicad,Pcbnew,7.0.8
; #@! TF.FileFunction,Plated,1,2,PTH
FMAT,2
INCH
; #@! TA.AperFunction,Plated,PTH,ViaDrill
T1C0.0157
; #@! TA.AperFunction,Plated,PTH,ComponentDrill
T2C0.0394
%
G90
G05
T1
X4.0551Y-4.0709
X4.0748Y-3.7126
X4.1535Y-4.2205
X4.1535Y-4.4449
X4.4803Y-4.437
X4.4961Y-4.0984
X4.5394Y-3.6024
X4.5748Y-3.8543
X4.5748Y-3.9094
X4.5984Y-4.0669
X4.6575Y-4.0827
X4.685Y-3.5512
X4.685Y-3.8071
X4.689Y-3.6299
X4.7126Y-4.0236
X4.7402Y-3.7323
X4.7441Y-4.2953
X4.7913Y-3.8228
X4.815Y-4.0276
X4.8307Y-3.8425
X4.8642Y-3.4744
X4.8839Y-3.563
X4.8839Y-3.622
X4.8839Y-3.6811
X4.8839Y-3.7402
X4.8917Y-4.0256
X4.8937Y-4.3031
X4.9055Y-3.3543
X4.9606Y-4.5039
X4.9724Y-3.563
X4.9724Y-3.622
X4.9724Y-3.6811
X4.9724Y-3.7402
X4.9724Y-3.9843
X4.9724Y-4.315
X5.0Y-3.3366
X5.0Y-3.4154
X5.0492Y-4.5079
X5.0512Y-3.4252
X5.0512Y-3.563
X5.0512Y-3.622
X5.0512Y-3.6811
X5.0512Y-3.7402
X5.0669Y-3.9803
X5.0748Y-4.0394
X5.0984Y-3.8465
X5.0984Y-4.1496
X5.1201Y-3.5039
X5.122Y-4.1063
X5.126Y-4.2953
X5.128Y-4.5177
X5.1594Y-3.2776
X5.1614Y-3.7402
X5.1614Y-3.8465
X5.1654Y-3.6929
X5.1693Y-3.6063
X5.1969Y-3.3858
X5.1969Y-3.5669
X5.2185Y-3.4646
X5.2244Y-4.2598
X5.2323Y-3.2205
X5.2323Y-3.3504
X5.252Y-3.7598
X5.2854Y-4.5079
X5.3307Y-4.0
X5.4528Y-3.8268
X5.622Y-3.8189
X5.622Y-3.8976
X5.622Y-3.9764
X5.622Y-4.0551
X5.622Y-4.1339
X5.622Y-4.2126
X5.622Y-4.2913
X5.622Y-4.3701
X5.622Y-4.4488
X5.622Y-4.5276
T2
G00X4.0827Y-3.311
M15
G01X4.0827Y-3.3898
M16
G05
G00X4.1614Y-3.5354
M15
G01X4.2402Y-3.5354
M16
G05
G00X4.3189Y-3.311
M15
G01X4.3189Y-3.3898
M16
G05
T0
M30
