M48
; DRILL file {KiCad 8.0.0} date 2024-03-03T14:06:44-0600
; FORMAT={-:-/ absolute / inch / decimal}
; #@! TF.CreationDate,2024-03-03T14:06:44-06:00
; #@! TF.GenerationSoftware,Kicad,Pcbnew,8.0.0
; #@! TF.FileFunction,Plated,1,2,PTH
FMAT,2
INCH
; #@! TA.AperFunction,Plated,PTH,ViaDrill
T1C0.0157
%
G90
G05
T1
X5.2972Y-4.5354
X5.4646Y-4.5354
X5.4646Y-4.6142
X5.4744Y-4.3386
X5.4843Y-4.4272
X5.5236Y-4.5551
X5.5276Y-4.1634
X5.5276Y-5.1693
X5.5543Y-4.8526
X5.5552Y-4.6302
X5.5582Y-5.1142
X5.5632Y-4.6971
X5.5632Y-4.7394
X5.565Y-4.1102
X5.5711Y-5.0079
X5.5728Y-4.0039
X5.584Y-4.914
X5.5907Y-4.1468
X5.6122Y-3.7579
X5.6122Y-3.8366
X5.6122Y-3.9154
X5.6319Y-4.2185
X5.6319Y-4.3976
X5.6358Y-4.1087
X5.6496Y-4.3386
X5.6614Y-4.0728
X5.6693Y-4.1929
X5.6693Y-4.2323
X5.6713Y-4.2697
X5.6772Y-4.311
X5.6969Y-4.9724
X5.7008Y-4.4272
X5.7106Y-3.7776
X5.7106Y-3.8858
X5.7185Y-4.3268
X5.7205Y-3.689
X5.745Y-5.1112
X5.7498Y-4.4067
X5.7546Y-3.9567
X5.7567Y-4.3078
X5.7787Y-4.8764
X5.7795Y-3.7776
X5.7795Y-3.8858
X5.8134Y-4.7748
X5.8189Y-3.689
X5.8363Y-5.1268
X5.8441Y-4.839
X5.8479Y-4.4002
X5.8583Y-4.5551
X5.8586Y-4.9886
X5.8586Y-4.7158
X5.8681Y-3.9154
X5.8747Y-4.3686
X5.8778Y-5.1257
X5.8822Y-4.2593
X5.8961Y-4.9707
X5.9075Y-3.9252
X5.9075Y-4.4961
X5.9094Y-4.9134
X5.9134Y-4.4134
X5.9173Y-4.2381
X5.9299Y-4.9467
X5.937Y-4.8602
X5.9537Y-4.2457
X5.9543Y-4.9798
X5.9724Y-5.0984
X5.9939Y-4.9941
X6.0118Y-4.4724
X6.0141Y-3.9102
X6.0157Y-4.6053
X6.0256Y-4.939
X6.0354Y-4.3976
X6.0453Y-4.5472
X6.0558Y-4.6302
X6.0945Y-4.2992
X6.0984Y-3.9331
X6.1142Y-4.6043
X6.1723Y-4.5245
X6.2137Y-4.576
X6.2866Y-4.8399
X6.334Y-4.8515
X6.3602Y-4.5945
X6.385Y-4.9683
X6.439Y-4.9291
X6.4587Y-4.5472
X6.4862Y-5.0886
X6.5079Y-4.7717
X6.5177Y-4.9291
X6.5276Y-3.7579
X6.5276Y-3.9843
M30
